<svg width="37" height="37" viewBox="0 0 37 37" fill="none" xmlns="http://www.w3.org/2000/svg">
<g clip-path="url(#clip0_1_623)">
<path d="M35.9535 0.935406C35.3503 0.332205 34.5483 0 33.6953 0C32.8423 0 32.0403 0.332205 31.4371 0.935334L28.8209 3.55157C26.5834 2.90949 24.0713 3.46709 22.3119 5.22647C21.511 6.02739 20.9594 6.98433 20.6561 8.00031L12.4838 12.3178L10.0714 9.90538C9.78747 9.62152 9.32728 9.62152 9.04335 9.90538C8.75949 10.1892 8.75949 10.6495 9.04335 10.9334L11.1385 13.0286L5.94409 15.7728C4.24802 16.6689 3.31001 18.4436 3.39174 20.2437L0.477705 21.9146C0.129457 22.1143 0.00906278 22.5585 0.208733 22.9068C0.343075 23.141 0.587983 23.2722 0.840045 23.2722C0.96268 23.2722 1.08698 23.2411 1.20094 23.1758L3.70552 21.7397C3.77338 21.916 3.85099 22.0904 3.9414 22.2616C4.03144 22.432 4.18551 22.5597 4.36972 22.6166C4.55327 22.6734 4.75301 22.655 4.92363 22.5648L15.2297 17.1199L19.8713 21.7615L14.4266 32.0676C14.239 32.4226 14.3747 32.8624 14.7296 33.0499C14.9457 33.1671 15.1731 33.2762 15.3995 33.36L13.9365 35.9115C13.7368 36.2597 13.8572 36.7039 14.2054 36.9036C14.3195 36.9689 14.4438 37 14.5663 37C14.8183 37 15.0633 36.8688 15.1976 36.6346L16.9025 33.6613C16.9609 33.6634 17.0192 33.6648 17.0775 33.6648C18.8019 33.6648 20.4712 32.7345 21.3312 31.1067L24.057 25.9471L25.9553 27.8455C26.0973 27.9874 26.2833 28.0584 26.4693 28.0584C26.6554 28.0584 26.8414 27.9874 26.9834 27.8455C27.2672 27.5615 27.2672 27.1013 26.9834 26.8174L24.7678 24.6018L29.2537 16.1108C30.1331 15.7913 30.9582 15.281 31.6623 14.5769C33.4217 12.8175 33.9793 10.3054 33.3372 8.06788L35.9534 5.45165C37.1987 4.20651 37.1986 2.18047 35.9535 0.935406ZM6.62317 17.0582L20.3812 9.78975C20.3659 10.7053 20.5388 11.6229 20.9005 12.4798L4.9576 20.9025C4.55233 19.4228 5.21161 17.8041 6.62317 17.0582ZM16.5752 16.4091L21.6108 13.7488C21.8187 14.0389 22.0515 14.3165 22.3119 14.5769C22.6064 14.8714 22.9228 15.1305 23.2545 15.3577L20.5821 20.4162L16.5752 16.4091ZM20.0458 30.4277C19.2791 31.879 17.5896 32.5352 16.0767 32.0565L24.5375 16.0419C25.3221 16.3536 26.1545 16.5104 26.9872 16.5104C27.127 16.5104 27.2667 16.5044 27.4063 16.4956L20.0458 30.4277ZM30.6344 13.5489C28.6232 15.56 25.351 15.5599 23.3399 13.5489C21.3289 11.5378 21.3289 8.2656 23.3399 6.25452C24.3455 5.24894 25.6663 4.74619 26.9872 4.74619C28.308 4.74619 29.6288 5.24894 30.6344 6.25452C32.6454 8.2656 32.6454 11.5378 30.6344 13.5489ZM34.9255 4.42367L32.7272 6.62199C32.4421 6.12263 32.0881 5.65218 31.6624 5.22639C31.2367 4.80068 30.7662 4.44679 30.2668 4.16171L32.4651 1.96338C33.1434 1.28503 34.2471 1.2851 34.9254 1.96338C35.6038 2.64174 35.6038 3.74538 34.9255 4.42367Z" fill="#F55853"/>
<path d="M26.9869 7.06055C26.228 7.06055 25.5145 7.35611 24.9778 7.89276C23.87 9.00059 23.87 10.803 24.9778 11.9109C25.5144 12.4476 26.228 12.7431 26.9869 12.7431C27.7459 12.7431 28.4594 12.4476 28.9961 11.9109C29.5327 11.3743 29.8283 10.6608 29.8283 9.90189C29.8283 9.14296 29.5328 8.4294 28.9961 7.89276C28.4595 7.35611 27.7459 7.06055 26.9869 7.06055ZM27.968 10.8829C27.706 11.1449 27.3576 11.2892 26.9869 11.2892C26.6163 11.2892 26.2679 11.1449 26.0058 10.8829C25.4649 10.3419 25.4649 9.46165 26.0058 8.92081C26.2678 8.65878 26.6163 8.51439 26.9869 8.51439C27.3576 8.51439 27.706 8.6587 27.968 8.92081C28.2301 9.18285 28.3744 9.53124 28.3744 9.90189C28.3744 10.2724 28.2301 10.6208 27.968 10.8829Z" fill="#F55853"/>
<path d="M6.06059 3.02596C6.80514 3.02596 7.40878 2.42233 7.40878 1.67778C7.40878 0.933224 6.80521 0.32959 6.06059 0.32959C5.31596 0.32959 4.7124 0.933224 4.7124 1.67778C4.7124 2.42233 5.31596 3.02596 6.06059 3.02596Z" fill="#F55853"/>
<path d="M19.946 3.43044C20.2613 3.43044 20.5169 3.17484 20.5169 2.85947C20.5169 2.54418 20.2613 2.28857 19.946 2.28857C19.6306 2.28857 19.375 2.54418 19.375 2.85947C19.375 3.17484 19.6306 3.43044 19.946 3.43044Z" fill="#F55853"/>
<path d="M0.813626 10.4405L1.95781 10.956C2.0068 10.9781 2.04561 11.0217 2.06527 11.0769L2.52329 12.3647C2.58796 12.5467 2.81683 12.5467 2.88151 12.3647L3.33953 11.0769C3.35911 11.0217 3.39792 10.978 3.44691 10.956L4.59109 10.4405C4.75275 10.3677 4.75275 10.1101 4.59109 10.0373L3.44691 9.52178C3.39792 9.49967 3.35911 9.45602 3.33953 9.40088L2.88151 8.11304C2.81683 7.93107 2.58796 7.93107 2.52329 8.11304L2.06527 9.40088C2.04568 9.45602 2.0068 9.49974 1.95781 9.52178L0.813626 10.0373C0.651968 10.1101 0.651968 10.3677 0.813626 10.4405Z" fill="#F55853"/>
<path d="M11.0338 3.70195L12.606 4.39693C12.6734 4.4267 12.7267 4.4856 12.7536 4.55996L13.3829 6.29607C13.4717 6.54134 13.7862 6.54134 13.8751 6.29607L14.5044 4.55996C14.5314 4.4856 14.5847 4.4267 14.6521 4.39693L16.2243 3.70195C16.4464 3.60381 16.4464 3.25658 16.2243 3.15844L14.6521 2.46346C14.5848 2.43369 14.5314 2.37479 14.5044 2.30043L13.8751 0.564323C13.7862 0.319054 13.4717 0.319054 13.3829 0.564323L12.7536 2.30043C12.7266 2.37479 12.6733 2.43369 12.606 2.46346L11.0338 3.15844C10.8117 3.25658 10.8117 3.60381 11.0338 3.70195Z" fill="#F55853"/>
</g>
<defs>
<clipPath id="clip0_1_623">
<rect width="37" height="37" fill="white"/>
</clipPath>
</defs>
</svg>
