<svg width="117" height="117" viewBox="0 0 117 117" fill="none" xmlns="http://www.w3.org/2000/svg">
<g clip-path="url(#clip0_1_631)">
<path d="M91.8564 38.2474L52.639 45.9679C51.0688 46.2771 49.6345 47.2773 48.8016 48.6433L27.996 82.7719C27.0634 84.3015 27.0427 86.0526 27.9414 87.3416C28.8402 88.6306 30.4903 89.2167 32.248 88.8706L48.526 85.666L56.6009 97.2475C57.9675 99.2077 56.5153 98.7336 61.2967 92.5064C69.3827 81.9756 68.9908 84.0569 73.9385 80.6073C78.8863 77.1576 80.349 74.7858 88.4752 73.0061C95.9717 70.6729 96.9143 72.0534 95.5476 70.0932L87.4727 58.5117L91.3096 52.2178L94.1217 56.2511L93.6286 56.5949C92.3067 57.5166 91.981 59.3418 92.9027 60.6638L96.4637 65.7712C98.0927 68.1077 101.319 68.6831 103.655 67.0541C105.992 65.4251 106.567 62.199 104.938 59.8627L101.377 54.7553C100.455 53.4333 98.6302 53.1077 97.3082 54.0295L96.815 54.3733L93.1767 49.155L96.1084 44.3461C97.0409 42.8165 97.0618 41.0655 96.163 39.7764C95.2643 38.4871 93.6141 37.9013 91.8564 38.2474ZM102.245 61.7405C102.838 62.5918 102.629 63.7673 101.777 64.3609C100.926 64.9544 99.7505 64.7447 99.157 63.8934L95.8023 59.0819L98.8902 56.929L102.245 61.7405ZM90.5983 68.7349C89.3184 68.934 87.8187 69.3644 86.0911 70.0267C81.9557 71.6122 76.9535 74.3851 72.0057 77.8348C67.0579 81.2845 62.7263 85.0193 59.8088 88.3512C58.59 89.7431 57.6676 91.0015 57.0381 92.1336L46.2308 76.633C46.1678 76.2444 46.653 74.5174 49.6526 71.2252C52.3918 68.219 56.349 64.856 60.7953 61.756C65.2418 58.6558 69.7656 56.1055 73.5335 54.575C77.6599 52.8988 79.448 53.0409 79.791 53.2344L90.5983 68.7349ZM85.7887 72.1523C83.0494 75.1586 76.5071 74.8139 72.0608 77.9139C67.6146 81.0139 65.6757 87.272 61.9078 88.8025C57.9368 90.4155 59.7504 95.5356 59.3143 95.3555C59.2961 94.8842 59.8539 93.1656 62.7408 89.9972C65.48 86.991 69.4371 83.628 73.8834 80.528C78.33 77.4278 82.8537 74.8775 86.6217 73.347C90.5927 71.7338 94.6347 70.4315 95.0708 70.6116C95.089 71.083 88.6754 68.9842 85.7887 72.1523ZM85.4213 55.569L82.4595 51.321C81.0927 49.3607 77.9994 49.339 73.0029 51.2547C68.8676 52.8401 63.8654 55.6131 58.9175 59.0628C53.9697 62.5125 49.6381 66.2472 46.7206 69.5792C43.1953 73.605 42.146 76.515 43.5127 78.4753L46.4745 82.7233L31.6139 85.649C31.1599 85.7384 30.7756 85.6655 30.6349 85.4637C30.4941 85.2618 30.5588 84.8761 30.7996 84.4809L51.6052 50.3523C51.7809 50.0643 52.0323 49.8063 52.3227 49.6038C52.6129 49.4014 52.9422 49.2546 53.2731 49.1895L84.8625 42.9706L89.2581 49.2751L85.4213 55.569ZM93.3049 42.637L91.1252 46.2125L88.3819 42.2779L92.4906 41.4691C92.9448 41.3796 93.3291 41.4524 93.4698 41.6543C93.6106 41.8559 93.5459 42.2417 93.3049 42.637Z" fill="#FED847"/>
<path d="M73.3197 65.8282C72.8735 66.1394 72.7639 66.7534 73.0751 67.1996L74.2739 68.919C74.585 69.3652 75.199 69.4748 75.6452 69.1636C76.0915 68.8525 76.201 68.2385 75.8899 67.7923L74.6911 66.0729C74.38 65.6267 73.766 65.5171 73.3197 65.8282Z" fill="#FED847"/>
<path d="M75.5556 60.9821C75.1093 61.2932 74.9998 61.9072 75.3109 62.3534L76.5097 64.0728C76.8208 64.5191 77.4348 64.6286 77.8811 64.3175C78.3273 64.0063 78.4368 63.3924 78.1257 62.9461L76.9269 61.2267C76.6158 60.7805 76.0018 60.6709 75.5556 60.9821Z" fill="#FED847"/>
<path d="M82.289 64.6744C81.8427 64.9856 81.7332 65.5996 82.0443 66.0458L83.2431 67.7652C83.5542 68.2114 84.1682 68.321 84.6145 68.0099C85.0607 67.6987 85.1702 67.0847 84.8591 66.6385L83.6603 64.9191C83.3492 64.4729 82.7351 64.3634 82.289 64.6744Z" fill="#FED847"/>
<path d="M57.2877 83.9843C56.544 84.5028 55.5206 84.3203 55.002 83.5766L53.4678 81.376C52.9492 80.6322 53.1317 79.6089 53.8755 79.0903C54.6192 78.5719 55.6426 78.7543 56.1612 79.4981L57.6954 81.6987C58.214 82.4424 58.0315 83.4658 57.2877 83.9843Z" fill="#FED847"/>
<path d="M52.9013 77.6925C52.1577 78.2109 51.1342 78.0285 50.6157 77.2847L50.0444 76.4654C49.5258 75.7216 49.7084 74.6983 50.4522 74.1797C51.1958 73.6612 52.2193 73.8437 52.7378 74.5875L53.3091 75.4068C53.8277 76.1506 53.6451 77.1739 52.9013 77.6925Z" fill="#FED847"/>
<path d="M62.4463 31.1525C63.408 32.5319 63.0695 34.4298 61.69 35.3916C60.3105 36.3534 58.4127 36.0149 57.4509 34.6354C56.4891 33.2559 56.8277 31.3581 58.2072 30.3963C59.5867 29.4345 61.4846 29.7732 62.4463 31.1525Z" fill="#FED847"/>
<path d="M18.3045 48.1912C18.7118 48.7753 18.5684 49.5791 17.9843 49.9863C17.4001 50.3936 16.5964 50.2502 16.1891 49.6661C15.7818 49.082 15.9252 48.2782 16.5094 47.871C17.0935 47.4637 17.8972 47.6071 18.3045 48.1912Z" fill="#FED847"/>
<path d="M31.1784 30.8438L33.6903 32.638C33.7979 32.7147 33.9262 32.7456 34.0454 32.7233L36.8309 32.2004C37.2244 32.1266 37.557 32.6036 37.3517 32.9474L35.8979 35.3802C35.8356 35.4844 35.8201 35.6154 35.8551 35.7429L36.67 38.7202C36.7851 39.141 36.3612 39.4365 36.0063 39.183L33.4944 37.3888C33.3868 37.312 33.2585 37.2812 33.1393 37.3035L30.3538 37.8264C29.9603 37.9002 29.6277 37.4232 29.833 37.0794L31.2868 34.6466C31.3491 34.5424 31.3646 34.4114 31.3296 34.2839L30.5147 31.3066C30.3996 30.8858 30.8236 30.5902 31.1784 30.8438Z" fill="#FED847"/>
<path d="M63.3643 11.0621L66.7727 13.4655C66.9187 13.5684 67.0934 13.6086 67.2566 13.5768L71.0669 12.8335C71.6051 12.7285 72.0536 13.3717 71.7689 13.8404L69.7539 17.1586C69.6676 17.3007 69.6449 17.4787 69.691 17.6511L70.7675 21.6803C70.9196 22.2495 70.3371 22.6557 69.8556 22.3161L66.4472 19.9127C66.3013 19.8099 66.1264 19.7695 65.9633 19.8014L62.1531 20.5447C61.6148 20.6497 61.1664 20.0066 61.451 19.5378L63.466 16.2196C63.5523 16.0775 63.5751 15.8995 63.5289 15.7271L62.4524 11.6979C62.3002 11.1286 62.8828 10.7224 63.3643 11.0621Z" fill="#FED847"/>
<path d="M20.8564 55.3892L24.2648 57.7926C24.4108 57.8955 24.5855 57.9356 24.7487 57.9039L28.5589 57.1606C29.0972 57.0556 29.5457 57.6987 29.261 58.1675L27.246 61.4856C27.1597 61.6278 27.137 61.8058 27.1831 61.9782L28.2596 66.0074C28.4117 66.5766 27.8292 66.9827 27.3477 66.6432L23.9394 64.2398C23.7934 64.137 23.6185 64.0966 23.4554 64.1285L19.6452 64.8718C19.1069 64.9768 18.6584 64.3335 18.9431 63.8648L20.9582 60.5467C21.0444 60.4046 21.0672 60.2265 21.0211 60.0541L19.9445 56.025C19.7924 55.4558 20.375 55.0496 20.8564 55.3892Z" fill="#FED847"/>
</g>
<defs>
<clipPath id="clip0_1_631">
<rect width="83.1665" height="83.1665" fill="white" transform="translate(0.689453 48.2549) rotate(-34.8848)"/>
</clipPath>
</defs>
</svg>
