<svg width="76" height="53" viewBox="0 0 76 53" fill="none" xmlns="http://www.w3.org/2000/svg">
<path d="M16.5682 19.6313C16.9531 18.9647 17.9153 18.9647 18.3002 19.6313L31.6667 42.7827C32.0516 43.4493 31.5704 44.2827 30.8006 44.2827H4.06779C3.29799 44.2827 2.81687 43.4493 3.20177 42.7827L16.5682 19.6313Z" fill="#FED847"/>
<path d="M57.0155 19.6313C57.4004 18.9647 58.3626 18.9647 58.7475 19.6313L72.1139 42.7827C72.4988 43.4493 72.0177 44.2827 71.2479 44.2827H44.5151C43.7453 44.2827 43.2641 43.4493 43.649 42.7827L57.0155 19.6313Z" fill="#FED847"/>
<path d="M39.2214 33.3687C38.8365 34.0353 37.8742 34.0353 37.4893 33.3687L24.1229 10.2173C23.738 9.55067 24.2191 8.71734 24.9889 8.71734L51.7218 8.71734C52.4916 8.71734 52.9727 9.55067 52.5878 10.2173L39.2214 33.3687Z" fill="#F55853"/>
</svg>
