<svg width="32" height="33" viewBox="0 0 32 33" fill="" xmlns="http://www.w3.org/2000/svg">
<path d="M20.875 3.9834H11.125C6.63838 3.9834 3 7.62177 3 12.1084V21.8584C3 26.345 6.63838 29.9834 11.125 29.9834H20.875C25.3616 29.9834 29 26.345 29 21.8584V12.1084C29 7.62177 25.3616 3.9834 20.875 3.9834ZM26.5625 21.8584C26.5625 24.9946 24.0112 27.5459 20.875 27.5459H11.125C7.98875 27.5459 5.4375 24.9946 5.4375 21.8584V12.1084C5.4375 8.97215 7.98875 6.4209 11.125 6.4209H20.875C24.0112 6.4209 26.5625 8.97215 26.5625 12.1084V21.8584Z" fill=""/>
<path d="M16 10.4834C12.4104 10.4834 9.5 13.3938 9.5 16.9834C9.5 20.573 12.4104 23.4834 16 23.4834C19.5896 23.4834 22.5 20.573 22.5 16.9834C22.5 13.3938 19.5896 10.4834 16 10.4834ZM16 21.0459C13.7607 21.0459 11.9375 19.2226 11.9375 16.9834C11.9375 14.7425 13.7607 12.9209 16 12.9209C18.2393 12.9209 20.0625 14.7425 20.0625 16.9834C20.0625 19.2226 18.2393 21.0459 16 21.0459Z" fill=""/>
<path d="M22.9877 10.8621C23.4661 10.8621 23.8538 10.4744 23.8538 9.996C23.8538 9.51766 23.4661 9.12988 22.9877 9.12988C22.5094 9.12988 22.1216 9.51766 22.1216 9.996C22.1216 10.4744 22.5094 10.8621 22.9877 10.8621Z" fill=""/>
</svg>
