<svg width="142" height="36" viewBox="0 0 142 36" fill="none" xmlns="http://www.w3.org/2000/svg">
<path d="M53.5393 6.92864C53.466 5.82232 54.3078 4.86822 55.414 4.80383L137.888 0.00342575C138.975 -0.0598638 139.913 0.761245 139.993 1.8481L141.994 28.7689C142.077 29.8783 141.237 30.841 140.127 30.9093L57.4554 35.9962C56.3595 36.0636 55.4151 35.2322 55.3425 34.1359L53.5393 6.92864Z" fill="#FEC830"/>
<path d="M3.77275 34.2611C2.66105 34.3247 1.71244 33.4749 1.65592 32.3622C1.29254 25.2083 0.352196 10.7616 0.00438552 5.47613C-0.0683729 4.37045 0.772924 3.42738 1.87838 3.36173L44.8003 0.812516C45.4586 0.773416 46.0937 1.06241 46.497 1.58457L56.6491 14.7301C57.1555 15.3858 57.2043 16.2865 56.7718 16.9932L48.2861 30.8566C47.9446 31.4145 47.3516 31.7695 46.6988 31.8069L3.77275 34.2611Z" fill="white"/>
<path d="M10.9688 18.565C10.8958 17.5808 11.0267 16.5922 11.3533 15.66C11.6625 14.7645 12.1496 13.9394 12.7858 13.2334C13.4415 12.5191 14.2326 11.9394 15.1141 11.5274C16.0574 11.0791 17.0795 10.8163 18.1239 10.7534C19.3236 10.6734 20.3962 10.7779 21.3417 11.067C22.3086 11.3662 23.2145 11.8324 24.0175 12.4441L21.8954 15.3444C21.3885 14.9677 20.8248 14.6725 20.2251 14.4697C19.6295 14.2858 19.0035 14.2178 18.3818 14.2696C17.8948 14.2936 17.4186 14.4208 16.9854 14.6426C16.5521 14.8644 16.1719 15.1756 15.8704 15.5552C15.2202 16.3443 14.932 17.2784 15.0056 18.3575C15.0838 19.5064 15.5103 20.4302 16.2852 21.129C17.0602 21.8278 18.0094 22.1391 19.1327 22.0631C20.0505 22.0008 20.7965 21.7468 21.3707 21.3011L21.2502 19.5337L18.4256 19.7232L18.2336 16.903L24.7758 16.4653L25.2096 22.8243C23.5285 24.3811 21.5256 25.2365 19.2008 25.3904C17.7402 25.4887 16.4006 25.2663 15.1821 24.7232C13.9893 24.2031 12.9678 23.3619 12.2336 22.2953C11.4865 21.2189 11.0649 19.9754 10.9688 18.565Z" fill="#1A1A1A"/>
<path d="M28.3991 17.4194C28.3288 16.4413 28.4634 15.4593 28.7945 14.5351C29.11 13.6363 29.5998 12.8072 30.2364 12.0945C30.8929 11.3741 31.6851 10.7877 32.5687 10.3685C34.4662 9.46657 36.6405 9.31948 38.6442 9.95749C39.5704 10.2523 40.429 10.7247 41.1711 11.3479C41.8928 11.9678 42.4832 12.7235 42.908 13.571C43.3566 14.4512 43.6199 15.4125 43.6818 16.3966C43.7515 17.3749 43.6171 18.3569 43.2871 19.2815C42.9741 20.1811 42.4858 21.011 41.8499 21.7241C41.1956 22.4434 40.4053 23.0287 39.5237 23.4468C38.5869 23.9003 37.5689 24.1661 36.5281 24.2288C35.0945 24.3249 33.7699 24.0867 32.5545 23.5142C31.373 22.9686 30.3632 22.1154 29.633 21.0456C28.8993 19.9691 28.473 18.7162 28.3991 17.4194ZM32.4333 17.1492C32.5038 18.1913 32.9079 19.0632 33.6456 19.7646C34.3833 20.466 35.2776 20.7814 36.3287 20.7107C37.3928 20.64 38.2367 20.2132 38.8603 19.4303C39.484 18.6475 39.7597 17.7254 39.6874 16.6641C39.6164 15.622 39.2124 14.7502 38.4751 14.0487C37.7379 13.3473 36.8359 13.0321 35.7691 13.1033C34.7184 13.1736 33.8813 13.6002 33.2576 14.383C32.634 15.1658 32.3592 16.0879 32.4333 17.1492Z" fill="#1A1A1A"/>
<path d="M65.9088 27.2193L64.9484 13.1414L68.8836 12.8785L69.8474 26.9564L65.9088 27.2193Z" fill="#1A1A1A"/>
<path d="M71.1443 16.1687L70.9106 12.7414L83.3801 11.9074L83.6139 15.3341L79.3433 15.6183L80.07 26.2728L76.1348 26.5356L75.4081 15.8812L71.1443 16.1687Z" fill="#1A1A1A"/>
<path d="M83.3499 20.5981C83.2938 19.8365 83.382 19.0711 83.6099 18.3416C83.8196 17.6534 84.1628 17.0123 84.6201 16.4541C85.082 15.9033 85.6529 15.4521 86.2978 15.1284C86.983 14.7807 87.7335 14.5776 88.502 14.532C89.4207 14.4706 90.2513 14.5747 90.9939 14.8442C91.694 15.0873 92.3233 15.4964 92.8271 16.0358C93.3141 16.5703 93.6987 17.1882 93.9619 17.8593C94.2458 18.5841 94.4137 19.3483 94.4596 20.1244C94.4839 20.4713 94.4947 20.7335 94.494 20.911L87.1389 21.4027C87.3315 21.9885 87.6458 22.4231 88.0818 22.7064C88.5178 22.9898 89.0388 23.111 89.6449 23.0701C90.4998 23.0109 91.2864 22.5788 92.0048 21.7737L94.2562 23.395C93.1859 24.9322 91.6429 25.7682 89.6274 25.903C88.4843 25.9799 87.4516 25.8124 86.5294 25.4006C85.6232 25.004 84.8516 24.357 84.307 23.5371C83.7453 22.7044 83.4263 21.7248 83.3499 20.5981ZM86.9463 19.4505L90.7622 19.195C90.6478 18.5909 90.4102 18.1239 90.0497 17.7939C89.6892 17.4638 89.2476 17.3159 88.725 17.3502C88.4893 17.3617 88.2588 17.4228 88.0489 17.5295C87.8389 17.6361 87.6543 17.7858 87.5073 17.9687C87.1917 18.3476 87.0047 18.8416 86.9463 19.4505Z" fill="#1A1A1A"/>
<path d="M95.8343 19.7631C95.7782 19.0013 95.8661 18.2358 96.0936 17.506C96.3036 16.8179 96.6467 16.1768 97.1038 15.6185C97.5657 15.068 98.1364 14.6169 98.7807 14.2928C99.4661 13.945 100.217 13.7421 100.986 13.697C101.904 13.6356 102.735 13.7395 103.478 14.0086C104.178 14.2508 104.807 14.6592 105.311 15.1982C105.799 15.7323 106.183 16.35 106.446 17.021C106.73 17.7469 106.898 18.5123 106.944 19.2894C106.968 19.6364 106.979 19.8986 106.978 20.076L99.6233 20.5684C99.8159 21.1538 100.13 21.5881 100.566 21.8715C101.002 22.1548 101.523 22.2762 102.129 22.2358C102.988 22.1775 103.775 21.7449 104.491 20.9381L106.742 22.5593C105.671 24.0966 104.128 24.9326 102.113 25.0673C100.97 25.1443 99.9369 24.9768 99.0151 24.5649C98.1089 24.1682 97.3373 23.5213 96.7926 22.7015C96.2305 21.8688 95.911 20.8893 95.8343 19.7631ZM99.4307 18.6149L103.247 18.3593C103.132 17.7558 102.894 17.2887 102.533 16.9582C102.172 16.6278 101.731 16.4799 101.209 16.5145C100.973 16.5261 100.743 16.5873 100.533 16.694C100.323 16.8008 100.138 16.9507 99.9917 17.1337C99.6751 17.5136 99.4881 18.0073 99.4307 18.6149Z" fill="#1A1A1A"/>
<path d="M109.135 24.3279L108.394 13.448L112.25 13.1898L112.355 14.731C113.215 13.4767 114.27 12.8077 115.52 12.7241C116.683 12.6458 117.621 12.9413 118.334 13.6108C119.047 14.2802 119.446 15.2365 119.531 16.4797L120.016 23.5994L116.16 23.8569L115.756 17.9802C115.716 17.3989 115.545 16.9594 115.241 16.6618C114.938 16.3643 114.551 16.2308 114.081 16.2615C113.597 16.2944 113.216 16.4806 112.94 16.82C112.664 17.1594 112.545 17.6166 112.584 18.1917L112.985 24.0684L109.135 24.3279Z" fill="#1A1A1A"/>
<path d="M121.275 22.0976L122.564 19.687C123.888 20.4102 125.175 20.73 126.424 20.6464C127.071 20.6019 127.381 20.3795 127.354 19.9792C127.341 19.7884 127.198 19.6396 126.926 19.5329C126.653 19.4261 126.185 19.312 125.528 19.1899C125.03 19.0956 124.605 19.0027 124.254 18.911C123.883 18.8124 123.521 18.6828 123.172 18.5234C122.845 18.3829 122.541 18.1927 122.272 17.9596C122.027 17.7308 121.828 17.458 121.685 17.1557C121.517 16.8037 121.42 16.4224 121.4 16.0334C121.321 14.8814 121.666 13.9567 122.435 13.2592C123.204 12.5618 124.243 12.1695 125.551 12.0823C126.364 12.0285 127.18 12.0905 127.976 12.2664C128.745 12.4293 129.486 12.7062 130.172 13.0878L129.019 15.6004C128.449 15.3457 127.855 15.1462 127.246 15.0046C126.652 14.8685 126.137 14.8151 125.702 14.8445C125.411 14.8636 125.193 14.9261 125.047 15.032C124.979 15.0768 124.924 15.1391 124.888 15.2123C124.853 15.2854 124.838 15.3667 124.845 15.4476C124.858 15.6393 124.999 15.7881 125.269 15.894C125.538 15.9998 126.013 16.1264 126.694 16.2736C127.192 16.3741 127.617 16.4736 127.969 16.5719C128.339 16.6778 128.701 16.8116 129.051 16.9722C129.379 17.1123 129.682 17.3023 129.951 17.5353C130.194 17.7606 130.393 18.0284 130.537 18.3253C130.705 18.6657 130.801 19.036 130.821 19.4141C130.902 20.6026 130.561 21.5425 129.799 22.2337C129.036 22.9249 127.967 23.3165 126.592 23.4086C124.629 23.5389 122.857 23.1019 121.275 22.0976Z" fill="#1A1A1A"/>
</svg>
