<svg width="34" height="34" viewBox="0 0 34 34" fill="none" xmlns="http://www.w3.org/2000/svg">
<path d="M34 26.7141C34 27.8241 33.1002 28.724 31.9902 28.724H2.00979C0.899805 28.724 0 27.8241 0 26.7141V7.28597C0 6.17593 0.899805 5.27612 2.00979 5.27612H31.9902C33.1003 5.27612 34 6.17599 34 7.28597V26.7141Z" fill="white"/>
<path opacity="0.15" d="M1.42886 26.7141V7.28598C1.42886 6.17593 2.32873 5.27612 3.43878 5.27612H2.00972C0.899805 5.27612 0 6.17593 0 7.28598V26.7141C0 27.8242 0.899805 28.724 2.00979 28.724H3.43885C2.3288 28.724 1.42886 27.8241 1.42886 26.7141Z" fill="#202121"/>
<path d="M27.1254 16.7375C27.1254 19.8946 24.5754 22.475 21.3879 22.475C18.2307 22.475 15.6504 19.8946 15.6504 16.7375C15.6504 13.5804 18.2004 11 21.3575 11C24.5754 11 27.1254 13.5804 27.1254 16.7375Z" fill="#FFB600"/>
<path d="M21.3879 11C24.545 11 27.1254 13.5804 27.1254 16.7375C27.1254 19.8946 24.5754 22.475 21.3879 22.475C18.2307 22.475 15.6504 19.8946 15.6504 16.7375" fill="#F7981D"/>
<path d="M21.3872 11C24.5443 11 27.1247 13.5804 27.1247 16.7375C27.1247 19.8946 24.5747 22.475 21.3872 22.475" fill="#FF8500"/>
<path d="M13.6768 11C10.55 11.0304 8 13.5804 8 16.7375C8 19.8946 10.55 22.475 13.7375 22.475C15.225 22.475 16.5607 21.8982 17.5929 20.9875C17.8054 20.8054 17.9875 20.5929 18.1696 20.3804H16.9857C16.8339 20.1982 16.6821 19.9857 16.5607 19.8036H18.5946C18.7161 19.6214 18.8375 19.4089 18.9286 19.1964H16.2268C16.1357 19.0143 16.0446 18.8018 15.9839 18.5893H19.1411C19.3232 18.0125 19.4446 17.4054 19.4446 16.7679C19.4446 16.3429 19.3839 15.9482 19.3232 15.5536H15.8018C15.8321 15.3411 15.8929 15.1589 15.9536 14.9464H19.1107C19.05 14.7339 18.9589 14.5214 18.8679 14.3393H16.1964C16.2875 14.1268 16.4089 13.9446 16.5304 13.7321H18.5643C18.4429 13.5196 18.2911 13.3071 18.1089 13.125H16.9857C17.1679 12.9125 17.35 12.7304 17.5625 12.5482C16.5607 11.6071 15.1946 11.0607 13.7071 11.0607C13.7071 11 13.7071 11 13.6768 11Z" fill="#FF5050"/>
<path d="M8 16.7381C8 19.8952 10.55 22.4756 13.7375 22.4756C15.225 22.4756 16.5607 21.8988 17.5929 20.9881C17.8054 20.8059 17.9875 20.5934 18.1696 20.3809H16.9857C16.8339 20.1988 16.6821 19.9863 16.5607 19.8041H18.5946C18.7161 19.622 18.8375 19.4095 18.9286 19.197H16.2268C16.1357 19.0148 16.0446 18.8023 15.9839 18.5898H19.1411C19.3232 18.0131 19.4446 17.4059 19.4446 16.7684C19.4446 16.3434 19.3839 15.9488 19.3232 15.5541H15.8018C15.8321 15.3416 15.8929 15.1595 15.9536 14.947H19.1107C19.05 14.7345 18.9589 14.522 18.8679 14.3399H16.1964C16.2875 14.1274 16.4089 13.9452 16.5304 13.7327H18.5643C18.4429 13.5202 18.2911 13.3077 18.1089 13.1256H16.9857C17.1679 12.9131 17.35 12.7309 17.5625 12.5488C16.5607 11.6077 15.1946 11.0613 13.7071 11.0613H13.6768" fill="#E52836"/>
<path d="M13.7375 22.4756C15.225 22.4756 16.5607 21.8988 17.5928 20.9881C17.8053 20.8059 17.9875 20.5934 18.1696 20.3809H16.9857C16.8339 20.1988 16.6821 19.9863 16.5607 19.8041H18.5946C18.716 19.622 18.8375 19.4095 18.9285 19.197H16.2268C16.1357 19.0148 16.0446 18.8023 15.9839 18.5898H19.141C19.3232 18.0131 19.4446 17.4059 19.4446 16.7684C19.4446 16.3434 19.3839 15.9488 19.3232 15.5541H15.8018C15.8321 15.3416 15.8928 15.1595 15.9535 14.947H19.1107C19.05 14.7345 18.9589 14.522 18.8678 14.3399H16.1964C16.2875 14.1274 16.4089 13.9452 16.5303 13.7327H18.5643C18.4428 13.5202 18.291 13.3077 18.1089 13.1256H16.9857C17.1678 12.9131 17.35 12.7309 17.5625 12.5488C16.5607 11.6077 15.1946 11.0613 13.7071 11.0613H13.6768" fill="#CB2026"/>
<path d="M15.771 18.1946L15.8621 17.6786C15.8317 17.6786 15.771 17.7089 15.7103 17.7089C15.4978 17.7089 15.4674 17.5875 15.4978 17.5268L15.6799 16.4643H16.0138L16.1049 15.8875H15.8013L15.8621 15.5232H15.2549C15.2549 15.5232 14.8906 17.5268 14.8906 17.7696C14.8906 18.1339 15.1031 18.2857 15.3763 18.2857C15.5585 18.2857 15.7103 18.225 15.771 18.1946Z" fill="white"/>
<path d="M15.9834 17.2232C15.9834 18.0732 16.5602 18.2857 17.0459 18.2857C17.5013 18.2857 17.6834 18.1946 17.6834 18.1946L17.8048 17.6178C17.8048 17.6178 17.4709 17.7696 17.1673 17.7696C16.4995 17.7696 16.6209 17.2839 16.6209 17.2839H17.8655C17.8655 17.2839 17.9566 16.8893 17.9566 16.7375C17.9566 16.3428 17.7441 15.8571 17.0763 15.8571C16.4388 15.7964 15.9834 16.4643 15.9834 17.2232ZM17.0459 16.3428C17.3798 16.3428 17.3191 16.7375 17.3191 16.7678H16.6513C16.6513 16.7375 16.712 16.3428 17.0459 16.3428Z" fill="white"/>
<path d="M20.9011 18.1946L21.0225 17.5268C21.0225 17.5268 20.7189 17.6786 20.5064 17.6786C20.0814 17.6786 19.8993 17.3446 19.8993 16.9804C19.8993 16.2518 20.2636 15.8571 20.6886 15.8571C20.9922 15.8571 21.235 16.0393 21.235 16.0393L21.3261 15.4018C21.3261 15.4018 20.9618 15.25 20.6279 15.25C19.9297 15.25 19.2314 15.8571 19.2314 17.0107C19.2314 17.7696 19.5957 18.2857 20.3243 18.2857C20.5672 18.2857 20.9011 18.1946 20.9011 18.1946Z" fill="white"/>
<path d="M12.4319 15.7966C12.0069 15.7966 11.7033 15.9181 11.7033 15.9181L11.6122 16.4341C11.6122 16.4341 11.8855 16.3127 12.2801 16.3127C12.4926 16.3127 12.6747 16.3431 12.6747 16.5252C12.6747 16.6466 12.6444 16.677 12.6444 16.677C12.6444 16.677 12.4622 16.677 12.3712 16.677C11.8551 16.677 11.2783 16.8895 11.2783 17.5877C11.2783 18.1341 11.6426 18.2555 11.8551 18.2555C12.2801 18.2555 12.4622 17.9823 12.4926 17.9823L12.4622 18.2252H13.0087L13.2515 16.5556C13.2515 15.827 12.6444 15.7966 12.4319 15.7966ZM12.5533 17.1627C12.5533 17.2538 12.4926 17.7395 12.1283 17.7395C11.9462 17.7395 11.8855 17.5877 11.8855 17.4966C11.8855 17.3448 11.9765 17.1323 12.4319 17.1323C12.523 17.1627 12.5533 17.1627 12.5533 17.1627Z" fill="white"/>
<path d="M13.8281 18.2552C13.9799 18.2552 14.7388 18.2855 14.7388 17.4659C14.7388 16.7069 14.0102 16.8587 14.0102 16.5552C14.0102 16.4034 14.1317 16.3427 14.3442 16.3427C14.4352 16.3427 14.7692 16.373 14.7692 16.373L14.8602 15.8266C14.8602 15.8266 14.6477 15.7659 14.2835 15.7659C13.8281 15.7659 13.3727 15.948 13.3727 16.5552C13.3727 17.2534 14.1317 17.1927 14.1317 17.4659C14.1317 17.648 13.9192 17.6784 13.7674 17.6784C13.4942 17.6784 13.221 17.5873 13.221 17.5873L13.1299 18.1337C13.1602 18.1944 13.312 18.2552 13.8281 18.2552Z" fill="white"/>
<path d="M25.9408 15.311L25.8194 16.1307C25.8194 16.1307 25.5765 15.8271 25.2426 15.8271C24.6962 15.8271 24.2104 16.495 24.2104 17.2842C24.2104 17.77 24.4533 18.286 24.9694 18.286C25.3337 18.286 25.5462 18.0432 25.5462 18.0432L25.5158 18.2557H26.1229L26.5783 15.3414L25.9408 15.311ZM25.6676 16.92C25.6676 17.2539 25.5158 17.6789 25.1819 17.6789C24.9694 17.6789 24.8479 17.4967 24.8479 17.1932C24.8479 16.7075 25.0604 16.4039 25.3337 16.4039C25.5462 16.4039 25.6676 16.5557 25.6676 16.92Z" fill="white"/>
<path d="M9.12268 18.2253L9.48697 16.0396L9.54768 18.2253H9.97268L10.762 16.0396L10.428 18.2253H11.0655L11.5513 15.311H10.5495L9.94233 17.1021L9.91197 15.311H9.03161L8.5459 18.2253H9.12268Z" fill="white"/>
<path d="M18.5331 18.225C18.7152 17.2232 18.7456 16.4036 19.1706 16.5554C19.2313 16.1607 19.3224 16.009 19.3831 15.8572C19.3831 15.8572 19.3527 15.8572 19.2617 15.8572C18.9884 15.8572 18.7759 16.2215 18.7759 16.2215L18.8367 15.8875H18.2599L17.8652 18.2554H18.5331V18.225Z" fill="white"/>
<path d="M22.2976 15.7966C21.8726 15.7966 21.569 15.9181 21.569 15.9181L21.478 16.4341C21.478 16.4341 21.7512 16.3127 22.1458 16.3127C22.3583 16.3127 22.5405 16.3431 22.5405 16.5252C22.5405 16.6466 22.5101 16.677 22.5101 16.677C22.5101 16.677 22.328 16.677 22.2369 16.677C21.7208 16.677 21.144 16.8895 21.144 17.5877C21.144 18.1341 21.5083 18.2555 21.7208 18.2555C22.1458 18.2555 22.328 17.9823 22.3583 17.9823L22.328 18.2252H22.8744L23.1173 16.5556C23.1476 15.827 22.5101 15.7966 22.2976 15.7966ZM22.4494 17.1627C22.4494 17.2538 22.3887 17.7395 22.0244 17.7395C21.8423 17.7395 21.7815 17.5877 21.7815 17.4966C21.7815 17.3448 21.8726 17.1323 22.328 17.1323C22.419 17.1627 22.419 17.1627 22.4494 17.1627Z" fill="white"/>
<path d="M23.6332 18.225C23.8153 17.2232 23.8457 16.4036 24.2707 16.5554C24.3314 16.1607 24.4225 16.009 24.4832 15.8572C24.4832 15.8572 24.4528 15.8572 24.3618 15.8572C24.0885 15.8572 23.876 16.2215 23.876 16.2215L23.9368 15.8875H23.36L22.9653 18.2554H23.6332V18.225Z" fill="white"/>
<path d="M14.8296 17.7696C14.8296 18.1339 15.0421 18.2857 15.3153 18.2857C15.5278 18.2857 15.7099 18.225 15.7707 18.1946L15.8617 17.6786C15.8314 17.6786 15.7707 17.7089 15.7099 17.7089C15.4974 17.7089 15.4671 17.5875 15.4974 17.5268L15.6796 16.4643H16.0135L16.1046 15.8875H15.801L15.8617 15.5232" fill="#DCE5E5"/>
<path d="M16.2871 17.2232C16.2871 18.0732 16.5603 18.2857 17.046 18.2857C17.5014 18.2857 17.6835 18.1946 17.6835 18.1946L17.805 17.6178C17.805 17.6178 17.471 17.7696 17.1675 17.7696C16.4996 17.7696 16.621 17.2839 16.621 17.2839H17.8657C17.8657 17.2839 17.9568 16.8893 17.9568 16.7375C17.9568 16.3428 17.7443 15.8571 17.0764 15.8571C16.4389 15.7964 16.2871 16.4643 16.2871 17.2232ZM17.046 16.3428C17.38 16.3428 17.4407 16.7375 17.4407 16.7678H16.6514C16.6514 16.7375 16.7121 16.3428 17.046 16.3428Z" fill="#DCE5E5"/>
<path d="M20.9012 18.1946L21.0227 17.5268C21.0227 17.5268 20.7191 17.6786 20.5066 17.6786C20.0816 17.6786 19.8994 17.3446 19.8994 16.9804C19.8994 16.2518 20.2637 15.8571 20.6887 15.8571C20.9923 15.8571 21.2352 16.0393 21.2352 16.0393L21.3262 15.4018C21.3262 15.4018 20.9619 15.25 20.628 15.25C19.9298 15.25 19.5352 15.8571 19.5352 17.0107C19.5352 17.7696 19.5959 18.2857 20.3244 18.2857C20.5673 18.2857 20.9012 18.1946 20.9012 18.1946Z" fill="#DCE5E5"/>
<path d="M11.6122 16.4643C11.6122 16.4643 11.8855 16.3429 12.2801 16.3429C12.4926 16.3429 12.6747 16.3732 12.6747 16.5554C12.6747 16.6768 12.6444 16.7072 12.6444 16.7072C12.6444 16.7072 12.4622 16.7072 12.3712 16.7072C11.8551 16.7072 11.2783 16.9197 11.2783 17.6179C11.2783 18.1643 11.6426 18.2857 11.8551 18.2857C12.2801 18.2857 12.4622 18.0125 12.4926 18.0125L12.4622 18.2554H13.0087L13.2515 16.5857C13.2515 15.8875 12.6444 15.8572 12.4015 15.8572L11.6122 16.4643ZM12.8569 17.1625C12.8569 17.2536 12.4926 17.7393 12.1283 17.7393C11.9462 17.7393 11.8855 17.5875 11.8855 17.4965C11.8855 17.3447 11.9765 17.1322 12.4319 17.1322C12.523 17.1625 12.8569 17.1625 12.8569 17.1625Z" fill="#DCE5E5"/>
<path d="M13.1602 18.1944C13.1602 18.1944 13.3423 18.2552 13.8584 18.2552C14.0102 18.2552 14.7691 18.2855 14.7691 17.4659C14.7691 16.7069 14.0405 16.8587 14.0405 16.5552C14.0405 16.4034 14.1619 16.3427 14.3744 16.3427C14.4655 16.3427 14.7994 16.373 14.7994 16.373L14.8905 15.8266C14.8905 15.8266 14.678 15.7659 14.3137 15.7659C13.8584 15.7659 13.7066 15.948 13.7066 16.5552C13.7066 17.2534 14.1619 17.1927 14.1619 17.4659C14.1619 17.648 13.9494 17.6784 13.7977 17.6784" fill="#DCE5E5"/>
<path d="M25.8193 16.1311C25.8193 16.1311 25.5764 15.8275 25.2425 15.8275C24.6961 15.8275 24.5139 16.4954 24.5139 17.2846C24.5139 17.7704 24.4532 18.2864 24.9693 18.2864C25.3336 18.2864 25.5461 18.0436 25.5461 18.0436L25.5157 18.2561H26.1229L26.5782 15.3418L25.8193 16.1311ZM25.7889 16.9204C25.7889 17.2543 25.5157 17.6793 25.1818 17.6793C24.9693 17.6793 24.8478 17.4971 24.8478 17.1936C24.8478 16.7079 25.0603 16.4043 25.3336 16.4043C25.5461 16.4043 25.7889 16.5561 25.7889 16.9204Z" fill="#DCE5E5"/>
<path d="M9.12268 18.2253L9.48697 16.0396L9.54768 18.2253H9.97268L10.762 16.0396L10.428 18.2253H11.0655L11.5513 15.311H10.7923L9.94233 17.1021L9.91197 15.311H9.57804L8.5459 18.2253H9.12268Z" fill="#DCE5E5"/>
<path d="M17.896 18.225H18.5335C18.7156 17.2232 18.746 16.4036 19.171 16.5554C19.2317 16.1607 19.3228 16.009 19.3835 15.8572C19.3835 15.8572 19.3531 15.8572 19.2621 15.8572C18.9889 15.8572 18.7764 16.2215 18.7764 16.2215L18.8371 15.8875" fill="#DCE5E5"/>
<path d="M21.478 16.4643C21.478 16.4643 21.7512 16.3429 22.1458 16.3429C22.3583 16.3429 22.5405 16.3732 22.5405 16.5554C22.5405 16.6768 22.5101 16.7072 22.5101 16.7072C22.5101 16.7072 22.328 16.7072 22.2369 16.7072C21.7208 16.7072 21.144 16.9197 21.144 17.6179C21.144 18.1643 21.5083 18.2857 21.7208 18.2857C22.1458 18.2857 22.328 18.0125 22.3583 18.0125L22.328 18.2554H22.8744L23.1173 16.5857C23.1173 15.8875 22.5101 15.8572 22.2673 15.8572L21.478 16.4643ZM22.7226 17.1625C22.7226 17.2536 22.3583 17.7393 21.994 17.7393C21.8119 17.7393 21.7512 17.5875 21.7512 17.4965C21.7512 17.3447 21.8423 17.1322 22.2976 17.1322C22.419 17.1625 22.7226 17.1625 22.7226 17.1625Z" fill="#DCE5E5"/>
<path d="M22.9961 18.225H23.6336C23.8157 17.2232 23.8461 16.4036 24.2711 16.5554C24.3318 16.1607 24.4229 16.009 24.4836 15.8572C24.4836 15.8572 24.4532 15.8572 24.3622 15.8572C24.089 15.8572 23.8765 16.2215 23.8765 16.2215L23.9372 15.8875" fill="#DCE5E5"/>
</svg>
