<svg width="32" height="33" viewBox="0 0 32 33" fill="" xmlns="http://www.w3.org/2000/svg">
<path d="M29.1966 6.5999C28.8714 6.20243 28.3846 5.9834 27.8257 5.9834C27.5217 5.9834 27.1999 6.04755 26.869 6.17381L4.34632 14.7713C3.15107 15.2275 2.99009 15.912 3.00045 16.2796C3.0108 16.647 3.21035 17.3214 4.42955 17.7091C4.43685 17.7115 4.44416 17.7136 4.45147 17.7158L7.6101 18.6195L22.9932 10.7605C23.3765 10.5644 23.8462 10.7167 24.0421 11.1001C24.196 11.4014 24.1342 11.7554 23.915 11.9885L23.9156 11.9891L15.3625 21.077L15.1185 22.0658L18.1728 24.5253L22.4053 27.9334C22.409 27.9363 22.4126 27.9393 22.4165 27.9422C22.8822 28.3035 23.3909 28.4943 23.8876 28.4945C24.8583 28.4945 25.6311 27.7761 25.8563 26.6645L29.5465 8.44271C29.6945 7.71151 29.5703 7.05685 29.1966 6.5999V6.5999Z" fill=""/>
<path d="M13.8982 20.5051C13.9293 20.379 13.9918 20.2588 14.087 20.1576L19.6993 14.1941L9.28491 19.5147L11.6496 26.2775C11.7844 26.6628 11.985 26.9909 12.233 27.2476L13.8978 20.5049L13.8982 20.5051Z" fill=""/>
<path d="M13.6846 27.8737C14.2467 27.8691 14.799 27.632 15.283 27.1864L17.0131 25.5933L14.7063 23.7358L13.6846 27.8737Z" fill=""/>
</svg>
