<svg width="34" height="35" viewBox="0 0 34 35" fill="none" xmlns="http://www.w3.org/2000/svg">
<path d="M34 27.4852C34 28.586 33.1002 29.4785 31.9902 29.4785H2.00979C0.899805 29.4786 0 28.586 0 27.4852V8.21739C0 7.1165 0.899805 6.22412 2.00979 6.22412H31.9902C33.1003 6.22412 34 7.11657 34 8.21739V27.4852Z" fill="white"/>
<path d="M7.54652 17.9854L6.74818 14.1873C6.61172 13.6635 6.21461 13.5077 5.71842 13.4871H2.05824L2.02563 13.6606C4.87639 14.346 6.76266 15.9994 7.54652 17.9854Z" fill="#F79F1A"/>
<path d="M16.0275 13.5635H13.6626L12.1855 22.1598H14.5466L16.0275 13.5635Z" fill="#059BBF"/>
<path d="M8.98766 22.1511L12.7071 13.5693H10.2042L7.89036 19.4326L7.6434 18.5473C7.18984 17.4823 5.89359 15.9495 4.37183 14.9845L6.48687 22.154L8.98766 22.1511Z" fill="#059BBF"/>
<path d="M22.7728 19.3495C22.7816 18.3735 22.1497 17.6291 20.7881 17.0143C19.9606 16.6172 19.4563 16.3524 19.4623 15.9494C19.4623 15.5933 19.8894 15.2109 20.8149 15.2109C21.5892 15.1991 22.1468 15.3668 22.5829 15.5404L22.7966 15.6375L23.1171 13.7753C22.6483 13.6016 21.9155 13.4163 20.999 13.4163C18.6644 13.4163 17.021 14.5814 17.0062 16.2524C16.9913 17.4881 18.181 18.1765 19.0768 18.5883C19.9963 19.0081 20.3048 19.2767 20.2989 19.6533C20.293 20.2291 19.5661 20.4917 18.8868 20.4917C17.9406 20.4917 17.4392 20.3623 16.6616 20.041L16.3595 19.9034L16.0276 21.8297C16.579 22.0687 17.5993 22.2776 18.6585 22.2863C21.1412 22.2863 22.755 21.136 22.7728 19.3495Z" fill="#059BBF"/>
<path d="M25.5822 20.8712C25.8521 20.8712 28.2638 20.8742 28.6081 20.8742C28.6792 21.1735 28.8958 22.1627 28.8958 22.1627H31.0879L29.1746 13.5723H27.3503C26.7836 13.5723 26.3625 13.7253 26.1132 14.2841L22.604 22.1627H25.0871C25.0869 22.1627 25.4902 21.1038 25.5822 20.8712ZM27.2018 16.7083C27.1901 16.7318 27.3977 16.2111 27.5163 15.8875L27.6764 16.6288C27.6764 16.6288 28.1275 18.6824 28.2223 19.1119H26.2615C26.4573 18.6177 27.2018 16.7083 27.2018 16.7083Z" fill="#059BBF"/>
<path d="M31.9902 6.22412H2.00979C0.899805 6.22412 0 7.1165 0 8.21739V10.2861H34V8.21739C34 7.1165 33.1003 6.22412 31.9902 6.22412Z" fill="#059BBF"/>
<path d="M31.9902 29.4788H2.00979C0.899805 29.4788 0 28.5863 0 27.4855V25.4167H34V27.4855C34 28.5863 33.1003 29.4788 31.9902 29.4788Z" fill="#F79F1A"/>
<path opacity="0.15" d="M1.42886 27.4852V8.21739C1.42886 7.1165 2.32873 6.22412 3.43878 6.22412H2.00972C0.899805 6.22412 0 7.1165 0 8.21739V27.4852C0 28.5861 0.899805 29.4786 2.00979 29.4786H3.43885C2.3288 29.4786 1.42886 28.586 1.42886 27.4852Z" fill="#202121"/>
</svg>
