<svg width="7" height="7" viewBox="0 0 7 7" fill="none" xmlns="http://www.w3.org/2000/svg">
<path d="M3.5 7C2.80777 7 2.13108 6.79473 1.55551 6.41014C0.979934 6.02556 0.53133 5.47894 0.266423 4.83939C0.00151648 4.19985 -0.0677952 3.49612 0.0672531 2.81719C0.202301 2.13825 0.535645 1.51461 1.02513 1.02513C1.51461 0.535645 2.13825 0.202301 2.81719 0.0672531C3.49612 -0.0677952 4.19985 0.00151648 4.83939 0.266423C5.47894 0.53133 6.02556 0.979933 6.41014 1.5555C6.79473 2.13108 7 2.80777 7 3.5C7 4.42826 6.63125 5.3185 5.97487 5.97487C5.3185 6.63125 4.42826 7 3.5 7Z" fill="#8ABCE4"/>
</svg>
