<svg width="32" height="33" viewBox="0 0 32 33" fill="" xmlns="http://www.w3.org/2000/svg">
<path d="M30.64 8.1034C29.772 6.5594 28.83 6.2754 26.912 6.1674C24.996 6.0374 20.178 5.9834 16.004 5.9834C11.822 5.9834 7.002 6.0374 5.088 6.1654C3.174 6.2754 2.23 6.5574 1.354 8.1034C0.46 9.6454 0 12.3014 0 16.9774C0 16.9814 0 16.9834 0 16.9834C0 16.9874 0 16.9894 0 16.9894V16.9934C0 21.6494 0.46 24.3254 1.354 25.8514C2.23 27.3954 3.172 27.6754 5.086 27.8054C7.002 27.9174 11.822 27.9834 16.004 27.9834C20.178 27.9834 24.996 27.9174 26.914 27.8074C28.832 27.6774 29.774 27.3974 30.642 25.8534C31.544 24.3274 32 21.6514 32 16.9954C32 16.9954 32 16.9894 32 16.9854C32 16.9854 32 16.9814 32 16.9794C32 12.3014 31.544 9.6454 30.64 8.1034Z" fill=""/>
<path d="M12 22.9834V10.9834L22 16.9834L12 22.9834Z" fill="#263238"/>
</svg>
