<svg width="319" height="986" viewBox="0 0 319 986" fill="none" xmlns="http://www.w3.org/2000/svg">
<g filter="url(#filter0_d_190_2)">
<path fill-rule="evenodd" clip-rule="evenodd" d="M319 28.6918C286.321 14.7156 244.859 7 200.5 7C160.68 7 123.806 14.8973 93.6564 28.3265C93.6494 28.2829 93.6419 28.2382 93.6338 28.1923C93.5294 27.5937 93.3336 26.7569 93.0156 25.6119C91.7345 20.9999 89.2865 16.4459 88.2169 14.7345C88.0705 14.5003 87.762 14.4292 87.5279 14.5755C87.2937 14.7219 87.2225 15.0303 87.3689 15.2645C88.4063 16.9245 90.8047 21.3889 92.0521 25.8796C92.3662 27.0103 92.5523 27.8117 92.6487 28.3642L92.6587 28.4223C92.5306 28.3893 92.3898 28.4068 92.2688 28.4824C92.1544 28.5539 92.0789 28.6642 92.0487 28.7855L92.0066 28.7179C89.4754 24.6552 85.8413 20.9776 84.332 19.6379C84.1255 19.4546 83.8094 19.4734 83.6261 19.6799C83.4428 19.8864 83.4616 20.2024 83.6681 20.3857C85.1321 21.6853 88.6933 25.2909 91.1579 29.2467C91.1927 29.3026 91.2269 29.3577 91.2604 29.4119C45.6177 50.4379 16 84.3037 16 122.5C16 186.289 98.6035 238 200.5 238C244.859 238 286.321 226.115 319 207.43V28.6918Z" fill="#2CBC67"/>
</g>
<path d="M17.708 23.5091L17.1523 23.8529L16.1679 24.0147L15.0264 23.6977L13.9356 22.9031L13.3725 21.8199L13.3428 20.7461L13.8103 19.9932L14.3514 19.8156L14.2089 19.1707L14.195 17.6537L14.5132 16.2351L14.9888 15.2259L15.7692 14.232L16.7564 13.4468L17.464 13.2145L18.2741 13.2944L19.0758 13.6998L19.9448 14.5212L20.8185 15.8482L21.2762 17.2426L21.5427 18.0543L21.6622 19.1908L21.5053 20.1876L21.4074 20.3811L21.7196 20.2786L22.5313 20.0122L23.0149 20.2914L23.2894 20.8469L23.5354 21.5961L23.5319 22.358L23.3349 23.0221L22.7922 23.5461L22.431 23.78L21.6482 23.7833L21.0459 23.7044L20.585 23.0027L20.3806 21.6778L19.9173 22.0922L18.9183 22.4201L18.2737 22.4934L18.0078 23.0879L17.708 23.5091Z" fill="#2CBC67"/>
<path d="M22.4371 23.9414C22.1513 24.0352 21.8461 24.0573 21.5558 23.9989C21.1128 23.9099 20.7519 23.6438 20.5396 23.2496C20.2539 22.7195 20.1962 22.1519 20.3727 21.6084C20.4007 21.5221 20.4934 21.4749 20.5797 21.5029C20.666 21.5309 20.7132 21.6236 20.6852 21.7099C20.5349 22.1725 20.5833 22.6381 20.8289 23.0938C20.994 23.4004 21.2751 23.6074 21.6205 23.6769C22.0271 23.7586 22.4715 23.6443 22.8094 23.3711C23.2011 23.0543 23.4092 22.4423 23.3661 21.7341C23.326 21.0764 23.0771 20.4958 22.7467 20.2893C22.4918 20.1299 21.9691 20.266 21.5039 20.6131C21.4312 20.6673 21.3283 20.6524 21.274 20.5796C21.2198 20.5069 21.2348 20.404 21.3075 20.3497C21.8955 19.9111 22.5438 19.7749 22.9209 20.0107C23.3436 20.2749 23.6471 20.9435 23.694 21.7141C23.7437 22.5281 23.4902 23.243 23.016 23.6266C22.8422 23.7671 22.6448 23.8732 22.4371 23.9414V23.9414Z" fill="#2CBC67"/>
<path d="M20.1624 25.7198C20.1225 25.7329 20.0775 25.7307 20.037 25.7103C19.9561 25.6693 19.9236 25.5705 19.9645 25.4895L21.3531 22.7437C21.3941 22.6627 21.4929 22.6303 21.5739 22.6712C21.6549 22.7122 21.6873 22.811 21.6464 22.892L20.2578 25.6378C20.2373 25.6783 20.2023 25.7066 20.1624 25.7198Z" fill="#2CBC67"/>
<path d="M19.4609 22.4236C19.0768 22.5497 18.6614 22.6182 18.2257 22.6221C18.135 22.6229 18.0608 22.5499 18.06 22.4592C18.0592 22.3685 18.1322 22.2943 18.2228 22.2935C19.644 22.2811 20.7857 21.5599 21.277 20.3644C21.841 18.992 21.2608 16.5055 19.9837 14.8215C19.2147 13.8076 18.3454 13.3016 17.5359 13.3966C16.7361 13.4905 15.9095 14.1284 15.2677 15.1468C14.3486 16.6049 14.0575 18.4335 14.5261 19.8053C14.5554 19.8912 14.5096 19.9846 14.4237 20.0138C14.4231 20.0141 14.4224 20.0143 14.4218 20.0145C14.3364 20.0425 14.2442 19.9967 14.2151 19.9115C13.7157 18.4495 14.0198 16.5104 14.9896 14.9716C15.6847 13.8688 16.5989 13.1759 17.4976 13.0703C18.4274 12.9611 19.4033 13.5125 20.2454 14.6229C20.8645 15.4392 21.368 16.5175 21.6268 17.5813C21.9024 18.7138 21.886 19.7466 21.5808 20.4893C21.1978 21.4217 20.4295 22.1055 19.4609 22.4236V22.4236Z" fill="#2CBC67"/>
<path d="M17.1509 24.0799C16.7611 24.2079 16.3215 24.213 15.8443 24.0952C14.6177 23.7925 13.6825 23.0559 13.2786 22.0742C13.0145 21.4323 13.0238 20.7755 13.3034 20.3175C13.4564 20.067 13.7079 19.8829 14.051 19.7703C14.9791 19.4656 16.4791 19.7515 17.3948 20.4076C18.1251 20.9308 18.4999 21.7701 18.3729 22.5979C18.2636 23.3106 17.8067 23.8646 17.1509 24.0799ZM14.1535 20.0824C13.8866 20.1701 13.6949 20.3068 13.5838 20.4888C13.3619 20.8522 13.3614 21.4119 13.5824 21.9492C13.946 22.8329 14.7991 23.4989 15.9229 23.7762C16.3394 23.879 16.7181 23.8761 17.0484 23.7677C17.5842 23.5918 17.9579 23.1358 18.0481 22.5481C18.1562 21.8433 17.8326 21.1254 17.2034 20.6747C16.3767 20.0823 14.98 19.8111 14.1535 20.0824Z" fill="#2CBC67"/>
<path d="M22.0281 26.7663L21.8521 26.8241C21.7084 26.8712 21.5537 26.793 21.5065 26.6493C21.4594 26.5056 21.5376 26.3509 21.6813 26.3038L21.8573 26.246C22.001 26.1988 22.1557 26.277 22.2029 26.4207C22.25 26.5644 22.1718 26.7191 22.0281 26.7663Z" fill="#2CBC67"/>
<path d="M20.6541 27.2174C20.5104 27.2645 20.3557 27.1863 20.3086 27.0426L18.0133 20.0507C17.9661 19.907 18.0443 19.7523 18.188 19.7051C18.3317 19.658 18.4864 19.7362 18.5336 19.8799L20.8289 26.8718C20.876 27.0155 20.7978 27.1702 20.6541 27.2174Z" fill="#2CBC67"/>
<path d="M19.7661 24.5123C19.7262 24.5254 19.6812 24.5233 19.6407 24.5028L16.7627 23.0474C16.6817 23.0064 16.6493 22.9076 16.6902 22.8266C16.7312 22.7456 16.83 22.7132 16.911 22.7541L19.789 24.2096C19.87 24.2505 19.9024 24.3494 19.8615 24.4303C19.841 24.4708 19.806 24.4992 19.7661 24.5123Z" fill="#2CBC67"/>
<path d="M294.395 14.8699L293.504 14.6836L292.355 13.902L291.507 12.4864L291.168 10.6372L291.64 9.00332L292.64 7.89081L293.835 7.57955L294.552 7.91962L295.027 7.13186L296.469 5.58713L298.152 4.46055L299.601 3.89837L301.342 3.64407L303.093 3.79904L304.03 4.24375L304.771 5.10196L305.191 6.28071L305.28 7.94398L304.888 10.1222L304.012 11.9691L303.502 13.0442L302.531 14.3063L301.416 15.1618L301.132 15.2632L301.545 15.4594L302.62 15.9695L302.84 16.7156L302.584 17.5398L302.114 18.5322L301.379 19.2981L300.542 19.7794L299.492 19.7874L298.903 19.6767L298.109 18.9288L297.577 18.271L297.785 17.1202L298.851 15.5867L297.985 15.5602L296.662 14.9323L295.941 14.3876L295.102 14.7325L294.395 14.8699Z" fill="#2CBC67"/>
<path d="M298.754 19.8452C298.375 19.6656 298.046 19.395 297.809 19.0574C297.447 18.5423 297.338 17.9273 297.502 17.3256C297.723 16.5162 298.209 15.8878 298.909 15.5086C299.02 15.4483 299.159 15.4897 299.219 15.6008C299.28 15.7119 299.238 15.8508 299.127 15.911C298.532 16.2337 298.133 16.7502 297.944 17.4459C297.816 17.9139 297.901 18.3928 298.183 18.7944C298.515 19.2671 299.074 19.5784 299.677 19.6269C300.377 19.683 301.174 19.265 301.81 18.5087C302.401 17.8063 302.707 16.9813 302.572 16.4558C302.468 16.0501 301.809 15.6859 301.007 15.5897C300.881 15.5747 300.791 15.4608 300.807 15.3353C300.822 15.2098 300.936 15.1203 301.061 15.1353C302.076 15.2569 302.861 15.7417 303.015 16.3417C303.188 17.0141 302.853 17.9804 302.16 18.8034C301.429 19.6726 300.487 20.151 299.64 20.0831C299.33 20.058 299.029 19.9757 298.754 19.8452V19.8452Z" fill="#2CBC67"/>
<path d="M294.751 19.4577C294.698 19.4327 294.654 19.3874 294.633 19.3278C294.591 19.2088 294.653 19.0779 294.772 19.0354L298.809 17.5965C298.928 17.5541 299.059 17.6162 299.102 17.7352C299.144 17.8543 299.082 17.9852 298.963 18.0276L294.925 19.4666C294.866 19.4878 294.803 19.4828 294.751 19.4577Z" fill="#2CBC67"/>
<path d="M297.206 15.4571C296.697 15.2157 296.212 14.8862 295.769 14.4719C295.676 14.3855 295.671 14.2408 295.758 14.1484C295.844 14.056 295.989 14.0513 296.081 14.1374C297.528 15.489 299.372 15.8569 301.016 15.1216C302.902 14.2776 304.703 11.2107 305.031 8.28488C305.228 6.52334 304.836 5.17815 303.928 4.49705C303.03 3.82417 301.583 3.67462 299.958 4.08656C297.63 4.67639 295.581 6.24286 294.738 8.07733C294.685 8.19217 294.549 8.24244 294.434 8.18959C294.433 8.18919 294.432 8.18877 294.432 8.18838C294.319 8.13476 294.269 8.00005 294.322 7.88604C295.221 5.93086 297.389 4.26533 299.845 3.64285C301.605 3.19682 303.193 3.37479 304.202 4.13083C305.245 4.91311 305.701 6.40645 305.485 8.33572C305.327 9.75397 304.8 11.3257 304.04 12.6479C303.231 14.0558 302.224 15.0826 301.203 15.5394C299.921 16.1129 298.489 16.0658 297.206 15.4571V15.4571Z" fill="#2CBC67"/>
<path d="M293.285 14.9114C292.768 14.6665 292.32 14.2497 291.951 13.6727C291.003 12.1897 290.766 10.5485 291.301 9.16993C291.65 8.26837 292.29 7.61432 293.012 7.42042C293.407 7.31436 293.838 7.36992 294.292 7.58558C295.521 8.16883 296.761 9.89725 297.056 11.4385C297.291 12.6677 296.863 13.8746 295.941 14.5883C295.146 15.2028 294.153 15.3236 293.285 14.9114ZM294.096 7.99906C293.742 7.83132 293.418 7.78539 293.131 7.86239C292.558 8.01629 292.02 8.58071 291.727 9.33534C291.246 10.5764 291.468 12.0675 292.336 13.4262C292.658 13.9297 293.043 14.2903 293.481 14.4978C294.19 14.8346 295.005 14.733 295.661 14.2263C296.446 13.6186 296.809 12.5833 296.606 11.5244C296.34 10.1329 295.191 8.51851 294.096 7.99906Z" fill="#2CBC67"/>
<path d="M295.629 22.3046L295.396 22.194C295.206 22.1037 295.125 21.8762 295.215 21.6859C295.305 21.4956 295.533 21.4145 295.723 21.5048L295.956 21.6154C296.146 21.7057 296.228 21.9332 296.137 22.1235C296.047 22.3138 295.819 22.3949 295.629 22.3046Z" fill="#2CBC67"/>
<path d="M293.809 21.4411C293.619 21.3508 293.538 21.1233 293.628 20.933L298.023 11.6717C298.113 11.4814 298.34 11.4003 298.531 11.4906C298.721 11.5809 298.802 11.8084 298.712 11.9987L294.317 21.26C294.227 21.4503 294 21.5313 293.809 21.4411Z" fill="#2CBC67"/>
<path d="M295.509 17.858C295.457 17.833 295.413 17.7877 295.392 17.7281L293.884 13.4964C293.841 13.3774 293.903 13.2465 294.022 13.204C294.142 13.1616 294.272 13.2237 294.315 13.3428L295.823 17.5745C295.866 17.6935 295.803 17.8244 295.684 17.8669C295.625 17.8881 295.562 17.8831 295.509 17.858Z" fill="#2CBC67"/>
<path fill-rule="evenodd" clip-rule="evenodd" d="M-1 28.8504V248.15C9.28941 251.304 20.2001 253 31.5 253C93.632 253 144 201.737 144 138.5C144 75.2634 93.632 24 31.5 24C20.2001 24 9.28941 25.6956 -1 28.8504Z" fill="#2CBC67"/>
<path fill-rule="evenodd" clip-rule="evenodd" d="M60 334C158.307 334 238 270.648 238 192.5C238 114.352 158.307 51 60 51C38.5714 51 18.0272 54.0101 -1 59.5274L-1 325.473C18.0272 330.99 38.5714 334 60 334Z" fill="white"/>
<path fill-rule="evenodd" clip-rule="evenodd" d="M319 59.3727C309.469 46.3229 296.901 36.8108 281.178 32.7426C226.23 18.5253 167.877 60.3691 150.843 126.203C133.809 192.038 164.544 256.932 219.493 271.15C261.384 281.989 296.926 269.434 319 233.684V59.3727Z" fill="white"/>
<path d="M203.478 38.3823C204.023 39.6322 205.213 42.9359 205.612 46.1514C206.011 49.3669 205.566 48.9209 205.294 48.296" stroke="white" stroke-linecap="round" stroke-linejoin="round"/>
<path d="M200.4 41.4009C201.275 42.4461 203.349 45.2794 204.64 48.2514C205.931 51.2234 205.378 50.9212 204.94 50.3986" stroke="white" stroke-linecap="round" stroke-linejoin="round"/>
<path d="M127.74 52.3823C127.195 53.6322 126.006 56.9359 125.606 60.1514C125.207 63.3669 125.652 62.9209 125.925 62.296" stroke="white" stroke-linecap="round" stroke-linejoin="round"/>
<path d="M130.819 55.4009C129.943 56.4461 127.869 59.2794 126.578 62.2514C125.287 65.2234 125.84 64.9212 126.278 64.3986" stroke="white" stroke-linecap="round" stroke-linejoin="round"/>
<path d="M57.2491 46.9683L56.3642 47.1819L54.9912 46.9683L53.6181 46.053L52.5197 44.5273L52.2451 42.8492L52.6722 41.4151L53.6181 40.6218H54.4114L54.503 39.7064L55.1437 37.6926L56.1811 35.9534L57.2491 34.8244L58.7137 33.848L60.3613 33.2378H61.3987L62.4362 33.6955L63.321 34.5803L64.1143 36.0449L64.6941 38.1808V40.2251V41.4151L64.3584 42.9712L63.7177 44.2222L63.5041 44.4358H63.9618H65.1518L65.6705 45.0155L65.7925 45.8699V46.9683L65.4569 47.9752L64.9077 48.7686L63.9618 49.2262L63.382 49.3788L62.3446 49.0432L61.5818 48.677L61.2767 47.5481L61.5818 45.7059L60.7885 46.053H59.3239L58.4391 45.8699L57.8288 46.5412L57.2491 46.9683Z" fill="white"/>
<path d="M63.32 49.5946C62.9011 49.5946 62.4875 49.4913 62.1286 49.2879C61.5811 48.9776 61.2191 48.4687 61.1093 47.8548C60.9615 47.029 61.1317 46.2528 61.6014 45.6101C61.676 45.508 61.8192 45.4859 61.9212 45.5604C62.0232 45.635 62.0455 45.7782 61.9709 45.8802C61.5711 46.4272 61.4328 47.0644 61.5598 47.7742C61.6452 48.2517 61.9273 48.6478 62.3542 48.8898C62.8568 49.1746 63.4947 49.2165 64.0605 49.0017C64.7166 48.7525 65.2579 48.033 65.5085 47.077C65.7412 46.1892 65.664 45.3126 65.3164 44.8958C65.0484 44.574 64.2975 44.5272 63.531 44.7843C63.4113 44.8245 63.2815 44.76 63.2413 44.6402C63.2011 44.5204 63.2657 44.3906 63.3854 44.3504C64.3542 44.0254 65.2715 44.1268 65.668 44.6028C66.1127 45.136 66.2239 46.1528 65.9512 47.1931C65.6632 48.2918 65.0171 49.1279 64.2229 49.4296C63.9319 49.54 63.6245 49.5946 63.32 49.5946V49.5946Z" fill="white"/>
<path d="M59.5369 50.9606C59.4784 50.9606 59.4198 50.9382 59.3751 50.8936C59.2858 50.8042 59.2858 50.6593 59.3751 50.5699L62.4058 47.5392C62.4952 47.4498 62.6401 47.4498 62.7295 47.5392C62.8189 47.6286 62.8189 47.7734 62.7295 47.8628L59.6988 50.8936C59.6541 50.9382 59.5955 50.9606 59.5369 50.9606Z" fill="white"/>
<path d="M60.0405 46.2935C59.4773 46.2936 58.8978 46.2038 58.3195 46.0196C58.199 45.9812 58.1326 45.8525 58.1709 45.7321C58.2093 45.6116 58.3382 45.5452 58.4584 45.5835C60.3447 46.1845 62.1691 45.7261 63.3386 44.3573C64.6813 42.7861 64.9938 39.2432 64.0352 36.4595C63.458 34.7836 62.5274 33.7363 61.4148 33.5103C60.3154 33.2871 58.9442 33.7722 57.6524 34.8411C55.8025 36.3717 54.6228 38.6653 54.6469 40.6843C54.6484 40.8107 54.5472 40.9144 54.4208 40.9159C54.4199 40.9159 54.4189 40.9159 54.418 40.9159C54.2929 40.9159 54.1908 40.8152 54.1892 40.6898C54.1635 38.5379 55.4084 36.1037 57.3606 34.4884C58.7595 33.331 60.2705 32.8111 61.5058 33.0617C62.7838 33.3212 63.8358 34.475 64.4679 36.3105C64.9326 37.6598 65.1304 39.3057 65.0108 40.8259C64.8834 42.4446 64.4131 43.8043 63.6865 44.6547C62.7744 45.7222 61.4606 46.2935 60.0405 46.2935V46.2935Z" fill="white"/>
<path d="M56.2636 47.4816C55.6922 47.4816 55.1081 47.2975 54.5277 46.9342C53.0358 46.0006 52.1182 44.6195 52.0102 43.1448C51.9395 42.1804 52.2371 41.3153 52.8063 40.8306C53.1175 40.5655 53.5304 40.4312 54.0335 40.4312C55.3941 40.4312 57.2551 41.4612 58.1819 42.7274C58.9212 43.7372 59.0526 45.0107 58.5248 46.0512C58.0704 46.9469 57.2251 47.4816 56.2636 47.4816ZM54.0334 40.8888C53.6421 40.8888 53.3291 40.9865 53.1029 41.1791C52.6513 41.5637 52.4075 42.3041 52.4665 43.1114C52.5638 44.4389 53.4035 45.6909 54.7704 46.5462C55.277 46.8631 55.7793 47.0239 56.2636 47.0239C57.0491 47.0239 57.7418 46.5828 58.1166 45.8441C58.5659 44.9583 58.4494 43.8676 57.8125 42.9977C56.9758 41.8546 55.2452 40.8888 54.0334 40.8888Z" fill="white"/>
<path d="M61.5513 53.1564H61.2932C61.0826 53.1564 60.9118 52.9856 60.9118 52.775C60.9118 52.5643 61.0826 52.3936 61.2932 52.3936H61.5513C61.7619 52.3936 61.9327 52.5643 61.9327 52.775C61.9327 52.9856 61.7619 53.1564 61.5513 53.1564Z" fill="white"/>
<path d="M59.537 53.1562C59.3263 53.1562 59.1556 52.9855 59.1556 52.7748V42.524C59.1556 42.3133 59.3263 42.1426 59.537 42.1426C59.7476 42.1426 59.9184 42.3133 59.9184 42.524V52.7748C59.9184 52.9855 59.7476 53.1562 59.537 53.1562Z" fill="white"/>
<path d="M59.5369 49.19C59.4784 49.19 59.4198 49.1677 59.375 49.123L56.1984 45.9463C56.1091 45.8569 56.1091 45.7121 56.1984 45.6227C56.2878 45.5333 56.4327 45.5333 56.5221 45.6227L59.6987 48.7993C59.7881 48.8887 59.7881 49.0336 59.6987 49.123C59.654 49.1677 59.5954 49.19 59.5369 49.19Z" fill="white"/>
<path d="M233.433 30.6404L234.341 30.7136L235.664 30.289L236.877 29.171L237.725 27.4931L237.735 25.7926L237.09 24.4425L236.032 23.806L235.249 23.9295L235.016 23.0395L234.069 21.15L232.774 19.5934L231.543 18.6445L229.944 17.9079L228.222 17.5615L227.197 17.723L226.244 18.3366L225.507 19.3484L224.952 20.9186L224.711 23.1186L225.029 25.138L225.215 26.3135L225.788 27.7985L226.616 28.9345L226.86 29.1122L226.408 29.1835L225.233 29.3687L224.811 30.0221L224.823 30.885L224.994 31.9701L225.482 32.9125L226.148 33.6106L227.154 33.9155L227.75 33.976L228.723 33.483L229.419 33.0026L229.545 31.8399L228.957 30.0677L229.794 30.287L231.241 30.0591L232.087 29.7405L232.794 30.3086L233.433 30.6404Z" fill="white"/>
<path d="M227.845 34.1799C228.259 34.1147 228.651 33.9483 228.974 33.6915C229.467 33.2997 229.745 32.7406 229.758 32.1171C229.775 31.2784 229.487 30.5381 228.922 29.9764C228.833 29.8872 228.688 29.8876 228.599 29.9771C228.51 30.0667 228.51 30.2115 228.6 30.3007C229.08 30.7788 229.315 31.3868 229.3 32.1077C229.29 32.5926 229.073 33.0279 228.689 33.3333C228.237 33.6929 227.614 33.8335 227.021 33.7094C226.334 33.5654 225.688 32.9389 225.291 32.0335C224.923 31.1927 224.863 30.3148 225.142 29.849C225.356 29.4894 226.091 29.3263 226.888 29.461C227.012 29.4821 227.131 29.3982 227.152 29.2735C227.173 29.1489 227.089 29.0308 226.964 29.0098C225.957 28.8394 225.066 29.0824 224.749 29.6143C224.392 30.2102 224.441 31.2319 224.872 32.2171C225.328 33.2576 226.096 33.983 226.927 34.1573C227.232 34.2211 227.544 34.2273 227.845 34.1799V34.1799Z" fill="white"/>
<path d="M231.795 34.94C231.852 34.9309 231.907 34.8997 231.944 34.8486C232.018 34.7464 231.996 34.6033 231.894 34.5289L228.428 32.0068C228.326 31.9325 228.183 31.955 228.108 32.0572C228.034 32.1594 228.057 32.3025 228.159 32.3769L231.624 34.899C231.675 34.9362 231.737 34.9491 231.795 34.94Z" fill="white"/>
<path d="M230.571 30.4085C231.127 30.3209 231.686 30.142 232.228 29.87C232.341 29.8134 232.387 29.6759 232.33 29.5629C232.274 29.4499 232.136 29.4043 232.023 29.4609C230.253 30.3481 228.38 30.1793 227.012 29.0092C225.441 27.6661 224.581 24.215 225.094 21.3161C225.404 19.5707 226.16 18.3913 227.224 17.9949C228.275 17.6034 229.705 17.8691 231.147 18.7239C233.213 19.9479 234.735 22.03 235.026 24.0282C235.044 24.1533 235.16 24.2399 235.285 24.2217C235.286 24.2216 235.287 24.2214 235.288 24.2213C235.411 24.2018 235.497 24.0865 235.479 23.9623C235.169 21.8326 233.561 19.6219 231.381 18.3302C229.819 17.4045 228.245 17.1261 227.064 17.566C225.842 18.0212 224.982 19.3247 224.644 21.2362C224.395 22.6414 224.455 24.298 224.81 25.7811C225.188 27.3602 225.864 28.6302 226.714 29.357C227.781 30.2696 229.168 30.6294 230.571 30.4085V30.4085Z" fill="white"/>
<path d="M234.487 30.9939C235.051 30.9049 235.599 30.6321 236.116 30.1829C237.444 29.0286 238.136 27.5214 238.013 26.0479C237.933 25.0843 237.504 24.276 236.867 23.8858C236.518 23.6724 236.089 23.6039 235.592 23.6822C234.248 23.894 232.57 25.2012 231.852 26.5961C231.279 27.7086 231.347 28.9872 232.03 29.9328C232.619 30.7468 233.537 31.1435 234.487 30.9939ZM235.663 24.1343C236.05 24.0734 236.374 24.1212 236.628 24.2762C237.134 24.5858 237.49 25.2793 237.557 26.0859C237.668 27.4124 237.033 28.7798 235.816 29.8374C235.365 30.2294 234.894 30.4663 234.415 30.5417C233.639 30.664 232.886 30.3361 232.401 29.6647C231.82 28.8596 231.765 27.7641 232.259 26.8057C232.907 25.5463 234.466 24.3229 235.663 24.1343Z" fill="white"/>
<path d="M230.147 37.4224L230.401 37.3822C230.61 37.3494 230.752 37.1542 230.719 36.9461C230.686 36.738 230.491 36.5959 230.283 36.6287L230.028 36.6689C229.82 36.7016 229.678 36.8969 229.71 37.105C229.743 37.3131 229.938 37.4552 230.147 37.4224Z" fill="white"/>
<path d="M232.136 37.1087C232.344 37.0759 232.486 36.8807 232.454 36.6726L230.858 26.5467C230.825 26.3386 230.63 26.1965 230.422 26.2293C230.214 26.2621 230.072 26.4573 230.105 26.6654L231.7 36.7913C231.733 36.9994 231.928 37.1415 232.136 37.1087Z" fill="white"/>
<path d="M231.519 33.1913C231.577 33.1822 231.631 33.1511 231.668 33.1L234.312 29.4676C234.386 29.3654 234.364 29.2223 234.262 29.1479C234.159 29.0736 234.016 29.0961 233.942 29.1983L231.298 32.8306C231.224 32.9328 231.247 33.0759 231.349 33.1503C231.4 33.1875 231.461 33.2005 231.519 33.1913Z" fill="white"/>
<path fill-rule="evenodd" clip-rule="evenodd" d="M319 75.2485V310.334C292.576 318.331 260.311 322 223.5 322C117.737 322 32 260.215 32 184C32 107.785 117.737 46 223.5 46C260.311 46 292.576 57.3005 319 75.2485Z" fill="#8ABCE4"/>
<path fill-rule="evenodd" clip-rule="evenodd" d="M38.5 322C104.498 322 158 265.14 158 195C158 124.86 104.498 68 38.5 68C24.6575 68 11.3647 70.5013 -1 75.1019L-1 314.898C11.3647 319.499 24.6575 322 38.5 322Z" fill="#8ABCE4"/>
<rect x="-1" y="166" width="320" height="820" fill="#8ABCE4"/>
<defs>
<filter id="filter0_d_190_2" x="-9" y="-9" width="343" height="271" filterUnits="userSpaceOnUse" color-interpolation-filters="sRGB">
<feFlood flood-opacity="0" result="BackgroundImageFix"/>
<feColorMatrix in="SourceAlpha" type="matrix" values="0 0 0 0 0 0 0 0 0 0 0 0 0 0 0 0 0 0 127 0" result="hardAlpha"/>
<feOffset dx="-5" dy="4"/>
<feGaussianBlur stdDeviation="10"/>
<feComposite in2="hardAlpha" operator="out"/>
<feColorMatrix type="matrix" values="0 0 0 0 0 0 0 0 0 0 0 0 0 0 0 0 0 0 0.15 0"/>
<feBlend mode="normal" in2="BackgroundImageFix" result="effect1_dropShadow_190_2"/>
<feBlend mode="normal" in="SourceGraphic" in2="effect1_dropShadow_190_2" result="shape"/>
</filter>
</defs>
</svg>
