<svg width="1600" height="1416" viewBox="0 0 1600 1416" fill="none" xmlns="http://www.w3.org/2000/svg">
<path fill-rule="evenodd" clip-rule="evenodd" d="M1600 468.668V123.304C1573.91 104.727 1543.27 94.0288 1510.5 94.0288C1415.23 94.0288 1338 184.448 1338 295.986C1338 407.524 1415.23 497.943 1510.5 497.943C1543.27 497.943 1573.91 487.244 1600 468.668Z" fill="#C4E0F5"/>
<path d="M1458.42 96.3755L1460.15 96.2223L1462.5 94.9949L1464.43 92.4934L1465.48 89.0517L1464.96 85.8367L1463.31 83.4941L1461.12 82.632L1459.69 83.1171L1458.97 81.511L1456.58 78.2463L1453.65 75.7228L1451.03 74.3259L1447.79 73.4486L1444.44 73.348L1442.57 73.9824L1440.97 75.4477L1439.91 77.5954L1439.37 80.7397L1439.62 84.9722L1440.87 88.6841L1441.59 90.8448L1443.14 93.465L1445.06 95.3446L1445.58 95.6019L1444.75 95.8817L1442.6 96.6093L1442.02 97.9791L1442.32 99.6049L1442.98 101.599L1444.2 103.222L1445.68 104.327L1447.67 104.58L1448.81 104.502L1450.48 103.258L1451.63 102.127L1451.5 99.8908L1449.82 96.7326L1451.47 96.8777L1454.12 95.9822L1455.6 95.1087L1457.12 95.9544L1458.42 96.3755Z" fill="#C4E0F5"/>
<path d="M1449.05 104.857C1449.81 104.601 1450.49 104.16 1451.02 103.571C1451.82 102.673 1452.16 101.528 1451.99 100.346C1451.75 98.7562 1450.97 97.4508 1449.73 96.5712C1449.53 96.4314 1449.26 96.4787 1449.12 96.6765C1448.98 96.8743 1449.03 97.1479 1449.23 97.2875C1450.28 98.0362 1450.92 99.1087 1451.12 100.475C1451.26 101.394 1450.99 102.286 1450.37 102.986C1449.63 103.811 1448.5 104.277 1447.35 104.233C1446.01 104.182 1444.6 103.206 1443.56 101.624C1442.6 100.154 1442.21 98.5151 1442.58 97.5458C1442.87 96.7976 1444.2 96.2534 1445.74 96.2517C1445.98 96.2514 1446.18 96.055 1446.18 95.8128C1446.18 95.5707 1445.98 95.3746 1445.74 95.3748C1443.79 95.3769 1442.2 96.122 1441.77 97.2287C1441.29 98.4688 1441.71 100.383 1442.83 102.105C1444.02 103.924 1445.7 105.047 1447.32 105.109C1447.91 105.132 1448.5 105.043 1449.05 104.857V104.857Z" fill="#C4E0F5"/>
<path d="M1456.72 105.023C1456.82 104.988 1456.92 104.911 1456.97 104.803C1457.08 104.586 1456.99 104.323 1456.77 104.215L1449.45 100.565C1449.24 100.458 1448.97 100.546 1448.87 100.763C1448.76 100.98 1448.85 101.243 1449.06 101.351L1456.38 105.001C1456.49 105.054 1456.61 105.059 1456.72 105.023Z" fill="#C4E0F5"/>
<path d="M1452.97 96.857C1453.99 96.5128 1454.98 95.9955 1455.91 95.3074C1456.11 95.164 1456.15 94.8897 1456 94.6945C1455.86 94.4993 1455.59 94.4574 1455.39 94.6005C1452.35 96.8451 1448.78 97.1283 1445.83 95.3581C1442.45 93.3262 1439.73 87.0844 1439.76 81.4441C1439.79 78.0482 1440.83 75.5775 1442.7 74.4869C1444.56 73.4095 1447.33 73.4518 1450.31 74.6027C1454.59 76.2507 1458.12 79.6938 1459.3 83.3746C1459.38 83.605 1459.62 83.7313 1459.85 83.6567C1459.85 83.6562 1459.85 83.6556 1459.86 83.655C1460.08 83.5785 1460.2 83.3333 1460.13 83.1046C1458.87 79.1817 1455.14 75.5232 1450.63 73.784C1447.39 72.5378 1444.35 72.5176 1442.27 73.7281C1440.12 74.9807 1438.92 77.7188 1438.89 81.438C1438.87 84.1721 1439.52 87.2814 1440.66 89.9686C1441.87 92.8297 1443.55 95.0111 1445.38 96.1107C1447.68 97.4914 1450.4 97.7252 1452.97 96.857V96.857Z" fill="#C4E0F5"/>
<path d="M1460.52 96.7049C1461.55 96.3555 1462.49 95.664 1463.32 94.6495C1465.45 92.0422 1466.27 88.9734 1465.56 86.2298C1465.1 84.4356 1464.04 83.0467 1462.72 82.5147C1461.99 82.2237 1461.16 82.2322 1460.26 82.5398C1457.8 83.3717 1455.06 86.38 1454.16 89.2456C1453.43 91.531 1453.97 93.9238 1455.56 95.4902C1456.93 96.8387 1458.78 97.2928 1460.52 96.7049ZM1460.53 83.3708C1461.24 83.1315 1461.87 83.1175 1462.39 83.3288C1463.44 83.751 1464.33 84.9463 1464.72 86.4481C1465.35 88.918 1464.59 91.7046 1462.64 94.0934C1461.92 94.9787 1461.11 95.5777 1460.24 95.8737C1458.82 96.3541 1457.3 95.9767 1456.17 94.8646C1454.82 93.5311 1454.37 91.4795 1454.99 89.5106C1455.8 86.9234 1458.34 84.1117 1460.53 83.3708Z" fill="#C4E0F5"/>
<path d="M1454.41 110.242L1454.88 110.084C1455.26 109.955 1455.47 109.541 1455.34 109.158C1455.21 108.776 1454.8 108.57 1454.42 108.699L1453.95 108.857C1453.57 108.986 1453.36 109.4 1453.49 109.782C1453.62 110.165 1454.03 110.371 1454.41 110.242Z" fill="#C4E0F5"/>
<path d="M1458.05 109.01C1458.43 108.881 1458.64 108.467 1458.51 108.084L1452.27 89.4717C1452.14 89.0892 1451.73 88.8836 1451.35 89.0124C1450.97 89.1412 1450.77 89.5556 1450.89 89.9381L1457.13 108.551C1457.26 108.933 1457.67 109.139 1458.05 109.01Z" fill="#C4E0F5"/>
<path d="M1455.64 101.809C1455.75 101.773 1455.84 101.697 1455.89 101.588L1459.7 93.8781C1459.81 93.6612 1459.72 93.3981 1459.5 93.2904C1459.29 93.1829 1459.02 93.2715 1458.92 93.4883L1455.11 101.198C1455 101.415 1455.09 101.678 1455.31 101.786C1455.42 101.84 1455.53 101.845 1455.64 101.809Z" fill="#C4E0F5"/>
<ellipse cx="104.02" cy="140.64" rx="104.02" ry="140.64" transform="matrix(-0.97963 0.200811 0.198988 0.980002 1385.03 49.2334)" fill="#C4E0F5"/>
<ellipse cx="104.02" cy="140.64" rx="104.02" ry="140.64" transform="matrix(-0.97963 0.200811 0.198988 0.980002 429.029 16.0763)" fill="#C4E0F5"/>
<path d="M344.518 28.2441L346.159 28.8117L348.804 28.653L351.576 27.1557L353.936 24.4448L354.76 21.2938L354.207 18.4812L352.555 16.7968L351.049 16.6531L351.04 14.8907L350.187 10.9337L348.531 7.4286L346.707 5.08194L344.103 2.95443L341.085 1.49212L339.116 1.30425L337.064 1.98933L335.225 3.51679L333.455 6.16655L331.969 10.1353L331.601 14.0345L331.387 16.3041L331.743 19.3329L332.734 21.835L333.101 22.2811L332.232 22.1982L329.973 21.9827L328.884 22.9945L328.498 24.6019L328.301 26.697L328.756 28.6782L329.656 30.2908L331.369 31.335L332.442 31.731L334.472 31.2787L335.986 30.7185L336.768 28.6205L336.521 25.0516L337.964 25.8572L340.745 26.1225L342.457 25.9335L343.495 27.3244L344.518 28.2441Z" fill="#C4E0F5"/>
<path d="M332.52 32.1549C333.316 32.2307 334.119 32.1086 334.837 31.7856C335.933 31.2929 336.712 30.3878 337.03 29.2367C337.46 27.6885 337.277 26.1772 336.501 24.8664C336.378 24.6581 336.11 24.5899 335.903 24.7137C335.696 24.8375 335.628 25.1065 335.751 25.3146C336.411 26.4302 336.559 27.6708 336.19 29.0015C335.942 29.8967 335.335 30.6013 334.481 30.9854C333.475 31.4376 332.257 31.402 331.222 30.8899C330.021 30.2958 329.123 28.8255 328.82 26.9567C328.538 25.2211 328.843 23.5632 329.578 22.8312C330.144 22.266 331.578 22.3126 332.987 22.9419C333.207 23.0403 333.465 22.9408 333.563 22.7194C333.661 22.4982 333.562 22.2391 333.341 22.1407C331.561 21.3452 329.802 21.3726 328.963 22.2086C328.023 23.1451 327.628 25.0643 327.959 27.0979C328.307 29.2457 329.383 30.9574 330.836 31.6765C331.369 31.9398 331.942 32.0997 332.52 32.1549V32.1549Z" fill="#C4E0F5"/>
<path d="M339.456 35.4447C339.567 35.4553 339.682 35.4233 339.775 35.3462C339.961 35.1919 339.987 34.9155 339.833 34.7288L334.627 28.3995C334.473 28.2129 334.198 28.1866 334.012 28.3409C333.826 28.4952 333.8 28.7715 333.954 28.9582L339.161 35.2876C339.238 35.3809 339.345 35.4341 339.456 35.4447Z" fill="#C4E0F5"/>
<path d="M339.341 26.452C340.41 26.5541 341.526 26.4879 342.657 26.2412C342.893 26.1898 343.042 25.9564 342.991 25.7198C342.94 25.4831 342.707 25.333 342.472 25.3843C338.783 26.189 335.402 24.9844 333.429 22.1619C331.163 18.9218 331.209 12.1078 333.53 6.97217C334.928 3.8802 336.883 2.05108 339.036 1.82156C341.163 1.595 343.679 2.76852 345.938 5.0412C349.174 8.29543 351 12.8837 350.59 16.7303C350.565 16.9711 350.738 17.1872 350.978 17.2128C350.979 17.213 350.981 17.2132 350.983 17.2133C351.22 17.236 351.433 17.0626 351.458 16.8235C351.895 12.7238 349.97 7.85573 346.556 4.42141C344.109 1.96045 341.334 0.695161 338.944 0.949595C336.471 1.21305 334.266 3.2232 332.736 6.60959C331.61 9.099 330.938 12.2023 330.891 15.1235C330.841 18.2339 331.489 20.9125 332.715 22.6659C334.254 24.8673 336.645 26.1948 339.341 26.452V26.452Z" fill="#C4E0F5"/>
<path d="M346.296 29.402C347.381 29.5055 348.523 29.26 349.69 28.6722C352.69 27.1618 354.681 24.6937 355.152 21.9006C355.46 20.074 355.051 18.37 354.058 17.3426C353.515 16.7806 352.755 16.4495 351.8 16.3584C349.218 16.112 345.499 17.7397 343.512 19.9868C341.926 21.7789 341.447 24.1842 342.262 26.2642C342.963 28.0549 344.471 29.2279 346.296 29.402ZM351.718 17.2314C352.461 17.3022 353.038 17.5453 353.432 17.9535C354.22 18.7689 354.549 20.2252 354.292 21.7542C353.868 24.2686 352.048 26.5044 349.299 27.8882C348.281 28.401 347.298 28.6166 346.379 28.529C344.888 28.3867 343.652 27.42 343.074 25.9432C342.381 24.1724 342.798 22.1132 344.164 20.5693C345.959 18.5406 349.418 17.0119 351.718 17.2314Z" fill="#C4E0F5"/>
<path d="M335.236 39.2679L335.726 39.3147C336.126 39.3528 336.481 39.0581 336.519 38.6563C336.557 38.2545 336.263 37.8979 335.864 37.8598L335.374 37.813C334.974 37.7749 334.619 38.0696 334.581 38.4714C334.543 38.8732 334.836 39.2298 335.236 39.2679Z" fill="#C4E0F5"/>
<path d="M339.06 39.6327C339.46 39.6708 339.815 39.3761 339.853 38.9743L341.7 19.4228C341.738 19.021 341.445 18.6644 341.045 18.6262C340.645 18.5881 340.29 18.8828 340.252 19.2846L338.405 38.8362C338.367 39.238 338.66 39.5946 339.06 39.6327Z" fill="#C4E0F5"/>
<path d="M339.775 32.0682C339.886 32.0788 340.001 32.0468 340.094 31.9697L346.697 26.4862C346.883 26.3319 346.909 26.0555 346.755 25.8688C346.602 25.6823 346.327 25.656 346.141 25.8102L339.538 31.2938C339.352 31.4481 339.326 31.7244 339.48 31.9111C339.557 32.0044 339.664 32.0576 339.775 32.0682Z" fill="#C4E0F5"/>
<path fill-rule="evenodd" clip-rule="evenodd" d="M3.24612e-05 123.393V362.13C40.4782 395.035 97.9065 409.994 156.796 397.923C255.215 377.748 320.446 289.714 302.492 201.294C284.539 112.874 190.2 57.5501 91.7802 77.7248C55.9994 85.0594 24.6052 101.363 3.24612e-05 123.393Z" fill="#C4E0F5"/>
<path d="M108 56.2667C106.333 58.9461 102.5 66.1134 100.5 73.3477C98.5 80.582 99.6667 79.7112 100.5 78.3715" stroke="#C4E0F5" stroke-width="2" stroke-linecap="round" stroke-linejoin="round"/>
<path d="M114 64.2338C111.648 66.3313 105.957 72.1196 102.005 78.4922C98.0539 84.8648 99.4178 84.3604 100.594 83.3116" stroke="#C4E0F5" stroke-width="2" stroke-linecap="round" stroke-linejoin="round"/>
<ellipse cx="243.791" cy="140.663" rx="243.791" ry="140.663" transform="matrix(-0.996924 -0.0783698 -0.0776333 0.996982 1323 129.645)" fill="#C4E0F5"/>
<path d="M1099 92.4382C1097.33 95.1176 1093.5 102.285 1091.5 109.519C1089.5 116.753 1090.67 115.883 1091.5 114.543" stroke="#C4E0F5" stroke-width="2" stroke-linecap="round" stroke-linejoin="round"/>
<path d="M1105 100.405C1102.65 102.503 1096.96 108.291 1093.01 114.664C1089.05 121.036 1090.42 120.532 1091.59 119.483" stroke="#C4E0F5" stroke-width="2" stroke-linecap="round" stroke-linejoin="round"/>
<path d="M1513.21 73.8351C1513.78 76.9423 1514.73 85.0234 1513.94 92.4901C1513.15 99.9567 1512.39 98.7161 1512.1 97.1625" stroke="#C4E0F5" stroke-width="2" stroke-linecap="round" stroke-linejoin="round"/>
<path d="M1504.72 79.0297C1506.14 81.8487 1509.31 89.3331 1510.66 96.7188C1512 104.104 1510.92 103.132 1510.21 101.722" stroke="#C4E0F5" stroke-width="2" stroke-linecap="round" stroke-linejoin="round"/>
<ellipse cx="243.791" cy="140.663" rx="243.791" ry="140.663" transform="matrix(-0.996924 -0.0783698 -0.0776333 0.996982 756 153.759)" fill="#C4E0F5"/>
<ellipse cx="88.8539" cy="70.8866" rx="88.8539" ry="70.8866" transform="matrix(-0.883553 0.468331 0.464863 0.885383 972.095 49.2334)" fill="#C4E0F5"/>
<ellipse cx="88.8539" cy="70.8866" rx="88.8539" ry="70.8866" transform="matrix(0.883553 0.468331 -0.464863 0.885383 598.986 49.2334)" fill="#C4E0F5"/>
<ellipse cx="166.398" cy="133.022" rx="166.398" ry="133.022" transform="matrix(-0.99883 0.0483608 0.0479045 0.998852 941.371 33.7916)" fill="#C4E0F5"/>
<g filter="url(#filter0_d_171_154)">
<ellipse cx="254.5" cy="130.628" rx="254.5" ry="130.628" transform="matrix(-1 0 0 1 1524 134.621)" fill="#2CBC67"/>
<path d="M1324 115.548C1322.33 118.227 1318.5 125.394 1316.5 132.629C1314.5 139.863 1315.67 138.992 1316.5 137.652" stroke="#2CBC67" stroke-width="2" stroke-linecap="round" stroke-linejoin="round"/>
<path d="M1330 123.515C1327.65 125.612 1321.96 131.401 1318.01 137.773C1314.05 144.146 1315.42 143.641 1316.59 142.593" stroke="#2CBC67" stroke-width="2" stroke-linecap="round" stroke-linejoin="round"/>
<ellipse cx="187.5" cy="72.7078" rx="187.5" ry="72.7078" transform="matrix(-1 0 0 1 413 183.915)" fill="#2CBC67"/>
<ellipse cx="216" cy="130.628" rx="216" ry="130.628" transform="matrix(-1 0 0 1 891 107.51)" fill="#2CBC67"/>
<path d="M701 86.4095C699.333 89.0889 695.5 96.2562 693.5 103.49C691.5 110.725 692.667 109.854 693.5 108.514" stroke="#2CBC67" stroke-width="2" stroke-linecap="round" stroke-linejoin="round"/>
<path d="M707 94.3766C704.648 96.4741 698.957 102.262 695.005 108.635C691.054 115.008 692.418 114.503 693.594 113.454" stroke="#2CBC67" stroke-width="2" stroke-linecap="round" stroke-linejoin="round"/>
<path d="M319.179 171.812C319.461 174.959 319.659 183.093 318.192 190.455C316.724 197.817 316.074 196.511 315.933 194.937" stroke="#2CBC67" stroke-width="2" stroke-linecap="round" stroke-linejoin="round"/>
<path d="M310.244 176.197C311.4 179.135 313.875 186.883 314.536 194.361C315.196 201.84 314.206 200.771 313.629 199.302" stroke="#2CBC67" stroke-width="2" stroke-linecap="round" stroke-linejoin="round"/>
<ellipse cx="182.5" cy="110.294" rx="182.5" ry="110.294" transform="matrix(-1 0 0 1 1050 175.288)" fill="#2CBC67"/>
<path d="M910.518 169.916L912.16 170.484L914.805 170.325L917.576 168.828L919.936 166.117L920.76 162.966L920.207 160.153L918.555 158.469L917.049 158.325L917.04 156.563L916.187 152.606L914.531 149.1L912.707 146.754L910.103 144.626L907.085 143.164L905.116 142.976L903.064 143.661L901.225 145.189L899.455 147.838L897.97 151.807L897.601 155.706L897.387 157.976L897.743 161.005L898.734 163.507L899.101 163.953L898.232 163.87L895.973 163.655L894.884 164.666L894.499 166.274L894.301 168.369L894.756 170.35L895.656 171.963L897.369 173.007L898.442 173.403L900.472 172.951L901.986 172.39L902.768 170.292L902.521 166.723L903.965 167.529L906.745 167.794L908.457 167.605L909.495 168.996L910.518 169.916Z" fill="#2CBC67"/>
<path d="M898.521 173.826C899.316 173.902 900.119 173.78 900.837 173.457C901.933 172.964 902.712 172.059 903.031 170.908C903.46 169.36 903.277 167.849 902.501 166.538C902.378 166.33 902.11 166.261 901.903 166.385C901.696 166.509 901.628 166.778 901.751 166.986C902.411 168.102 902.559 169.342 902.19 170.673C901.942 171.568 901.335 172.273 900.481 172.657C899.476 173.109 898.257 173.073 897.222 172.561C896.021 171.967 895.123 170.497 894.82 168.628C894.538 166.893 894.843 165.235 895.578 164.503C896.145 163.938 897.578 163.984 898.987 164.613C899.207 164.712 899.465 164.612 899.563 164.391C899.661 164.17 899.562 163.911 899.342 163.812C897.561 163.017 895.802 163.044 894.963 163.88C894.023 164.817 893.629 166.736 893.959 168.769C894.307 170.917 895.383 172.629 896.836 173.348C897.369 173.611 897.943 173.771 898.521 173.826V173.826Z" fill="#2CBC67"/>
<path d="M905.456 177.116C905.567 177.127 905.682 177.095 905.775 177.018C905.961 176.863 905.987 176.587 905.833 176.4L900.627 170.071C900.473 169.885 900.198 169.858 900.012 170.012C899.826 170.167 899.8 170.443 899.954 170.63L905.161 176.959C905.238 177.053 905.345 177.106 905.456 177.116Z" fill="#2CBC67"/>
<path d="M905.341 168.124C906.41 168.226 907.527 168.159 908.658 167.913C908.893 167.861 909.042 167.628 908.991 167.391C908.94 167.155 908.708 167.005 908.472 167.056C904.783 167.86 901.403 166.656 899.43 163.833C897.164 160.593 897.209 153.779 899.531 148.644C900.928 145.552 902.884 143.723 905.036 143.493C907.164 143.267 909.679 144.44 911.939 146.713C915.174 149.967 917 154.555 916.591 158.402C916.565 158.643 916.739 158.859 916.978 158.884C916.98 158.885 916.982 158.885 916.983 158.885C917.221 158.908 917.433 158.734 917.459 158.495C917.895 154.395 915.971 149.527 912.556 146.093C910.109 143.632 907.335 142.367 904.945 142.621C902.472 142.885 900.267 144.895 898.736 148.281C897.611 150.771 896.939 153.874 896.892 156.795C896.842 159.905 897.489 162.584 898.716 164.337C900.255 166.539 902.646 167.866 905.341 168.124V168.124Z" fill="#2CBC67"/>
<path d="M912.296 171.074C913.381 171.177 914.523 170.932 915.69 170.344C918.691 168.833 920.681 166.365 921.152 163.572C921.46 161.746 921.051 160.042 920.058 159.014C919.515 158.452 918.756 158.121 917.801 158.03C915.218 157.784 911.499 159.411 909.512 161.658C907.927 163.451 907.448 165.856 908.262 167.936C908.963 169.726 910.471 170.9 912.296 171.074ZM917.718 158.903C918.461 158.974 919.038 159.217 919.432 159.625C920.22 160.44 920.55 161.897 920.292 163.426C919.868 165.94 918.048 168.176 915.3 169.56C914.281 170.073 913.298 170.288 912.379 170.201C910.888 170.058 909.652 169.092 909.074 167.615C908.381 165.844 908.799 163.785 910.164 162.241C911.959 160.212 915.418 158.684 917.718 158.903Z" fill="#2CBC67"/>
<path d="M901.236 180.939L901.726 180.986C902.126 181.024 902.481 180.73 902.519 180.328C902.557 179.926 902.264 179.569 901.864 179.531L901.374 179.485C900.974 179.446 900.619 179.741 900.581 180.143C900.543 180.545 900.836 180.901 901.236 180.939Z" fill="#2CBC67"/>
<path d="M905.06 181.304C905.46 181.342 905.815 181.048 905.853 180.646L907.7 161.094C907.738 160.692 907.445 160.336 907.045 160.298C906.645 160.26 906.29 160.554 906.252 160.956L904.405 180.508C904.367 180.909 904.66 181.266 905.06 181.304Z" fill="#2CBC67"/>
<path d="M905.775 173.74C905.886 173.75 906.001 173.718 906.094 173.641L912.697 168.158C912.883 168.003 912.909 167.727 912.755 167.54C912.602 167.354 912.327 167.328 912.141 167.482L905.538 172.965C905.352 173.12 905.326 173.396 905.48 173.583C905.557 173.676 905.664 173.729 905.775 173.74Z" fill="#2CBC67"/>
</g>
<path fill-rule="evenodd" clip-rule="evenodd" d="M1600 465.912V157.925C1534.24 144.641 1455.04 150.555 1374.21 182.608C1181.57 167.465 1016.37 271.373 1005.21 414.692C998.035 506.796 1062.51 497.203 1160.63 482.603C1215.19 474.485 1280.16 464.819 1349 470.23C1435.36 477.019 1525.65 478.86 1600 465.912Z" fill="#8ABCE4"/>
<ellipse cx="182.5" cy="179.852" rx="182.5" ry="179.852" transform="matrix(-1 0 0 1 1215 151.72)" fill="#8ABCE4"/>
<path fill-rule="evenodd" clip-rule="evenodd" d="M0 157.899V505.247C142.861 484.614 248 414.676 248 331.573C248 248.47 142.861 178.532 0 157.899Z" fill="#8ABCE4"/>
<ellipse cx="120.5" cy="179.852" rx="120.5" ry="179.852" transform="matrix(-1 0 0 1 355 204.973)" fill="#8ABCE4"/>
<path d="M215 414.968C215 539.269 382.669 506.401 589.5 506.401C796.331 506.401 964 539.269 964 414.968C964 290.667 796.331 189.901 589.5 189.901C382.669 189.901 215 290.667 215 414.968Z" fill="#8ABCE4"/>
<path d="M651.971 178.962L654.413 179.806L658.348 179.57L662.472 177.342L665.983 173.309L667.209 168.62L666.387 164.435L663.928 161.929L661.688 161.716L661.675 159.093L660.405 153.206L657.941 147.991L655.228 144.499L651.353 141.333L646.863 139.158L643.933 138.878L640.88 139.898L638.143 142.17L635.51 146.113L633.3 152.018L632.752 157.819L632.433 161.196L632.963 165.703L634.437 169.426L634.983 170.089L633.691 169.966L630.33 169.645L628.709 171.151L628.135 173.542L627.841 176.66L628.519 179.607L629.857 182.007L632.406 183.561L634.003 184.15L637.023 183.477L639.275 182.643L640.44 179.522L640.072 174.212L642.22 175.41L646.356 175.805L648.905 175.524L650.448 177.593L651.971 178.962Z" fill="#8ABCE4"/>
<path d="M634.12 184.78C635.303 184.893 636.499 184.711 637.567 184.23C639.197 183.497 640.356 182.15 640.83 180.438C641.469 178.134 641.197 175.886 640.042 173.935C639.859 173.625 639.461 173.524 639.152 173.708C638.844 173.892 638.743 174.293 638.926 174.602C639.909 176.262 640.129 178.108 639.579 180.088C639.21 181.42 638.307 182.468 637.036 183.04C635.541 183.713 633.728 183.659 632.187 182.898C630.401 182.014 629.065 179.826 628.614 177.045C628.195 174.463 628.648 171.996 629.741 170.907C630.585 170.066 632.718 170.136 634.814 171.072C635.141 171.218 635.525 171.07 635.671 170.741C635.816 170.412 635.669 170.026 635.341 169.88C632.692 168.696 630.074 168.737 628.827 169.981C627.428 171.374 626.841 174.23 627.332 177.255C627.851 180.451 629.452 182.998 631.614 184.068C632.406 184.46 633.26 184.698 634.12 184.78V184.78Z" fill="#8ABCE4"/>
<path d="M644.439 189.675C644.604 189.691 644.775 189.643 644.914 189.528C645.19 189.299 645.229 188.887 645 188.61L637.253 179.192C637.025 178.915 636.615 178.876 636.339 179.105C636.063 179.335 636.024 179.746 636.252 180.024L643.999 189.441C644.114 189.58 644.273 189.659 644.439 189.675Z" fill="#8ABCE4"/>
<path d="M644.268 176.294C645.859 176.446 647.52 176.348 649.202 175.981C649.553 175.904 649.775 175.557 649.699 175.205C649.623 174.853 649.277 174.629 648.927 174.706C643.438 175.903 638.408 174.111 635.472 169.911C632.101 165.09 632.169 154.952 635.623 147.311C637.702 142.71 640.611 139.989 643.815 139.647C646.979 139.31 650.722 141.056 654.084 144.438C658.898 149.279 661.615 156.106 661.006 161.83C660.968 162.188 661.226 162.509 661.582 162.548C661.585 162.548 661.588 162.548 661.59 162.548C661.944 162.582 662.259 162.324 662.297 161.968C662.947 155.868 660.084 148.625 655.003 143.515C651.362 139.854 647.234 137.971 643.678 138.35C639.999 138.742 636.718 141.733 634.44 146.771C632.766 150.475 631.766 155.092 631.696 159.439C631.622 164.067 632.586 168.052 634.41 170.661C636.7 173.936 640.257 175.912 644.268 176.294V176.294Z" fill="#8ABCE4"/>
<path d="M654.617 180.684C656.23 180.838 657.93 180.473 659.666 179.598C664.13 177.351 667.092 173.678 667.793 169.523C668.251 166.805 667.642 164.27 666.165 162.741C665.357 161.905 664.227 161.412 662.806 161.277C658.963 160.91 653.431 163.332 650.473 166.675C648.115 169.342 647.402 172.92 648.614 176.015C649.657 178.679 651.901 180.425 654.617 180.684ZM662.683 162.575C663.789 162.681 664.647 163.042 665.234 163.65C666.406 164.863 666.896 167.03 666.513 169.305C665.882 173.046 663.175 176.373 659.085 178.432C657.569 179.195 656.107 179.515 654.739 179.385C652.521 179.173 650.683 177.735 649.822 175.538C648.791 172.903 649.412 169.839 651.444 167.542C654.114 164.523 659.261 162.249 662.683 162.575Z" fill="#8ABCE4"/>
<path d="M638.16 195.363L638.889 195.433C639.484 195.489 640.012 195.051 640.069 194.453C640.125 193.855 639.689 193.325 639.094 193.268L638.365 193.198C637.77 193.142 637.242 193.58 637.185 194.178C637.129 194.776 637.565 195.306 638.16 195.363Z" fill="#8ABCE4"/>
<path d="M643.85 195.906C644.445 195.963 644.973 195.524 645.029 194.926L647.778 165.836C647.835 165.238 647.398 164.707 646.803 164.651C646.208 164.594 645.68 165.032 645.624 165.63L642.875 194.721C642.818 195.319 643.255 195.849 643.85 195.906Z" fill="#8ABCE4"/>
<path d="M644.913 184.651C645.079 184.667 645.25 184.619 645.388 184.504L655.212 176.345C655.489 176.116 655.528 175.705 655.299 175.427C655.071 175.149 654.662 175.11 654.385 175.34L644.561 183.499C644.285 183.728 644.246 184.139 644.474 184.417C644.589 184.556 644.748 184.635 644.913 184.651Z" fill="#8ABCE4"/>
<path d="M1380.91 173.048L1382.56 173.616L1385.2 173.457L1387.97 171.96L1390.33 169.249L1391.16 166.098L1390.6 163.285L1388.95 161.601L1387.45 161.457L1387.44 159.695L1386.58 155.738L1384.93 152.233L1383.1 149.886L1380.5 147.759L1377.48 146.296L1375.51 146.108L1373.46 146.793L1371.62 148.321L1369.85 150.971L1368.37 154.939L1368 158.839L1367.78 161.108L1368.14 164.137L1369.13 166.639L1369.5 167.085L1368.63 167.002L1366.37 166.787L1365.28 167.799L1364.9 169.406L1364.7 171.501L1365.15 173.482L1366.05 175.095L1367.77 176.139L1368.84 176.535L1370.87 176.083L1372.38 175.523L1373.16 173.425L1372.92 169.856L1374.36 170.661L1377.14 170.927L1378.85 170.738L1379.89 172.128L1380.91 173.048Z" fill="#8ABCE4"/>
<path d="M1368.92 176.959C1369.71 177.034 1370.52 176.912 1371.23 176.589C1372.33 176.097 1373.11 175.191 1373.43 174.04C1373.86 172.492 1373.67 170.981 1372.9 169.67C1372.77 169.462 1372.51 169.394 1372.3 169.517C1372.09 169.641 1372.02 169.91 1372.15 170.118C1372.81 171.234 1372.96 172.474 1372.59 173.805C1372.34 174.7 1371.73 175.405 1370.88 175.789C1369.87 176.241 1368.65 176.206 1367.62 175.694C1366.42 175.099 1365.52 173.629 1365.22 171.76C1364.93 170.025 1365.24 168.367 1365.97 167.635C1366.54 167.07 1367.97 167.116 1369.38 167.746C1369.6 167.844 1369.86 167.744 1369.96 167.523C1370.06 167.302 1369.96 167.043 1369.74 166.944C1367.96 166.149 1366.2 166.176 1365.36 167.012C1364.42 167.949 1364.02 169.868 1364.35 171.902C1364.7 174.049 1365.78 175.761 1367.23 176.48C1367.77 176.744 1368.34 176.903 1368.92 176.959V176.959Z" fill="#8ABCE4"/>
<path d="M1375.85 180.249C1375.96 180.259 1376.08 180.227 1376.17 180.15C1376.36 179.996 1376.38 179.719 1376.23 179.533L1371.02 173.203C1370.87 173.017 1370.59 172.99 1370.41 173.145C1370.22 173.299 1370.2 173.575 1370.35 173.762L1375.56 180.091C1375.63 180.185 1375.74 180.238 1375.85 180.249Z" fill="#8ABCE4"/>
<path d="M1375.74 171.256C1376.81 171.358 1377.92 171.291 1379.05 171.045C1379.29 170.993 1379.44 170.76 1379.39 170.523C1379.34 170.287 1379.1 170.137 1378.87 170.188C1375.18 170.993 1371.8 169.788 1369.83 166.965C1367.56 163.725 1367.61 156.911 1369.93 151.776C1371.32 148.684 1373.28 146.855 1375.43 146.625C1377.56 146.399 1380.08 147.572 1382.33 149.845C1385.57 153.099 1387.4 157.687 1386.99 161.534C1386.96 161.775 1387.13 161.991 1387.37 162.016C1387.38 162.017 1387.38 162.017 1387.38 162.017C1387.62 162.04 1387.83 161.866 1387.85 161.627C1388.29 157.527 1386.37 152.659 1382.95 149.225C1380.51 146.764 1377.73 145.499 1375.34 145.753C1372.87 146.017 1370.66 148.027 1369.13 151.413C1368.01 153.903 1367.33 157.006 1367.29 159.927C1367.24 163.037 1367.89 165.716 1369.11 167.47C1370.65 169.671 1373.04 170.998 1375.74 171.256V171.256Z" fill="#8ABCE4"/>
<path d="M1382.69 174.206C1383.78 174.309 1384.92 174.064 1386.09 173.476C1389.09 171.966 1391.08 169.497 1391.55 166.704C1391.86 164.878 1391.45 163.174 1390.45 162.146C1389.91 161.584 1389.15 161.253 1388.2 161.162C1385.61 160.916 1381.9 162.544 1379.91 164.791C1378.32 166.583 1377.84 168.988 1378.66 171.068C1379.36 172.859 1380.87 174.032 1382.69 174.206ZM1388.11 162.035C1388.86 162.106 1389.43 162.349 1389.83 162.757C1390.62 163.573 1390.95 165.029 1390.69 166.558C1390.26 169.072 1388.44 171.308 1385.7 172.692C1384.68 173.205 1383.69 173.42 1382.78 173.333C1381.28 173.191 1380.05 172.224 1379.47 170.747C1378.78 168.976 1379.19 166.917 1380.56 165.373C1382.36 163.344 1385.81 161.816 1388.11 162.035Z" fill="#8ABCE4"/>
<path d="M1371.63 184.072L1372.12 184.118C1372.52 184.157 1372.88 183.862 1372.92 183.46C1372.95 183.058 1372.66 182.702 1372.26 182.663L1371.77 182.617C1371.37 182.579 1371.02 182.873 1370.98 183.275C1370.94 183.677 1371.23 184.034 1371.63 184.072Z" fill="#8ABCE4"/>
<path d="M1375.46 184.436C1375.86 184.475 1376.21 184.18 1376.25 183.778L1378.1 164.226C1378.13 163.825 1377.84 163.468 1377.44 163.43C1377.04 163.392 1376.69 163.687 1376.65 164.088L1374.8 183.64C1374.76 184.042 1375.06 184.398 1375.46 184.436Z" fill="#8ABCE4"/>
<path d="M1376.17 176.872C1376.28 176.883 1376.4 176.851 1376.49 176.773L1383.09 171.29C1383.28 171.136 1383.31 170.859 1383.15 170.673C1383 170.486 1382.72 170.46 1382.54 170.614L1375.93 176.098C1375.75 176.252 1375.72 176.528 1375.88 176.715C1375.95 176.808 1376.06 176.861 1376.17 176.872Z" fill="#8ABCE4"/>
<path d="M36.4075 157.185L37.6721 157.622L39.7101 157.5L41.8455 156.346L43.664 154.258L44.2988 151.83L43.8731 149.662L42.5998 148.365L41.4394 148.254L41.4326 146.896L40.7751 143.847L39.4992 141.146L38.094 139.338L36.0874 137.699L33.7621 136.572L32.2447 136.427L30.6638 136.955L29.2466 138.132L27.8829 140.174L26.7383 143.232L26.4544 146.236L26.2891 147.985L26.564 150.319L27.3274 152.247L27.6102 152.59L26.9407 152.527L25.2002 152.36L24.361 153.14L24.0638 154.379L23.9113 155.993L24.2624 157.52L24.9555 158.762L26.2755 159.567L27.1022 159.872L28.6663 159.523L29.8328 159.092L30.4359 157.475L30.2455 154.725L31.3576 155.346L33.4998 155.55L34.8195 155.405L35.6189 156.476L36.4075 157.185Z" fill="#8ABCE4"/>
<path d="M27.1628 160.199C27.7756 160.257 28.3948 160.163 28.948 159.914C29.792 159.534 30.3922 158.837 30.6379 157.95C30.9689 156.757 30.8277 155.593 30.2299 154.583C30.135 154.422 29.9287 154.37 29.7691 154.465C29.6095 154.56 29.557 154.768 29.652 154.928C30.1609 155.788 30.2746 156.743 29.9902 157.769C29.799 158.459 29.3314 159.001 28.6733 159.297C27.8986 159.646 26.9599 159.618 26.1621 159.224C25.2371 158.766 24.5452 157.633 24.3115 156.193C24.0944 154.856 24.3291 153.578 24.8953 153.014C25.3321 152.579 26.4368 152.615 27.5222 153.1C27.6918 153.175 27.8905 153.099 27.966 152.928C28.0415 152.758 27.965 152.558 27.7954 152.482C26.4236 151.869 25.0678 151.89 24.4217 152.535C23.6973 153.256 23.3934 154.735 23.6478 156.302C23.9164 157.957 24.7453 159.276 25.8651 159.83C26.2755 160.033 26.7174 160.156 27.1628 160.199V160.199Z" fill="#8ABCE4"/>
<path d="M32.5066 162.734C32.5922 162.742 32.681 162.717 32.7527 162.658C32.8957 162.539 32.9159 162.326 32.7976 162.182L28.7855 157.305C28.6672 157.161 28.4553 157.141 28.3121 157.26C28.169 157.379 28.1489 157.592 28.2672 157.736L32.2792 162.612C32.3384 162.684 32.421 162.725 32.5066 162.734Z" fill="#8ABCE4"/>
<path d="M32.4184 155.804C33.2421 155.883 34.1022 155.832 34.9736 155.642C35.1551 155.602 35.2702 155.422 35.2309 155.24C35.1915 155.058 35.0122 154.942 34.831 154.981C31.9885 155.601 29.3837 154.673 27.8632 152.499C26.1174 150.002 26.1525 144.752 27.9411 140.794C29.0181 138.412 30.5247 137.003 32.1835 136.826C33.8224 136.651 35.7607 137.555 37.5018 139.307C39.9949 141.814 41.402 145.349 41.0863 148.313C41.0665 148.499 41.2002 148.665 41.3849 148.685C41.3862 148.685 41.3876 148.685 41.389 148.686C41.572 148.703 41.7353 148.569 41.755 148.385C42.0914 145.226 40.6087 141.475 37.9776 138.829C36.0922 136.933 33.9543 135.958 32.1127 136.154C30.2073 136.357 28.5084 137.906 27.329 140.515C26.4619 142.433 25.9439 144.824 25.9078 147.075C25.8692 149.472 26.3683 151.536 27.313 152.887C28.4988 154.583 30.3413 155.606 32.4184 155.804V155.804Z" fill="#8ABCE4"/>
<path d="M37.7775 158.077C38.6133 158.157 39.4931 157.968 40.3925 157.515C42.7043 156.351 44.2383 154.449 44.6011 152.297C44.8383 150.89 44.5232 149.577 43.7581 148.785C43.3396 148.352 42.7544 148.097 42.0185 148.027C40.0284 147.837 37.1633 149.091 35.6318 150.823C34.4103 152.204 34.0413 154.057 34.6687 155.66C35.2089 157.039 36.3711 157.943 37.7775 158.077ZM41.9551 148.7C42.5274 148.754 42.9717 148.941 43.2758 149.256C43.883 149.884 44.1367 151.006 43.9382 152.184C43.6116 154.122 42.2095 155.845 40.0914 156.911C39.3065 157.306 38.5494 157.472 37.8411 157.405C36.6921 157.295 35.7402 156.55 35.2946 155.412C34.7604 154.048 35.0823 152.461 36.1346 151.272C37.5173 149.708 40.1827 148.53 41.9551 148.7Z" fill="#8ABCE4"/>
<path d="M29.2552 165.679L29.6327 165.715C29.9408 165.745 30.2143 165.517 30.2435 165.208C30.2728 164.898 30.0468 164.624 29.7386 164.594L29.3612 164.558C29.053 164.529 28.7796 164.756 28.7503 165.065C28.7211 165.375 28.9471 165.65 29.2552 165.679Z" fill="#8ABCE4"/>
<path d="M32.2018 165.96C32.5099 165.99 32.7834 165.762 32.8126 165.453L34.2362 150.388C34.2655 150.078 34.0394 149.804 33.7313 149.774C33.4232 149.745 33.1497 149.972 33.1205 150.281L31.6969 165.346C31.6676 165.656 31.8938 165.931 32.2018 165.96Z" fill="#8ABCE4"/>
<path d="M32.7525 160.132C32.8381 160.14 32.9269 160.115 32.9985 160.056L38.086 155.831C38.2291 155.712 38.2492 155.499 38.131 155.355C38.0126 155.211 37.8007 155.191 37.6575 155.31L32.57 159.535C32.4269 159.654 32.4068 159.867 32.5251 160.011C32.5843 160.083 32.6669 160.124 32.7525 160.132Z" fill="#8ABCE4"/>
<path d="M525.279 174.83C526.946 177.509 530.779 184.677 532.779 191.911C534.779 199.145 533.613 198.274 532.779 196.935" stroke="#8ABCE4" stroke-width="2" stroke-linecap="round" stroke-linejoin="round"/>
<path d="M519.279 182.797C521.631 184.894 527.322 190.683 531.274 197.055C535.225 203.428 533.861 202.923 532.685 201.875" stroke="#8ABCE4" stroke-width="2" stroke-linecap="round" stroke-linejoin="round"/>
<path d="M130.279 179.854C131.946 182.533 135.779 189.7 137.779 196.935C139.779 204.169 138.612 203.298 137.779 201.959" stroke="#8ABCE4" stroke-width="2" stroke-linecap="round" stroke-linejoin="round"/>
<path d="M124.279 187.821C126.631 189.918 132.322 195.707 136.274 202.079C140.225 208.452 138.861 207.947 137.685 206.899" stroke="#8ABCE4" stroke-width="2" stroke-linecap="round" stroke-linejoin="round"/>
<path d="M1530.28 172.82C1531.95 175.5 1535.78 182.667 1537.78 189.901C1539.78 197.136 1538.61 196.265 1537.78 194.925" stroke="#8ABCE4" stroke-width="2" stroke-linecap="round" stroke-linejoin="round"/>
<path d="M1524.28 180.787C1526.63 182.885 1532.32 188.673 1536.27 195.046C1540.23 201.418 1538.86 200.914 1537.69 199.865" stroke="#8ABCE4" stroke-width="2" stroke-linecap="round" stroke-linejoin="round"/>
<rect width="1600" height="1100" transform="matrix(-1 0 0 1 1600 316)" fill="#8ABCE4"/>
<defs>
<filter id="filter0_d_171_154" x="18" y="79.4094" width="1506" height="330.467" filterUnits="userSpaceOnUse" color-interpolation-filters="sRGB">
<feFlood flood-opacity="0" result="BackgroundImageFix"/>
<feColorMatrix in="SourceAlpha" type="matrix" values="0 0 0 0 0 0 0 0 0 0 0 0 0 0 0 0 0 0 127 0" result="hardAlpha"/>
<feOffset dx="-10" dy="4"/>
<feGaussianBlur stdDeviation="5"/>
<feComposite in2="hardAlpha" operator="out"/>
<feColorMatrix type="matrix" values="0 0 0 0 0.0883333 0 0 0 0 0.441667 0 0 0 0 0.233102 0 0 0 0.2 0"/>
<feBlend mode="normal" in2="BackgroundImageFix" result="effect1_dropShadow_171_154"/>
<feBlend mode="normal" in="SourceGraphic" in2="effect1_dropShadow_171_154" result="shape"/>
</filter>
</defs>
</svg>
