<svg width="1598" height="390" viewBox="0 0 1598 390" fill="none" xmlns="http://www.w3.org/2000/svg">
<rect width="1598" height="246" fill="#8ABCE4"/>
<mask id="mask0_155_6" style="mask-type:alpha" maskUnits="userSpaceOnUse" x="0" y="11" width="1598" height="379">
<rect y="11" width="1598" height="379" fill="#D9D9D9"/>
</mask>
<g mask="url(#mask0_155_6)">
<g filter="url(#filter0_d_155_6)">
<path fill-rule="evenodd" clip-rule="evenodd" d="M947.788 33.29C947.72 33.291 947.651 33.2913 947.583 33.2907L947.678 39.5466L950.085 37.0656C949.861 36.71 949.702 36.3104 949.618 35.8786C949.419 34.858 949.513 33.8784 949.887 32.9969C949.214 33.18 948.51 33.2789 947.788 33.29ZM945.221 32.9666C945.583 33.0629 945.944 33.1375 946.304 33.1907L946.355 36.6006L944.096 34.4087C944.55 34.0264 944.934 33.5402 945.221 32.9666ZM943.453 34.8535C942.865 35.1829 942.198 35.3656 941.492 35.3763C940.534 35.3909 939.551 35.0972 938.57 34.5035C936.047 32.9777 934.475 30.6874 934.256 28.22C934.113 26.6064 934.59 25.1496 935.531 24.3232C936.045 23.8712 936.734 23.6356 937.576 23.6228C937.664 23.6215 937.752 23.6227 937.842 23.6263C937.906 20.1282 939.896 16.2309 942.998 13.5834C945.312 11.6089 947.83 10.6995 949.905 11.088C952.053 11.4901 953.844 13.396 954.95 16.4546C955.763 18.703 956.136 21.4549 955.974 24.0045C955.831 26.2738 955.281 28.246 954.406 29.675C955.602 29.479 956.647 29.704 957.172 30.315C957.93 31.1969 958.142 32.8973 957.712 34.6469C957.258 36.4947 956.196 37.9117 954.874 38.4372C954.389 38.6296 953.876 38.729 953.366 38.7367C952.664 38.7474 951.968 38.5849 951.362 38.2533C951.065 38.091 950.8 37.8939 950.57 37.6672L947.799 40.5238C948.863 40.5078 949.93 40.4998 951 40.4998C1032.73 40.4998 1099.68 87.4284 1105.58 146.947C1141.82 103.787 1233.55 73.014 1341.29 72.5064C1338.5 69.1472 1335.77 66.4537 1334.34 65.1768C1333.92 64.8102 1333.89 64.1781 1334.25 63.7651C1334.62 63.352 1335.25 63.3144 1335.66 63.6811C1337.34 65.1661 1340.65 68.4557 1343.86 72.5L1344 72.5C1345.06 72.5 1346.11 72.5029 1347.17 72.5087C1345.13 65.8686 1341.69 59.4898 1340.15 57.0297C1339.86 56.5614 1340 55.9445 1340.47 55.6517C1340.94 55.359 1341.56 55.5014 1341.85 55.9697C1343.49 58.6001 1347.18 65.4494 1349.26 72.5241C1401.76 73.0054 1450.37 80.674 1490.48 93.4465L1491.96 84.2761L1487.93 78.6937C1486.85 79.0696 1485.69 79.1777 1484.5 78.9872C1482.9 78.7292 1481.35 77.9497 1479.89 76.6701C1476.13 73.3817 1474.19 69.0988 1474.55 64.9196C1474.79 62.1866 1476.01 59.8977 1477.82 58.7971C1478.81 58.1951 1480.03 58.0051 1481.44 58.2323C1481.59 58.2558 1481.73 58.2839 1481.88 58.3164C1483.02 52.5018 1487.49 46.5892 1493.44 43.0889C1497.88 40.4785 1502.35 39.7044 1505.7 40.9642C1509.16 42.268 1511.59 45.9747 1512.53 51.4012C1513.22 55.3903 1513.03 60.0896 1512.01 64.2937C1511.1 68.0354 1509.6 71.1622 1507.72 73.2872C1509.77 73.3131 1511.45 73.9964 1512.15 75.1701C1513.15 76.8644 1513 79.7626 1511.77 82.5533C1510.47 85.5009 1508.28 87.551 1505.92 88.0374C1505.05 88.2152 1504.17 88.2296 1503.31 88.0921C1502.14 87.903 1501.03 87.4269 1500.12 86.6952C1499.67 86.337 1499.28 85.9301 1498.97 85.4843L1493.3 89.579L1492.57 94.1171C1493.61 94.4553 1494.64 94.7969 1495.67 95.142C1495.88 95.0252 1496.12 94.9752 1496.37 95.0158L1497.1 95.1323C1497.53 95.2025 1497.87 95.5232 1497.97 95.9236C1559.36 117.015 1599 150.41 1599 188C1599 251.789 1484.83 303.5 1344 303.5C1215.28 303.5 1108.84 260.301 1091.48 204.165C1066.77 243.352 1013.16 270.5 951 270.5C921.704 270.5 894.307 264.47 870.939 253.991C837.6 283.919 782.203 303.5 719.5 303.5C617.603 303.5 535 251.789 535 188C535 131.41 600.011 84.3257 685.828 74.4188C682.546 70.1838 679.039 66.6881 677.336 65.1768C676.923 64.8102 676.885 64.1781 677.252 63.7651C677.619 63.352 678.251 63.3144 678.664 63.6811C680.561 65.3648 684.565 69.368 688.145 74.1609C688.954 74.0742 689.764 73.9909 690.576 73.9109L690.536 73.7674C688.57 66.6888 684.787 59.645 683.152 57.0297C682.859 56.5614 683.002 55.9445 683.47 55.6517C683.938 55.359 684.555 55.5014 684.848 55.9697C686.547 58.6878 690.43 65.9107 692.464 73.2321C692.51 73.3984 692.554 73.5606 692.597 73.7188C701.379 72.9157 710.362 72.4998 719.5 72.4998C757.364 72.4998 792.565 79.6403 821.852 91.8875C848.834 61.794 894.413 41.6698 946.415 40.5491L946.372 37.685L943.453 34.8535ZM1495.62 77.3643C1495.57 77.3569 1495.53 77.3492 1495.48 77.3413C1495.41 77.3298 1495.35 77.3178 1495.28 77.3053L1493.59 87.7658L1498.34 84.338C1498.07 83.6788 1497.92 82.9657 1497.91 82.2207C1497.88 80.4602 1498.32 78.8542 1499.21 77.4947C1498.03 77.6016 1496.83 77.5589 1495.62 77.3643ZM1491.43 76.0683C1492.01 76.3356 1492.59 76.5665 1493.17 76.7611L1492.25 82.4629L1489.13 78.1413C1490 77.6379 1490.79 76.9401 1491.43 76.0683ZM316 306.325C417.62 306.325 500 255.062 500 191.825C500 147.009 458.624 108.207 398.345 89.4037C403.403 86.193 408.684 83.8673 411.04 82.9953C411.558 82.8036 411.822 82.2283 411.631 81.7104C411.439 81.1924 410.864 80.928 410.346 81.1197C407.677 82.1075 401.474 84.8533 395.857 88.642C395.311 88.478 394.763 88.3157 394.214 88.155C394.595 87.604 395.059 86.9593 395.622 86.208C400.023 80.3261 406.106 75.1363 408.578 73.2928C409.021 72.9627 409.112 72.3361 408.782 71.8934C408.452 71.4506 407.826 71.3593 407.383 71.6894C404.813 73.6054 398.573 78.926 394.02 85.0097C393.257 86.0293 392.656 86.8749 392.192 87.5725C368.976 80.9916 343.176 77.3255 316 77.3255C275.192 77.3255 237.487 85.5923 206.973 99.5816L206.718 99.0895L208.834 92.4248C209.354 92.5943 209.905 92.6923 210.478 92.7139C211.647 92.758 212.824 92.4786 213.879 91.9319C214.647 91.5345 215.349 90.9958 215.939 90.3378C217.546 88.5416 218.082 85.5921 217.374 82.4484C216.703 79.4719 215.097 77.0555 213.28 76.2924C212.023 75.7634 210.27 76.212 208.605 77.4132C208.851 74.5865 208.193 71.1821 206.696 67.6346C205.013 63.6487 202.367 59.7607 199.436 56.9679C195.448 53.1687 191.293 51.6348 187.735 52.6488C184.295 53.6292 181.167 56.9107 179.154 61.6521C176.453 68.0095 176.385 75.4194 178.932 80.7691C178.793 80.8314 178.658 80.8966 178.527 80.9646C177.259 81.6211 176.395 82.4983 175.957 83.5723C175.155 85.5359 175.534 88.1038 176.971 90.441C179.167 94.015 183.281 96.2971 188.258 96.7021C190.194 96.8599 191.906 96.5618 193.345 95.8161C194.408 95.2655 195.28 94.4847 195.923 93.5409L202.486 95.6251L205.008 100.495C196.782 104.372 189.096 108.67 182.032 113.337C177.715 108.12 172.544 103.738 170.263 102.038C169.821 101.707 169.194 101.799 168.864 102.241C168.534 102.684 168.625 103.311 169.068 103.641C171.241 105.261 176.203 109.467 180.362 114.455C179.424 115.092 178.497 115.735 177.582 116.384C173.324 113.952 169.31 112.212 167.3 111.468C166.782 111.276 166.207 111.541 166.015 112.059C165.824 112.576 166.088 113.152 166.606 113.343C168.417 114.014 171.956 115.543 175.794 117.673C148.481 137.651 132 163.541 132 191.825C132 255.062 214.38 306.325 316 306.325ZM201.641 93.9943L198.985 88.8661C198.4 89.0571 197.796 89.2173 197.175 89.3449C197.174 90.4312 196.96 91.458 196.56 92.3809L201.641 93.9943ZM207.645 91.8796L205.873 97.4587L201 88.0504C201.104 87.9995 201.207 87.9475 201.309 87.8945C202.395 87.332 203.388 86.6497 204.269 85.8636C204.368 87.4821 204.967 89.0372 206.04 90.4335C206.494 91.0245 207.036 91.5102 207.645 91.8796Z" fill="#2CBC67"/>
</g>
<path d="M264.981 123.666C262.46 125.545 256.298 130.8 251.821 136.783C247.344 142.766 248.745 142.382 250.006 141.442" stroke="white" stroke-width="2" stroke-linecap="round" stroke-linejoin="round"/>
<path d="M267.693 133.232C264.744 134.323 257.349 137.625 251.365 142.101C245.381 146.576 246.834 146.603 248.308 146.057" stroke="white" stroke-width="2" stroke-linecap="round" stroke-linejoin="round"/>
<path d="M898.432 98.2441C896.627 100.819 892.423 107.741 890.047 114.825C887.67 121.91 888.881 121.106 889.783 119.818" stroke="white" stroke-width="2" stroke-linecap="round" stroke-linejoin="round"/>
<path d="M904.006 106.479C901.547 108.439 895.56 113.892 891.28 120.017C887 126.143 888.388 125.713 889.617 124.733" stroke="white" stroke-width="2" stroke-linecap="round" stroke-linejoin="round"/>
<path d="M1245.14 155.114C1246.39 157.997 1249.14 165.616 1250.06 173.032C1250.98 180.447 1249.95 179.419 1249.32 177.977" stroke="white" stroke-width="2" stroke-linecap="round" stroke-linejoin="round"/>
<path d="M1238.04 162.076C1240.06 164.487 1244.84 171.021 1247.82 177.875C1250.79 184.729 1249.52 184.032 1248.51 182.827" stroke="white" stroke-width="2" stroke-linecap="round" stroke-linejoin="round"/>
<path d="M1439.49 174.805L1437.8 175.487L1435.01 175.463L1432.02 174.047L1429.39 171.339L1428.36 168.089L1428.79 165.118L1430.43 163.267L1432.01 163.036L1431.92 161.192L1432.61 157.009L1434.16 153.254L1435.95 150.702L1438.57 148.337L1441.66 146.645L1443.72 146.342L1445.92 146.948L1447.93 148.446L1449.93 151.122L1451.71 155.192L1452.3 159.25L1452.65 161.611L1452.44 164.798L1451.53 167.468L1451.17 167.954L1452.08 167.82L1454.44 167.473L1455.64 168.473L1456.13 170.133L1456.45 172.313L1456.08 174.409L1455.22 176.144L1453.47 177.328L1452.37 177.8L1450.21 177.437L1448.59 176.932L1447.66 174.781L1447.72 171.035L1446.25 171.956L1443.34 172.383L1441.53 172.278L1440.52 173.788L1439.49 174.805Z" fill="white"/>
<path d="M1452.31 178.247C1451.48 178.37 1450.63 178.285 1449.85 177.986C1448.68 177.53 1447.81 176.625 1447.41 175.439C1446.88 173.843 1446.99 172.253 1447.73 170.84C1447.85 170.616 1448.13 170.53 1448.35 170.648C1448.58 170.767 1448.67 171.044 1448.55 171.269C1447.91 172.471 1447.82 173.776 1448.28 175.148C1448.59 176.07 1449.27 176.774 1450.19 177.13C1451.27 177.549 1452.54 177.446 1453.6 176.855C1454.83 176.169 1455.7 174.583 1455.92 172.612C1456.12 170.782 1455.71 169.065 1454.9 168.339C1454.27 167.779 1452.77 167.905 1451.32 168.639C1451.1 168.753 1450.82 168.663 1450.71 168.437C1450.59 168.211 1450.68 167.935 1450.91 167.82C1452.74 166.892 1454.59 166.826 1455.51 167.655C1456.55 168.584 1457.07 170.569 1456.83 172.714C1456.58 174.978 1455.54 176.826 1454.05 177.657C1453.51 177.961 1452.91 178.159 1452.31 178.247V178.247Z" fill="white"/>
<path d="M1445.2 182.062C1445.08 182.079 1444.96 182.051 1444.86 181.976C1444.65 181.824 1444.61 181.537 1444.76 181.333L1449.89 174.434C1450.05 174.231 1450.33 174.188 1450.54 174.34C1450.74 174.491 1450.78 174.779 1450.63 174.982L1445.5 181.881C1445.42 181.983 1445.31 182.044 1445.2 182.062Z" fill="white"/>
<path d="M1444.84 172.652C1443.72 172.816 1442.54 172.807 1441.34 172.61C1441.09 172.569 1440.92 172.333 1440.96 172.083C1441 171.832 1441.24 171.663 1441.49 171.704C1445.41 172.346 1448.9 170.905 1450.82 167.847C1453.02 164.337 1452.61 157.214 1449.9 151.968C1448.26 148.81 1446.11 147.003 1443.84 146.879C1441.59 146.757 1439.01 148.119 1436.76 150.618C1433.53 154.195 1431.86 159.091 1432.49 163.092C1432.53 163.342 1432.36 163.577 1432.11 163.617C1432.11 163.617 1432.11 163.618 1432.11 163.618C1431.86 163.654 1431.63 163.485 1431.59 163.236C1430.91 158.972 1432.67 153.778 1436.07 150.003C1438.51 147.298 1441.36 145.825 1443.88 145.962C1446.5 146.104 1448.92 148.088 1450.71 151.546C1452.03 154.089 1452.9 157.298 1453.11 160.35C1453.33 163.6 1452.79 166.436 1451.59 168.335C1450.1 170.72 1447.65 172.237 1444.84 172.652V172.652Z" fill="white"/>
<path d="M1437.69 176.111C1436.55 176.278 1435.34 176.082 1434.08 175.531C1430.85 174.113 1428.62 171.639 1427.98 168.744C1427.56 166.85 1427.9 165.046 1428.88 163.919C1429.42 163.302 1430.21 162.914 1431.2 162.768C1433.9 162.371 1437.9 163.873 1440.11 166.115C1441.87 167.904 1442.5 170.393 1441.76 172.612C1441.12 174.523 1439.59 175.83 1437.69 176.111ZM1431.34 163.676C1430.56 163.79 1429.97 164.076 1429.57 164.524C1428.79 165.419 1428.52 166.959 1428.88 168.544C1429.46 171.151 1431.49 173.391 1434.45 174.69C1435.55 175.171 1436.59 175.344 1437.55 175.202C1439.11 174.973 1440.36 173.896 1440.89 172.32C1441.52 170.431 1440.97 168.3 1439.45 166.76C1437.46 164.735 1433.74 163.323 1431.34 163.676Z" fill="white"/>
<path d="M1449.84 185.832L1449.32 185.907C1448.91 185.969 1448.52 185.68 1448.46 185.261C1448.39 184.843 1448.68 184.455 1449.1 184.393L1449.61 184.318C1450.03 184.256 1450.42 184.546 1450.48 184.964C1450.54 185.382 1450.25 185.77 1449.84 185.832Z" fill="white"/>
<path d="M1445.84 186.419C1445.42 186.481 1445.03 186.192 1444.97 185.774L1441.98 165.428C1441.92 165.01 1442.21 164.621 1442.63 164.56C1443.04 164.498 1443.43 164.787 1443.49 165.205L1446.48 185.551C1446.55 185.969 1446.26 186.358 1445.84 186.419Z" fill="white"/>
<path d="M1444.68 178.548C1444.57 178.565 1444.44 178.538 1444.34 178.462L1437.11 173.084C1436.91 172.932 1436.86 172.645 1437.01 172.441C1437.17 172.238 1437.45 172.195 1437.66 172.347L1444.89 177.725C1445.09 177.876 1445.13 178.164 1444.98 178.368C1444.91 178.469 1444.8 178.531 1444.68 178.548Z" fill="white"/>
<path d="M76.4921 136.805L74.7982 137.487L72.0107 137.464L69.0185 136.047L66.3934 133.34L65.3589 130.089L65.7885 127.118L67.4345 125.268L69.009 125.036L68.9237 123.193L69.6082 119.009L71.1599 115.255L72.9503 112.702L75.5724 110.337L78.6646 108.646L80.7237 108.343L82.9162 108.949L84.9305 110.447L86.9323 113.122L88.7058 117.193L89.3021 121.25L89.6492 123.612L89.4368 126.798L88.53 129.468L88.1683 129.954L89.0767 129.821L91.4386 129.474L92.6372 130.473L93.1286 132.133L93.449 134.313L93.0765 136.41L92.2178 138.145L90.4739 139.329L89.3678 139.801L87.2108 139.437L85.59 138.933L84.6552 136.781L84.7235 133.036L83.2501 133.956L80.3433 134.383L78.5336 134.278L77.5182 135.788L76.4921 136.805Z" fill="white"/>
<path d="M89.3077 140.248C88.4763 140.37 87.6253 140.286 86.8537 139.987C85.6763 139.531 84.8094 138.626 84.4126 137.439C83.8783 135.844 83.9897 134.253 84.7346 132.841C84.8529 132.616 85.1305 132.531 85.3548 132.649C85.5791 132.767 85.665 133.045 85.5467 133.269C84.9126 134.471 84.824 135.777 85.2832 137.148C85.5919 138.071 86.2674 138.775 87.1853 139.131C88.2659 139.549 89.5441 139.446 90.6045 138.855C91.834 138.169 92.6986 136.583 92.9171 134.613C93.1199 132.783 92.7111 131.065 91.8997 130.34C91.2738 129.779 89.7699 129.905 88.3236 130.639C88.0976 130.754 87.8213 130.664 87.7065 130.437C87.5917 130.211 87.682 129.935 87.9081 129.82C89.736 128.893 91.5862 128.826 92.512 129.655C93.5502 130.584 94.0674 132.57 93.8296 134.714C93.5785 136.979 92.54 138.827 91.0517 139.657C90.5061 139.961 89.9121 140.159 89.3077 140.248V140.248Z" fill="white"/>
<path d="M82.1975 144.062C82.0813 144.079 81.9585 144.052 81.8567 143.976C81.6533 143.825 81.6111 143.537 81.7623 143.334L86.8937 136.435C87.0451 136.231 87.3326 136.189 87.5361 136.34C87.7395 136.492 87.7817 136.779 87.6305 136.983L82.4991 143.882C82.4234 143.984 82.3136 144.045 82.1975 144.062Z" fill="white"/>
<path d="M81.8357 134.652C80.718 134.816 79.5415 134.807 78.3401 134.61C78.0898 134.569 77.9203 134.333 77.9613 134.083C78.0023 133.833 78.2388 133.663 78.4885 133.704C82.4078 134.347 85.895 132.905 87.817 129.847C90.0238 126.337 89.6106 119.214 86.8961 113.969C85.2618 110.811 83.1092 109.003 80.8351 108.879C78.588 108.757 76.0079 110.12 73.7557 112.618C70.5306 116.195 68.858 121.092 69.4947 125.092C69.5346 125.343 69.3639 125.578 69.1135 125.618C69.1117 125.618 69.1098 125.618 69.1079 125.618C68.8596 125.655 68.6275 125.485 68.5879 125.236C67.9093 120.973 69.6701 115.779 73.0736 112.003C75.5126 109.298 78.3599 107.825 80.8848 107.963C83.4971 108.105 85.9215 110.088 87.7114 113.547C89.0273 116.089 89.9 119.298 90.106 122.35C90.3253 125.6 89.7884 128.436 88.5942 130.336C87.0953 132.721 84.6542 134.238 81.8357 134.652V134.652Z" fill="white"/>
<path d="M74.6861 138.111C73.552 138.278 72.339 138.083 71.0811 137.531C67.8478 136.113 65.6237 133.64 64.9792 130.744C64.5576 128.851 64.896 127.047 65.8842 125.919C66.4248 125.302 67.2049 124.915 68.2035 124.768C70.9039 124.371 74.8981 125.873 77.1069 128.116C78.8687 129.904 79.5009 132.394 78.7569 134.613C78.1163 136.523 76.5945 137.831 74.6861 138.111ZM68.3368 125.677C67.5602 125.791 66.9673 126.076 66.5746 126.524C65.7904 127.419 65.5225 128.96 65.8752 130.545C66.4554 133.151 68.4872 135.391 71.4496 136.69C72.5475 137.172 73.5914 137.344 74.5525 137.203C76.1117 136.974 77.3579 135.896 77.8862 134.321C78.5197 132.432 77.9703 130.301 76.4526 128.76C74.4584 126.735 70.7419 125.323 68.3368 125.677Z" fill="white"/>
<path d="M86.8359 147.832L86.3237 147.908C85.9056 147.969 85.5169 147.68 85.4555 147.262C85.394 146.844 85.6831 146.455 86.1012 146.394L86.6135 146.318C87.0316 146.257 87.4203 146.546 87.4817 146.964C87.5431 147.382 87.254 147.771 86.8359 147.832Z" fill="white"/>
<path d="M82.8379 148.42C82.4198 148.481 82.0311 148.192 81.9696 147.774L78.9799 127.428C78.9185 127.01 79.2075 126.622 79.6257 126.56C80.0438 126.499 80.4325 126.788 80.4939 127.206L83.4836 147.552C83.5451 147.97 83.2559 148.358 82.8379 148.42Z" fill="white"/>
<path d="M81.6812 140.548C81.565 140.565 81.4422 140.538 81.3404 140.462L74.109 135.084C73.9056 134.933 73.8633 134.645 74.0146 134.442C74.166 134.238 74.4535 134.196 74.657 134.347L81.8884 139.726C82.0918 139.877 82.1341 140.165 81.9828 140.368C81.9071 140.47 81.7973 140.531 81.6812 140.548Z" fill="white"/>
<path d="M555.537 80.6222L554.311 80.5233L552.638 79.67L551.261 77.9155L550.493 75.4932L550.848 73.2224L552.002 71.5609L553.551 70.9411L554.57 71.2756L555.073 70.1387L556.745 67.8229L558.811 66.027L560.658 65.0276L562.951 64.3914L565.324 64.3026L566.656 64.7401L567.796 65.7653L568.559 67.2747L568.96 69.49L568.804 72.4773L567.941 75.1025L567.44 76.6306L566.352 78.4874L565.002 79.8236L564.638 80.0079L565.225 80.2009L566.754 80.7027L567.175 81.6659L566.972 82.8145L566.508 84.225L565.653 85.3765L564.613 86.1637L563.205 86.3525L562.396 86.3039L561.206 85.4354L560.381 84.6436L560.465 83.0652L561.634 80.8282L560.468 80.9393L558.588 80.3217L557.529 79.7135L556.462 80.3181L555.537 80.6222Z" fill="white"/>
<path d="M562.226 86.5554C561.688 86.3788 561.2 86.0717 560.825 85.6592C560.253 85.0298 560.003 84.2235 560.121 83.3889C560.279 82.2661 560.825 81.3411 561.699 80.7139C561.838 80.6143 562.031 80.6462 562.131 80.785C562.23 80.9238 562.198 81.117 562.06 81.2166C561.315 81.7504 560.869 82.5104 560.733 83.4754C560.641 84.1246 560.836 84.7523 561.283 85.243C561.808 85.8207 562.609 86.1435 563.427 86.1063C564.374 86.0629 565.373 85.3673 566.098 84.2453C566.771 83.2033 567.041 82.0451 566.771 81.3633C566.562 80.8371 565.618 80.4602 564.525 80.4672C564.354 80.4684 564.215 80.3308 564.214 80.1599C564.213 79.9892 564.35 79.8498 564.521 79.8487C565.902 79.8397 567.037 80.3568 567.346 81.1353C567.692 82.0075 567.406 83.3602 566.617 84.5811C565.784 85.8706 564.602 86.6718 563.455 86.7242C563.034 86.7432 562.617 86.6839 562.226 86.5554V86.5554Z" fill="white"/>
<path d="M556.792 86.7139C556.717 86.6892 556.651 86.6358 556.612 86.5596C556.535 86.4071 556.596 86.221 556.749 86.1439L561.919 83.5301C562.071 83.453 562.257 83.5141 562.334 83.6666C562.411 83.819 562.35 84.0051 562.198 84.0822L557.028 86.6961C556.951 86.7346 556.867 86.7385 556.792 86.7139Z" fill="white"/>
<path d="M559.406 80.9326C558.683 80.6952 557.977 80.3356 557.312 79.8551C557.173 79.755 557.142 79.5617 557.242 79.4233C557.343 79.2848 557.536 79.2538 557.674 79.3537C559.843 80.9209 562.379 81.1016 564.458 79.8371C566.845 78.3856 568.74 73.9677 568.683 69.9889C568.649 67.5934 567.896 65.8559 566.562 65.0965C565.244 64.3464 563.279 64.391 561.169 65.2189C558.148 66.4043 555.666 68.8521 554.846 71.4551C554.794 71.618 554.621 71.7085 554.458 71.657C554.457 71.6567 554.455 71.6562 554.454 71.6559C554.294 71.6031 554.205 71.4308 554.256 71.269C555.13 68.4948 557.755 65.894 560.943 64.643C563.228 63.7466 565.387 63.7161 566.868 64.5589C568.4 65.4311 569.264 67.3564 569.302 69.98C569.33 71.9087 568.89 74.1056 568.095 76.0074C567.249 78.0323 566.071 79.5801 564.78 80.3656C563.158 81.3519 561.23 81.5314 559.406 80.9326V80.9326Z" fill="white"/>
<path d="M554.055 80.8661C553.322 80.6251 552.649 80.1423 552.057 79.431C550.535 77.6031 549.939 75.4425 550.422 73.5032C550.738 72.235 551.485 71.2495 552.42 70.8672C552.932 70.658 553.519 70.6596 554.165 70.8717C555.912 71.4455 557.867 73.5531 558.524 75.5699C559.047 77.1783 558.679 78.8692 557.562 79.9827C556.601 80.9413 555.29 81.2715 554.055 80.8661ZM553.972 71.4594C553.469 71.2944 553.026 71.2879 552.654 71.4397C551.912 71.7432 551.287 72.5912 551.022 73.6527C550.587 75.3985 551.138 77.3603 552.532 79.0351C553.049 79.6558 553.627 80.074 554.248 80.2782C555.257 80.6095 556.333 80.3352 557.125 79.5446C558.076 78.5966 558.386 77.1469 557.935 75.7612C557.343 73.9404 555.528 71.9704 553.972 71.4594Z" fill="white"/>
<path d="M558.453 90.383L558.121 90.2742C557.851 90.1854 557.703 89.8941 557.792 89.6236C557.881 89.3531 558.172 89.2058 558.443 89.2946L558.774 89.4035C559.045 89.4923 559.192 89.7836 559.103 90.0541C559.014 90.3246 558.723 90.4719 558.453 90.383Z" fill="white"/>
<path d="M555.866 89.5336C555.595 89.4447 555.448 89.1534 555.537 88.8829L559.86 75.7193C559.949 75.4488 560.24 75.3015 560.51 75.3903C560.781 75.4792 560.928 75.7704 560.839 76.041L556.516 89.2046C556.428 89.4751 556.136 89.6224 555.866 89.5336Z" fill="white"/>
<path d="M557.538 84.4405C557.463 84.4159 557.397 84.3625 557.359 84.2862L554.619 78.8674C554.542 78.7149 554.603 78.5288 554.755 78.4517C554.908 78.3747 555.094 78.4358 555.171 78.5882L557.911 84.0071C557.988 84.1596 557.927 84.3456 557.774 84.4227C557.698 84.4612 557.613 84.4652 557.538 84.4405Z" fill="white"/>
<path d="M790.954 122.403L791.877 122.499L793.236 122.098L794.5 120.987L795.404 119.296L795.455 117.562L794.829 116.17L793.765 115.497L792.963 115.604L792.747 114.691L791.827 112.742L790.543 111.124L789.31 110.128L787.698 109.339L785.95 108.945L784.901 109.085L783.914 109.688L783.14 110.702L782.536 112.29L782.239 114.528L782.515 116.594L782.676 117.797L783.226 119.325L784.043 120.503L784.288 120.69L783.825 120.752L782.623 120.913L782.177 121.569L782.169 122.449L782.317 123.559L782.793 124.532L783.456 125.259L784.474 125.594L785.08 125.67L786.084 125.19L786.805 124.717L786.961 123.534L786.403 121.713L787.252 121.957L788.732 121.759L789.602 121.454L790.31 122.05L790.954 122.403Z" fill="white"/>
<path d="M785.172 125.88C785.596 125.823 786 125.663 786.335 125.409C786.846 125.021 787.144 124.458 787.171 123.822C787.209 122.968 786.932 122.206 786.37 121.62C786.281 121.527 786.133 121.524 786.04 121.613C785.947 121.702 785.944 121.85 786.033 121.943C786.511 122.442 786.737 123.067 786.705 123.802C786.683 124.296 786.452 124.735 786.053 125.037C785.583 125.393 784.944 125.521 784.343 125.381C783.646 125.218 783.002 124.564 782.619 123.631C782.264 122.765 782.223 121.869 782.518 121.4C782.746 121.039 783.498 120.89 784.308 121.046C784.434 121.071 784.557 120.988 784.581 120.861C784.606 120.735 784.523 120.612 784.396 120.588C783.373 120.39 782.46 120.617 782.123 121.152C781.746 121.751 781.771 122.794 782.187 123.809C782.627 124.88 783.393 125.638 784.237 125.835C784.546 125.908 784.864 125.921 785.172 125.88V125.88Z" fill="white"/>
<path d="M789.181 126.749C789.24 126.741 789.296 126.71 789.336 126.659C789.414 126.557 789.394 126.41 789.292 126.332L785.818 123.678C785.716 123.6 785.569 123.62 785.491 123.722C785.413 123.825 785.432 123.971 785.535 124.049L789.008 126.703C789.06 126.742 789.122 126.757 789.181 126.749Z" fill="white"/>
<path d="M788.041 122.099C788.61 122.023 789.184 121.853 789.743 121.589C789.86 121.534 789.91 121.395 789.854 121.278C789.799 121.162 789.66 121.112 789.544 121.167C787.718 122.03 785.812 121.813 784.445 120.588C782.875 119.181 782.08 115.642 782.672 112.699C783.029 110.926 783.828 109.742 784.922 109.363C786.003 108.988 787.455 109.293 788.905 110.199C790.982 111.496 792.485 113.655 792.734 115.699C792.749 115.827 792.866 115.918 792.994 115.902C792.995 115.902 792.995 115.902 792.996 115.902C793.123 115.885 793.213 115.769 793.197 115.642C792.932 113.464 791.344 111.172 789.152 109.803C787.582 108.822 785.984 108.501 784.769 108.922C783.512 109.357 782.605 110.665 782.214 112.606C781.927 114.033 781.95 115.724 782.277 117.244C782.624 118.863 783.284 120.174 784.133 120.935C785.2 121.891 786.605 122.291 788.041 122.099V122.099Z" fill="white"/>
<path d="M792.019 122.789C792.597 122.712 793.162 122.446 793.7 122.001C795.082 120.855 795.822 119.335 795.732 117.829C795.673 116.845 795.255 116.011 794.614 115.598C794.264 115.372 793.828 115.292 793.32 115.36C791.944 115.544 790.202 116.837 789.437 118.243C788.826 119.363 788.866 120.669 789.54 121.649C790.12 122.493 791.047 122.919 792.019 122.789ZM793.382 115.823C793.777 115.77 794.107 115.826 794.361 115.99C794.87 116.318 795.217 117.033 795.266 117.857C795.347 119.212 794.668 120.592 793.402 121.641C792.933 122.03 792.447 122.261 791.957 122.326C791.163 122.432 790.403 122.08 789.925 121.384C789.351 120.55 789.321 119.431 789.847 118.466C790.538 117.197 792.157 115.987 793.382 115.823Z" fill="white"/>
<path d="M787.442 129.24L787.703 129.206C787.916 129.177 788.065 128.981 788.037 128.768C788.008 128.555 787.813 128.406 787.6 128.434L787.339 128.469C787.126 128.498 786.976 128.694 787.005 128.906C787.033 129.119 787.229 129.269 787.442 129.24Z" fill="white"/>
<path d="M789.478 128.968C789.691 128.939 789.841 128.744 789.812 128.531L788.425 118.169C788.397 117.956 788.201 117.806 787.988 117.835C787.775 117.863 787.625 118.059 787.654 118.272L789.041 128.634C789.069 128.847 789.265 128.996 789.478 128.968Z" fill="white"/>
<path d="M788.942 124.959C789.001 124.951 789.057 124.92 789.096 124.869L791.877 121.228C791.956 121.126 791.936 120.979 791.834 120.901C791.731 120.823 791.585 120.842 791.506 120.945L788.725 124.586C788.647 124.688 788.666 124.835 788.769 124.913C788.82 124.952 788.882 124.967 788.942 124.959Z" fill="white"/>
<path d="M806.08 115.758L804.669 116.326L802.347 116.307L799.855 115.127L797.668 112.872L796.806 110.164L797.164 107.689L798.535 106.148L799.847 105.955L799.776 104.419L800.346 100.934L801.639 97.8068L803.13 95.6809L805.314 93.7108L807.89 92.3016L809.605 92.0496L811.431 92.5542L813.109 93.8022L814.777 96.0308L816.254 99.4211L816.751 102.801L817.04 104.768L816.863 107.423L816.108 109.647L815.806 110.052L816.563 109.94L818.53 109.651L819.529 110.484L819.938 111.867L820.205 113.683L819.895 115.429L819.179 116.874L817.727 117.86L816.805 118.253L815.009 117.95L813.659 117.53L812.88 115.738L812.937 112.618L811.71 113.385L809.288 113.741L807.781 113.653L806.935 114.911L806.08 115.758Z" fill="white"/>
<path d="M816.755 118.626C816.063 118.727 815.354 118.657 814.711 118.408C813.73 118.028 813.008 117.274 812.678 116.286C812.233 114.957 812.326 113.632 812.946 112.455C813.045 112.269 813.276 112.197 813.463 112.296C813.649 112.394 813.721 112.625 813.622 112.812C813.094 113.814 813.021 114.901 813.403 116.043C813.66 116.812 814.223 117.399 814.987 117.695C815.888 118.044 816.952 117.958 817.836 117.465C818.86 116.894 819.58 115.573 819.762 113.931C819.931 112.407 819.59 110.977 818.914 110.372C818.393 109.905 817.14 110.01 815.936 110.621C815.747 110.717 815.517 110.642 815.422 110.454C815.326 110.265 815.401 110.035 815.589 109.939C817.112 109.167 818.653 109.112 819.424 109.802C820.289 110.576 820.72 112.23 820.522 114.016C820.313 115.902 819.448 117.442 818.208 118.133C817.754 118.386 817.259 118.552 816.755 118.626V118.626Z" fill="white"/>
<path d="M810.833 121.803C810.736 121.817 810.634 121.794 810.549 121.731C810.379 121.605 810.344 121.365 810.47 121.196L814.745 115.449C814.871 115.28 815.11 115.244 815.28 115.37C815.449 115.496 815.484 115.736 815.358 115.906L811.084 121.652C811.021 121.737 810.929 121.788 810.833 121.803Z" fill="white"/>
<path d="M810.531 113.965C809.6 114.101 808.62 114.094 807.62 113.93C807.411 113.896 807.27 113.699 807.304 113.491C807.338 113.282 807.535 113.141 807.743 113.175C811.008 113.71 813.913 112.509 815.514 109.962C817.352 107.038 817.008 101.105 814.747 96.7357C813.385 94.1051 811.592 92.5996 809.698 92.4963C807.826 92.3944 805.677 93.5296 803.801 95.6106C801.114 98.5905 799.721 102.669 800.252 106.001C800.285 106.21 800.143 106.406 799.934 106.439C799.933 106.439 799.931 106.439 799.929 106.44C799.723 106.47 799.529 106.329 799.496 106.121C798.931 102.57 800.398 98.2432 803.233 95.0985C805.264 92.845 807.636 91.6183 809.739 91.7327C811.915 91.8512 813.935 93.5031 815.426 96.3842C816.522 98.5021 817.249 101.175 817.42 103.717C817.603 106.425 817.156 108.787 816.161 110.369C814.913 112.356 812.879 113.619 810.531 113.965V113.965Z" fill="white"/>
<path d="M804.576 116.846C803.631 116.985 802.621 116.822 801.573 116.363C798.88 115.182 797.027 113.121 796.49 110.71C796.139 109.132 796.421 107.63 797.244 106.69C797.694 106.176 798.344 105.854 799.176 105.732C801.425 105.401 804.752 106.652 806.592 108.52C808.06 110.01 808.587 112.084 807.967 113.932C807.433 115.523 806.166 116.613 804.576 116.846ZM799.287 106.488C798.64 106.583 798.146 106.821 797.819 107.194C797.166 107.94 796.943 109.223 797.237 110.543C797.72 112.714 799.412 114.58 801.88 115.662C802.794 116.063 803.664 116.207 804.465 116.089C805.763 115.899 806.801 115.001 807.242 113.689C807.769 112.115 807.312 110.34 806.047 109.057C804.386 107.37 801.29 106.194 799.287 106.488Z" fill="white"/>
<path d="M814.696 124.944L814.27 125.006C813.921 125.058 813.598 124.817 813.547 124.468C813.495 124.12 813.736 123.796 814.084 123.745L814.511 123.683C814.859 123.631 815.183 123.872 815.234 124.22C815.285 124.569 815.045 124.892 814.696 124.944Z" fill="white"/>
<path d="M811.366 125.432C811.018 125.484 810.694 125.243 810.643 124.895L808.152 107.947C808.101 107.599 808.342 107.275 808.69 107.224C809.039 107.173 809.362 107.413 809.414 107.762L811.904 124.709C811.955 125.057 811.714 125.381 811.366 125.432Z" fill="white"/>
<path d="M810.402 118.876C810.306 118.89 810.203 118.867 810.119 118.804L804.095 114.324C803.926 114.198 803.89 113.958 804.016 113.789C804.142 113.619 804.382 113.584 804.551 113.71L810.575 118.19C810.745 118.316 810.78 118.556 810.654 118.725C810.591 118.81 810.499 118.861 810.402 118.876Z" fill="white"/>
<path fill-rule="evenodd" clip-rule="evenodd" d="M1599 178.16V396H-1V178.486C46.8875 157.436 111.291 144 182 144C257.8 144 326.223 157.723 374.824 179.763C398.685 125.587 450.911 88 511.5 88C575.622 88 630.378 130.099 652.057 189.405C709.071 149.51 796.272 124 894 124C1009.05 124 1109.51 159.356 1163.31 211.915C1192 186.84 1225.49 175.436 1257.09 183.611C1283.81 190.525 1304.92 210.342 1318.62 237.975C1381.24 200.335 1474.53 176.862 1578.53 177.684C1585.4 177.738 1592.23 177.898 1599 178.16Z" fill="white"/>
</g>
<defs>
<filter id="filter0_d_155_6" x="107" y="-5" width="1507" height="335.326" filterUnits="userSpaceOnUse" color-interpolation-filters="sRGB">
<feFlood flood-opacity="0" result="BackgroundImageFix"/>
<feColorMatrix in="SourceAlpha" type="matrix" values="0 0 0 0 0 0 0 0 0 0 0 0 0 0 0 0 0 0 127 0" result="hardAlpha"/>
<feOffset dx="-5" dy="4"/>
<feGaussianBlur stdDeviation="10"/>
<feComposite in2="hardAlpha" operator="out"/>
<feColorMatrix type="matrix" values="0 0 0 0 0 0 0 0 0 0 0 0 0 0 0 0 0 0 0.15 0"/>
<feBlend mode="normal" in2="BackgroundImageFix" result="effect1_dropShadow_155_6"/>
<feBlend mode="normal" in="SourceGraphic" in2="effect1_dropShadow_155_6" result="shape"/>
</filter>
</defs>
</svg>
