<svg width="340" height="168" viewBox="0 0 340 168" fill="none" xmlns="http://www.w3.org/2000/svg">
<rect width="340" height="100" fill="#8ABCE4"/>
<path d="M88.7928 23C89.8463 24.6857 92.2695 29.1949 93.5338 33.7462C94.798 38.2976 94.0606 37.7497 93.5338 36.9069" stroke="#2CBC67" stroke-linecap="round" stroke-linejoin="round"/>
<path d="M85 28.0122C86.4866 29.3319 90.0843 32.9735 92.5822 36.9827C95.08 40.9919 94.2178 40.6746 93.4745 40.0148" stroke="#2CBC67" stroke-linecap="round" stroke-linejoin="round"/>
<path d="M18.708 31.5091L18.1523 31.8529L17.1679 32.0147L16.0264 31.6977L14.9356 30.9031L14.3725 29.8199L14.3428 28.7461L14.8103 27.9932L15.3514 27.8156L15.2089 27.1707L15.195 25.6537L15.5132 24.2351L15.9888 23.2259L16.7692 22.232L17.7564 21.4468L18.464 21.2145L19.2741 21.2944L20.0758 21.6998L20.9448 22.5212L21.8185 23.8482L22.2762 25.2426L22.5427 26.0543L22.6622 27.1908L22.5053 28.1876L22.4074 28.3811L22.7196 28.2786L23.5313 28.0122L24.0149 28.2914L24.2894 28.8469L24.5354 29.5961L24.5319 30.358L24.3349 31.0221L23.7922 31.5461L23.431 31.78L22.6482 31.7833L22.0459 31.7044L21.585 31.0027L21.3806 29.6778L20.9173 30.0922L19.9183 30.4201L19.2737 30.4934L19.0078 31.0879L18.708 31.5091Z" fill="#2CBC67"/>
<path d="M23.4371 31.9414C23.1513 32.0352 22.8461 32.0573 22.5558 31.9989C22.1128 31.9099 21.7519 31.6438 21.5396 31.2496C21.2539 30.7195 21.1962 30.1519 21.3727 29.6084C21.4007 29.5221 21.4934 29.4749 21.5797 29.5029C21.666 29.5309 21.7132 29.6236 21.6852 29.7099C21.5349 30.1725 21.5833 30.6381 21.8289 31.0938C21.994 31.4004 22.2751 31.6074 22.6205 31.6769C23.0271 31.7586 23.4715 31.6443 23.8094 31.3711C24.2011 31.0543 24.4092 30.4423 24.3661 29.7341C24.326 29.0764 24.0771 28.4958 23.7467 28.2893C23.4918 28.1299 22.9691 28.266 22.5039 28.6131C22.4312 28.6673 22.3283 28.6524 22.274 28.5796C22.2198 28.5069 22.2348 28.404 22.3075 28.3497C22.8955 27.9111 23.5438 27.7749 23.9209 28.0107C24.3436 28.2749 24.6471 28.9435 24.694 29.7141C24.7437 30.5281 24.4902 31.243 24.016 31.6266C23.8422 31.7671 23.6448 31.8732 23.4371 31.9414Z" fill="#2CBC67"/>
<path d="M21.1624 33.7198C21.1225 33.7329 21.0775 33.7307 21.037 33.7103C20.9561 33.6693 20.9236 33.5705 20.9645 33.4895L22.3531 30.7437C22.3941 30.6627 22.4929 30.6303 22.5739 30.6712C22.6549 30.7122 22.6873 30.811 22.6464 30.892L21.2578 33.6378C21.2373 33.6783 21.2023 33.7066 21.1624 33.7198Z" fill="#2CBC67"/>
<path d="M20.4609 30.4236C20.0768 30.5497 19.6614 30.6182 19.2257 30.6221C19.135 30.6229 19.0608 30.5499 19.06 30.4592C19.0592 30.3685 19.1322 30.2943 19.2228 30.2935C20.644 30.2811 21.7857 29.5599 22.277 28.3644C22.841 26.992 22.2608 24.5055 20.9837 22.8215C20.2147 21.8076 19.3454 21.3016 18.5359 21.3966C17.7361 21.4905 16.9095 22.1284 16.2677 23.1468C15.3486 24.6049 15.0575 26.4335 15.5261 27.8053C15.5554 27.8912 15.5096 27.9846 15.4237 28.0138C15.4231 28.0141 15.4224 28.0143 15.4218 28.0145C15.3364 28.0425 15.2442 27.9967 15.2151 27.9115C14.7157 26.4495 15.0198 24.5104 15.9896 22.9716C16.6847 21.8688 17.5989 21.1759 18.4976 21.0703C19.4274 20.9611 20.4033 21.5125 21.2454 22.6229C21.8645 23.4392 22.368 24.5175 22.6268 25.5813C22.9024 26.7138 22.886 27.7466 22.5808 28.4893C22.1978 29.4217 21.4295 30.1055 20.4609 30.4236Z" fill="#2CBC67"/>
<path d="M18.1509 32.0799C17.7611 32.2079 17.3215 32.213 16.8443 32.0952C15.6177 31.7925 14.6825 31.0559 14.2786 30.0742C14.0145 29.4323 14.0238 28.7755 14.3034 28.3175C14.4564 28.067 14.7079 27.8829 15.051 27.7703C15.9791 27.4656 17.4791 27.7515 18.3948 28.4076C19.1251 28.9308 19.4999 29.7701 19.3729 30.5979C19.2636 31.3106 18.8067 31.8646 18.1509 32.0799ZM15.1535 28.0824C14.8866 28.1701 14.6949 28.3068 14.5838 28.4888C14.3619 28.8522 14.3614 29.4119 14.5824 29.9492C14.946 30.8329 15.7991 31.4989 16.9229 31.7762C17.3394 31.879 17.7181 31.8761 18.0484 31.7677C18.5842 31.5918 18.9579 31.1358 19.0481 30.5481C19.1562 29.8433 18.8326 29.1254 18.2034 28.6747C17.3767 28.0823 15.98 27.8111 15.1535 28.0824Z" fill="#2CBC67"/>
<path d="M23.0281 34.7663L22.8521 34.8241C22.7084 34.8712 22.5537 34.793 22.5065 34.6493C22.4594 34.5056 22.5376 34.3509 22.6813 34.3038L22.8573 34.246C23.001 34.1988 23.1557 34.277 23.2029 34.4207C23.25 34.5644 23.1718 34.7191 23.0281 34.7663Z" fill="#2CBC67"/>
<path d="M21.6541 35.2174C21.5104 35.2645 21.3557 35.1863 21.3086 35.0426L19.0133 28.0507C18.9661 27.907 19.0443 27.7523 19.188 27.7051C19.3317 27.658 19.4864 27.7362 19.5336 27.8799L21.8289 34.8718C21.876 35.0155 21.7978 35.1702 21.6541 35.2174Z" fill="#2CBC67"/>
<path d="M20.7661 32.5123C20.7262 32.5254 20.6812 32.5233 20.6407 32.5028L17.7627 31.0474C17.6817 31.0064 17.6493 30.9076 17.6902 30.8266C17.7312 30.7456 17.83 30.7132 17.911 30.7541L20.789 32.2096C20.87 32.2505 20.9024 32.3494 20.8615 32.4303C20.841 32.4708 20.806 32.4992 20.7661 32.5123Z" fill="#2CBC67"/>
<path d="M296.395 17.8699L295.504 17.6836L294.355 16.902L293.507 15.4864L293.168 13.6372L293.64 12.0033L294.64 10.8908L295.835 10.5795L296.552 10.9196L297.027 10.1319L298.469 8.58713L300.152 7.46055L301.601 6.89837L303.342 6.64407L305.093 6.79904L306.03 7.24375L306.771 8.10196L307.191 9.28071L307.28 10.944L306.888 13.1222L306.012 14.9691L305.502 16.0442L304.531 17.3063L303.416 18.1618L303.132 18.2632L303.545 18.4594L304.62 18.9695L304.84 19.7156L304.584 20.5398L304.114 21.5322L303.379 22.2981L302.542 22.7794L301.492 22.7874L300.903 22.6767L300.109 21.9288L299.577 21.271L299.785 20.1202L300.851 18.5867L299.985 18.5602L298.662 17.9323L297.941 17.3876L297.102 17.7325L296.395 17.8699Z" fill="#2CBC67"/>
<path d="M300.754 22.8452C300.375 22.6656 300.046 22.395 299.809 22.0574C299.447 21.5423 299.338 20.9273 299.502 20.3256C299.723 19.5162 300.209 18.8878 300.909 18.5086C301.02 18.4483 301.159 18.4897 301.219 18.6008C301.28 18.7119 301.238 18.8508 301.127 18.911C300.532 19.2337 300.133 19.7502 299.944 20.4459C299.816 20.9139 299.901 21.3928 300.183 21.7944C300.515 22.2671 301.074 22.5784 301.677 22.6269C302.377 22.683 303.174 22.265 303.81 21.5087C304.401 20.8063 304.707 19.9813 304.572 19.4558C304.468 19.0501 303.809 18.6859 303.007 18.5897C302.881 18.5747 302.791 18.4608 302.807 18.3353C302.822 18.2098 302.936 18.1203 303.061 18.1353C304.076 18.2569 304.861 18.7417 305.015 19.3417C305.188 20.0141 304.853 20.9804 304.16 21.8034C303.429 22.6726 302.487 23.151 301.64 23.0831C301.33 23.058 301.029 22.9757 300.754 22.8452Z" fill="#2CBC67"/>
<path d="M296.751 22.4577C296.698 22.4327 296.654 22.3874 296.633 22.3278C296.591 22.2088 296.653 22.0779 296.772 22.0354L300.809 20.5965C300.928 20.5541 301.059 20.6162 301.102 20.7352C301.144 20.8543 301.082 20.9852 300.963 21.0276L296.925 22.4666C296.866 22.4878 296.803 22.4828 296.751 22.4577Z" fill="#2CBC67"/>
<path d="M299.206 18.4571C298.697 18.2157 298.212 17.8862 297.769 17.4719C297.676 17.3855 297.671 17.2408 297.758 17.1484C297.844 17.056 297.989 17.0513 298.081 17.1374C299.528 18.489 301.372 18.8569 303.016 18.1216C304.902 17.2776 306.703 14.2107 307.031 11.2849C307.228 9.52334 306.836 8.17815 305.928 7.49705C305.03 6.82417 303.583 6.67462 301.958 7.08656C299.63 7.67639 297.581 9.24286 296.738 11.0773C296.685 11.1922 296.549 11.2424 296.434 11.1896C296.433 11.1892 296.432 11.1888 296.432 11.1884C296.319 11.1348 296.269 11 296.322 10.886C297.221 8.93086 299.389 7.26533 301.845 6.64285C303.605 6.19682 305.193 6.37479 306.202 7.13083C307.245 7.91311 307.701 9.40645 307.485 11.3357C307.327 12.754 306.8 14.3257 306.04 15.6479C305.231 17.0558 304.224 18.0826 303.203 18.5394C301.921 19.1129 300.489 19.0658 299.206 18.4571Z" fill="#2CBC67"/>
<path d="M295.285 17.9114C294.768 17.6665 294.32 17.2497 293.951 16.6727C293.003 15.1897 292.766 13.5485 293.301 12.1699C293.65 11.2684 294.29 10.6143 295.012 10.4204C295.407 10.3144 295.838 10.3699 296.292 10.5856C297.521 11.1688 298.761 12.8972 299.056 14.4385C299.291 15.6677 298.863 16.8746 297.941 17.5883C297.146 18.2028 296.153 18.3236 295.285 17.9114ZM296.096 10.9991C295.742 10.8313 295.418 10.7854 295.131 10.8624C294.558 11.0163 294.02 11.5807 293.727 12.3353C293.246 13.5764 293.468 15.0675 294.336 16.4262C294.658 16.9297 295.043 17.2903 295.481 17.4978C296.19 17.8346 297.005 17.733 297.661 17.2263C298.446 16.6186 298.809 15.5833 298.606 14.5244C298.34 13.1329 297.191 11.5185 296.096 10.9991Z" fill="#2CBC67"/>
<path d="M297.629 25.3046L297.396 25.194C297.206 25.1037 297.125 24.8762 297.215 24.6859C297.305 24.4956 297.533 24.4145 297.723 24.5048L297.956 24.6154C298.146 24.7057 298.228 24.9332 298.137 25.1235C298.047 25.3138 297.819 25.3949 297.629 25.3046Z" fill="#2CBC67"/>
<path d="M295.809 24.4411C295.619 24.3508 295.538 24.1233 295.628 23.933L300.023 14.6717C300.113 14.4814 300.34 14.4003 300.531 14.4906C300.721 14.5809 300.802 14.8084 300.712 14.9987L296.317 24.26C296.227 24.4503 296 24.5313 295.809 24.4411Z" fill="#2CBC67"/>
<path d="M297.509 20.858C297.457 20.833 297.413 20.7877 297.392 20.7281L295.884 16.4964C295.841 16.3774 295.903 16.2465 296.022 16.204C296.142 16.1616 296.272 16.2237 296.315 16.3428L297.823 20.5745C297.866 20.6935 297.803 20.8244 297.684 20.8669C297.625 20.8881 297.562 20.8831 297.509 20.858Z" fill="#2CBC67"/>
<path fill-rule="evenodd" clip-rule="evenodd" d="M340 36.953V168H26.9418C20.4978 156.241 17 143.626 17 130.5C17 66.7111 99.6035 15 201.5 15C269.852 16.5189 312.898 24.341 340 36.953Z" fill="#2CBC67"/>
<path fill-rule="evenodd" clip-rule="evenodd" d="M340 67.7571V167.999H147.17C147.381 156.933 148.898 145.582 151.843 134.203C168.877 68.3686 227.23 26.5248 282.178 40.7422C298.261 44.9035 319.993 54.704 340 67.7571Z" fill="white"/>
<path d="M204.478 46.3823C205.023 47.6322 206.213 50.9359 206.612 54.1514C207.011 57.3669 206.566 56.9209 206.294 56.296" stroke="white" stroke-linecap="round" stroke-linejoin="round"/>
<path d="M201.4 49.4009C202.275 50.4461 204.35 53.2794 205.64 56.2514C206.931 59.2234 206.378 58.9212 205.94 58.3986" stroke="white" stroke-linecap="round" stroke-linejoin="round"/>
<path d="M128.74 60.3823C128.195 61.6322 127.006 64.9359 126.606 68.1514C126.207 71.3669 126.652 70.9209 126.925 70.296" stroke="white" stroke-linecap="round" stroke-linejoin="round"/>
<path d="M131.819 63.4009C130.943 64.4461 128.869 67.2794 127.578 70.2514C126.287 73.2234 126.84 72.9212 127.278 72.3986" stroke="white" stroke-linecap="round" stroke-linejoin="round"/>
<path d="M58.2491 54.9683L57.3642 55.1819L55.9912 54.9683L54.6181 54.053L53.5197 52.5273L53.2451 50.8492L53.6722 49.4151L54.6181 48.6218H55.4114L55.503 47.7064L56.1437 45.6926L57.1811 43.9534L58.2491 42.8244L59.7137 41.848L61.3613 41.2378H62.3987L63.4362 41.6955L64.321 42.5803L65.1143 44.0449L65.6941 46.1808V48.2251V49.4151L65.3584 50.9712L64.7177 52.2222L64.5041 52.4358H64.9618H66.1518L66.6705 53.0155L66.7925 53.8699V54.9683L66.4569 55.9752L65.9077 56.7686L64.9618 57.2262L64.382 57.3788L63.3446 57.0432L62.5818 56.677L62.2767 55.5481L62.5818 53.7059L61.7885 54.053H60.3239L59.4391 53.8699L58.8288 54.5412L58.2491 54.9683Z" fill="white"/>
<path d="M64.32 57.5946C63.9011 57.5946 63.4875 57.4913 63.1286 57.2879C62.5811 56.9776 62.2191 56.4687 62.1093 55.8548C61.9615 55.029 62.1317 54.2528 62.6014 53.6101C62.676 53.508 62.8192 53.4859 62.9212 53.5604C63.0232 53.635 63.0455 53.7782 62.9709 53.8802C62.5711 54.4272 62.4328 55.0644 62.5598 55.7742C62.6452 56.2517 62.9273 56.6478 63.3542 56.8898C63.8568 57.1746 64.4947 57.2165 65.0605 57.0017C65.7166 56.7525 66.2579 56.033 66.5085 55.077C66.7412 54.1892 66.664 53.3126 66.3164 52.8958C66.0484 52.574 65.2975 52.5272 64.531 52.7843C64.4113 52.8245 64.2815 52.76 64.2413 52.6402C64.2011 52.5204 64.2657 52.3906 64.3854 52.3504C65.3542 52.0254 66.2715 52.1268 66.668 52.6028C67.1127 53.136 67.2239 54.1528 66.9512 55.1931C66.6632 56.2918 66.0171 57.1279 65.2229 57.4296C64.9319 57.54 64.6245 57.5946 64.32 57.5946Z" fill="white"/>
<path d="M60.5369 58.9606C60.4784 58.9606 60.4198 58.9382 60.3751 58.8936C60.2858 58.8042 60.2858 58.6593 60.3751 58.5699L63.4058 55.5392C63.4952 55.4498 63.6401 55.4498 63.7295 55.5392C63.8189 55.6286 63.8189 55.7734 63.7295 55.8628L60.6988 58.8936C60.6541 58.9382 60.5955 58.9606 60.5369 58.9606Z" fill="white"/>
<path d="M61.0405 54.2935C60.4773 54.2936 59.8978 54.2038 59.3195 54.0196C59.199 53.9812 59.1326 53.8525 59.1709 53.7321C59.2093 53.6116 59.3382 53.5452 59.4584 53.5835C61.3447 54.1845 63.1691 53.7261 64.3386 52.3573C65.6813 50.7861 65.9938 47.2432 65.0352 44.4595C64.458 42.7836 63.5274 41.7363 62.4148 41.5103C61.3154 41.2871 59.9442 41.7722 58.6524 42.8411C56.8025 44.3717 55.6228 46.6653 55.6469 48.6843C55.6484 48.8107 55.5472 48.9144 55.4208 48.9159C55.4199 48.9159 55.4189 48.9159 55.418 48.9159C55.2929 48.9159 55.1908 48.8152 55.1892 48.6898C55.1635 46.5379 56.4084 44.1037 58.3606 42.4884C59.7595 41.331 61.2705 40.8111 62.5058 41.0617C63.7838 41.3212 64.8358 42.475 65.4679 44.3105C65.9326 45.6598 66.1304 47.3057 66.0108 48.8259C65.8834 50.4446 65.4131 51.8043 64.6865 52.6547C63.7744 53.7222 62.4606 54.2935 61.0405 54.2935Z" fill="white"/>
<path d="M57.2636 55.4816C56.6922 55.4816 56.1081 55.2975 55.5277 54.9342C54.0358 54.0006 53.1182 52.6195 53.0102 51.1448C52.9395 50.1804 53.2371 49.3153 53.8063 48.8306C54.1175 48.5655 54.5304 48.4312 55.0335 48.4312C56.3941 48.4312 58.2551 49.4612 59.1819 50.7274C59.9212 51.7372 60.0526 53.0107 59.5248 54.0512C59.0704 54.9469 58.2251 55.4816 57.2636 55.4816ZM55.0334 48.8888C54.6421 48.8888 54.3291 48.9865 54.1029 49.1791C53.6513 49.5637 53.4075 50.3041 53.4665 51.1114C53.5638 52.4389 54.4035 53.6909 55.7704 54.5462C56.277 54.8631 56.7793 55.0239 57.2636 55.0239C58.0491 55.0239 58.7418 54.5828 59.1166 53.8441C59.5659 52.9583 59.4494 51.8676 58.8125 50.9977C57.9758 49.8546 56.2452 48.8888 55.0334 48.8888Z" fill="white"/>
<path d="M62.5513 61.1564H62.2932C62.0826 61.1564 61.9118 60.9856 61.9118 60.775C61.9118 60.5643 62.0826 60.3936 62.2932 60.3936H62.5513C62.7619 60.3936 62.9327 60.5643 62.9327 60.775C62.9327 60.9856 62.7619 61.1564 62.5513 61.1564Z" fill="white"/>
<path d="M60.537 61.1562C60.3263 61.1562 60.1556 60.9855 60.1556 60.7748V50.524C60.1556 50.3133 60.3263 50.1426 60.537 50.1426C60.7476 50.1426 60.9184 50.3133 60.9184 50.524V60.7748C60.9184 60.9855 60.7476 61.1562 60.537 61.1562Z" fill="white"/>
<path d="M60.5369 57.19C60.4784 57.19 60.4198 57.1677 60.375 57.123L57.1984 53.9463C57.1091 53.8569 57.1091 53.7121 57.1984 53.6227C57.2878 53.5333 57.4327 53.5333 57.5221 53.6227L60.6987 56.7993C60.7881 56.8887 60.7881 57.0336 60.6987 57.123C60.654 57.1677 60.5954 57.19 60.5369 57.19Z" fill="white"/>
<path d="M234.433 38.6404L235.341 38.7136L236.664 38.289L237.877 37.171L238.725 35.4931L238.735 33.7926L238.09 32.4425L237.032 31.806L236.249 31.9295L236.016 31.0395L235.069 29.15L233.774 27.5934L232.543 26.6445L230.944 25.9079L229.222 25.5615L228.197 25.723L227.244 26.3366L226.507 27.3484L225.952 28.9186L225.711 31.1186L226.029 33.138L226.215 34.3135L226.788 35.7985L227.616 36.9345L227.86 37.1122L227.408 37.1835L226.233 37.3687L225.811 38.0221L225.823 38.885L225.994 39.9701L226.482 40.9125L227.148 41.6106L228.154 41.9155L228.75 41.976L229.723 41.483L230.419 41.0026L230.545 39.8399L229.957 38.0677L230.794 38.287L232.241 38.0591L233.087 37.7405L233.794 38.3086L234.433 38.6404Z" fill="white"/>
<path d="M228.845 42.1799C229.259 42.1147 229.651 41.9483 229.974 41.6915C230.467 41.2997 230.745 40.7406 230.758 40.1171C230.775 39.2784 230.487 38.5381 229.922 37.9764C229.833 37.8872 229.688 37.8876 229.599 37.9771C229.51 38.0667 229.51 38.2115 229.6 38.3007C230.08 38.7788 230.315 39.3868 230.3 40.1077C230.29 40.5926 230.073 41.0279 229.689 41.3333C229.237 41.6929 228.614 41.8335 228.021 41.7094C227.334 41.5654 226.688 40.9389 226.291 40.0335C225.923 39.1927 225.863 38.3148 226.142 37.849C226.356 37.4894 227.091 37.3263 227.888 37.461C228.012 37.4821 228.131 37.3982 228.152 37.2735C228.173 37.1489 228.089 37.0308 227.964 37.0098C226.957 36.8394 226.066 37.0824 225.749 37.6143C225.392 38.2102 225.441 39.2319 225.872 40.2171C226.328 41.2576 227.096 41.983 227.927 42.1573C228.232 42.2211 228.544 42.2273 228.845 42.1799Z" fill="white"/>
<path d="M232.795 42.94C232.852 42.9309 232.907 42.8997 232.944 42.8486C233.018 42.7464 232.996 42.6033 232.894 42.5289L229.428 40.0068C229.326 39.9325 229.183 39.955 229.108 40.0572C229.034 40.1594 229.057 40.3025 229.159 40.3769L232.624 42.899C232.675 42.9362 232.737 42.9491 232.795 42.94Z" fill="white"/>
<path d="M231.571 38.4085C232.127 38.3209 232.686 38.142 233.228 37.87C233.341 37.8134 233.387 37.6759 233.33 37.5629C233.274 37.4499 233.136 37.4043 233.023 37.4609C231.253 38.3481 229.38 38.1793 228.012 37.0092C226.441 35.6661 225.581 32.215 226.094 29.3161C226.404 27.5707 227.16 26.3913 228.224 25.9949C229.275 25.6034 230.705 25.8691 232.147 26.7239C234.213 27.9479 235.735 30.03 236.026 32.0282C236.044 32.1533 236.16 32.2399 236.285 32.2217C236.286 32.2216 236.287 32.2214 236.288 32.2213C236.411 32.2018 236.497 32.0865 236.479 31.9623C236.169 29.8326 234.561 27.6219 232.381 26.3302C230.819 25.4045 229.245 25.1261 228.064 25.566C226.842 26.0212 225.982 27.3247 225.644 29.2362C225.395 30.6414 225.455 32.298 225.81 33.7811C226.188 35.3602 226.864 36.6302 227.714 37.357C228.781 38.2696 230.168 38.6294 231.571 38.4085Z" fill="white"/>
<path d="M235.487 38.9939C236.051 38.9049 236.599 38.6321 237.116 38.1829C238.444 37.0286 239.136 35.5214 239.013 34.0479C238.933 33.0843 238.504 32.276 237.867 31.8858C237.518 31.6724 237.089 31.6039 236.592 31.6822C235.248 31.894 233.57 33.2012 232.852 34.5961C232.279 35.7086 232.347 36.9872 233.03 37.9328C233.619 38.7468 234.537 39.1435 235.487 38.9939ZM236.663 32.1343C237.05 32.0734 237.374 32.1212 237.628 32.2762C238.134 32.5858 238.49 33.2793 238.557 34.0859C238.668 35.4124 238.033 36.7798 236.816 37.8374C236.365 38.2294 235.894 38.4663 235.415 38.5417C234.639 38.664 233.886 38.3361 233.401 37.6647C232.82 36.8596 232.765 35.7641 233.259 34.8057C233.907 33.5463 235.466 32.3229 236.663 32.1343Z" fill="white"/>
<path d="M231.147 45.4224L231.401 45.3822C231.61 45.3494 231.752 45.1542 231.719 44.9461C231.686 44.738 231.491 44.5959 231.283 44.6287L231.028 44.6689C230.82 44.7016 230.678 44.8969 230.71 45.105C230.743 45.3131 230.938 45.4552 231.147 45.4224Z" fill="white"/>
<path d="M233.136 45.1087C233.344 45.0759 233.486 44.8807 233.454 44.6726L231.858 34.5467C231.825 34.3386 231.63 34.1965 231.422 34.2293C231.214 34.2621 231.072 34.4573 231.105 34.6654L232.7 44.7913C232.733 44.9994 232.928 45.1415 233.136 45.1087Z" fill="white"/>
<path d="M232.519 41.1913C232.577 41.1822 232.631 41.1511 232.668 41.1L235.312 37.4676C235.386 37.3654 235.364 37.2223 235.262 37.1479C235.159 37.0736 235.016 37.0961 234.942 37.1983L232.298 40.8306C232.224 40.9328 232.247 41.0759 232.349 41.1503C232.4 41.1875 232.461 41.2005 232.519 41.1913Z" fill="white"/>
<path fill-rule="evenodd" clip-rule="evenodd" d="M143.02 168H0V36.8504C10.2894 33.6956 21.2001 32 32.5 32C94.632 32 145 83.2634 145 146.5C145 153.849 144.32 161.036 143.02 168Z" fill="#2CBC67"/>
<path fill-rule="evenodd" clip-rule="evenodd" d="M234.283 168H0V67.5274C19.0272 62.0101 39.5714 59 61 59C145.238 59 215.809 105.517 234.283 168Z" fill="white"/>
</svg>
