<svg width="44" height="44" viewBox="0 0 44 44" fill="none" xmlns="http://www.w3.org/2000/svg">
<g clip-path="url(#clip0_1_3459)">
<path d="M39.9313 10.4697H4.06871C1.82523 10.4697 0 12.295 0 14.5384V39.7505C0 41.994 1.82523 43.8192 4.06871 43.8192H39.9313C42.1748 43.8192 44 41.994 44 39.7505V14.5384C44 12.295 42.1748 10.4697 39.9313 10.4697V10.4697ZM42.2819 39.7505C42.2819 41.0466 41.2274 42.1011 39.9313 42.1011H4.06871C2.7726 42.1011 1.71815 41.0466 1.71815 39.7505V14.5384C1.71815 13.2423 2.7726 12.188 4.06871 12.188H39.9313C41.2274 12.188 42.2819 13.2423 42.2819 14.5384V39.7505Z" fill="#2CBC67"/>
<path d="M38.7203 14.0806H5.2797C4.35243 14.0806 3.5979 14.835 3.5979 15.7624V38.527C3.5979 39.4544 4.35235 40.2088 5.2797 40.2088H38.7203C39.6476 40.2088 40.4022 39.4544 40.4022 38.527V15.7624C40.4022 14.8351 39.6476 14.0806 38.7203 14.0806ZM39.3713 38.5271C39.3713 38.886 39.0793 39.178 38.7203 39.178H5.2797C4.92082 39.178 4.62881 38.8861 4.62881 38.5271V15.7624C4.62881 15.4035 4.92074 15.1115 5.2797 15.1115H38.7203C39.0792 15.1115 39.3713 15.4035 39.3713 15.7624V38.5271Z" fill="#2CBC67"/>
<path d="M9.18496 20.0252C9.03242 19.893 8.81689 19.8623 8.63333 19.946C8.44977 20.0299 8.33203 20.2131 8.33203 20.4149V33.661C8.33203 33.9456 8.56286 34.1765 8.84748 34.1765H24.1427C24.3579 34.1765 24.5505 34.0428 24.6257 33.8411C24.7009 33.6394 24.6428 33.4122 24.4801 33.2713L9.18496 20.0252ZM9.36302 30.6864H11.8222V33.1456H9.36302V30.6864ZM12.8531 33.1456V30.1709C12.8531 29.8863 12.6223 29.6555 12.3377 29.6555H9.36302V21.5431L22.7603 33.1455L12.8531 33.1456Z" fill="#2CBC67"/>
<path d="M34.8246 33.9423C34.9704 33.7264 34.9173 33.4122 34.7099 33.2551L33.1875 32.0663C32.9631 31.891 32.6393 31.9309 32.464 32.1553C32.2888 32.3797 32.3286 32.7036 32.5531 32.8788L32.8951 33.1459H26.9879C26.7032 33.1459 26.4724 33.3767 26.4724 33.6613C26.4724 33.946 26.7032 34.1768 26.9879 34.1768H32.8951L32.5531 34.4439C32.3287 34.6191 32.2888 34.943 32.464 35.1674C32.5656 35.2976 32.7173 35.3656 32.8706 35.3656C32.9816 35.3656 33.0934 35.33 33.1875 35.2564L34.7099 34.0676C34.7545 34.032 34.7936 33.9903 34.8246 33.9423V33.9423Z" fill="#2CBC67"/>
<path d="M35.1525 18.9233H23.5523C23.2676 18.9233 23.0368 19.1542 23.0368 19.4388V25.5998L22.1727 23.3521C22.0706 23.0864 21.7723 22.954 21.5066 23.056C21.2409 23.1582 21.1084 23.4564 21.2105 23.7221L23.0712 28.5618C23.1488 28.7637 23.3422 28.8924 23.5521 28.8924C23.5832 28.8924 23.6148 28.8895 23.6464 28.8837C23.8906 28.8383 24.0678 28.6253 24.0678 28.3768V19.9542H35.1525C35.4372 19.9542 35.668 19.7234 35.668 19.4388C35.6679 19.1542 35.4371 18.9233 35.1525 18.9233V18.9233Z" fill="#2CBC67"/>
<path d="M26.5899 27.8604C26.6829 27.9306 26.7918 27.9644 26.8998 27.9644C27.0561 27.9644 27.2105 27.8936 27.3118 27.7593L28.3263 26.4139L29.3966 27.8242C29.4979 27.9579 29.6519 28.0282 29.8077 28.0282C29.9162 28.0282 30.0257 27.994 30.1188 27.9232C30.3456 27.7512 30.39 27.4278 30.2178 27.201L28.9713 25.5585L30.0167 24.172C30.1881 23.9447 30.1427 23.6215 29.9155 23.4501C29.6881 23.2787 29.365 23.3241 29.1935 23.5514L28.3236 24.7051L27.447 23.5501C27.2751 23.3234 26.9515 23.279 26.7248 23.4512C26.498 23.6232 26.4537 23.9466 26.6258 24.1734L27.6786 25.5605L26.4886 27.1386C26.3173 27.3659 26.3627 27.6891 26.5899 27.8604Z" fill="#2CBC67"/>
<path d="M33.7489 22.758C33.7415 22.1705 33.2708 21.6924 32.6834 21.6924C32.1753 21.6924 31.7356 22.0539 31.6377 22.552C31.5829 22.8314 31.7648 23.1023 32.0442 23.1572C32.3232 23.2121 32.5943 23.0301 32.6493 22.7507C32.6514 22.7401 32.6625 22.7233 32.6834 22.7233C32.6978 22.7233 32.7102 22.7321 32.7154 22.7447C32.7008 22.7932 32.6642 22.8807 32.572 23.0123C32.2347 23.4942 32.0337 23.7575 31.9257 23.8988C31.7812 24.0881 31.6447 24.2668 31.7273 24.5355C31.7771 24.6974 31.9036 24.8264 32.066 24.8806C32.1337 24.9032 32.1726 24.9162 32.6206 24.9162C32.7906 24.9162 33.0195 24.9143 33.3311 24.9104C33.6157 24.9068 33.8436 24.6731 33.8401 24.3885C33.8365 24.1061 33.6064 23.8796 33.3248 23.8796C33.3226 23.8796 33.3203 23.8796 33.3182 23.8797C33.2861 23.8801 33.2535 23.8804 33.2207 23.8808C33.2805 23.7972 33.3457 23.705 33.4167 23.6037C33.5761 23.3756 33.6771 23.1643 33.725 22.9577C33.725 22.9577 33.7503 22.8674 33.7489 22.758V22.758Z" fill="#2CBC67"/>
<path d="M13.2754 18.3948C12.5691 18.3948 11.8682 18.3933 11.1924 18.3906C10.718 18.3886 10.3349 18.0023 10.3369 17.5279C10.3389 17.0546 10.7232 16.6724 11.196 16.6724H11.1996C12.5466 16.678 13.9934 16.678 15.3836 16.6724C15.8551 16.6713 16.2443 17.0535 16.2462 17.528C16.2482 18.0024 15.8651 18.3886 15.3906 18.3905C14.6933 18.3933 13.9816 18.3948 13.2754 18.3948V18.3948Z" fill="#2CBC67"/>
<path d="M7.93217 18.3906H7.0349C6.56044 18.3906 6.17578 18.0059 6.17578 17.5315C6.17578 17.057 6.56044 16.6724 7.0349 16.6724H7.93217C8.40663 16.6724 8.79129 17.057 8.79129 17.5315C8.79129 18.006 8.40663 18.3906 7.93217 18.3906V18.3906Z" fill="#2CBC67"/>
<path d="M28.1015 3.35403C28.3039 2.49785 27.7739 1.6397 26.9177 1.43731C26.0615 1.23493 25.2034 1.76494 25.001 2.62112C24.7986 3.47731 25.3286 4.33545 26.1848 4.53784C27.041 4.74023 27.8991 4.21022 28.1015 3.35403Z" fill="#2CBC67"/>
<path d="M17.389 7.49719C17.4486 7.12936 17.1987 6.78284 16.8309 6.72321C16.4631 6.66359 16.1166 6.91343 16.0569 7.28126C15.9973 7.64908 16.2472 7.9956 16.615 8.05523C16.9828 8.11486 17.3293 7.86501 17.389 7.49719Z" fill="#2CBC67"/>
<path d="M39.2014 4.22132L39.7427 5.74336C39.766 5.8085 39.8118 5.86015 39.8697 5.88627L41.2219 6.49548C41.4129 6.58159 41.4129 6.88598 41.2219 6.97201L39.8697 7.58122C39.8118 7.60725 39.7659 7.6589 39.7427 7.72413L39.2014 9.24617C39.1249 9.46118 38.8545 9.46118 38.778 9.24617L38.2367 7.72413C38.2135 7.65899 38.1677 7.60734 38.1098 7.58122L36.7575 6.97201C36.5665 6.8859 36.5665 6.58159 36.7575 6.49548L38.1098 5.88627C38.1677 5.86015 38.2136 5.80858 38.2367 5.74336L38.778 4.22132C38.8545 4.0063 39.1249 4.0063 39.2014 4.22132V4.22132Z" fill="#2CBC67"/>
<path d="M4.06183 0.398064L4.80562 2.44991C4.83751 2.53774 4.9005 2.60735 4.98008 2.64258L6.83822 3.46388C7.10076 3.5799 7.10076 3.99025 6.83822 4.10627L4.97999 4.92757C4.90041 4.96272 4.83742 5.03233 4.80554 5.12016L4.06175 7.172C3.95665 7.46187 3.58505 7.46187 3.47995 7.172L2.73616 5.12016C2.70428 5.03233 2.64129 4.96272 2.56171 4.92757L0.70374 4.10627C0.441201 3.99025 0.441201 3.5799 0.70374 3.46388L2.56188 2.64258C2.64146 2.60743 2.70445 2.53782 2.73633 2.44991L3.48012 0.398064C3.58514 0.108197 3.95673 0.108197 4.06183 0.398064V0.398064Z" fill="#2CBC67"/>
</g>
<defs>
<clipPath id="clip0_1_3459">
<rect width="44" height="44" fill="white"/>
</clipPath>
</defs>
</svg>
