<svg width="45" height="45" viewBox="0 0 45 45" fill="none" xmlns="http://www.w3.org/2000/svg">
<g clip-path="url(#clip0_1_3516)">
<path d="M44.9659 24.5545C44.9659 22.5184 43.3093 20.8618 41.2732 20.8618H37.0098V14.2335C37.0098 12.0006 35.1934 10.1841 32.9605 10.1841H25.8504C23.6175 10.1841 21.8011 12.0006 21.8011 14.2335V20.8618H17.479C17.5263 20.6882 17.5519 20.5058 17.5519 20.3173V18.6029C17.5519 18.1581 17.411 17.746 17.172 17.4077C17.411 17.0694 17.5519 16.6573 17.5519 16.2126V14.4983C17.5519 13.353 16.6202 12.4213 15.475 12.4213H7.04453C5.42664 12.4213 4.11039 13.7376 4.11039 15.3555C4.11039 16.1538 4.43128 16.8784 4.95027 17.4078C4.43119 17.9374 4.11039 18.6619 4.11039 19.4602C4.11039 19.9675 4.23994 20.4452 4.46749 20.8619H3.72666C1.6905 20.8619 0.0339355 22.5185 0.0339355 24.5546C0.0339355 26.4035 1.39984 27.9391 3.1755 28.206V42.0863C3.1755 43.693 4.4827 45.0001 6.08942 45.0001H14.687C16.2937 45.0001 17.6009 43.693 17.6009 42.0863V38.8821L35.2972 38.5945V42.0488C35.2972 43.6762 36.621 45.0001 38.2484 45.0001H38.8729C40.5003 45.0001 41.8242 43.6762 41.8242 42.0488V28.2061C43.6 27.939 44.9659 26.4035 44.9659 24.5545ZM7.04453 18.2895H15.475C15.6478 18.2895 15.7883 18.4302 15.7883 18.6029V20.3173C15.7883 20.4901 15.6478 20.6307 15.475 20.6307H7.04453C6.39906 20.6307 5.874 20.1055 5.874 19.4601C5.87392 18.8147 6.39906 18.2895 7.04453 18.2895ZM7.04453 14.1848H15.475C15.6478 14.1848 15.7883 14.3254 15.7883 14.4982V16.2125C15.7883 16.3853 15.6478 16.5259 15.475 16.5259H7.04453C6.39906 16.5259 5.874 16.0008 5.874 15.3554C5.87392 14.7098 6.39906 14.1848 7.04453 14.1848ZM23.5647 14.2335C23.5647 12.9731 24.5901 11.9477 25.8504 11.9477H32.9605C34.2208 11.9477 35.2462 12.9731 35.2462 14.2335V20.8618H23.5646V14.2335H23.5647ZM14.687 43.2364H6.08942C5.45512 43.2364 4.93911 42.7204 4.93911 42.0862V28.2472H15.8373V42.0862C15.8373 42.7204 15.3213 43.2364 14.687 43.2364ZM17.6009 37.1182V28.2472H35.2972V36.8305L17.6009 37.1182ZM38.873 43.2364H38.2485C37.5936 43.2364 37.0609 42.7036 37.0609 42.0487V28.2472H40.0607V42.0487C40.0606 42.7036 39.5279 43.2364 38.873 43.2364ZM41.2733 26.4836H3.72666C2.66292 26.4836 1.79755 25.6182 1.79755 24.5545C1.79755 23.4909 2.66292 22.6254 3.72666 22.6254H41.2733C42.337 22.6254 43.2024 23.4909 43.2024 24.5545C43.2023 25.6182 42.337 26.4836 41.2733 26.4836Z" fill="#2CBC67"/>
<path d="M13.3992 34.0615C13.107 34.0615 12.8701 34.2984 12.8701 34.5906V35.7165C12.8701 36.0087 13.107 36.2456 13.3992 36.2456C13.6914 36.2456 13.9283 36.0087 13.9283 35.7165V34.5906C13.9282 34.2984 13.6914 34.0615 13.3992 34.0615Z" fill="#2CBC67"/>
<path d="M9.17876 37.0913C8.88661 37.0913 8.64966 37.3282 8.64966 37.6204V38.7463C8.64966 39.0384 8.88652 39.2754 9.17876 39.2754C9.471 39.2754 9.70786 39.0385 9.70786 38.7463V37.6204C9.70777 37.3282 9.47091 37.0913 9.17876 37.0913Z" fill="#2CBC67"/>
<path d="M11.7759 38.4619C11.4838 38.4619 11.2468 38.6988 11.2468 38.991V40.1169C11.2468 40.409 11.4837 40.646 11.7759 40.646C12.0682 40.646 12.305 40.4091 12.305 40.1169V38.991C12.305 38.6988 12.0681 38.4619 11.7759 38.4619Z" fill="#2CBC67"/>
<path d="M14.633 25.4365C14.63 25.4365 14.6267 25.4365 14.6236 25.4364C12.9561 25.419 11.3885 25.419 9.68989 25.4364C9.68691 25.4365 9.68374 25.4365 9.68067 25.4365C9.19788 25.4365 8.80404 25.0477 8.79912 24.5638C8.79402 24.0768 9.1847 23.678 9.67179 23.673C11.3827 23.6552 12.9621 23.6552 14.642 23.673C15.129 23.6781 15.5197 24.0769 15.5145 24.5639C15.5096 25.0478 15.1157 25.4365 14.633 25.4365Z" fill="#2CBC67"/>
<path d="M6.57599 25.4365H5.80685C5.31985 25.4365 4.92505 25.0417 4.92505 24.5547C4.92505 24.0677 5.31985 23.6729 5.80685 23.6729H6.57599C7.06299 23.6729 7.45779 24.0677 7.45779 24.5547C7.45779 25.0417 7.0629 25.4365 6.57599 25.4365Z" fill="#2CBC67"/>
<path d="M8.99506 4.1965C8.99506 5.09976 8.26284 5.83197 7.35959 5.83197C6.45634 5.83197 5.72412 5.09976 5.72412 4.1965C5.72412 3.29325 6.45634 2.56104 7.35959 2.56104C8.26284 2.56104 8.99506 3.29325 8.99506 4.1965Z" fill="#2CBC67"/>
<path d="M39.1022 9.04922C39.4847 9.04922 39.7948 8.73914 39.7948 8.35664C39.7948 7.97414 39.4847 7.66406 39.1022 7.66406C38.7197 7.66406 38.4097 7.97414 38.4097 8.35664C38.4097 8.73914 38.7197 9.04922 39.1022 9.04922Z" fill="#2CBC67"/>
<path d="M29.6226 0.16552L30.1781 1.72778C30.202 1.79466 30.249 1.84766 30.3085 1.87447L31.6965 2.49981C31.8925 2.58814 31.8925 2.90059 31.6965 2.98892L30.3085 3.61426C30.2491 3.64107 30.202 3.69407 30.1781 3.76095L29.6226 5.32321C29.5441 5.5439 29.2665 5.5439 29.188 5.32321L28.6323 3.76095C28.6086 3.69407 28.5615 3.64107 28.5021 3.61426L27.1141 2.98892C26.918 2.90059 26.918 2.58814 27.1141 2.49981L28.5021 1.87447C28.5615 1.84766 28.6086 1.79466 28.6323 1.72778L29.188 0.16552C29.2665 -0.0551733 29.5441 -0.0551733 29.6226 0.16552Z" fill="#2CBC67"/>
<path d="M19.448 4.18749L20.2114 6.29352C20.2441 6.3837 20.3088 6.45515 20.3904 6.49128L22.2977 7.33432C22.5671 7.45342 22.5671 7.87459 22.2977 7.99368L20.3904 8.83673C20.3088 8.87285 20.2441 8.9443 20.2114 9.03448L19.448 11.1405C19.3401 11.438 18.9587 11.438 18.8509 11.1405L18.0874 9.03448C18.0547 8.9443 17.9901 8.87285 17.9084 8.83673L16.0012 7.99368C15.7317 7.87459 15.7317 7.45342 16.0012 7.33432L17.9084 6.49128C17.9901 6.45515 18.0547 6.3837 18.0874 6.29352L18.8509 4.18749C18.9587 3.88998 19.3401 3.88998 19.448 4.18749Z" fill="#2CBC67"/>
</g>
<defs>
<clipPath id="clip0_1_3516">
<rect width="45" height="45" fill="white"/>
</clipPath>
</defs>
</svg>
