<svg width="45" height="45" viewBox="0 0 45 45" fill="none" xmlns="http://www.w3.org/2000/svg">
<g clip-path="url(#clip0_1_3477)">
<path d="M44.6074 18.9853C44.2596 18.2127 43.51 17.1669 41.913 16.5733C40.2889 15.9698 39.0153 16.3182 38.2327 16.7167C36.3366 17.6822 35.6796 19.7373 35.5671 20.1395L33.3565 28.6077C32 27.6318 30.3772 27.1037 28.6746 27.1037H25.8434C24.2503 27.1037 22.7097 27.5694 21.388 28.4506C20.8406 28.8155 20.4582 29.3607 20.3011 29.9951C19.6479 29.8664 18.9624 29.7979 18.2658 29.7979C17.6304 29.7979 17.004 29.8547 16.403 29.9621C16.2463 29.3644 15.8795 28.8196 15.3263 28.4507C14.0046 27.5695 12.464 27.1038 10.8708 27.1038H8.03968C7.6628 27.1038 7.29015 27.1309 6.92303 27.1817L8.31917 21.8329C8.55806 20.9375 8.60482 20.9868 8.48001 21.8801C8.50216 22.8099 8.9555 23.6985 10.0395 24.0237C11.6737 24.5139 12.6853 23.3597 12.9917 22.6808L13.0104 22.6365C13.1312 22.3245 13.6947 20.6825 12.931 18.9854C12.5831 18.2127 11.8334 17.167 10.2367 16.5735C8.61264 15.97 7.33893 16.3184 6.55635 16.7168C4.66028 17.6822 4.0033 19.7375 3.8908 20.1397L0.979513 31.2914C0.35382 32.4347 0.0142107 33.7209 0.00014823 35.0592C-0.0139143 36.3899 0.97424 37.5015 2.26324 37.6767C3.24041 39.8976 5.46167 41.4525 8.03959 41.4525H10.8707C14.3395 41.4525 17.1628 38.6377 17.1777 35.1723C17.4356 35.0963 17.8007 35.0273 18.2658 35.0273C18.8619 35.0273 19.2953 35.1405 19.5468 35.2368C19.5964 38.6725 22.405 41.4525 25.8522 41.4525H28.6833C31.2612 41.4525 33.4808 39.8973 34.4578 37.6764C35.03 37.5983 35.5573 37.3352 35.9677 36.916C36.4564 36.4169 36.7214 35.7575 36.7139 35.0592C36.712 34.8739 36.7015 34.69 36.6872 34.5071L39.9954 21.833C40.2616 20.8956 40.323 20.7732 40.1562 21.8802C40.1785 22.8099 40.6318 23.6986 41.7157 24.0237C41.9888 24.1057 42.2443 24.1417 42.4823 24.1417C43.6682 24.1416 44.4128 23.2463 44.668 22.6808L44.6867 22.636C44.8075 22.3238 45.3706 20.6812 44.6074 18.9853ZM5.5899 20.6081C5.62611 20.4819 6.09404 18.9298 7.35598 18.2873C7.82443 18.0488 8.59778 17.8446 9.6225 18.2254C10.6484 18.6068 11.1139 19.2426 11.3237 19.7086C11.7785 20.7193 11.4483 21.7696 11.3783 21.9682C11.2682 22.1783 11.021 22.4781 10.5458 22.3355C10.1522 22.2174 10.2346 21.6784 10.2801 21.4782C10.299 21.4173 10.351 20.5726 10.3493 20.5622C10.2543 19.989 9.88116 19.5889 9.20854 19.3389C8.70281 19.1509 8.27312 19.1532 7.89483 19.3459C7.22203 19.6885 6.83118 20.595 6.73749 20.9153L4.96324 27.7117C4.46315 27.9188 3.98493 28.178 3.5337 28.4846L5.5899 20.6081ZM3.62274 30.6834C4.80574 29.5116 6.37433 28.8662 8.03968 28.8662H10.8708C12.1149 28.8662 13.3174 29.2297 14.3486 29.9171C14.7395 30.1778 14.8456 30.7079 14.585 31.0989C14.4588 31.2883 14.2662 31.4172 14.043 31.4618C13.8199 31.5066 13.5926 31.4616 13.4032 31.3353C12.653 30.8351 11.7772 30.5706 10.8708 30.5706H8.03968C5.54464 30.5706 3.49327 32.6005 3.46699 35.0957C3.46198 35.5606 3.07992 35.9389 2.61507 35.9389H2.60575C2.13589 35.934 1.75761 35.5476 1.76253 35.0777C1.78011 33.4147 2.44069 31.8541 3.62274 30.6834ZM10.8707 39.69H8.03968C6.30542 39.69 4.79608 38.7131 4.0302 37.2811C4.74255 36.8189 5.21971 36.0205 5.22929 35.1143C5.24546 33.5808 6.50625 32.3331 8.03968 32.3331H10.8708C11.4281 32.3331 11.9658 32.4951 12.4256 32.8017C13.0066 33.189 13.7038 33.3269 14.3887 33.1901C14.564 33.155 14.7329 33.1028 14.8939 33.0351C15.2265 33.666 15.416 34.3835 15.416 35.1449C15.4159 37.651 13.377 39.69 10.8707 39.69ZM16.9362 33.4155C16.7716 32.8393 16.5275 32.2963 16.2154 31.7998C16.8564 31.6433 17.5516 31.5603 18.2658 31.5603C19.0424 31.5603 19.7965 31.6583 20.4828 31.8427C20.1749 32.341 19.9349 32.8849 19.7747 33.462C19.3446 33.3424 18.8344 33.2647 18.2658 33.2647C17.7744 33.2647 17.3266 33.3227 16.9362 33.4155ZM28.6833 39.69H25.8522C23.346 39.69 21.307 37.651 21.307 35.1448C21.307 34.3847 21.4952 33.668 21.8265 33.0378C21.9856 33.1041 22.1525 33.1554 22.3255 33.19C23.0107 33.327 23.7077 33.189 24.2886 32.8017C24.7486 32.4951 25.2861 32.3331 25.8434 32.3331H28.6746C30.2081 32.3331 31.4689 33.5808 31.485 35.1143C31.4946 36.0234 31.9748 36.8239 32.691 37.2855C31.9243 38.7152 30.4158 39.69 28.6833 39.69ZM34.7084 35.6829C34.5492 35.8456 34.336 35.9365 34.1115 35.9389L34.0991 35.939C33.6343 35.939 33.2522 35.5606 33.2472 35.0957C33.2209 32.6006 31.1696 30.5706 28.6745 30.5706H25.8434C24.9371 30.5706 24.0614 30.835 23.3109 31.3353C23.1216 31.4615 22.8944 31.5065 22.6713 31.4617C22.448 31.4171 22.2556 31.2882 22.1293 31.0987C22.003 30.9093 21.958 30.6821 22.0028 30.4589C22.0474 30.2357 22.1763 30.0433 22.3657 29.917C23.3968 29.2295 24.5994 28.8661 25.8434 28.8661H28.6746C30.34 28.8661 31.9086 29.5113 33.0916 30.6832C34.2735 31.8539 34.9341 33.4145 34.9517 35.0776C34.954 35.3054 34.8676 35.5203 34.7084 35.6829ZM43.0546 21.9684C42.9444 22.1784 42.6978 22.4781 42.2222 22.3355C41.8286 22.2174 41.9109 21.6784 41.9564 21.4782C41.9753 21.4173 42.0274 20.5727 42.0257 20.5623C41.9307 19.9891 41.5576 19.5889 40.8848 19.3389C40.3791 19.1509 39.9494 19.1532 39.5713 19.3459C38.8988 19.6883 38.5078 20.5948 38.4139 20.9151L35.7142 31.2563C35.4621 30.8011 35.1643 30.369 34.8234 29.9654L37.266 20.6082C37.3022 20.482 37.7702 18.9299 39.0321 18.2874C39.5006 18.0489 40.274 17.8447 41.2986 18.2255C42.3247 18.6068 42.79 19.2426 42.9998 19.7087C43.4545 20.7182 43.1248 21.7691 43.0546 21.9684Z" fill="#FED847"/>
<path d="M7.11663 36.804C6.63024 36.804 6.2357 36.4099 6.23535 35.9234C6.23526 35.7588 6.24722 35.5957 6.27095 35.4385C6.34381 34.9573 6.79249 34.6262 7.27413 34.699C7.75542 34.7718 8.08642 35.221 8.01364 35.7022C8.0031 35.7719 7.99774 35.8459 7.99782 35.9221C7.99817 36.4088 7.6039 36.8036 7.11716 36.804C7.11707 36.804 7.11681 36.804 7.11663 36.804Z" fill="#FED847"/>
<path d="M23.5478 36.804C23.0614 36.804 22.6669 36.4099 22.6665 35.9234C22.6664 35.7588 22.6784 35.5957 22.7021 35.4385C22.775 34.9573 23.2239 34.6262 23.7053 34.699C24.1865 34.7718 24.5176 35.221 24.4448 35.7022C24.4342 35.7719 24.4289 35.8459 24.429 35.9221C24.4293 36.4088 24.035 36.8036 23.5483 36.804C23.5481 36.804 23.5479 36.804 23.5478 36.804Z" fill="#FED847"/>
<path d="M10.9996 35.1405C10.9155 35.1405 10.8301 35.1284 10.7455 35.103C10.2959 34.9679 9.81673 34.9196 9.32041 34.9599C8.83526 34.9992 8.41022 34.6378 8.37084 34.1527C8.33156 33.6675 8.69296 33.2424 9.17812 33.2031C9.89346 33.1451 10.5919 33.2164 11.253 33.4151C11.719 33.5552 11.9833 34.0466 11.8432 34.5127C11.7285 34.8942 11.3784 35.1405 10.9996 35.1405Z" fill="#FED847"/>
<path d="M17.9222 5.5634C18.1298 4.68511 17.5861 3.80481 16.7078 3.5972C15.8295 3.38959 14.9493 3.93328 14.7416 4.81157C14.534 5.68986 15.0777 6.57016 15.956 6.77777C16.8343 6.98538 17.7146 6.44169 17.9222 5.5634Z" fill="#FED847"/>
<path d="M30.918 8.53188C30.9646 8.1523 30.6947 7.80678 30.3152 7.76015C29.9356 7.71351 29.5901 7.98342 29.5434 8.363C29.4968 8.74258 29.7667 9.0881 30.1463 9.13473C30.5259 9.18137 30.8714 8.91146 30.918 8.53188Z" fill="#FED847"/>
<path d="M6.71973 6.00432L7.27494 7.56561C7.29867 7.63241 7.34578 7.68541 7.40519 7.71221L8.79228 8.33711C8.98819 8.42544 8.98819 8.73763 8.79228 8.82596L7.40519 9.45086C7.34578 9.47758 7.29875 9.53058 7.27494 9.59747L6.71973 11.1588C6.64124 11.3794 6.36386 11.3794 6.28546 11.1588L5.73026 9.59747C5.70644 9.53058 5.65942 9.47767 5.6 9.45086L4.21291 8.82596C4.01692 8.73763 4.01692 8.42544 4.21291 8.33711L5.6 7.71221C5.65942 7.68549 5.70644 7.63249 5.73026 7.56561L6.28546 6.00432C6.36386 5.78372 6.64124 5.78372 6.71973 6.00432Z" fill="#FED847"/>
<path d="M25.9684 12.2943L26.7314 14.399C26.7641 14.4891 26.8288 14.5606 26.9104 14.5966L28.8164 15.4391C29.0857 15.5581 29.0857 15.979 28.8164 16.0981L26.9104 16.9406C26.8288 16.9767 26.7641 17.0481 26.7314 17.1382L25.9684 19.2429C25.8606 19.5403 25.4795 19.5403 25.3717 19.2429L24.6087 17.1382C24.576 17.0481 24.5114 16.9767 24.4297 16.9406L22.5237 16.0981C22.2545 15.9791 22.2545 15.5582 22.5237 15.4391L24.4297 14.5966C24.5114 14.5606 24.576 14.4891 24.6087 14.399L25.3717 12.2943C25.4794 11.997 25.8606 11.997 25.9684 12.2943Z" fill="#FED847"/>
<path d="M39.569 3.78452L40.332 5.88924C40.3647 5.97933 40.4294 6.05078 40.511 6.08682L42.417 6.92934C42.6862 7.04834 42.6862 7.46925 42.417 7.58834L40.511 8.43086C40.4294 8.4669 40.3647 8.53835 40.332 8.62844L39.569 10.7332C39.4613 11.0305 39.0801 11.0305 38.9723 10.7332L38.2093 8.62844C38.1766 8.53835 38.1119 8.4669 38.0303 8.43086L36.1243 7.58834C35.855 7.46934 35.855 7.04843 36.1243 6.92934L38.0303 6.08682C38.1119 6.05078 38.1766 5.97933 38.2093 5.88924L38.9723 3.78452C39.08 3.48719 39.4612 3.48719 39.569 3.78452Z" fill="#FED847"/>
</g>
<defs>
<clipPath id="clip0_1_3477">
<rect width="45" height="45" fill="white"/>
</clipPath>
</defs>
</svg>
