<svg width="43" height="43" viewBox="0 0 43 43" fill="none" xmlns="http://www.w3.org/2000/svg">
<g clip-path="url(#clip0_1_3492)">
<path d="M40.7985 12.285H40.0388C39.8628 11.7308 39.3923 11.3047 38.7911 11.2047C33.3248 10.2957 27.7816 10.2957 22.3154 11.2047C21.9995 11.2572 21.7204 11.4007 21.5 11.6044C21.2796 11.4007 21.0005 11.2572 20.6846 11.2047C15.2183 10.2957 9.67508 10.2957 4.20888 11.2047C3.6078 11.3046 3.13732 11.7308 2.96121 12.285H2.2014C0.987572 12.285 0 13.2726 0 14.4864V40.1445C0 41.3584 0.987572 42.3459 2.2014 42.3459H20.1458C20.6562 42.3459 21.1262 42.1708 21.5 41.8782C21.8738 42.1708 22.3438 42.3459 22.8542 42.3459H40.7985C42.0124 42.3459 43 41.3584 43 40.1445V14.4864C43 13.2726 42.0124 12.285 40.7985 12.285ZM3.90183 25.8529C9.85162 24.5166 15.4509 24.5143 20.9917 25.8463V28.1477C15.4435 26.8511 9.83936 26.8542 3.90183 28.1573V25.8529ZM22.0084 25.8529C27.9581 24.5166 33.5574 24.5143 39.0983 25.8463V28.1477C33.55 26.8511 27.9459 26.8542 22.0084 28.1573V25.8529ZM39.0982 24.8011C33.5499 23.5045 27.9458 23.5077 22.0083 24.8106V22.3566C27.9582 21.0202 33.5574 21.0181 39.0982 22.35V24.8011ZM20.9916 24.8011C15.4434 23.5046 9.83927 23.5077 3.90175 24.8106V22.3566C9.8517 21.0202 15.4509 21.0181 20.9916 22.35V24.8011ZM3.90183 29.1995C9.85179 27.863 15.4509 27.861 20.9917 29.1929V31.5999C15.4435 30.3033 9.83936 30.3063 3.90183 31.6094V29.1995ZM22.0084 29.1995C27.9583 27.863 33.5575 27.861 39.0983 29.1929V31.5999C33.55 30.3033 27.9459 30.3063 22.0084 31.6094V29.1995ZM39.0982 21.3049C33.5499 20.0084 27.9458 20.0114 22.0083 21.3145V18.9053C27.9581 17.569 33.5573 17.5667 39.0982 18.8986V21.3049ZM20.9916 21.3049C15.4434 20.0084 9.83927 20.0114 3.90175 21.3145V18.9053C9.85154 17.569 15.4508 17.5667 20.9916 18.8986V21.3049ZM3.90183 32.6517C9.85179 31.3151 15.4509 31.3131 20.9917 32.645V34.9023C15.4435 33.6058 9.83936 33.6089 3.90183 34.9119V32.6517ZM22.0084 32.6517C27.9583 31.3151 33.5575 31.3131 39.0983 32.645V34.9023C33.55 33.6058 27.9459 33.6089 22.0084 34.9119V32.6517ZM39.0982 17.8535C33.5499 16.5571 27.9458 16.5602 22.0083 17.8631V15.4844C27.9581 14.1482 33.5573 14.1459 39.0982 15.4778V17.8535ZM20.9916 17.8535C15.4434 16.5571 9.83927 16.5602 3.90175 17.8631V15.4844C9.85154 14.1482 15.4508 14.1459 20.9916 15.4778V17.8535ZM3.90183 35.9541C9.85162 34.6178 15.4509 34.6156 20.9917 35.9475V37.4633C20.9917 37.6352 20.9151 37.7957 20.7816 37.9036C20.6468 38.0126 20.4719 38.0541 20.3014 38.0174C15.1819 36.9184 10.0412 36.9248 4.58563 38.0376C4.41665 38.072 4.24314 38.0295 4.10994 37.9207C3.97767 37.8126 3.90183 37.6528 3.90183 37.482V35.9541ZM22.2164 37.9207C22.0841 37.8127 22.0083 37.6528 22.0083 37.482V37.4633V35.954C27.9581 34.6177 33.5573 34.6155 39.0982 35.9474V37.4632C39.0982 37.6351 39.0216 37.7956 38.888 37.9035C38.7532 38.0125 38.5783 38.054 38.4078 38.0174C33.2883 36.9183 28.1476 36.9246 22.692 38.0373C22.5233 38.0724 22.3497 38.0295 22.2164 37.9207ZM22.4822 12.2076C25.16 11.7622 27.8567 11.5396 30.5533 11.5396C33.2499 11.5396 35.9466 11.7622 38.6243 12.2076C38.8989 12.2533 39.0982 12.4893 39.0982 12.7686V14.4326C33.5499 13.1361 27.9458 13.1392 22.0083 14.4422V12.7685C22.0084 12.4892 22.2076 12.2533 22.4822 12.2076ZM4.37567 12.2076C7.05343 11.7622 9.75017 11.5396 12.4467 11.5396C15.1434 11.5396 17.84 11.7622 20.5178 12.2076C20.7923 12.2533 20.9916 12.4893 20.9916 12.7686V14.4326C15.4434 13.1361 9.83927 13.1392 3.90175 14.4422V12.7685C3.90183 12.4892 4.10104 12.2533 4.37567 12.2076ZM20.1458 40.6515H2.2014C1.92181 40.6515 1.69438 40.4241 1.69438 40.1445V14.4864C1.69438 14.2069 1.92181 13.9794 2.2014 13.9794H2.88512V37.482C2.88512 37.9593 3.09709 38.4062 3.46679 38.708C3.75335 38.9421 4.10633 39.0662 4.46872 39.0662C4.57505 39.0662 4.6823 39.0555 4.78879 39.0337C10.104 37.9498 15.1085 37.9424 20.0879 39.0116C20.2767 39.0521 20.4676 39.0574 20.6528 39.0305V40.1446C20.6528 40.4241 20.4253 40.6515 20.1458 40.6515ZM41.3056 40.1445C41.3056 40.4241 41.0782 40.6515 40.7986 40.6515H22.8542C22.5747 40.6515 22.3472 40.4241 22.3472 40.1445V39.0484C22.4226 39.0593 22.4986 39.0662 22.5753 39.0662C22.6816 39.0662 22.7888 39.0555 22.8953 39.0337C28.2106 37.9498 33.215 37.9424 38.1945 39.0116C38.6665 39.113 39.1523 38.9974 39.5271 38.6944C39.9006 38.3926 40.1149 37.9439 40.1149 37.4634V13.9795H40.7986C41.0782 13.9795 41.3056 14.2069 41.3056 14.4865V40.1445Z" fill="#F55853"/>
<path d="M6.90045 7.60795C7.76826 7.60795 8.47171 6.90449 8.47171 6.03668C8.47171 5.16887 7.76817 4.46533 6.90045 4.46533C6.03264 4.46533 5.3291 5.16887 5.3291 6.03668C5.3291 6.90449 6.03264 7.60795 6.90045 7.60795Z" fill="#F55853"/>
<path d="M30.5533 2.62574C30.9209 2.62574 31.2188 2.32785 31.2188 1.96033C31.2188 1.59281 30.9209 1.29492 30.5533 1.29492C30.1858 1.29492 29.8879 1.59281 29.8879 1.96033C29.8879 2.32785 30.1858 2.62574 30.5533 2.62574Z" fill="#F55853"/>
<path d="M15.0334 3.52595L16.3669 4.12678C16.424 4.15248 16.4692 4.20346 16.4921 4.2677L17.0259 5.76867C17.1013 5.98073 17.368 5.98073 17.4434 5.76867L17.9772 4.2677C18 4.20346 18.0453 4.15248 18.1024 4.12678L19.4359 3.52595C19.6243 3.44105 19.6243 3.14089 19.4359 3.05598L18.1024 2.45515C18.0453 2.42945 18 2.37848 17.9772 2.31423L17.4435 0.813342C17.368 0.601282 17.1014 0.601282 17.026 0.813342L16.4922 2.31431C16.4693 2.37856 16.4241 2.42954 16.367 2.45524L15.0334 3.05606C14.845 3.14089 14.845 3.44113 15.0334 3.52595Z" fill="#F55853"/>
<path d="M34.4524 6.24439L36.2848 7.05442C36.3632 7.08911 36.4254 7.15772 36.4568 7.24439L37.1903 9.26783C37.294 9.55371 37.6604 9.55371 37.764 9.26783L38.4974 7.24439C38.5289 7.15781 38.591 7.08911 38.6694 7.05442L40.5018 6.24439C40.7606 6.13 40.7606 5.72528 40.5018 5.6109L38.6694 4.80087C38.591 4.76618 38.5289 4.69757 38.4974 4.61089L37.764 2.58746C37.6604 2.30158 37.294 2.30158 37.1903 2.58746L36.4568 4.61089C36.4254 4.69757 36.3632 4.76618 36.2848 4.80087L34.4524 5.6109C34.1936 5.72528 34.1936 6.13 34.4524 6.24439Z" fill="#F55853"/>
</g>
<defs>
<clipPath id="clip0_1_3492">
<rect width="43" height="43" fill="white"/>
</clipPath>
</defs>
</svg>
