<svg width="45" height="45" viewBox="0 0 45 45" fill="none" xmlns="http://www.w3.org/2000/svg">
<g clip-path="url(#clip0_1_3500)">
<path d="M22.5001 19.7134C20.4023 19.7134 18.6956 21.42 18.6956 23.5178C18.6956 25.6157 20.4023 27.3223 22.5001 27.3223C24.5979 27.3223 26.3046 25.6157 26.3046 23.5178C26.3046 21.4201 24.5979 19.7134 22.5001 19.7134ZM22.5001 26.2611C20.9875 26.2611 19.7568 25.0305 19.7568 23.5179C19.7568 22.0053 20.9875 20.7747 22.5001 20.7747C24.0127 20.7747 25.2432 22.0053 25.2432 23.5179C25.2432 25.0305 24.0127 26.2611 22.5001 26.2611Z" fill="#F55853"/>
<path d="M28.0493 22.4268C28.0114 22.2343 28.1604 21.8291 28.2801 21.5035C28.5087 20.8818 28.7679 20.1772 28.3862 19.6034C28.0045 19.0296 27.2546 18.9961 26.5929 18.9666C26.2463 18.9512 25.8149 18.9319 25.6521 18.8225C25.5059 18.7243 25.3332 18.346 25.1945 18.0421C24.9135 17.4266 24.595 16.7289 23.894 16.588C23.1932 16.447 22.6295 16.9672 22.1324 17.4263C21.887 17.6529 21.5815 17.935 21.4087 17.969C21.2163 18.0063 20.811 17.8579 20.4855 17.7382C19.8637 17.5095 19.1591 17.2505 18.5853 17.632C18.0115 18.0137 17.9781 18.7637 17.9486 19.4255C17.9331 19.7721 17.9138 20.2033 17.8045 20.3662C17.7062 20.5125 17.3281 20.6851 17.0241 20.8238C16.4085 21.1048 15.7109 21.4233 15.5699 22.1243C15.4289 22.8253 15.9491 23.3888 16.4082 23.8858C16.6349 24.1313 16.9169 24.4368 16.951 24.6096C16.9889 24.802 16.8399 25.2071 16.7202 25.5328C16.4916 26.1545 16.2324 26.859 16.6141 27.4329C16.9958 28.0068 17.7458 28.0402 18.4076 28.0697C18.7542 28.0852 19.1854 28.1044 19.3482 28.2138C19.4944 28.312 19.6671 28.6902 19.8058 28.9942C20.0868 29.6097 20.4053 30.3074 21.1063 30.4483C21.186 30.4644 21.2639 30.4719 21.3402 30.4719C21.9346 30.4718 22.4273 30.0169 22.8679 29.61C23.1134 29.3833 23.4188 29.1013 23.5916 29.0673C23.7837 29.0297 24.1891 29.1783 24.5149 29.2982C25.1366 29.5266 25.8412 29.7858 26.4151 29.4043C26.9889 29.0225 27.0224 28.2726 27.0519 27.6108C27.0674 27.2642 27.0866 26.833 27.1961 26.6701C27.2942 26.5238 27.6725 26.3512 27.9764 26.2125C28.5919 25.9315 29.2896 25.6131 29.4306 24.9121C29.5716 24.211 29.0512 23.6475 28.5922 23.1504C28.3654 22.905 28.0834 22.5996 28.0493 22.4268ZM28.3899 24.7028C28.3557 24.8727 27.8423 25.107 27.5355 25.2471C27.066 25.4614 26.5804 25.6831 26.3149 26.0784C26.0394 26.4884 26.0151 27.035 25.9915 27.5637C25.9779 27.869 25.9525 28.4373 25.8272 28.5206C25.7018 28.6041 25.168 28.4077 24.881 28.3022C24.3843 28.1196 23.871 27.9306 23.3862 28.0261C22.919 28.1183 22.527 28.4803 22.1478 28.8304C21.9 29.0593 21.4859 29.4417 21.3155 29.408C21.1457 29.3738 20.9113 28.8604 20.7712 28.5536C20.5568 28.0841 20.3351 27.5985 19.94 27.3329C19.53 27.0575 18.9834 27.0331 18.4548 27.0096C18.1495 26.9961 17.5811 26.9707 17.4978 26.8452C17.4144 26.7199 17.6107 26.1861 17.7162 25.8992C17.8988 25.4026 18.0877 24.889 17.9922 24.4044C17.9 23.9373 17.538 23.545 17.1878 23.1659C16.959 22.9181 16.5762 22.5034 16.6103 22.3337C16.6444 22.1638 17.1579 21.9294 17.4647 21.7893C17.9342 21.575 18.4197 21.3533 18.6853 20.9581C18.9607 20.5481 18.9851 20.0015 19.0087 19.4728C19.0223 19.1675 19.0476 18.5992 19.173 18.5158C19.194 18.5019 19.2265 18.4957 19.2674 18.4957C19.4704 18.4957 19.8803 18.6465 20.1191 18.7342C20.6158 18.917 21.1292 19.1058 21.6139 19.0103C22.081 18.9182 22.4731 18.5562 22.8523 18.206C23.1001 17.9772 23.5144 17.5954 23.6846 17.6284C23.8545 17.6626 24.0889 18.1761 24.229 18.4829C24.4433 18.9524 24.6649 19.438 25.0601 19.7035C25.4701 19.979 26.0168 20.0034 26.5455 20.0269C26.8508 20.0405 27.4191 20.0659 27.5024 20.1912C27.5858 20.3165 27.3895 20.8504 27.2839 21.1373C27.1013 21.6338 26.9124 22.1476 27.008 22.6321C27.1001 23.0992 27.4621 23.4914 27.8123 23.8706C28.0411 24.1183 28.4241 24.533 28.3899 24.7028Z" fill="#F55853"/>
<path d="M38.2393 12.5207C34.0228 9.68187 28.4331 8.11847 22.5 8.11847C22.4042 8.11847 22.3089 8.12058 22.2133 8.12146C21.7785 6.9163 20.6236 6.05225 19.2704 6.05225C17.6967 6.05225 16.3914 7.22075 16.175 8.73546C12.6604 9.43647 9.43396 10.7209 6.76077 12.5206C2.43673 15.4318 0.0554199 19.3374 0.0554199 23.5181C0.0554199 26.7551 1.48452 29.8267 4.13627 32.3998C3.86855 32.9614 3.71826 33.5892 3.71826 34.2516C3.71826 36.6325 5.65528 38.5695 8.03624 38.5695C9.40795 38.5695 10.6313 37.9258 11.4228 36.9255C14.762 38.2238 18.5542 38.9177 22.5001 38.9177C28.4332 38.9177 34.0229 37.3543 38.2394 34.5155C42.5635 31.6044 44.9448 27.6987 44.9448 23.518C44.9447 19.3374 42.5634 15.4318 38.2393 12.5207ZM19.2704 7.82122C20.0196 7.82122 20.6291 8.43065 20.6291 9.17983C20.6291 9.92901 20.0196 10.5385 19.2704 10.5385C18.5212 10.5385 17.9117 9.92901 17.9117 9.17983C17.9117 8.43065 18.5212 7.82122 19.2704 7.82122ZM8.03615 36.8006C6.63052 36.8006 5.48706 35.6572 5.48706 34.2515C5.48706 32.8459 6.63061 31.7023 8.03615 31.7023C9.44179 31.7023 10.5852 32.8459 10.5852 34.2515C10.5853 35.6572 9.44179 36.8006 8.03615 36.8006ZM37.2515 33.0483C33.3237 35.6926 28.0849 37.1489 22.5 37.1489C18.8311 37.1489 15.3121 36.5194 12.2154 35.3383C12.3058 34.9909 12.3541 34.6268 12.3541 34.2516C12.3541 31.8706 10.4171 29.9336 8.03615 29.9336C6.96055 29.9336 5.97635 30.3299 5.21952 30.9829C3.01153 28.777 1.82422 26.2011 1.82422 23.5181C1.82422 19.9446 3.92823 16.56 7.74857 13.988C10.2072 12.3327 13.1807 11.1452 16.4301 10.487C16.9261 11.5604 18.0124 12.3073 19.2703 12.3073C20.7509 12.3073 21.9937 11.2728 22.3158 9.88885C22.3773 9.8885 22.4384 9.88735 22.5 9.88735C28.0848 9.88735 33.3236 11.3436 37.2514 13.988C41.0718 16.56 43.1758 19.9445 43.1758 23.5181C43.1758 27.0917 41.0719 30.4763 37.2515 33.0483Z" fill="#F55853"/>
<path d="M37.0984 20.6471C36.3578 19.089 35.0097 17.6743 33.1281 16.518C30.2756 14.7652 26.5011 13.7998 22.5001 13.7998C18.499 13.7998 14.7246 14.7652 11.8721 16.518C8.8852 18.3534 7.24023 20.8394 7.24023 23.5178C7.24023 26.1963 8.8852 28.6822 11.8721 30.5177C14.7246 32.2705 18.499 33.2359 22.5001 33.2359C26.5011 33.2359 30.2756 32.2705 33.1281 30.5177C34.6746 29.5673 35.8609 28.4425 36.6458 27.207C36.7218 27.2123 36.7982 27.2159 36.8755 27.2159C38.6888 27.2159 40.1641 25.7405 40.1641 23.9272C40.1641 22.1889 38.8081 20.7622 37.0984 20.6471ZM32.202 29.0106C29.6242 30.5947 26.1786 31.467 22.5001 31.467C18.8215 31.467 15.3759 30.5947 12.7982 29.0106C10.3547 27.5092 9.00912 25.5584 9.00912 23.5179C9.00912 21.4773 10.3548 19.5266 12.7982 18.0251C15.3759 16.4411 18.8215 15.5688 22.5001 15.5688C26.1786 15.5688 29.6242 16.4411 32.202 18.0251C33.6263 18.9004 34.6774 19.9283 35.3066 21.0377C34.283 21.5956 33.5869 22.6817 33.5869 23.9273C33.5869 25.0139 34.1169 25.9787 34.9318 26.5779C34.2924 27.4657 33.3745 28.2901 32.202 29.0106ZM36.8755 25.447C36.0375 25.447 35.3557 24.7652 35.3557 23.9272C35.3557 23.0892 36.0375 22.4075 36.8755 22.4075C37.7134 22.4075 38.3952 23.0892 38.3952 23.9272C38.3952 24.7652 37.7134 25.447 36.8755 25.447Z" fill="#F55853"/>
<path d="M43.7289 8.51785C43.9373 7.63635 43.3916 6.75284 42.5101 6.54446C41.6286 6.33609 40.7451 6.88177 40.5367 7.76327C40.3283 8.64478 40.874 9.52829 41.7555 9.73666C42.637 9.94504 43.5205 9.39936 43.7289 8.51785Z" fill="#F55853"/>
<path d="M10.1275 4.14182C10.5112 4.14182 10.8222 3.83079 10.8222 3.44713C10.8222 3.06346 10.5112 2.75244 10.1275 2.75244C9.74388 2.75244 9.43286 3.06346 9.43286 3.44713C9.43286 3.83079 9.74388 4.14182 10.1275 4.14182Z" fill="#F55853"/>
<path d="M13.3556 41.9841C13.7392 41.9841 14.0503 41.6731 14.0503 41.2894C14.0503 40.9057 13.7392 40.5947 13.3556 40.5947C12.9719 40.5947 12.6609 40.9057 12.6609 41.2894C12.6609 41.6731 12.9719 41.9841 13.3556 41.9841Z" fill="#F55853"/>
<path d="M3.02798 5.56059L3.58521 7.1275C3.60903 7.19456 3.65631 7.24774 3.7159 7.27463L5.10809 7.90182C5.30479 7.99041 5.30479 8.30383 5.10809 8.39243L3.7159 9.01961C3.65631 9.04651 3.60903 9.09959 3.58521 9.16674L3.02798 10.7337C2.94923 10.9551 2.6708 10.9551 2.59213 10.7337L2.03491 9.16674C2.01109 9.09968 1.9638 9.04651 1.90421 9.01961L0.512026 8.39234C0.315327 8.30374 0.315327 7.99033 0.512026 7.90173L1.90413 7.27454C1.96372 7.24765 2.011 7.19448 2.03482 7.12742L2.59205 5.5605C2.6708 5.33919 2.94923 5.33919 3.02798 5.56059Z" fill="#F55853"/>
<path d="M34.6893 0.166047L35.2465 1.73296C35.2703 1.80002 35.3176 1.8532 35.3772 1.88009L36.7693 2.50728C36.966 2.59587 36.966 2.90929 36.7693 2.99788L35.3772 3.62507C35.3176 3.65197 35.2703 3.70505 35.2465 3.7722L34.6893 5.33911C34.6105 5.56051 34.3321 5.56051 34.2534 5.33911L33.6962 3.7722C33.6724 3.70514 33.6251 3.65197 33.5655 3.62507L32.1734 2.99788C31.9767 2.90929 31.9767 2.59587 32.1734 2.50728L33.5655 1.88009C33.6251 1.8532 33.6724 1.80011 33.6962 1.73296L34.2534 0.166047C34.3321 -0.0553491 34.6105 -0.0553491 34.6893 0.166047Z" fill="#F55853"/>
<path d="M40.7041 37.8025L41.4698 39.9148C41.5025 40.0053 41.5675 40.0769 41.6493 40.1131L43.5623 40.9586C43.8325 41.0781 43.8325 41.5006 43.5623 41.62L41.6493 42.4655C41.5674 42.5017 41.5025 42.5734 41.4698 42.6638L40.7041 44.7762C40.5959 45.0745 40.2134 45.0745 40.1051 44.7762L39.3394 42.6638C39.3066 42.5734 39.2416 42.5016 39.1598 42.4655L37.2469 41.62C36.9766 41.5006 36.9766 41.0781 37.2469 40.9586L39.1598 40.1131C39.2417 40.0769 39.3066 40.0053 39.3394 39.9148L40.1051 37.8025C40.2134 37.504 40.5959 37.504 40.7041 37.8025Z" fill="#F55853"/>
</g>
<defs>
<clipPath id="clip0_1_3500">
<rect width="45" height="45" fill="white"/>
</clipPath>
</defs>
</svg>
