<?xml version="1.0" standalone="no"?>
<!DOCTYPE svg PUBLIC "-//W3C//DTD SVG 20010904//EN"
 "http://www.w3.org/TR/2001/REC-SVG-20010904/DTD/svg10.dtd">
<svg version="1.0" xmlns="http://www.w3.org/2000/svg"
 width="180.000000pt" height="180.000000pt" viewBox="0 0 180.000000 180.000000"
 preserveAspectRatio="xMidYMid meet">
<metadata>
Created by potrace 1.14, written by Peter Selinger 2001-2017
</metadata>
<g transform="translate(0.000000,180.000000) scale(0.100000,-0.100000)"
fill="#000000" stroke="none">
<path d="M690 1286 l-495 -31 3 -35 c2 -27 27 -447 44 -737 1 -22 5 -30 12
-23 6 6 60 10 121 10 117 1 992 54 999 61 8 9 176 288 176 293 0 3 15 29 34
58 l33 53 -143 193 -144 192 -72 -1 c-40 -1 -296 -16 -568 -33z m480 -218
c168 -85 104 -338 -85 -338 -90 0 -157 55 -173 141 -16 88 18 162 92 199 54
26 111 25 166 -2z m-412 -28 l33 -20 -21 -30 c-29 -40 -33 -42 -69 -24 -93 47
-173 -75 -100 -152 35 -37 119 -32 119 7 0 15 -7 19 -35 19 -34 0 -35 1 -35
39 l0 39 73 4 c39 3 76 2 80 -2 4 -4 7 -42 5 -86 l-3 -78 -40 -23 c-80 -45
-169 -39 -229 16 -85 78 -71 227 27 286 55 33 146 35 195 5z"/>
<path d="M1025 975 c-55 -54 -17 -159 58 -159 54 0 87 35 87 91 0 57 -33 93
-85 93 -25 0 -44 -8 -60 -25z"/>
</g>
</svg>