<svg xmlns="http://www.w3.org/2000/svg" width="47" height="47" viewBox="0 0 47 47" fill="none">
  <g clip-path="url(#clip0_1_850)">
    <path d="M37.4084 7.03871C34.095 4.92004 29.7143 5.43732 26.9921 8.2687C26.5591 8.71915 26.353 9.33373 26.4266 9.95501C26.5005 10.5779 26.8458 11.1287 27.3739 11.4664L29.3519 12.7313L28.7081 13.604C27.2177 13.078 25.6276 12.7655 23.9744 12.7029L22.9901 10.3632C23.4789 9.87212 23.7815 9.19548 23.7815 8.44936C23.7815 6.95252 22.5637 5.73474 21.0669 5.73474C20.0008 5.73474 19.0768 6.35262 18.633 7.24893C15.8612 5.23151 12.0456 5.11401 9.13344 7.08048C5.873 9.28223 4.61061 13.5099 6.13159 17.1328C6.37293 17.7076 6.85477 18.1397 7.45347 18.3182C8.05033 18.4967 8.69667 18.4002 9.21753 18.0479L11.741 16.3438L12.2958 17.0958C9.18347 20.0365 7.23811 24.1999 7.23811 28.8094C7.23811 34.157 9.85634 38.9038 13.8775 41.8377L12.6034 43.696C12.1482 44.3357 12.0883 45.166 12.4474 45.8646C12.8072 46.5649 13.52 47 14.3074 47C14.9804 47 15.6162 46.6733 16.008 46.126C16.0101 46.123 16.0123 46.1199 16.0144 46.1169L17.5676 43.8526C19.3655 44.5469 21.3176 44.9288 23.3576 44.9288C25.3975 44.9288 27.3496 44.547 29.1476 43.8527L30.7008 46.117C30.7029 46.12 30.705 46.1231 30.7071 46.126C31.0988 46.6733 31.7346 47.0001 32.4076 47.0001C33.1951 47.0001 33.9078 46.565 34.2677 45.8647C34.6267 45.1662 34.5669 44.3359 34.1117 43.6962L32.8375 41.838C36.8587 38.904 39.4769 34.1572 39.4769 28.8095C39.4769 24.1889 37.5221 20.0169 34.3968 17.075L34.9569 16.3156L37.5988 18.005C38.1284 18.3441 38.7761 18.4245 39.3691 18.231C39.9632 18.0376 40.4341 17.5936 40.6609 17.013C42.0907 13.353 40.7229 9.15821 37.4084 7.03871ZM17.9768 13.6147L17.2471 12.6256L19.2755 11.2558L19.2754 11.2559C19.4562 11.1338 19.6136 10.986 19.7453 10.8195C20.1367 11.0386 20.5873 11.1642 21.0669 11.1642C21.1537 11.1642 21.2393 11.1597 21.324 11.1517L21.9957 12.7482C20.5981 12.8655 19.2509 13.1621 17.9768 13.6147ZM21.0669 7.57628C21.5483 7.57628 21.94 7.96797 21.94 8.44936C21.94 8.93074 21.5483 9.32244 21.0669 9.32244C20.5856 9.32244 20.1939 8.93074 20.1939 8.44936C20.1939 7.96797 20.5856 7.57628 21.0669 7.57628ZM8.18693 16.5218C8.02224 16.6044 7.91732 16.5709 7.82956 16.42C6.64749 13.6044 7.62926 10.3183 10.164 8.60661C11.2562 7.86911 12.5118 7.50816 13.761 7.50816C15.41 7.50816 17.0474 8.13697 18.2822 9.35851C18.3904 9.49722 18.3835 9.60692 18.245 9.72946L8.18693 16.5218ZM13.2685 15.3123L15.7196 13.657L16.2328 14.3528C15.3414 14.794 14.4958 15.3143 13.7066 15.9061L13.2685 15.3123ZM15.1067 45.4868C14.9216 45.7426 14.6233 45.8951 14.3073 45.8951C13.9303 45.8951 13.6022 45.6949 13.4299 45.3596C13.2575 45.0243 13.2857 44.641 13.5052 44.3344C13.5074 44.3314 13.5095 44.3283 13.5116 44.3252L14.7916 42.4583C15.3495 42.8097 15.9303 43.1276 16.5313 43.4097L15.1067 45.4868ZM33.2033 44.3252C33.2054 44.3283 33.2076 44.3314 33.2098 44.3344C33.4292 44.641 33.4574 45.0242 33.285 45.3596C33.1127 45.6949 32.7846 45.8951 32.4076 45.8951C32.0918 45.8951 31.7934 45.7427 31.6084 45.4869L30.1836 43.4098C30.7846 43.1277 31.3654 42.8097 31.9232 42.4584L33.2033 44.3252ZM37.6355 28.8094C37.6355 36.6822 31.2304 43.0873 23.3576 43.0873C15.4847 43.0873 9.07965 36.6822 9.07965 28.8094C9.07965 20.9365 15.4847 14.5315 23.3576 14.5315C31.2304 14.5315 37.6355 20.9365 37.6355 28.8094ZM32.984 15.8878C32.1936 15.2974 31.3469 14.7785 30.4545 14.339L30.9069 13.7257L33.4021 15.3212L32.984 15.8878ZM38.9456 16.3427C38.9125 16.4273 38.8476 16.464 38.7991 16.4797C38.7579 16.4932 38.6759 16.5077 38.5909 16.4534L28.366 9.91499C28.2815 9.86092 28.2603 9.78096 28.2553 9.73809C28.2492 9.68678 28.2554 9.61169 28.3195 9.54504C29.5628 8.25199 31.2513 7.58013 32.9552 7.58013C34.1509 7.58013 35.354 7.91097 36.4163 8.59017C38.993 10.2379 40.0568 13.4984 38.9456 16.3427Z" fill="#F55853"/>
    <path d="M23.3575 16.9324C16.8085 16.9324 11.4805 22.2604 11.4805 28.8094C11.4805 35.3585 16.8085 40.6865 23.3575 40.6865C29.9066 40.6865 35.2346 35.3584 35.2346 28.8094C35.2346 22.2604 29.9065 16.9324 23.3575 16.9324ZM23.3575 39.5816C17.4177 39.5816 12.5853 34.7492 12.5853 28.8094C12.5853 22.8696 17.4177 18.0372 23.3575 18.0372C29.2973 18.0372 34.1297 22.8696 34.1297 28.8094C34.1297 34.7492 29.2973 39.5816 23.3575 39.5816Z" fill="#F55853"/>
    <path d="M23.94 28.0946C23.9296 28.0867 23.9186 28.0799 23.9081 28.0724C23.9011 28.0672 23.8948 28.0615 23.8877 28.0564L19.9152 25.2603C19.4993 24.9676 18.9249 25.0675 18.6323 25.4833C18.3396 25.8991 18.4394 26.4735 18.8553 26.7662L22.0595 29.0214L17.8482 34.4674C17.5371 34.8696 17.6111 35.4479 18.0133 35.7589C18.1809 35.8887 18.3792 35.9514 18.5759 35.9514C18.8512 35.9514 19.1235 35.8283 19.305 35.5938L24.1053 29.3861C24.4163 28.984 24.3424 28.4056 23.94 28.0946Z" fill="#F55853"/>
    <path d="M23.3576 22.6398C23.6627 22.6398 23.91 22.3924 23.91 22.0874V20.8182C23.91 20.513 23.6627 20.2657 23.3576 20.2657C23.0525 20.2657 22.8052 20.5131 22.8052 20.8182V22.0874C22.8051 22.3925 23.0525 22.6398 23.3576 22.6398Z" fill="#F55853"/>
    <path d="M29.6509 28.8245C29.6509 29.1297 29.8983 29.377 30.2033 29.377H31.4725C31.7776 29.377 32.0249 29.1296 32.0249 28.8245C32.0249 28.5194 31.7775 28.2721 31.4725 28.2721H30.2033C29.8983 28.2721 29.6509 28.5194 29.6509 28.8245Z" fill="#F55853"/>
    <path d="M23.2414 34.9181C22.9363 34.9181 22.689 35.1655 22.689 35.4705V36.7397C22.689 37.0448 22.9364 37.2921 23.2414 37.2921C23.5465 37.2921 23.7938 37.0447 23.7938 36.7397V35.4705C23.7938 35.1655 23.5465 34.9181 23.2414 34.9181Z" fill="#F55853"/>
    <path d="M16.3958 28.1809H15.1267C14.8215 28.1809 14.5742 28.4283 14.5742 28.7333C14.5742 29.0384 14.8216 29.2858 15.1267 29.2858H16.3958C16.7009 29.2858 16.9483 29.0384 16.9483 28.7333C16.9483 28.4283 16.7009 28.1809 16.3958 28.1809Z" fill="#F55853"/>
    <path d="M9.48444 13.4934C9.43432 13.4934 9.38355 13.4893 9.33251 13.4808C8.83084 13.3976 8.49174 12.9233 8.5751 12.4217C8.93962 10.226 10.3614 9.70998 10.5223 9.65839C10.5223 9.65839 11.408 9.25972 11.7575 10.1125C12.1071 10.9653 11.0983 11.409 11.1219 11.3988C11.0995 11.4084 10.5703 11.6479 10.3917 12.7234C10.3168 13.1738 9.92662 13.4934 9.48444 13.4934Z" fill="#F55853"/>
    <path d="M4.17103 0.232969L4.96819 2.43205C5.00234 2.52624 5.0699 2.60078 5.15518 2.63851L7.14663 3.51875C7.42798 3.64313 7.42798 4.08293 7.14663 4.20722L5.15518 5.08746C5.0699 5.1251 5.00234 5.19973 4.96819 5.29391L4.17103 7.493C4.05839 7.80373 3.66009 7.80373 3.54755 7.493L2.75038 5.29391C2.71623 5.19973 2.64867 5.1251 2.56339 5.08746L0.571858 4.20731C0.2905 4.08293 0.2905 3.64313 0.571858 3.51884L2.5633 2.6386C2.64858 2.60087 2.71614 2.52633 2.75029 2.43215L3.54745 0.233061C3.66009 -0.0776716 4.05839 -0.0776716 4.17103 0.232969Z" fill="#F55853"/>
    <path d="M28.5195 2.52996C28.6129 1.59154 27.9279 0.755104 26.9894 0.661733C26.051 0.568363 25.2146 1.25341 25.1212 2.19183C25.0278 3.13025 25.7129 3.96668 26.6513 4.06005C27.5897 4.15342 28.4262 3.46838 28.5195 2.52996Z" fill="#F55853"/>
    <path d="M42.9759 6.1247C43.0398 5.73049 42.772 5.35912 42.3778 5.29522C41.9836 5.23131 41.6122 5.49907 41.5483 5.89328C41.4844 6.28749 41.7522 6.65886 42.1464 6.72276C42.5406 6.78667 42.912 6.5189 42.9759 6.1247Z" fill="#F55853"/>
    <path d="M44.3201 18.76L44.9003 20.3913C44.9251 20.4611 44.9743 20.5165 45.0363 20.5444L46.4856 21.1973C46.6903 21.2896 46.6903 21.6158 46.4856 21.7081L45.0363 22.361C44.9743 22.389 44.9251 22.4443 44.9003 22.5142L44.3201 24.1454C44.2382 24.3759 43.9484 24.3759 43.8664 24.1454L43.2862 22.5142C43.2613 22.4443 43.2122 22.3889 43.1502 22.361L41.7009 21.7081C41.4962 21.6158 41.4962 21.2896 41.7009 21.1973L43.1502 20.5444C43.2122 20.5164 43.2614 20.461 43.2862 20.3913L43.8664 18.76C43.9483 18.5295 44.2382 18.5295 44.3201 18.76Z" fill="#F55853"/>
  </g>
  <defs>
    <clipPath id="clip0_1_850">
      <rect width="47" height="47" fill="white"/>
    </clipPath>
  </defs>
</svg>
