<svg width="74" height="75" viewBox="0 0 74 75" fill="none" xmlns="http://www.w3.org/2000/svg">
<path d="M1.5 11.5V73L19.5 56.5L63 57L69.5 53L73 48.5V10.5L70.5 6.5L64 2.5H8L4 5L1.5 11.5Z" fill="white" stroke="#2CBC67"/>
<path d="M3.89474 68.4928L17.8613 54.5263H62.3158C64.3817 54.5263 66.363 53.7056 67.8238 52.2448C69.2846 50.784 70.1053 48.8027 70.1053 46.7368V11.6842C70.1053 9.61831 69.2846 7.63703 67.8238 6.17622C66.363 4.71541 64.3817 3.89474 62.3158 3.89474H11.6842C9.61831 3.89474 7.63703 4.71541 6.17622 6.17622C4.71541 7.63703 3.89474 9.61831 3.89474 11.6842V68.4928ZM3.89474 74H0V11.6842C0 8.58536 1.23101 5.61344 3.42223 3.42223C5.61344 1.23101 8.58537 0 11.6842 0H62.3158C65.4146 0 68.3866 1.23101 70.5778 3.42223C72.769 5.61344 74 8.58536 74 11.6842V46.7368C74 49.8357 72.769 52.8076 70.5778 54.9988C68.3866 57.19 65.4146 58.4211 62.3158 58.4211H19.4737L3.89474 74Z" fill="#2CBC67"/>
<circle cx="19" cy="30" r="5" stroke="#2CBC67" stroke-width="2"/>
<circle cx="37" cy="30" r="5" stroke="#2CBC67" stroke-width="2"/>
<circle cx="55" cy="30" r="5" stroke="#2CBC67" stroke-width="2"/>
</svg>
