<svg xmlns="http://www.w3.org/2000/svg" width="100" height="30" viewBox="0 0 100 30" fill="none">
  <g clip-path="url(#clip0_1_678)">
    <path fill-rule="evenodd" clip-rule="evenodd" d="M62.0382 23.4607C56.227 27.7248 47.8041 29.9998 40.5521 29.9998C30.3836 29.9998 21.2294 26.2558 14.3039 20.0287C13.7598 19.539 14.2473 18.8717 14.9002 19.253C22.3742 23.5821 31.6155 26.1864 41.1615 26.1864C47.5995 26.1864 54.6817 24.8604 61.1937 22.1087C62.1775 21.6927 63.0002 22.7501 62.0382 23.4607" fill="#FF9900"/>
    <path fill-rule="evenodd" clip-rule="evenodd" d="M64.4537 20.709C63.7137 19.7644 59.5436 20.2627 57.6718 20.4837C57.1016 20.553 57.0145 20.059 57.5282 19.7037C60.8495 17.3767 66.2993 18.0483 66.9349 18.8283C67.5704 19.6127 66.7695 25.0511 63.6484 27.6468C63.1696 28.0454 62.7125 27.8331 62.9258 27.3044C63.6266 25.5624 65.198 21.658 64.4537 20.709" fill="#FF9900"/>
    <path fill-rule="evenodd" clip-rule="evenodd" d="M57.8026 3.27592V1.0139C57.8026 0.671563 58.0637 0.441895 58.3772 0.441895H68.55C68.8764 0.441895 69.1376 0.675897 69.1376 1.0139V2.95092C69.1333 3.27592 68.859 3.70059 68.3715 4.37227L63.1001 11.8647C65.0589 11.817 67.1266 12.1073 68.9026 13.104C69.303 13.3294 69.4119 13.6587 69.4423 13.9837V16.3974C69.4423 16.7267 69.0767 17.1124 68.6936 16.9131C65.5639 15.2794 61.4068 15.1017 57.9462 16.9304C57.5936 17.1211 57.2236 16.7397 57.2236 16.4104V14.118C57.2236 13.7497 57.228 13.1214 57.598 12.5624L63.7052 3.8436H58.3902C58.0637 3.8436 57.8026 3.61393 57.8026 3.27592" fill="black"/>
    <path fill-rule="evenodd" clip-rule="evenodd" d="M20.6937 17.39H17.5987C17.3027 17.3684 17.0677 17.1474 17.0459 16.8657V1.0532C17.0459 0.736864 17.3114 0.485527 17.6423 0.485527H20.5282C20.8286 0.498518 21.068 0.728195 21.0898 1.0142V3.08122H21.1464C21.8994 1.08353 23.3141 0.151855 25.2207 0.151855C27.1578 0.151855 28.3679 1.08353 29.2385 3.08122C29.9872 1.08353 31.6892 0.151855 33.5131 0.151855C34.8102 0.151855 36.2293 0.684861 37.0955 1.88087C38.0749 3.21122 37.8747 5.14391 37.8747 6.83826L37.8703 16.818C37.8703 17.1344 37.6048 17.39 37.274 17.39H34.1834C33.8744 17.3684 33.6262 17.1214 33.6262 16.818V8.43728C33.6262 7.76994 33.6872 6.10592 33.5392 5.47324C33.3085 4.41157 32.6164 4.11256 31.7196 4.11256C30.9709 4.11256 30.1874 4.6109 29.8696 5.40825C29.5519 6.20559 29.5824 7.54026 29.5824 8.43728V16.818C29.5824 17.1344 29.3168 17.39 28.986 17.39H25.8954C25.582 17.3684 25.3382 17.1214 25.3382 16.818L25.3339 8.43728C25.3339 6.67359 25.6255 4.0779 23.4273 4.0779C21.203 4.0779 21.29 6.60859 21.29 8.43728V16.818C21.29 17.1344 21.0245 17.39 20.6937 17.39" fill="black"/>
    <path fill-rule="evenodd" clip-rule="evenodd" d="M77.8958 0.151855C82.4882 0.151855 84.9737 4.0779 84.9737 9.06995C84.9737 13.893 82.227 17.7194 77.8958 17.7194C73.3862 17.7194 70.9312 13.7933 70.9312 8.90095C70.9312 3.97823 73.4167 0.151855 77.8958 0.151855V0.151855ZM77.922 3.38022C75.641 3.38022 75.4974 6.47425 75.4974 8.40261C75.4974 10.3353 75.4669 14.4607 77.8958 14.4607C80.2943 14.4607 80.4075 11.1326 80.4075 9.10461C80.4075 7.76994 80.3509 6.17525 79.9461 4.9099C79.5978 3.80923 78.9057 3.38022 77.922 3.38022" fill="black"/>
    <path fill-rule="evenodd" clip-rule="evenodd" d="M90.9286 17.39H87.8467C87.5376 17.3684 87.2895 17.1214 87.2895 16.818L87.2852 1.0012C87.3113 0.710861 87.5681 0.485527 87.8815 0.485527H90.7501C91.02 0.498518 91.242 0.680529 91.3029 0.927531V3.34555H91.3595C92.2257 1.1832 93.4402 0.151855 95.5775 0.151855C96.9661 0.151855 98.3198 0.650195 99.1904 2.01521C100 3.28055 100 5.40824 100 6.93792V16.8917C99.9653 17.169 99.7084 17.39 99.4037 17.39H96.3001C96.0171 17.3684 95.7821 17.1604 95.7516 16.8917V8.30294C95.7516 6.57392 95.9518 4.04323 93.8146 4.04323C93.0615 4.04323 92.3694 4.5459 92.0255 5.30858C91.5902 6.27492 91.5336 7.23693 91.5336 8.30294V16.818C91.5293 17.1344 91.2594 17.39 90.9286 17.39" fill="black"/>
    <path fill-rule="evenodd" clip-rule="evenodd" d="M49.6931 9.83677C49.6931 11.0371 49.7236 12.0381 49.1142 13.1041C48.6223 13.9708 47.8388 14.5038 46.9725 14.5038C45.7842 14.5038 45.0877 13.6025 45.0877 12.2721C45.0877 9.6461 47.4514 9.16943 49.6931 9.16943V9.83677V9.83677ZM52.8142 17.3465C52.6096 17.5285 52.3136 17.5415 52.0829 17.4202C51.0556 16.5708 50.8684 16.1765 50.3069 15.3662C48.6092 17.0908 47.4035 17.6065 45.2053 17.6065C42.5978 17.6065 40.5737 16.0075 40.5737 12.8051C40.5737 10.3048 41.9318 8.60176 43.8733 7.76975C45.5535 7.03307 47.8997 6.90308 49.6931 6.69941V6.30074C49.6931 5.56839 49.7497 4.70172 49.3144 4.06905C48.9401 3.50137 48.2175 3.26737 47.5776 3.26737C46.398 3.26737 45.3489 3.86971 45.0921 5.11772C45.0398 5.39506 44.8353 5.66806 44.5523 5.68106L41.5531 5.36039C41.3007 5.30406 41.0177 5.10039 41.0917 4.71472C41.7795 1.09201 45.0703 0 48.0129 0C49.519 0 51.4865 0.398672 52.6749 1.53402C54.181 2.9337 54.0374 4.80138 54.0374 6.83374V11.6351C54.0374 13.0781 54.6381 13.7108 55.2039 14.4908C55.3998 14.7682 55.4434 15.1018 55.1909 15.3098C54.5597 15.8342 53.4366 16.8092 52.8185 17.3552L52.8142 17.3465" fill="black"/>
    <path fill-rule="evenodd" clip-rule="evenodd" d="M9.1194 9.83677C9.1194 11.0371 9.14987 12.0381 8.54046 13.1041C8.04858 13.9708 7.2694 14.5038 6.39881 14.5038C5.21046 14.5038 4.51835 13.6025 4.51835 12.2721C4.51835 9.6461 6.88199 9.16943 9.1194 9.16943V9.83677V9.83677ZM12.2405 17.3465C12.0359 17.5285 11.7399 17.5415 11.5092 17.4202C10.4819 16.5708 10.299 16.1765 9.73316 15.3662C8.03552 17.0908 6.83411 17.6065 4.63152 17.6065C2.02847 17.6065 0 16.0075 0 12.8051C0 10.3048 1.36247 8.60176 3.29952 7.76975C4.97976 7.03307 7.32599 6.90307 9.1194 6.69941V6.30073C9.1194 5.56839 9.17599 4.70171 8.74505 4.06904C8.36634 3.50137 7.64376 3.26737 7.00823 3.26737C5.82858 3.26737 4.77517 3.86971 4.51835 5.11772C4.46611 5.39506 4.26152 5.66806 3.98294 5.68106L0.979411 5.36039C0.72694 5.30406 0.448352 5.10039 0.517999 4.71472C1.21012 1.09201 4.49658 0 7.43917 0C8.94528 0 10.9128 0.398672 12.1012 1.53402C13.6073 2.9337 13.4636 4.80138 13.4636 6.83374V11.6351C13.4636 13.0781 14.0643 13.7108 14.6302 14.4908C14.8305 14.7682 14.874 15.1018 14.6215 15.3098C13.9903 15.8342 12.8673 16.8092 12.2492 17.3552L12.2405 17.3465" fill="black"/>
  </g>
  <defs>
    <clipPath id="clip0_1_678">
      <rect width="100" height="30" fill="white"/>
    </clipPath>
  </defs>
</svg>
