<svg xmlns="http://www.w3.org/2000/svg" width="36" height="44" viewBox="0 0 36 44" fill="none">
  <g clip-path="url(#clip0_1_674)">
    <path d="M35.2455 34.2894C34.5992 35.8266 33.8341 37.2416 32.9477 38.5426C31.7394 40.3161 30.7501 41.5437 29.9877 42.2254C28.8058 43.3444 27.5395 43.9175 26.1835 43.95C25.21 43.95 24.0361 43.6649 22.6695 43.0864C21.2985 42.5106 20.0385 42.2254 18.8864 42.2254C17.6781 42.2254 16.3823 42.5106 14.9962 43.0864C13.608 43.6649 12.4897 43.9663 11.6347 43.9962C10.3344 44.0533 9.03825 43.4639 7.74451 42.2254C6.91878 41.4839 5.88595 40.2129 4.64866 38.4122C3.32115 36.4893 2.22975 34.2595 1.37473 31.7173C0.459036 28.9715 0 26.3126 0 23.7384C0 20.7896 0.618907 18.2464 1.85857 16.1152C2.83283 14.4033 4.12895 13.0529 5.75114 12.0616C7.37333 11.0703 9.1261 10.5651 11.0137 10.5328C12.0465 10.5328 13.4009 10.8617 15.0841 11.5081C16.7625 12.1567 17.8401 12.4856 18.3126 12.4856C18.6659 12.4856 19.8631 12.101 21.8926 11.3343C23.8118 10.6232 25.4316 10.3288 26.7586 10.4448C30.3544 10.7436 33.0558 12.2028 34.8524 14.8319C31.6365 16.8379 30.0457 19.6476 30.0774 23.2519C30.1064 26.0594 31.0957 28.3957 33.04 30.2507C33.9212 31.1117 34.9052 31.7771 36 32.2497C35.7626 32.9585 35.5119 33.6375 35.2455 34.2894ZM26.9987 0.880251C26.9987 3.08075 26.2178 5.13535 24.6613 7.03707C22.7829 9.29785 20.511 10.6042 18.0472 10.3981C18.0158 10.1341 17.9976 9.85625 17.9976 9.56428C17.9976 7.4518 18.8909 5.19103 20.4772 3.34254C21.2692 2.40662 22.2764 1.62842 23.4979 1.00763C24.7167 0.396101 25.8696 0.0579132 26.9538 0C26.9855 0.294173 26.9987 0.588364 26.9987 0.880222V0.880251Z" fill="#666666"/>
  </g>
  <defs>
    <clipPath id="clip0_1_674">
      <rect width="36" height="44" fill="white"/>
    </clipPath>
  </defs>
</svg>
