<svg xmlns="http://www.w3.org/2000/svg" width="108" height="37" viewBox="0 0 108 37" fill="none">
  <path d="M45.9596 18.9744C45.9596 24.1102 41.993 27.8946 37.1251 27.8946C32.2571 27.8946 28.2905 24.1102 28.2905 18.9744C28.2905 13.8025 32.2571 10.0542 37.1251 10.0542C41.993 10.0542 45.9596 13.8025 45.9596 18.9744ZM42.0923 18.9744C42.0923 15.7651 39.7933 13.5692 37.1251 13.5692C34.4568 13.5692 32.1579 15.7651 32.1579 18.9744C32.1579 22.1516 34.4568 24.3796 37.1251 24.3796C39.7933 24.3796 42.0923 22.1476 42.0923 18.9744Z" fill="#EA4335"/>
  <path d="M65.0182 18.9744C65.0182 24.1102 61.0516 27.8946 56.1837 27.8946C51.3157 27.8946 47.3491 24.1102 47.3491 18.9744C47.3491 13.8065 51.3157 10.0542 56.1837 10.0542C61.0516 10.0542 65.0182 13.8025 65.0182 18.9744ZM61.1509 18.9744C61.1509 15.7651 58.8519 13.5692 56.1837 13.5692C53.5154 13.5692 51.2165 15.7651 51.2165 18.9744C51.2165 22.1516 53.5154 24.3796 56.1837 24.3796C58.8519 24.3796 61.1509 22.1476 61.1509 18.9744Z" fill="#FBBC05"/>
  <path d="M83.2829 10.5931V26.6077C83.2829 33.1953 79.4473 35.8858 74.9128 35.8858C70.6445 35.8858 68.0755 32.9942 67.1067 30.6294L70.4737 29.2097C71.0733 30.6616 72.5424 32.3749 74.9089 32.3749C77.8114 32.3749 79.6101 30.561 79.6101 27.1466V25.8637H79.4751C78.6095 26.9455 76.9418 27.8906 74.8374 27.8906C70.434 27.8906 66.3999 24.0056 66.3999 19.0066C66.3999 13.9714 70.434 10.0542 74.8374 10.0542C76.9378 10.0542 78.6055 10.9993 79.4751 12.049H79.6101V10.5971H83.2829V10.5931ZM79.884 19.0066C79.884 15.8656 77.8154 13.5692 75.1829 13.5692C72.5146 13.5692 70.2792 15.8656 70.2792 19.0066C70.2792 22.1154 72.5146 24.3796 75.1829 24.3796C77.8154 24.3796 79.884 22.1154 79.884 19.0066Z" fill="#4285F4"/>
  <path d="M89.3385 1.20654V27.3478H85.5664V1.20654H89.3385Z" fill="#34A853"/>
  <path d="M104.038 21.9104L107.039 23.9374C106.07 25.3892 103.736 27.8907 99.7017 27.8907C94.6987 27.8907 90.9624 23.9736 90.9624 18.9705C90.9624 13.6658 94.7305 10.0503 99.2689 10.0503C103.839 10.0503 106.074 13.7342 106.805 15.725L107.206 16.7384L95.4333 21.6771C96.3346 23.4668 97.7362 24.3798 99.7017 24.3798C101.671 24.3798 103.037 23.3984 104.038 21.9104ZM94.798 18.7011L102.668 15.3912C102.235 14.2771 100.933 13.5009 99.3999 13.5009C97.4345 13.5009 94.6987 15.2584 94.798 18.7011V18.7011Z" fill="#EA4335"/>
  <path d="M14.0123 16.654V12.8695H26.6031C26.7262 13.5291 26.7897 14.3093 26.7897 15.1539C26.7897 17.9932 26.0234 21.5042 23.5537 24.0057C21.1514 26.5394 18.0822 27.8907 14.0163 27.8907C6.48013 27.8907 0.143066 21.6731 0.143066 14.0398C0.143066 6.40657 6.48013 0.188965 14.0163 0.188965C18.1854 0.188965 21.1554 1.84592 23.3869 4.00559L20.7504 6.67603C19.1503 5.15581 16.9823 3.97342 14.0123 3.97342C8.5091 3.97342 4.20498 8.4657 4.20498 14.0398C4.20498 19.614 8.5091 24.1062 14.0123 24.1062C17.5819 24.1062 19.6148 22.6544 20.9172 21.3353C21.9734 20.2655 22.6682 18.7372 22.9422 16.6499L14.0123 16.654V16.654Z" fill="#4285F4"/>
</svg>
