<svg xmlns="http://www.w3.org/2000/svg" width="120" height="26" viewBox="0 0 120 26" fill="none">
  <g clip-path="url(#clip0_1_657)">
    <path d="M42.3575 14.9753L41.6422 17.0311H41.5826C41.4634 16.5675 41.2449 15.8621 40.8873 15.0156L37.0528 5.24042H33.2979V20.8203H35.7813V11.2063C35.7813 10.6017 35.7813 9.91639 35.7614 9.06987C35.7416 8.64662 35.7018 8.32414 35.682 8.08228H35.7416C35.8608 8.68693 35.9998 9.13034 36.0992 9.41251L40.7084 20.78H42.4568L47.0263 9.31173C47.1257 9.04972 47.225 8.52569 47.3243 8.08228H47.3839C47.3243 9.23111 47.2846 10.259 47.2647 10.8838V20.7598H49.9071V5.20011H46.2912L42.3575 14.9753V14.9753ZM52.4104 9.5939H54.9932V20.7598H52.4104V9.5939ZM53.7217 4.87763C53.2846 4.87763 52.927 5.03887 52.629 5.32104C52.331 5.60321 52.172 5.966 52.172 6.40941C52.172 6.83266 52.331 7.19546 52.629 7.47763C52.927 7.7598 53.2846 7.90088 53.7217 7.90088C54.1588 7.90088 54.5363 7.73964 54.8144 7.47763C55.1124 7.19546 55.2714 6.83266 55.2714 6.40941C55.2714 5.98615 55.1124 5.62336 54.8144 5.32104C54.5561 5.03887 54.1786 4.87763 53.7217 4.87763V4.87763ZM64.1522 9.49313C63.6753 9.39235 63.1787 9.33189 62.7018 9.33189C61.5296 9.33189 60.4568 9.59391 59.5628 10.1179C58.6687 10.642 57.9535 11.3675 57.4965 12.2745C57.0197 13.2017 56.7813 14.2699 56.7813 15.4993C56.7813 16.5675 57.0197 17.5148 57.4767 18.3815C57.9336 19.228 58.5694 19.9133 59.4237 20.3769C60.2383 20.8404 61.1919 21.0823 62.2647 21.0823C63.4965 21.0823 64.5495 20.8203 65.3839 20.3365L65.4038 20.3164V17.8978L65.3045 17.9784C64.927 18.2606 64.4899 18.5024 64.0528 18.6435C63.5959 18.8048 63.1787 18.8854 62.821 18.8854C61.7879 18.8854 60.9734 18.5831 60.3972 17.9179C59.8012 17.273 59.5032 16.3862 59.5032 15.2776C59.5032 14.1288 59.8012 13.2218 60.4171 12.5567C61.033 11.8916 61.8475 11.5489 62.8409 11.5489C63.6753 11.5489 64.5296 11.8311 65.3045 12.3955L65.4038 12.4761V9.91639L65.3839 9.89623C65.0462 9.75515 64.6687 9.5939 64.1522 9.49313V9.49313ZM72.6753 9.41251C72.0396 9.41251 71.4436 9.61406 70.927 10.0373C70.4899 10.4001 70.1919 10.9241 69.9336 11.5489H69.9137V9.5939H67.331V20.7598H69.9137V15.0559C69.9137 14.0885 70.1124 13.2823 70.5495 12.6978C70.9866 12.0931 71.5429 11.7908 72.2184 11.7908C72.4568 11.7908 72.6952 11.8513 72.9932 11.8916C73.2714 11.9722 73.47 12.0528 73.6091 12.1536L73.7085 12.2342V9.61406L73.6489 9.5939C73.47 9.47297 73.1124 9.41251 72.6753 9.41251V9.41251ZM79.7085 9.35205C77.9005 9.35205 76.4502 9.89623 75.4369 10.9644C74.4038 12.0327 73.9071 13.504 73.9071 15.3582C73.9071 17.0916 74.4237 18.5024 75.4171 19.5303C76.4104 20.5381 77.7614 21.0621 79.4502 21.0621C81.2184 21.0621 82.629 20.5179 83.6422 19.4296C84.6753 18.3412 85.172 16.89 85.172 15.0962C85.172 13.3226 84.6952 11.9117 83.7217 10.8838C82.7879 9.85592 81.4171 9.35205 79.7085 9.35205V9.35205ZM81.7747 17.9381C81.2979 18.5629 80.5429 18.8652 79.6091 18.8652C78.6753 18.8652 77.9204 18.5629 77.384 17.8978C76.8475 17.273 76.5892 16.366 76.5892 15.2172C76.5892 14.028 76.8674 13.121 77.384 12.4761C77.9204 11.8311 78.6555 11.5086 79.5892 11.5086C80.5032 11.5086 81.2184 11.811 81.7349 12.4358C82.2515 13.0606 82.5296 13.9675 82.5296 15.1567C82.4899 16.366 82.2714 17.3133 81.7747 17.9381V17.9381ZM90.9336 14.2296C90.1191 13.8869 89.6025 13.6249 89.3641 13.4032C89.1654 13.2017 89.0661 12.9195 89.0661 12.5567C89.0661 12.2544 89.1853 11.952 89.4833 11.7505C89.7813 11.5489 90.1191 11.4482 90.6157 11.4482C91.0528 11.4482 91.5098 11.5288 91.9469 11.6497C92.384 11.7706 92.7813 11.952 93.0992 12.1939L93.1985 12.2745V9.81561L93.1389 9.79546C92.8409 9.67453 92.4436 9.5536 91.9667 9.45282C91.4899 9.3722 91.0528 9.33189 90.6952 9.33189C89.4634 9.33189 88.4502 9.63422 87.6555 10.2993C86.8608 10.9241 86.4833 11.7706 86.4833 12.7582C86.4833 13.2823 86.5628 13.7458 86.7416 14.1288C86.9204 14.5117 87.1787 14.8745 87.5363 15.1769C87.8939 15.459 88.4104 15.7815 89.1257 16.0838C89.7217 16.3458 90.1787 16.5474 90.4568 16.7086C90.7349 16.8699 90.9138 17.0513 91.0528 17.1924C91.1522 17.3536 91.2118 17.5551 91.2118 17.8172C91.2118 18.5629 90.6555 18.9257 89.523 18.9257C89.0859 18.9257 88.629 18.8451 88.0926 18.6637C87.5561 18.4823 87.0594 18.2203 86.6422 17.9179L86.5429 17.8373V20.397L86.6025 20.4172C86.98 20.5986 87.4369 20.7195 87.9932 20.8606C88.5495 20.9613 89.0462 21.042 89.4833 21.042C90.8144 21.042 91.9071 20.7396 92.682 20.0745C93.4767 19.4296 93.8939 18.6032 93.8939 17.535C93.8939 16.7893 93.6952 16.1241 93.2581 15.6203C92.682 15.1365 91.9667 14.6327 90.9336 14.2296V14.2296ZM100.708 9.35205C98.9005 9.35205 97.4502 9.89623 96.4369 10.9644C95.4237 12.0327 94.9071 13.504 94.9071 15.3582C94.9071 17.0916 95.4237 18.5024 96.4171 19.5303C97.4104 20.5381 98.7614 21.0621 100.45 21.0621C102.218 21.0621 103.629 20.5179 104.642 19.4296C105.675 18.3412 106.172 16.89 106.172 15.0962C106.172 13.3226 105.695 11.9117 104.722 10.8838C103.788 9.85592 102.417 9.35205 100.708 9.35205V9.35205ZM102.755 17.9381C102.278 18.5629 101.523 18.8652 100.589 18.8652C99.6356 18.8652 98.9005 18.5629 98.3641 17.8978C97.8277 17.273 97.5694 16.366 97.5694 15.2172C97.5694 14.028 97.8475 13.121 98.3641 12.4761C98.9005 11.8311 99.6356 11.5086 100.569 11.5086C101.463 11.5086 102.199 11.811 102.715 12.4358C103.232 13.0606 103.51 13.9675 103.51 15.1567C103.51 16.366 103.252 17.3133 102.755 17.9381V17.9381ZM119.98 11.7505V9.5939H117.377V6.28848L117.298 6.30863L114.834 7.05437L114.775 7.07453V9.5939H110.881V8.18305C110.881 7.53809 111.04 7.03422 111.318 6.71173C111.596 6.38925 112.013 6.22801 112.53 6.22801C112.887 6.22801 113.265 6.30863 113.682 6.49003L113.781 6.55049V4.27298L113.722 4.25282C113.364 4.13189 112.887 4.05127 112.271 4.05127C111.497 4.05127 110.821 4.23266 110.205 4.53499C109.589 4.87763 109.132 5.34119 108.795 5.966C108.457 6.57065 108.278 7.25592 108.278 8.04197V9.5939H106.47V11.7303H108.278V20.7598H110.881V11.7505H114.775V17.4947C114.775 19.8528 115.867 21.042 118.053 21.042C118.41 21.042 118.788 20.9815 119.146 20.921C119.523 20.8404 119.801 20.7396 119.96 20.659L119.98 20.6389V18.4823L119.881 18.5629C119.722 18.6637 119.583 18.7443 119.344 18.8048C119.146 18.8652 118.967 18.8854 118.828 18.8854C118.311 18.8854 117.953 18.7644 117.695 18.4621C117.457 18.18 117.338 17.7164 117.338 17.0311V11.7505H119.98V11.7505Z" fill="#737373"/>
    <path d="M0 0H12.1788V12.355H0V0Z" fill="#F25022"/>
    <path d="M13.4502 0H25.629V12.355H13.4502V0Z" fill="#7FBA00"/>
    <path d="M0 13.645H12.1788V26.0001H0V13.645Z" fill="#00A4EF"/>
    <path d="M13.4502 13.645H25.629V26.0001H13.4502V13.645Z" fill="#FFB900"/>
  </g>
  <defs>
    <clipPath id="clip0_1_657">
      <rect width="120" height="26" fill="white"/>
    </clipPath>
  </defs>
</svg>
