<svg xmlns="http://www.w3.org/2000/svg" width="79" height="88" viewBox="0 0 79 88" fill="none">
  <path d="M34.8618 46.5591C35.5821 46.2872 36.3264 46.897 36.2017 47.6567L31.8707 74.0363C31.746 74.7959 30.8457 75.1357 30.2502 74.6479L9.57025 57.7073C8.97475 57.2194 9.13065 56.2699 9.85086 55.9981L34.8618 46.5591Z" fill="#FED847"/>
  <path d="M55.5952 52.401C55.8688 51.6814 56.8188 51.5279 57.3051 52.1246L74.1945 72.8464C74.6808 73.4431 74.3388 74.3426 73.5789 74.4654L47.1886 78.7311C46.4287 78.8539 45.8207 78.1081 46.0943 77.3885L55.5952 52.401Z" fill="#FED847"/>
  <path d="M44.3005 33.3684C43.9156 34.0351 42.9533 34.0351 42.5684 33.3684L29.202 10.2171C28.8171 9.55043 29.2982 8.7171 30.068 8.7171L56.8009 8.71709C57.5707 8.71709 58.0518 9.55043 57.6669 10.2171L44.3005 33.3684Z" fill="#F55853"/>
</svg>
