<svg width="1600" height="621" viewBox="0 0 1600 621" fill="none" xmlns="http://www.w3.org/2000/svg">
<path fill-rule="evenodd" clip-rule="evenodd" d="M0 468.668V123.304C26.0929 104.727 56.7293 94.0288 89.5 94.0288C184.769 94.0288 262 184.448 262 295.986C262 407.524 184.769 497.943 89.5 497.943C56.7293 497.943 26.0929 487.244 0 468.668Z" fill="#C4E0F5"/>
<path d="M141.577 96.3754L139.848 96.2222L137.497 94.9948L135.573 92.4932L134.516 89.0516L135.041 85.8366L136.686 83.4939L138.878 82.6319L140.311 83.1169L141.034 81.5109L143.417 78.2462L146.35 75.7227L148.967 74.3258L152.208 73.4485L155.557 73.3479L157.432 73.9822L159.028 75.4476L160.088 77.5952L160.631 80.7396L160.379 84.9721L159.135 88.684L158.41 90.8446L156.857 93.4649L154.938 95.3445L154.422 95.6017L155.249 95.8816L157.399 96.6092L157.984 97.979L157.684 99.6048L157.016 101.599L155.797 103.222L154.321 104.327L152.334 104.58L151.193 104.502L149.523 103.258L148.367 102.127L148.503 99.8907L150.175 96.7324L148.53 96.8775L145.884 95.982L144.396 95.1086L142.885 95.9543L141.577 96.3754Z" fill="#C4E0F5"/>
<path d="M150.95 104.857C150.193 104.601 149.508 104.16 148.983 103.571C148.183 102.673 147.838 101.528 148.014 100.346C148.249 98.7562 149.029 97.4508 150.269 96.5712C150.466 96.4314 150.738 96.4787 150.877 96.6765C151.016 96.8743 150.969 97.1479 150.772 97.2875C149.717 98.0362 149.079 99.1087 148.877 100.475C148.74 101.394 149.009 102.286 149.633 102.986C150.368 103.811 151.495 104.277 152.649 104.233C153.986 104.182 155.402 103.206 156.437 101.624C157.397 100.154 157.791 98.5151 157.417 97.5458C157.128 96.7976 155.8 96.2534 154.258 96.2517C154.017 96.2514 153.822 96.055 153.822 95.8128C153.823 95.5707 154.018 95.3746 154.259 95.3748C156.208 95.3769 157.804 96.122 158.231 97.2287C158.71 98.4688 158.292 100.383 157.166 102.105C155.977 103.924 154.301 105.047 152.682 105.109C152.089 105.132 151.5 105.043 150.95 104.857Z" fill="#C4E0F5"/>
<path d="M143.282 105.023C143.176 104.988 143.084 104.911 143.03 104.803C142.923 104.586 143.011 104.323 143.227 104.215L150.548 100.565C150.764 100.458 151.026 100.546 151.133 100.763C151.24 100.98 151.152 101.243 150.936 101.351L143.615 105.001C143.507 105.054 143.388 105.059 143.282 105.023Z" fill="#C4E0F5"/>
<path d="M147.032 96.857C146.014 96.5128 145.022 95.9955 144.089 95.3074C143.894 95.164 143.853 94.8897 143.995 94.6945C144.138 94.4993 144.411 94.4574 144.605 94.6005C147.648 96.8451 151.224 97.1283 154.17 95.3581C157.553 93.3262 160.274 87.0844 160.235 81.4441C160.212 78.0482 159.168 75.5775 157.295 74.4869C155.444 73.4095 152.671 73.4518 149.686 74.6027C145.412 76.2507 141.884 79.6938 140.699 83.3746C140.625 83.605 140.379 83.7313 140.149 83.6567C140.148 83.6562 140.146 83.6556 140.144 83.655C139.918 83.5785 139.795 83.3333 139.868 83.1046C141.132 79.1817 144.862 75.5232 149.373 73.784C152.606 72.5378 155.652 72.5176 157.732 73.7281C159.884 74.9807 161.083 77.7188 161.108 81.438C161.126 84.1721 160.482 87.2814 159.341 89.9686C158.126 92.8297 156.449 95.0111 154.618 96.1107C152.32 97.4914 149.598 97.7252 147.032 96.857Z" fill="#C4E0F5"/>
<path d="M139.484 96.7049C138.451 96.3555 137.508 95.664 136.68 94.6495C134.552 92.0422 133.735 88.9734 134.437 86.2298C134.896 84.4356 135.96 83.0467 137.284 82.5147C138.008 82.2237 138.835 82.2322 139.745 82.5398C142.203 83.3717 144.939 86.38 145.844 89.2456C146.565 91.531 146.028 93.9238 144.441 95.4902C143.075 96.8387 141.222 97.2928 139.484 96.7049ZM139.466 83.3708C138.759 83.1315 138.134 83.1175 137.608 83.3288C136.558 83.751 135.666 84.9463 135.282 86.4481C134.65 88.918 135.405 91.7046 137.355 94.0934C138.078 94.9787 138.888 95.5777 139.763 95.8737C141.182 96.3541 142.702 95.9767 143.829 94.8646C145.18 93.5311 145.633 91.4795 145.012 89.5106C144.195 86.9234 141.656 84.1117 139.466 83.3708Z" fill="#C4E0F5"/>
<path d="M145.586 110.242L145.12 110.084C144.739 109.955 144.534 109.541 144.662 109.158C144.791 108.776 145.203 108.57 145.584 108.699L146.05 108.857C146.431 108.985 146.635 109.4 146.507 109.782C146.379 110.165 145.967 110.37 145.586 110.242Z" fill="#C4E0F5"/>
<path d="M141.946 109.01C141.565 108.881 141.361 108.466 141.489 108.084L147.727 89.4716C147.855 89.0891 148.268 88.8835 148.648 89.0123C149.029 89.1411 149.234 89.5555 149.105 89.938L142.867 108.55C142.739 108.933 142.326 109.138 141.946 109.01Z" fill="#C4E0F5"/>
<path d="M144.359 101.809C144.254 101.773 144.161 101.697 144.108 101.588L140.3 93.8783C140.193 93.6613 140.281 93.3983 140.497 93.2906C140.713 93.183 140.975 93.2716 141.082 93.4885L144.89 101.199C144.997 101.416 144.908 101.679 144.693 101.786C144.585 101.84 144.465 101.845 144.359 101.809Z" fill="#C4E0F5"/>
<ellipse cx="104.02" cy="140.64" rx="104.02" ry="140.64" transform="matrix(0.97963 0.200811 -0.198988 0.980002 214.971 49.2334)" fill="#C4E0F5"/>
<ellipse cx="104.02" cy="140.64" rx="104.02" ry="140.64" transform="matrix(0.97963 0.200811 -0.198988 0.980002 1170.97 16.0762)" fill="#C4E0F5"/>
<path d="M1255.48 28.2441L1253.84 28.8117L1251.2 28.653L1248.42 27.1557L1246.06 24.4448L1245.24 21.2938L1245.79 18.4812L1247.45 16.7968L1248.95 16.6531L1248.96 14.8907L1249.81 10.9337L1251.47 7.4286L1253.29 5.08194L1255.9 2.95443L1258.92 1.49212L1260.88 1.30425L1262.94 1.98933L1264.78 3.51679L1266.55 6.16655L1268.03 10.1353L1268.4 14.0345L1268.61 16.3041L1268.26 19.3329L1267.27 21.835L1266.9 22.2811L1267.77 22.1982L1270.03 21.9827L1271.12 22.9945L1271.5 24.6019L1271.7 26.697L1271.24 28.6782L1270.34 30.2908L1268.63 31.335L1267.56 31.731L1265.53 31.2787L1264.01 30.7185L1263.23 28.6205L1263.48 25.0516L1262.04 25.8572L1259.26 26.1225L1257.54 25.9335L1256.51 27.3244L1255.48 28.2441Z" fill="#C4E0F5"/>
<path d="M1267.48 32.1549C1266.68 32.2307 1265.88 32.1086 1265.16 31.7856C1264.07 31.2929 1263.29 30.3878 1262.97 29.2367C1262.54 27.6885 1262.72 26.1772 1263.5 24.8664C1263.62 24.6581 1263.89 24.5899 1264.1 24.7137C1264.3 24.8375 1264.37 25.1065 1264.25 25.3146C1263.59 26.4302 1263.44 27.6708 1263.81 29.0015C1264.06 29.8967 1264.67 30.6013 1265.52 30.9854C1266.52 31.4376 1267.74 31.402 1268.78 30.8899C1269.98 30.2958 1270.88 28.8255 1271.18 26.9567C1271.46 25.2211 1271.16 23.5632 1270.42 22.8312C1269.86 22.266 1268.42 22.3126 1267.01 22.9419C1266.79 23.0403 1266.54 22.9408 1266.44 22.7194C1266.34 22.4982 1266.44 22.2391 1266.66 22.1407C1268.44 21.3452 1270.2 21.3726 1271.04 22.2086C1271.98 23.1451 1272.37 25.0643 1272.04 27.0979C1271.69 29.2457 1270.62 30.9574 1269.16 31.6765C1268.63 31.9398 1268.06 32.0997 1267.48 32.1549Z" fill="#C4E0F5"/>
<path d="M1260.54 35.4448C1260.43 35.4554 1260.32 35.4234 1260.22 35.3463C1260.04 35.192 1260.01 34.9157 1260.17 34.729L1265.37 28.3996C1265.53 28.213 1265.8 28.1868 1265.99 28.341C1266.17 28.4953 1266.2 28.7716 1266.05 28.9583L1260.84 35.2877C1260.76 35.381 1260.66 35.4342 1260.54 35.4448Z" fill="#C4E0F5"/>
<path d="M1260.66 26.4519C1259.59 26.554 1258.47 26.4878 1257.34 26.2411C1257.11 26.1897 1256.96 25.9563 1257.01 25.7197C1257.06 25.483 1257.29 25.3329 1257.53 25.3842C1261.22 26.1888 1264.6 24.9842 1266.57 22.1618C1268.84 18.9217 1268.79 12.1077 1266.47 6.97205C1265.07 3.88008 1263.12 2.05096 1260.96 1.82144C1258.84 1.59487 1256.32 2.7684 1254.06 5.04107C1250.83 8.29531 1249 12.8836 1249.41 16.7302C1249.44 16.971 1249.26 17.187 1249.02 17.2127C1249.02 17.2129 1249.02 17.2131 1249.02 17.2132C1248.78 17.2359 1248.57 17.0624 1248.54 16.8234C1248.11 12.7237 1250.03 7.85561 1253.44 4.42129C1255.89 1.96033 1258.67 0.695039 1261.06 0.949473C1263.53 1.21293 1265.73 3.22307 1267.26 6.60947C1268.39 9.09887 1269.06 12.2022 1269.11 15.1234C1269.16 18.2338 1268.51 20.9124 1267.28 22.6658C1265.75 24.8672 1263.35 26.1946 1260.66 26.4519Z" fill="#C4E0F5"/>
<path d="M1253.7 29.4021C1252.62 29.5056 1251.48 29.2601 1250.31 28.6723C1247.31 27.1619 1245.32 24.6938 1244.85 21.9007C1244.54 20.0741 1244.95 18.3701 1245.94 17.3427C1246.49 16.7807 1247.24 16.4497 1248.2 16.3586C1250.78 16.1122 1254.5 17.7399 1256.49 19.9869C1258.07 21.779 1258.55 24.1843 1257.74 26.2643C1257.04 28.055 1255.53 29.228 1253.7 29.4021ZM1248.28 17.2315C1247.54 17.3024 1246.96 17.5454 1246.57 17.9536C1245.78 18.769 1245.45 20.2253 1245.71 21.7543C1246.13 24.2687 1247.95 26.5045 1250.7 27.8884C1251.72 28.4012 1252.7 28.6168 1253.62 28.5291C1255.11 28.3868 1256.35 27.4201 1256.93 25.9433C1257.62 24.1725 1257.2 22.1133 1255.84 20.5694C1254.04 18.5407 1250.58 17.0121 1248.28 17.2315Z" fill="#C4E0F5"/>
<path d="M1264.76 39.2678L1264.27 39.3146C1263.87 39.3527 1263.52 39.058 1263.48 38.6562C1263.44 38.2544 1263.74 37.8978 1264.14 37.8596L1264.63 37.8129C1265.03 37.7748 1265.38 38.0695 1265.42 38.4713C1265.46 38.8731 1265.16 39.2297 1264.76 39.2678Z" fill="#C4E0F5"/>
<path d="M1260.94 39.6327C1260.54 39.6708 1260.19 39.3761 1260.15 38.9743L1258.3 19.4228C1258.26 19.021 1258.56 18.6644 1258.95 18.6262C1259.35 18.5881 1259.71 18.8828 1259.75 19.2846L1261.6 38.8362C1261.63 39.238 1261.34 39.5946 1260.94 39.6327Z" fill="#C4E0F5"/>
<path d="M1260.23 32.0682C1260.11 32.0788 1260 32.0468 1259.91 31.9697L1253.3 26.4862C1253.12 26.3319 1253.09 26.0555 1253.24 25.8688C1253.4 25.6823 1253.67 25.656 1253.86 25.8102L1260.46 31.2938C1260.65 31.4481 1260.67 31.7244 1260.52 31.9111C1260.44 32.0044 1260.34 32.0576 1260.23 32.0682Z" fill="#C4E0F5"/>
<path fill-rule="evenodd" clip-rule="evenodd" d="M1600 123.393V362.13C1559.52 395.035 1502.09 409.994 1443.2 397.923C1344.78 377.748 1279.55 289.714 1297.51 201.294C1315.46 112.874 1409.8 57.5501 1508.22 77.7248C1544 85.0594 1575.39 101.363 1600 123.393Z" fill="#C4E0F5"/>
<path d="M1492 56.2668C1493.67 58.9462 1497.5 66.1135 1499.5 73.3478C1501.5 80.5821 1500.33 79.7113 1499.5 78.3716" stroke="#C4E0F5" stroke-width="2" stroke-linecap="round" stroke-linejoin="round"/>
<path d="M1486 64.2339C1488.35 66.3314 1494.04 72.1197 1497.99 78.4923C1501.95 84.8649 1500.58 84.3605 1499.41 83.3117" stroke="#C4E0F5" stroke-width="2" stroke-linecap="round" stroke-linejoin="round"/>
<ellipse cx="243.791" cy="140.663" rx="243.791" ry="140.663" transform="matrix(0.996924 -0.0783698 0.0776333 0.996982 277 129.645)" fill="#C4E0F5"/>
<path d="M501 92.4382C502.667 95.1176 506.5 102.285 508.5 109.519C510.5 116.753 509.333 115.883 508.5 114.543" stroke="#C4E0F5" stroke-width="2" stroke-linecap="round" stroke-linejoin="round"/>
<path d="M495 100.405C497.352 102.503 503.043 108.291 506.995 114.664C510.946 121.036 509.582 120.532 508.406 119.483" stroke="#C4E0F5" stroke-width="2" stroke-linecap="round" stroke-linejoin="round"/>
<path d="M86.7891 73.8352C86.2187 76.9424 85.2744 85.0236 86.0597 92.4902C86.8449 99.9568 87.6116 98.7162 87.8967 97.1626" stroke="#C4E0F5" stroke-width="2" stroke-linecap="round" stroke-linejoin="round"/>
<path d="M95.2827 79.0295C93.8625 81.8486 90.6858 89.333 89.3409 96.7186C87.9961 104.104 89.0802 103.132 89.7903 101.722" stroke="#C4E0F5" stroke-width="2" stroke-linecap="round" stroke-linejoin="round"/>
<ellipse cx="243.791" cy="140.663" rx="243.791" ry="140.663" transform="matrix(0.996924 -0.0783698 0.0776333 0.996982 844 153.759)" fill="#C4E0F5"/>
<ellipse cx="88.8539" cy="70.8866" rx="88.8539" ry="70.8866" transform="matrix(0.883553 0.468331 -0.464863 0.885383 627.905 49.2334)" fill="#C4E0F5"/>
<ellipse cx="88.8539" cy="70.8866" rx="88.8539" ry="70.8866" transform="matrix(-0.883553 0.468331 0.464863 0.885383 1001.01 49.2334)" fill="#C4E0F5"/>
<ellipse cx="166.398" cy="133.022" rx="166.398" ry="133.022" transform="matrix(0.99883 0.0483608 -0.0479045 0.998852 658.629 33.7915)" fill="#C4E0F5"/>
<g filter="url(#filter0_d_1_401)">
<ellipse cx="330.5" cy="265.249" rx="254.5" ry="130.628" fill="#2CBC67"/>
<path d="M276 115.548C277.667 118.227 281.5 125.395 283.5 132.629C285.5 139.863 284.333 138.992 283.5 137.653" stroke="#2CBC67" stroke-width="2" stroke-linecap="round" stroke-linejoin="round"/>
<path d="M270 123.515C272.352 125.612 278.043 131.401 281.995 137.773C285.946 144.146 284.582 143.641 283.406 142.593" stroke="#2CBC67" stroke-width="2" stroke-linecap="round" stroke-linejoin="round"/>
<ellipse cx="1374.5" cy="256.622" rx="187.5" ry="72.7078" fill="#2CBC67"/>
<ellipse cx="925" cy="238.137" rx="216" ry="130.628" fill="#2CBC67"/>
<path d="M899 86.4097C900.667 89.089 904.5 96.2563 906.5 103.491C908.5 110.725 907.333 109.854 906.5 108.514" stroke="#2CBC67" stroke-width="2" stroke-linecap="round" stroke-linejoin="round"/>
<path d="M893 94.3767C895.352 96.4743 901.043 102.263 904.995 108.635C908.946 115.008 907.582 114.503 906.406 113.455" stroke="#2CBC67" stroke-width="2" stroke-linecap="round" stroke-linejoin="round"/>
<path d="M1280.82 171.812C1280.54 174.959 1280.34 183.093 1281.81 190.455C1283.28 197.817 1283.93 196.511 1284.07 194.937" stroke="#2CBC67" stroke-width="2" stroke-linecap="round" stroke-linejoin="round"/>
<path d="M1289.76 176.197C1288.6 179.136 1286.12 186.883 1285.46 194.362C1284.8 201.84 1285.79 200.771 1286.37 199.302" stroke="#2CBC67" stroke-width="2" stroke-linecap="round" stroke-linejoin="round"/>
<ellipse cx="732.5" cy="285.582" rx="182.5" ry="110.294" fill="#2CBC67"/>
<path d="M689.481 169.916L687.84 170.484L685.195 170.325L682.424 168.828L680.064 166.117L679.24 162.966L679.793 160.153L681.445 158.469L682.951 158.325L682.96 156.563L683.813 152.606L685.469 149.101L687.293 146.754L689.897 144.627L692.915 143.164L694.884 142.976L696.936 143.661L698.775 145.189L700.545 147.839L702.03 151.807L702.399 155.707L702.613 157.976L702.257 161.005L701.266 163.507L700.899 163.953L701.768 163.87L704.026 163.655L705.116 164.667L705.501 166.274L705.699 168.369L705.244 170.35L704.344 171.963L702.631 173.007L701.558 173.403L699.528 172.951L698.014 172.391L697.231 170.293L697.479 166.724L696.035 167.529L693.255 167.795L691.542 167.606L690.505 168.996L689.481 169.916Z" fill="#2CBC67"/>
<path d="M701.48 173.827C700.684 173.902 699.881 173.78 699.163 173.457C698.067 172.965 697.288 172.059 696.97 170.908C696.54 169.36 696.723 167.849 697.499 166.538C697.622 166.33 697.89 166.262 698.097 166.385C698.304 166.509 698.372 166.778 698.249 166.986C697.589 168.102 697.441 169.342 697.81 170.673C698.058 171.568 698.665 172.273 699.519 172.657C700.525 173.109 701.743 173.074 702.778 172.562C703.979 171.967 704.877 170.497 705.18 168.628C705.462 166.893 705.157 165.235 704.422 164.503C703.856 163.938 702.422 163.984 701.013 164.614C700.793 164.712 700.535 164.612 700.437 164.391C700.339 164.17 700.438 163.911 700.659 163.812C702.439 163.017 704.198 163.044 705.037 163.88C705.977 164.817 706.372 166.736 706.041 168.77C705.693 170.917 704.617 172.629 703.164 173.348C702.631 173.611 702.058 173.771 701.48 173.827Z" fill="#2CBC67"/>
<path d="M694.544 177.116C694.433 177.127 694.318 177.095 694.225 177.018C694.039 176.864 694.013 176.587 694.166 176.401L699.373 170.071C699.527 169.885 699.802 169.858 699.988 170.013C700.173 170.167 700.2 170.443 700.046 170.63L694.839 176.959C694.762 177.053 694.655 177.106 694.544 177.116Z" fill="#2CBC67"/>
<path d="M694.659 168.124C693.59 168.226 692.473 168.159 691.342 167.913C691.107 167.861 690.958 167.628 691.009 167.391C691.06 167.155 691.292 167.005 691.528 167.056C695.217 167.86 698.597 166.656 700.57 163.833C702.836 160.593 702.791 153.779 700.469 148.644C699.072 145.552 697.116 143.723 694.964 143.493C692.836 143.267 690.321 144.44 688.061 146.713C684.826 149.967 683 154.555 683.409 158.402C683.435 158.643 683.261 158.859 683.022 158.884C683.02 158.885 683.018 158.885 683.017 158.885C682.779 158.908 682.567 158.734 682.541 158.495C682.105 154.395 684.029 149.527 687.444 146.093C689.891 143.632 692.665 142.367 695.055 142.621C697.528 142.885 699.733 144.895 701.264 148.281C702.389 150.771 703.061 153.874 703.108 156.795C703.158 159.905 702.511 162.584 701.284 164.337C699.745 166.539 697.354 167.866 694.659 168.124Z" fill="#2CBC67"/>
<path d="M687.704 171.074C686.619 171.177 685.477 170.932 684.31 170.344C681.31 168.834 679.319 166.365 678.848 163.572C678.54 161.746 678.949 160.042 679.942 159.014C680.485 158.452 681.245 158.121 682.2 158.03C684.782 157.784 688.501 159.411 690.488 161.659C692.074 163.451 692.553 165.856 691.738 167.936C691.037 169.727 689.529 170.9 687.704 171.074ZM682.282 158.903C681.539 158.974 680.962 159.217 680.568 159.625C679.78 160.441 679.451 161.897 679.708 163.426C680.132 165.94 681.952 168.176 684.701 169.56C685.719 170.073 686.702 170.288 687.621 170.201C689.112 170.058 690.348 169.092 690.926 167.615C691.619 165.844 691.202 163.785 689.836 162.241C688.041 160.212 684.582 158.684 682.282 158.903Z" fill="#2CBC67"/>
<path d="M698.764 180.94L698.274 180.986C697.874 181.025 697.519 180.73 697.481 180.328C697.443 179.926 697.737 179.57 698.137 179.532L698.626 179.485C699.026 179.447 699.381 179.741 699.419 180.143C699.457 180.545 699.164 180.902 698.764 180.94Z" fill="#2CBC67"/>
<path d="M694.94 181.304C694.54 181.342 694.185 181.048 694.147 180.646L692.3 161.094C692.262 160.693 692.555 160.336 692.955 160.298C693.355 160.26 693.71 160.554 693.748 160.956L695.595 180.508C695.633 180.91 695.34 181.266 694.94 181.304Z" fill="#2CBC67"/>
<path d="M694.225 173.74C694.114 173.75 693.999 173.718 693.906 173.641L687.303 168.158C687.117 168.003 687.091 167.727 687.245 167.54C687.398 167.354 687.673 167.328 687.859 167.482L694.462 172.965C694.648 173.12 694.674 173.396 694.52 173.583C694.443 173.676 694.336 173.729 694.225 173.74Z" fill="#2CBC67"/>
</g>
<path fill-rule="evenodd" clip-rule="evenodd" d="M0 465.911V157.925C65.7641 144.641 144.962 150.555 225.793 182.608C418.426 167.464 583.633 271.372 594.793 414.692C601.965 506.795 537.492 497.203 439.371 482.603C384.807 474.485 319.839 464.818 251 470.23C164.641 477.019 74.3486 478.86 0 465.911Z" fill="#8ABCE4"/>
<ellipse cx="567.5" cy="331.573" rx="182.5" ry="179.852" fill="#8ABCE4"/>
<path fill-rule="evenodd" clip-rule="evenodd" d="M1600 157.898V505.247C1457.14 484.614 1352 414.676 1352 331.573C1352 248.47 1457.14 178.532 1600 157.898Z" fill="#8ABCE4"/>
<ellipse cx="1365.5" cy="384.825" rx="120.5" ry="179.852" fill="#8ABCE4"/>
<path d="M1385 414.968C1385 539.269 1217.33 506.401 1010.5 506.401C803.669 506.401 636 539.269 636 414.968C636 290.667 803.669 189.901 1010.5 189.901C1217.33 189.901 1385 290.667 1385 414.968Z" fill="#8ABCE4"/>
<path d="M948.029 178.961L945.587 179.806L941.652 179.57L937.528 177.342L934.016 173.309L932.791 168.62L933.613 164.435L936.072 161.929L938.312 161.715L938.325 159.093L939.595 153.206L942.059 147.99L944.772 144.499L948.647 141.333L953.137 139.158L956.067 138.878L959.12 139.897L961.856 142.17L964.49 146.113L966.7 152.018L967.248 157.819L967.567 161.196L967.037 165.703L965.562 169.425L965.016 170.089L966.309 169.966L969.67 169.645L971.291 171.151L971.864 173.542L972.159 176.659L971.481 179.607L970.143 182.007L967.594 183.56L965.997 184.15L962.977 183.477L960.724 182.643L959.56 179.521L959.928 174.211L957.78 175.41L953.644 175.805L951.095 175.524L949.552 177.593L948.029 178.961Z" fill="#8ABCE4"/>
<path d="M965.88 184.78C964.697 184.893 963.501 184.711 962.433 184.23C960.803 183.497 959.644 182.15 959.17 180.438C958.531 178.134 958.803 175.886 959.958 173.935C960.141 173.625 960.539 173.524 960.848 173.708C961.156 173.892 961.257 174.293 961.074 174.602C960.091 176.262 959.871 178.108 960.421 180.088C960.79 181.42 961.693 182.468 962.964 183.04C964.459 183.713 966.272 183.659 967.813 182.898C969.599 182.014 970.935 179.826 971.386 177.045C971.805 174.463 971.352 171.996 970.259 170.907C969.415 170.066 967.282 170.136 965.186 171.072C964.859 171.218 964.475 171.07 964.329 170.741C964.184 170.412 964.331 170.026 964.659 169.88C967.308 168.696 969.926 168.737 971.173 169.981C972.572 171.374 973.159 174.23 972.668 177.255C972.149 180.451 970.548 182.998 968.386 184.068C967.594 184.46 966.74 184.698 965.88 184.78Z" fill="#8ABCE4"/>
<path d="M955.561 189.675C955.396 189.69 955.225 189.643 955.086 189.528C954.81 189.298 954.771 188.887 954.999 188.61L962.747 179.192C962.975 178.915 963.384 178.875 963.661 179.105C963.937 179.335 963.976 179.746 963.748 180.023L956 189.441C955.886 189.58 955.727 189.659 955.561 189.675Z" fill="#8ABCE4"/>
<path d="M955.732 176.294C954.141 176.446 952.48 176.348 950.798 175.98C950.447 175.904 950.225 175.557 950.301 175.205C950.377 174.852 950.723 174.629 951.073 174.706C956.562 175.903 961.592 174.11 964.528 169.911C967.899 165.09 967.831 154.952 964.377 147.31C962.298 142.71 959.389 139.988 956.185 139.647C953.021 139.31 949.278 141.056 945.916 144.437C941.102 149.279 938.385 156.106 938.994 161.829C939.032 162.188 938.774 162.509 938.418 162.547C938.415 162.548 938.412 162.548 938.41 162.548C938.056 162.582 937.741 162.324 937.703 161.968C937.053 155.868 939.916 148.625 944.997 143.515C948.638 139.854 952.766 137.971 956.322 138.349C960.001 138.741 963.282 141.732 965.56 146.771C967.234 150.475 968.234 155.092 968.304 159.439C968.378 164.067 967.414 168.052 965.59 170.661C963.3 173.936 959.743 175.911 955.732 176.294Z" fill="#8ABCE4"/>
<path d="M945.383 180.684C943.769 180.838 942.07 180.472 940.334 179.598C935.87 177.35 932.907 173.678 932.207 169.522C931.749 166.805 932.357 164.269 933.835 162.741C934.643 161.904 935.773 161.412 937.194 161.276C941.037 160.91 946.569 163.332 949.526 166.675C951.885 169.341 952.598 172.92 951.386 176.015C950.343 178.679 948.099 180.425 945.383 180.684ZM937.316 162.575C936.211 162.681 935.353 163.042 934.766 163.65C933.594 164.863 933.103 167.03 933.487 169.305C934.118 173.046 936.825 176.372 940.915 178.431C942.431 179.194 943.893 179.515 945.26 179.385C947.479 179.173 949.317 177.735 950.178 175.537C951.209 172.903 950.588 169.839 948.556 167.542C945.886 164.523 940.739 162.249 937.316 162.575Z" fill="#8ABCE4"/>
<path d="M961.84 195.363L961.111 195.433C960.516 195.489 959.988 195.051 959.931 194.453C959.875 193.855 960.311 193.325 960.906 193.268L961.635 193.198C962.23 193.142 962.758 193.58 962.815 194.178C962.871 194.776 962.435 195.306 961.84 195.363Z" fill="#8ABCE4"/>
<path d="M956.15 195.906C955.555 195.962 955.027 195.524 954.97 194.926L952.221 165.836C952.165 165.238 952.601 164.707 953.196 164.65C953.791 164.594 954.319 165.032 954.376 165.63L957.125 194.72C957.181 195.318 956.745 195.849 956.15 195.906Z" fill="#8ABCE4"/>
<path d="M955.087 184.651C954.921 184.666 954.75 184.619 954.612 184.504L944.788 176.345C944.511 176.116 944.473 175.705 944.701 175.427C944.929 175.149 945.339 175.11 945.615 175.34L955.439 183.498C955.715 183.728 955.754 184.139 955.526 184.417C955.411 184.556 955.252 184.635 955.087 184.651Z" fill="#8ABCE4"/>
<path d="M219.085 173.048L217.444 173.616L214.799 173.457L212.027 171.96L209.667 169.249L208.844 166.098L209.396 163.285L211.049 161.601L212.555 161.457L212.563 159.695L213.417 155.738L215.073 152.233L216.896 149.886L219.5 147.758L222.518 146.296L224.488 146.108L226.539 146.793L228.378 148.321L230.148 150.971L231.634 154.939L232.002 158.838L232.217 161.108L231.86 164.137L230.869 166.639L230.502 167.085L231.371 167.002L233.63 166.787L234.719 167.798L235.105 169.406L235.303 171.501L234.847 173.482L233.948 175.095L232.234 176.139L231.161 176.535L229.132 176.083L227.618 175.522L226.835 173.424L227.082 169.856L225.639 170.661L222.859 170.926L221.146 170.737L220.109 172.128L219.085 173.048Z" fill="#8ABCE4"/>
<path d="M231.083 176.959C230.288 177.034 229.484 176.912 228.766 176.589C227.671 176.097 226.892 175.191 226.573 174.04C226.144 172.492 226.327 170.981 227.103 169.67C227.226 169.462 227.494 169.394 227.701 169.517C227.908 169.641 227.976 169.91 227.853 170.118C227.192 171.234 227.045 172.474 227.414 173.805C227.662 174.7 228.269 175.405 229.123 175.789C230.128 176.241 231.346 176.206 232.382 175.694C233.582 175.099 234.48 173.629 234.784 171.76C235.065 170.025 234.761 168.367 234.026 167.635C233.459 167.07 232.025 167.116 230.617 167.746C230.397 167.844 230.139 167.744 230.041 167.523C229.943 167.302 230.042 167.043 230.262 166.944C232.042 166.149 233.802 166.176 234.64 167.012C235.581 167.949 235.975 169.868 235.645 171.902C235.296 174.049 234.22 175.761 232.767 176.48C232.235 176.744 231.661 176.903 231.083 176.959Z" fill="#8ABCE4"/>
<path d="M224.148 180.248C224.037 180.259 223.921 180.227 223.828 180.15C223.643 179.995 223.617 179.719 223.77 179.532L228.977 173.203C229.13 173.016 229.405 172.99 229.591 173.144C229.777 173.299 229.803 173.575 229.65 173.762L224.443 180.091C224.366 180.184 224.259 180.238 224.148 180.248Z" fill="#8ABCE4"/>
<path d="M224.263 171.255C223.194 171.357 222.077 171.291 220.946 171.045C220.711 170.993 220.562 170.76 220.613 170.523C220.664 170.286 220.896 170.136 221.132 170.188C224.821 170.992 228.201 169.788 230.174 166.965C232.44 163.725 232.395 156.911 230.073 151.776C228.676 148.684 226.72 146.854 224.568 146.625C222.44 146.398 219.925 147.572 217.665 149.845C214.43 153.099 212.604 157.687 213.013 161.534C213.039 161.774 212.865 161.991 212.626 162.016C212.624 162.016 212.622 162.017 212.621 162.017C212.383 162.039 212.171 161.866 212.145 161.627C211.709 157.527 213.633 152.659 217.048 149.225C219.495 146.764 222.269 145.499 224.659 145.753C227.132 146.016 229.337 148.027 230.868 151.413C231.993 153.902 232.665 157.006 232.712 159.927C232.762 163.037 232.115 165.716 230.888 167.469C229.349 169.671 226.958 170.998 224.263 171.255Z" fill="#8ABCE4"/>
<path d="M217.307 174.206C216.222 174.309 215.081 174.064 213.913 173.476C210.913 171.965 208.922 169.497 208.451 166.704C208.143 164.878 208.553 163.174 209.545 162.146C210.089 161.584 210.848 161.253 211.803 161.162C214.386 160.916 218.104 162.543 220.092 164.79C221.677 166.582 222.156 168.988 221.342 171.068C220.641 172.858 219.132 174.031 217.307 174.206ZM211.885 162.035C211.143 162.106 210.566 162.349 210.171 162.757C209.383 163.572 209.054 165.029 209.312 166.558C209.736 169.072 211.555 171.308 214.304 172.692C215.323 173.205 216.305 173.42 217.225 173.333C218.716 173.19 219.951 172.224 220.529 170.747C221.223 168.976 220.805 166.917 219.439 165.373C217.645 163.344 214.186 161.816 211.885 162.035Z" fill="#8ABCE4"/>
<path d="M228.367 184.072L227.878 184.118C227.478 184.156 227.123 183.862 227.085 183.46C227.047 183.058 227.34 182.702 227.74 182.663L228.23 182.617C228.63 182.578 228.985 182.873 229.023 183.275C229.061 183.677 228.767 184.033 228.367 184.072Z" fill="#8ABCE4"/>
<path d="M224.544 184.436C224.144 184.475 223.789 184.18 223.751 183.778L221.903 164.226C221.865 163.825 222.159 163.468 222.558 163.43C222.958 163.392 223.313 163.687 223.351 164.088L225.199 183.64C225.237 184.042 224.943 184.398 224.544 184.436Z" fill="#8ABCE4"/>
<path d="M223.829 176.872C223.717 176.883 223.602 176.851 223.509 176.773L216.907 171.29C216.721 171.136 216.695 170.859 216.848 170.673C217.002 170.486 217.277 170.46 217.463 170.614L224.065 176.098C224.251 176.252 224.277 176.528 224.124 176.715C224.047 176.808 223.94 176.861 223.829 176.872Z" fill="#8ABCE4"/>
<path d="M1563.59 157.185L1562.33 157.622L1560.29 157.5L1558.15 156.346L1556.34 154.258L1555.7 151.83L1556.13 149.662L1557.4 148.364L1558.56 148.254L1558.57 146.896L1559.22 143.847L1560.5 141.146L1561.91 139.338L1563.91 137.699L1566.24 136.572L1567.76 136.427L1569.34 136.955L1570.75 138.132L1572.12 140.174L1573.26 143.232L1573.55 146.236L1573.71 147.985L1573.44 150.319L1572.67 152.247L1572.39 152.59L1573.06 152.526L1574.8 152.36L1575.64 153.14L1575.94 154.379L1576.09 155.993L1575.74 157.519L1575.04 158.762L1573.72 159.567L1572.9 159.872L1571.33 159.523L1570.17 159.092L1569.56 157.475L1569.75 154.725L1568.64 155.346L1566.5 155.55L1565.18 155.405L1564.38 156.476L1563.59 157.185Z" fill="#8ABCE4"/>
<path d="M1572.84 160.198C1572.22 160.257 1571.61 160.163 1571.05 159.914C1570.21 159.534 1569.61 158.837 1569.36 157.95C1569.03 156.757 1569.17 155.592 1569.77 154.582C1569.87 154.422 1570.07 154.369 1570.23 154.465C1570.39 154.56 1570.44 154.767 1570.35 154.928C1569.84 155.787 1569.73 156.743 1570.01 157.769C1570.2 158.458 1570.67 159.001 1571.33 159.297C1572.1 159.646 1573.04 159.618 1573.84 159.224C1574.76 158.766 1575.45 157.633 1575.69 156.193C1575.91 154.856 1575.67 153.578 1575.1 153.014C1574.67 152.579 1573.56 152.615 1572.48 153.1C1572.31 153.175 1572.11 153.099 1572.03 152.928C1571.96 152.758 1572.03 152.558 1572.2 152.482C1573.58 151.869 1574.93 151.89 1575.58 152.535C1576.3 153.256 1576.61 154.735 1576.35 156.302C1576.08 157.957 1575.25 159.276 1574.13 159.83C1573.72 160.033 1573.28 160.156 1572.84 160.198Z" fill="#8ABCE4"/>
<path d="M1567.49 162.733C1567.41 162.742 1567.32 162.717 1567.25 162.658C1567.1 162.539 1567.08 162.326 1567.2 162.182L1571.21 157.305C1571.33 157.161 1571.54 157.141 1571.69 157.26C1571.83 157.379 1571.85 157.592 1571.73 157.735L1567.72 162.612C1567.66 162.684 1567.58 162.725 1567.49 162.733Z" fill="#8ABCE4"/>
<path d="M1567.58 155.804C1566.76 155.883 1565.9 155.832 1565.03 155.642C1564.84 155.602 1564.73 155.422 1564.77 155.24C1564.81 155.057 1564.99 154.942 1565.17 154.981C1568.01 155.601 1570.62 154.673 1572.14 152.498C1573.88 150.002 1573.85 144.751 1572.06 140.794C1570.98 138.412 1569.48 137.002 1567.82 136.826C1566.18 136.651 1564.24 137.555 1562.5 139.306C1560 141.814 1558.6 145.349 1558.91 148.313C1558.93 148.499 1558.8 148.665 1558.61 148.685C1558.61 148.685 1558.61 148.685 1558.61 148.685C1558.43 148.703 1558.26 148.569 1558.24 148.385C1557.91 145.226 1559.39 141.475 1562.02 138.829C1563.91 136.933 1566.05 135.958 1567.89 136.154C1569.79 136.357 1571.49 137.906 1572.67 140.515C1573.54 142.433 1574.06 144.824 1574.09 147.075C1574.13 149.472 1573.63 151.536 1572.69 152.887C1571.5 154.583 1569.66 155.606 1567.58 155.804Z" fill="#8ABCE4"/>
<path d="M1562.22 158.077C1561.39 158.157 1560.51 157.968 1559.61 157.515C1557.3 156.351 1555.76 154.449 1555.4 152.297C1555.16 150.89 1555.48 149.577 1556.24 148.785C1556.66 148.352 1557.25 148.097 1557.98 148.027C1559.97 147.837 1562.84 149.091 1564.37 150.823C1565.59 152.203 1565.96 154.057 1565.33 155.659C1564.79 157.039 1563.63 157.943 1562.22 158.077ZM1558.04 148.699C1557.47 148.754 1557.03 148.941 1556.72 149.256C1556.12 149.884 1555.86 151.006 1556.06 152.184C1556.39 154.122 1557.79 155.845 1559.91 156.911C1560.69 157.306 1561.45 157.472 1562.16 157.405C1563.31 157.295 1564.26 156.55 1564.71 155.412C1565.24 154.048 1564.92 152.461 1563.87 151.271C1562.48 149.708 1559.82 148.53 1558.04 148.699Z" fill="#8ABCE4"/>
<path d="M1570.74 165.679L1570.37 165.715C1570.06 165.744 1569.79 165.517 1569.76 165.208C1569.73 164.898 1569.95 164.623 1570.26 164.594L1570.64 164.558C1570.95 164.529 1571.22 164.756 1571.25 165.065C1571.28 165.375 1571.05 165.65 1570.74 165.679Z" fill="#8ABCE4"/>
<path d="M1567.8 165.96C1567.49 165.99 1567.22 165.762 1567.19 165.453L1565.76 150.388C1565.73 150.078 1565.96 149.804 1566.27 149.774C1566.58 149.745 1566.85 149.972 1566.88 150.281L1568.3 165.346C1568.33 165.656 1568.11 165.931 1567.8 165.96Z" fill="#8ABCE4"/>
<path d="M1567.25 160.132C1567.16 160.14 1567.07 160.115 1567 160.056L1561.91 155.83C1561.77 155.712 1561.75 155.499 1561.87 155.355C1561.99 155.211 1562.2 155.191 1562.34 155.31L1567.43 159.535C1567.57 159.654 1567.59 159.867 1567.47 160.01C1567.42 160.082 1567.33 160.123 1567.25 160.132Z" fill="#8ABCE4"/>
<path d="M1074.72 174.83C1073.05 177.509 1069.22 184.676 1067.22 191.911C1065.22 199.145 1066.39 198.274 1067.22 196.935" stroke="#8ABCE4" stroke-width="2" stroke-linecap="round" stroke-linejoin="round"/>
<path d="M1080.72 182.797C1078.37 184.894 1072.68 190.683 1068.73 197.055C1064.77 203.428 1066.14 202.923 1067.31 201.875" stroke="#8ABCE4" stroke-width="2" stroke-linecap="round" stroke-linejoin="round"/>
<path d="M1469.72 179.854C1468.05 182.533 1464.22 189.7 1462.22 196.934C1460.22 204.169 1461.39 203.298 1462.22 201.958" stroke="#8ABCE4" stroke-width="2" stroke-linecap="round" stroke-linejoin="round"/>
<path d="M1475.72 187.821C1473.37 189.918 1467.68 195.706 1463.73 202.079C1459.77 208.452 1461.14 207.947 1462.31 206.898" stroke="#8ABCE4" stroke-width="2" stroke-linecap="round" stroke-linejoin="round"/>
<path d="M69.7207 172.82C68.054 175.5 64.2207 182.667 62.2207 189.901C60.2207 197.136 61.3874 196.265 62.2207 194.925" stroke="#8ABCE4" stroke-width="2" stroke-linecap="round" stroke-linejoin="round"/>
<path d="M75.7207 180.787C73.3689 182.885 67.6776 188.673 63.7261 195.046C59.7747 201.418 61.1385 200.914 62.3144 199.865" stroke="#8ABCE4" stroke-width="2" stroke-linecap="round" stroke-linejoin="round"/>
<rect y="314" width="1600" height="307" fill="#8ABCE4"/>
<defs>
<filter id="filter0_d_1_401" x="56" y="79.4094" width="1506" height="330.467" filterUnits="userSpaceOnUse" color-interpolation-filters="sRGB">
<feFlood flood-opacity="0" result="BackgroundImageFix"/>
<feColorMatrix in="SourceAlpha" type="matrix" values="0 0 0 0 0 0 0 0 0 0 0 0 0 0 0 0 0 0 127 0" result="hardAlpha"/>
<feOffset dx="-10" dy="4"/>
<feGaussianBlur stdDeviation="5"/>
<feComposite in2="hardAlpha" operator="out"/>
<feColorMatrix type="matrix" values="0 0 0 0 0.0883333 0 0 0 0 0.441667 0 0 0 0 0.233102 0 0 0 0.2 0"/>
<feBlend mode="normal" in2="BackgroundImageFix" result="effect1_dropShadow_1_401"/>
<feBlend mode="normal" in="SourceGraphic" in2="effect1_dropShadow_1_401" result="shape"/>
</filter>
</defs>
</svg>
