<svg width="320" height="435" viewBox="0 0 320 435" fill="none" xmlns="http://www.w3.org/2000/svg">
<g filter="url(#filter0_d_171_79)">
<path fill-rule="evenodd" clip-rule="evenodd" d="M320 29.0242V211.031C287.945 227.864 246.613 238 201.5 238C99.6035 238 17 186.289 17 122.5C17 84.3038 46.6177 50.438 92.2604 29.412C92.2269 29.3578 92.1927 29.3027 92.1579 29.2468C89.6933 25.2911 86.1321 21.6854 84.6681 20.3859C84.4616 20.2025 84.4428 19.8865 84.6261 19.68C84.8094 19.4735 85.1255 19.4547 85.332 19.638C86.8413 20.9778 90.4754 24.6553 93.0066 28.718L93.0487 28.7856C93.0789 28.6643 93.1544 28.5541 93.2688 28.4825C93.3898 28.4069 93.5306 28.3894 93.6587 28.4224L93.6487 28.3643C93.5523 27.8119 93.3662 27.0104 93.0521 25.8797C91.8047 21.3891 89.4063 16.9246 88.3689 15.2646C88.2225 15.0305 88.2937 14.722 88.5279 14.5756C88.762 14.4293 89.0705 14.5005 89.2169 14.7346C90.2865 16.446 92.7345 21 94.0156 25.6121C94.3336 26.757 94.5294 27.5939 94.6338 28.1924C94.6419 28.2383 94.6494 28.283 94.6564 28.3266C124.806 14.8974 161.68 7.00012 201.5 7.00012C246.159 7.00012 287.688 14.2994 320 29.0242Z" fill="#2CBC67"/>
</g>
<path d="M18.708 23.509L18.1523 23.8528L17.1679 24.0146L16.0264 23.6977L14.9356 22.903L14.3725 21.8199L14.3428 20.7461L14.8103 19.9932L15.3514 19.8155L15.2089 19.1707L15.195 17.6536L15.5132 16.235L15.9888 15.2259L16.7692 14.2319L17.7564 13.4468L18.464 13.2145L19.2741 13.2943L20.0758 13.6998L20.9448 14.5211L21.8185 15.8481L22.2762 17.2425L22.5427 18.0542L22.6622 19.1908L22.5053 20.1875L22.4074 20.381L22.7196 20.2786L23.5313 20.0121L24.0149 20.2914L24.2894 20.8468L24.5354 21.596L24.5319 22.358L24.3349 23.0221L23.7922 23.546L23.431 23.7799L22.6482 23.7833L22.0459 23.7043L21.585 23.0026L21.3806 21.6778L20.9173 22.0921L19.9183 22.4201L19.2737 22.4933L19.0078 23.0878L18.708 23.509Z" fill="#2CBC67"/>
<path d="M23.4371 23.9412C23.1513 24.035 22.8461 24.0571 22.5558 23.9988C22.1128 23.9097 21.7519 23.6436 21.5396 23.2494C21.2539 22.7193 21.1962 22.1517 21.3727 21.6082C21.4007 21.5219 21.4934 21.4747 21.5797 21.5027C21.666 21.5307 21.7132 21.6234 21.6852 21.7097C21.5349 22.1723 21.5833 22.638 21.8289 23.0936C21.994 23.4002 22.2751 23.6072 22.6205 23.6767C23.0271 23.7584 23.4715 23.6441 23.8094 23.371C24.2011 23.0541 24.4092 22.4421 24.3661 21.7339C24.326 21.0762 24.0771 20.4956 23.7467 20.2892C23.4918 20.1297 22.9691 20.2659 22.5039 20.6129C22.4312 20.6671 22.3283 20.6522 22.274 20.5794C22.2198 20.5067 22.2348 20.4038 22.3075 20.3495C22.8955 19.9109 23.5438 19.7747 23.9209 20.0106C24.3436 20.2747 24.6471 20.9433 24.694 21.714C24.7437 22.5279 24.4902 23.2428 24.016 23.6264C23.8422 23.7669 23.6448 23.873 23.4371 23.9412V23.9412Z" fill="#2CBC67"/>
<path d="M21.1624 25.7199C21.1225 25.733 21.0775 25.7309 21.037 25.7104C20.9561 25.6694 20.9236 25.5706 20.9645 25.4896L22.3531 22.7438C22.3941 22.6628 22.4929 22.6304 22.5739 22.6713C22.6549 22.7123 22.6873 22.8111 22.6464 22.8921L21.2578 25.6379C21.2373 25.6784 21.2023 25.7068 21.1624 25.7199Z" fill="#2CBC67"/>
<path d="M20.4609 22.4237C20.0768 22.5498 19.6614 22.6184 19.2257 22.6222C19.135 22.623 19.0608 22.5501 19.06 22.4594C19.0592 22.3686 19.1322 22.2944 19.2228 22.2936C20.644 22.2812 21.7857 21.56 22.277 20.3645C22.841 18.9922 22.2608 16.5056 20.9837 14.8216C20.2147 13.8077 19.3454 13.3017 18.5359 13.3967C17.7361 13.4906 16.9095 14.1285 16.2677 15.1469C15.3486 16.6051 15.0575 18.4337 15.5261 19.8054C15.5554 19.8913 15.5096 19.9847 15.4237 20.014C15.4231 20.0142 15.4224 20.0144 15.4218 20.0146C15.3364 20.0426 15.2442 19.9968 15.2151 19.9116C14.7157 18.4496 15.0198 16.5105 15.9896 14.9717C16.6847 13.869 17.5989 13.176 18.4976 13.0704C19.4274 12.9612 20.4033 13.5126 21.2454 14.6231C21.8645 15.4394 22.368 16.5177 22.6268 17.5814C22.9024 18.714 22.886 19.7467 22.5808 20.4894C22.1978 21.4218 21.4295 22.1057 20.4609 22.4237V22.4237Z" fill="#2CBC67"/>
<path d="M18.1509 24.0798C17.7611 24.2077 17.3215 24.2129 16.8443 24.0951C15.6177 23.7924 14.6825 23.0558 14.2786 22.0741C14.0145 21.4321 14.0238 20.7754 14.3034 20.3174C14.4564 20.0669 14.7079 19.8828 15.051 19.7701C15.9791 19.4655 17.4791 19.7514 18.3948 20.4075C19.1251 20.9307 19.4999 21.77 19.3729 22.5978C19.2636 23.3105 18.8067 23.8645 18.1509 24.0798ZM15.1535 20.0823C14.8866 20.1699 14.6949 20.3067 14.5838 20.4886C14.3619 20.8521 14.3614 21.4117 14.5824 21.9491C14.946 22.8328 15.7991 23.4988 16.9229 23.7761C17.3394 23.8789 17.7181 23.876 18.0484 23.7676C18.5842 23.5917 18.9579 23.1357 19.0481 22.548C19.1562 21.8432 18.8326 21.1253 18.2034 20.6746C17.3767 20.0822 15.98 19.811 15.1535 20.0823Z" fill="#2CBC67"/>
<path d="M23.0281 26.7665L22.8521 26.8242C22.7084 26.8714 22.5537 26.7932 22.5065 26.6495C22.4594 26.5058 22.5376 26.3511 22.6813 26.3039L22.8573 26.2462C23.001 26.199 23.1557 26.2772 23.2029 26.4209C23.25 26.5646 23.1718 26.7193 23.0281 26.7665Z" fill="#2CBC67"/>
<path d="M21.6541 27.2175C21.5104 27.2647 21.3557 27.1864 21.3086 27.0428L19.0133 20.0508C18.9661 19.9071 19.0443 19.7524 19.188 19.7052C19.3317 19.6581 19.4864 19.7363 19.5336 19.88L21.8289 26.8719C21.876 27.0156 21.7978 27.1703 21.6541 27.2175Z" fill="#2CBC67"/>
<path d="M20.7661 24.5123C20.7262 24.5254 20.6812 24.5233 20.6407 24.5029L17.7627 23.0474C17.6817 23.0065 17.6493 22.9076 17.6902 22.8267C17.7312 22.7457 17.83 22.7133 17.911 22.7542L20.789 24.2096C20.87 24.2506 20.9024 24.3494 20.8615 24.4304C20.841 24.4709 20.806 24.4992 20.7661 24.5123Z" fill="#2CBC67"/>
<path d="M296.395 14.8699L295.504 14.6836L294.355 13.902L293.507 12.4864L293.168 10.6372L293.64 9.00332L294.64 7.89081L295.835 7.57955L296.552 7.91962L297.027 7.13186L298.469 5.58713L300.152 4.46055L301.601 3.89837L303.342 3.64407L305.093 3.79904L306.03 4.24375L306.771 5.10196L307.191 6.28071L307.28 7.94398L306.888 10.1222L306.012 11.9691L305.502 13.0442L304.531 14.3063L303.416 15.1618L303.132 15.2632L303.545 15.4594L304.62 15.9695L304.84 16.7156L304.584 17.5398L304.114 18.5322L303.379 19.2981L302.542 19.7794L301.492 19.7874L300.903 19.6767L300.109 18.9288L299.577 18.271L299.785 17.1202L300.851 15.5867L299.985 15.5602L298.662 14.9323L297.941 14.3876L297.102 14.7325L296.395 14.8699Z" fill="#2CBC67"/>
<path d="M300.754 19.8454C300.375 19.6658 300.046 19.3951 299.809 19.0575C299.447 18.5425 299.338 17.9275 299.502 17.3258C299.723 16.5163 300.209 15.888 300.909 15.5088C301.02 15.4485 301.159 15.4899 301.219 15.601C301.28 15.7121 301.238 15.851 301.127 15.9112C300.532 16.2339 300.133 16.7504 299.944 17.4461C299.816 17.9141 299.901 18.3929 300.183 18.7946C300.515 19.2673 301.074 19.5786 301.677 19.6271C302.377 19.6832 303.174 19.2652 303.81 18.5089C304.401 17.8065 304.707 16.9815 304.572 16.456C304.468 16.0503 303.809 15.6861 303.007 15.5899C302.881 15.5749 302.791 15.461 302.807 15.3354C302.822 15.21 302.936 15.1204 303.061 15.1355C304.076 15.257 304.861 15.7419 305.015 16.3419C305.188 17.0143 304.853 17.9806 304.16 18.8036C303.429 19.6728 302.487 20.1512 301.64 20.0833C301.33 20.0582 301.029 19.9759 300.754 19.8454V19.8454Z" fill="#2CBC67"/>
<path d="M296.751 19.4575C296.698 19.4324 296.654 19.3871 296.633 19.3276C296.591 19.2085 296.653 19.0776 296.772 19.0352L300.809 17.5962C300.928 17.5538 301.059 17.6159 301.102 17.735C301.144 17.854 301.082 17.9849 300.963 18.0274L296.925 19.4663C296.866 19.4875 296.803 19.4826 296.751 19.4575Z" fill="#2CBC67"/>
<path d="M299.206 15.4569C298.697 15.2155 298.212 14.886 297.769 14.4717C297.676 14.3854 297.671 14.2406 297.758 14.1482C297.844 14.0559 297.989 14.0511 298.081 14.1372C299.528 15.4888 301.372 15.8567 303.016 15.1214C304.902 14.2775 306.703 11.2105 307.031 8.2847C307.228 6.52315 306.836 5.17797 305.928 4.49687C305.03 3.82398 303.583 3.67443 301.958 4.08638C299.63 4.6762 297.581 6.24267 296.738 8.07715C296.685 8.19198 296.549 8.24226 296.434 8.1894C296.433 8.18901 296.432 8.18859 296.432 8.1882C296.319 8.13457 296.269 7.99987 296.322 7.88586C297.221 5.93068 299.389 4.26515 301.845 3.64267C303.605 3.19663 305.193 3.37461 306.202 4.13064C307.245 4.91293 307.701 6.40627 307.485 8.33553C307.327 9.75379 306.8 11.3255 306.04 12.6478C305.231 14.0556 304.224 15.0824 303.203 15.5392C301.921 16.1127 300.489 16.0656 299.206 15.4569V15.4569Z" fill="#2CBC67"/>
<path d="M295.285 14.9112C294.768 14.6663 294.32 14.2495 293.951 13.6725C293.003 12.1895 292.766 10.5483 293.301 9.16975C293.65 8.26819 294.29 7.61414 295.012 7.42023C295.407 7.31418 295.838 7.36974 296.292 7.5854C297.521 8.16865 298.761 9.89706 299.056 11.4383C299.291 12.6675 298.863 13.8744 297.941 14.5882C297.146 15.2026 296.153 15.3234 295.285 14.9112ZM296.096 7.99887C295.742 7.83114 295.418 7.78521 295.131 7.86221C294.558 8.01611 294.02 8.58053 293.727 9.33516C293.246 10.5762 293.468 12.0673 294.336 13.426C294.658 13.9295 295.043 14.2901 295.481 14.4976C296.19 14.8344 297.005 14.7328 297.661 14.2261C298.446 13.6184 298.809 12.5831 298.606 11.5242C298.34 10.1327 297.191 8.51832 296.096 7.99887Z" fill="#2CBC67"/>
<path d="M297.629 22.3048L297.396 22.1942C297.206 22.1039 297.125 21.8764 297.215 21.6861C297.305 21.4958 297.533 21.4147 297.723 21.505L297.956 21.6156C298.146 21.7059 298.228 21.9334 298.137 22.1237C298.047 22.314 297.819 22.3951 297.629 22.3048Z" fill="#2CBC67"/>
<path d="M295.809 21.4412C295.619 21.3509 295.538 21.1234 295.628 20.9331L300.023 11.6719C300.113 11.4815 300.34 11.4005 300.531 11.4908C300.721 11.5811 300.802 11.8085 300.712 11.9988L296.317 21.2601C296.227 21.4504 296 21.5315 295.809 21.4412Z" fill="#2CBC67"/>
<path d="M297.509 17.8579C297.457 17.8328 297.413 17.7875 297.392 17.728L295.884 13.4963C295.841 13.3772 295.903 13.2464 296.022 13.2039C296.142 13.1615 296.272 13.2236 296.315 13.3426L297.823 17.5743C297.866 17.6934 297.803 17.8243 297.684 17.8668C297.625 17.8879 297.562 17.883 297.509 17.8579Z" fill="#2CBC67"/>
<path fill-rule="evenodd" clip-rule="evenodd" d="M0 28.8502V248.149C10.2894 251.304 21.2001 253 32.5 253C94.632 253 145 201.736 145 138.5C145 75.2632 94.632 23.9998 32.5 23.9998C21.2001 23.9998 10.2894 25.6953 0 28.8502Z" fill="#2CBC67"/>
<path fill-rule="evenodd" clip-rule="evenodd" d="M0 59.5271V325.472C19.0272 330.99 39.5714 334 61 334C159.307 334 239 270.648 239 192.5C239 114.351 159.307 50.9998 61 50.9998C39.5714 50.9998 19.0272 54.0098 0 59.5271Z" fill="white"/>
<path fill-rule="evenodd" clip-rule="evenodd" d="M320 59.608C309.158 49.2001 296.311 41.0457 282.178 35.7425C227.23 21.5252 168.877 60.369 151.843 126.203C134.809 192.038 165.544 256.932 220.493 271.15C256.356 280.429 293.67 265.827 320 236.26V59.608Z" fill="white"/>
<path d="M204.478 38.382C205.023 39.6319 206.213 42.9356 206.612 46.1511C207.011 49.3666 206.566 48.9206 206.294 48.2956" stroke="white" stroke-linecap="round" stroke-linejoin="round"/>
<path d="M201.4 41.4007C202.275 42.4459 204.349 45.2793 205.64 48.2512C206.931 51.2232 206.378 50.921 205.94 50.3984" stroke="white" stroke-linecap="round" stroke-linejoin="round"/>
<path d="M128.74 52.382C128.195 53.6319 127.006 56.9356 126.606 60.1511C126.207 63.3666 126.652 62.9206 126.925 62.2956" stroke="white" stroke-linecap="round" stroke-linejoin="round"/>
<path d="M131.819 55.4007C130.943 56.4459 128.869 59.2793 127.578 62.2512C126.287 65.2232 126.84 64.921 127.278 64.3984" stroke="white" stroke-linecap="round" stroke-linejoin="round"/>
<path d="M58.2491 46.968L57.3642 47.1816L55.9912 46.968L54.6181 46.0527L53.5197 44.527L53.2451 42.8489L53.6722 41.4148L54.6181 40.6215H55.4114L55.503 39.7061L56.1437 37.6923L57.1811 35.9531L58.2491 34.8241L59.7137 33.8477L61.3613 33.2375H62.3987L63.4362 33.6952L64.321 34.58L65.1143 36.0446L65.6941 38.1805V40.2248V41.4148L65.3584 42.9709L64.7177 44.2219L64.5041 44.4355H64.9618H66.1518L66.6705 45.0152L66.7925 45.8696V46.968L66.4569 47.9749L65.9077 48.7683L64.9618 49.2259L64.382 49.3785L63.3446 49.0429L62.5818 48.6767L62.2767 47.5478L62.5818 45.7056L61.7885 46.0527H60.3239L59.4391 45.8696L58.8288 46.5409L58.2491 46.968Z" fill="white"/>
<path d="M64.32 49.5946C63.9011 49.5946 63.4875 49.4913 63.1286 49.2879C62.5811 48.9776 62.2191 48.4687 62.1093 47.8548C61.9615 47.029 62.1317 46.2528 62.6014 45.6101C62.676 45.508 62.8192 45.4859 62.9212 45.5604C63.0232 45.635 63.0455 45.7782 62.9709 45.8802C62.5711 46.4272 62.4328 47.0644 62.5598 47.7742C62.6452 48.2517 62.9273 48.6478 63.3542 48.8898C63.8568 49.1746 64.4947 49.2165 65.0605 49.0017C65.7166 48.7525 66.2579 48.033 66.5085 47.077C66.7412 46.1892 66.664 45.3126 66.3164 44.8958C66.0484 44.574 65.2975 44.5272 64.531 44.7843C64.4113 44.8245 64.2815 44.76 64.2413 44.6402C64.2011 44.5204 64.2657 44.3906 64.3854 44.3504C65.3542 44.0254 66.2715 44.1268 66.668 44.6028C67.1127 45.136 67.2239 46.1528 66.9512 47.1931C66.6632 48.2918 66.0171 49.1279 65.2229 49.4296C64.9319 49.54 64.6245 49.5946 64.32 49.5946V49.5946Z" fill="white"/>
<path d="M60.5369 50.9603C60.4784 50.9603 60.4198 50.9379 60.3751 50.8933C60.2858 50.8039 60.2858 50.659 60.3751 50.5696L63.4058 47.5389C63.4952 47.4495 63.6401 47.4495 63.7295 47.5389C63.8189 47.6283 63.8189 47.7731 63.7295 47.8625L60.6988 50.8933C60.6541 50.9379 60.5955 50.9603 60.5369 50.9603Z" fill="white"/>
<path d="M61.0405 46.2932C60.4773 46.2933 59.8978 46.2035 59.3195 46.0193C59.199 45.9809 59.1326 45.8522 59.1709 45.7318C59.2093 45.6113 59.3382 45.5449 59.4584 45.5832C61.3447 46.1842 63.1691 45.7258 64.3386 44.357C65.6813 42.7858 65.9938 39.2429 65.0352 36.4592C64.458 34.7833 63.5274 33.7359 62.4148 33.51C61.3154 33.2868 59.9442 33.7719 58.6524 34.8408C56.8025 36.3714 55.6228 38.665 55.6469 40.684C55.6484 40.8104 55.5472 40.9141 55.4208 40.9156C55.4199 40.9156 55.4189 40.9156 55.418 40.9156C55.2929 40.9156 55.1908 40.8149 55.1892 40.6895C55.1635 38.5375 56.4084 36.1034 58.3606 34.4881C59.7595 33.3307 61.2705 32.8108 62.5058 33.0614C63.7838 33.3209 64.8358 34.4747 65.4679 36.3102C65.9326 37.6595 66.1304 39.3054 66.0108 40.8256C65.8834 42.4443 65.4131 43.804 64.6865 44.6544C63.7744 45.7219 62.4606 46.2932 61.0405 46.2932V46.2932Z" fill="white"/>
<path d="M57.2636 47.4813C56.6922 47.4813 56.1081 47.2972 55.5277 46.9339C54.0358 46.0003 53.1182 44.6191 53.0102 43.1445C52.9395 42.1801 53.2371 41.315 53.8063 40.8303C54.1175 40.5652 54.5304 40.4308 55.0335 40.4308C56.3941 40.4308 58.2551 41.4609 59.1819 42.7271C59.9212 43.7369 60.0526 45.0104 59.5248 46.0508C59.0704 46.9466 58.2251 47.4813 57.2636 47.4813ZM55.0334 40.8885C54.6421 40.8885 54.3291 40.9862 54.1029 41.1788C53.6513 41.5634 53.4075 42.3038 53.4665 43.111C53.5638 44.4386 54.4035 45.6906 55.7704 46.5459C56.277 46.8628 56.7793 47.0236 57.2636 47.0236C58.0491 47.0236 58.7418 46.5825 59.1166 45.8438C59.5659 44.958 59.4494 43.8673 58.8125 42.9974C57.9758 41.8543 56.2452 40.8885 55.0334 40.8885Z" fill="white"/>
<path d="M62.5513 53.1561H62.2932C62.0826 53.1561 61.9118 52.9853 61.9118 52.7747C61.9118 52.564 62.0826 52.3932 62.2932 52.3932H62.5513C62.7619 52.3932 62.9327 52.564 62.9327 52.7747C62.9327 52.9853 62.7619 53.1561 62.5513 53.1561Z" fill="white"/>
<path d="M60.537 53.1559C60.3263 53.1559 60.1556 52.9851 60.1556 52.7745V42.5236C60.1556 42.313 60.3263 42.1422 60.537 42.1422C60.7476 42.1422 60.9184 42.313 60.9184 42.5236V52.7745C60.9184 52.9851 60.7476 53.1559 60.537 53.1559Z" fill="white"/>
<path d="M60.5369 49.1898C60.4784 49.1898 60.4198 49.1675 60.375 49.1228L57.1984 45.9462C57.1091 45.8568 57.1091 45.7119 57.1984 45.6225C57.2878 45.5331 57.4327 45.5331 57.5221 45.6225L60.6987 48.7991C60.7881 48.8885 60.7881 49.0334 60.6987 49.1228C60.654 49.1675 60.5954 49.1898 60.5369 49.1898Z" fill="white"/>
<path d="M234.433 30.6404L235.341 30.7136L236.664 30.289L237.877 29.171L238.725 27.4931L238.735 25.7926L238.09 24.4425L237.032 23.806L236.249 23.9295L236.016 23.0395L235.069 21.15L233.774 19.5934L232.543 18.6445L230.944 17.9079L229.222 17.5615L228.197 17.723L227.244 18.3366L226.507 19.3484L225.952 20.9186L225.711 23.1186L226.029 25.138L226.215 26.3135L226.788 27.7985L227.616 28.9345L227.86 29.1122L227.408 29.1835L226.233 29.3687L225.811 30.0221L225.823 30.885L225.994 31.9701L226.482 32.9125L227.148 33.6106L228.154 33.9155L228.75 33.976L229.723 33.483L230.419 33.0026L230.545 31.8399L229.957 30.0677L230.794 30.287L232.241 30.0591L233.087 29.7405L233.794 30.3086L234.433 30.6404Z" fill="white"/>
<path d="M228.845 34.1799C229.259 34.1147 229.651 33.9483 229.974 33.6915C230.467 33.2997 230.745 32.7406 230.758 32.1171C230.775 31.2784 230.487 30.5381 229.922 29.9764C229.833 29.8872 229.688 29.8876 229.599 29.9771C229.51 30.0667 229.51 30.2115 229.6 30.3007C230.08 30.7788 230.315 31.3868 230.3 32.1077C230.29 32.5926 230.073 33.0279 229.689 33.3333C229.237 33.6929 228.614 33.8335 228.021 33.7094C227.334 33.5654 226.688 32.9389 226.291 32.0335C225.923 31.1927 225.863 30.3148 226.142 29.849C226.356 29.4894 227.091 29.3263 227.888 29.461C228.012 29.4821 228.131 29.3982 228.152 29.2735C228.173 29.1489 228.089 29.0308 227.964 29.0098C226.957 28.8394 226.066 29.0824 225.749 29.6143C225.392 30.2102 225.441 31.2319 225.872 32.2171C226.328 33.2576 227.096 33.983 227.927 34.1573C228.232 34.2211 228.544 34.2273 228.845 34.1799V34.1799Z" fill="white"/>
<path d="M232.795 34.9401C232.852 34.931 232.907 34.8998 232.944 34.8487C233.018 34.7465 232.996 34.6034 232.894 34.529L229.428 32.0069C229.326 31.9325 229.183 31.9551 229.108 32.0572C229.034 32.1595 229.057 32.3026 229.159 32.377L232.624 34.8991C232.675 34.9362 232.737 34.9492 232.795 34.9401Z" fill="white"/>
<path d="M231.571 30.4083C232.127 30.3207 232.686 30.1418 233.228 29.8699C233.341 29.8132 233.387 29.6757 233.33 29.5627C233.274 29.4497 233.136 29.4041 233.023 29.4607C231.253 30.3479 229.38 30.1791 228.012 29.009C226.441 27.6659 225.581 24.2148 226.094 21.3159C226.404 19.5705 227.16 18.3911 228.224 17.9947C229.275 17.6032 230.705 17.8689 232.147 18.7238C234.213 19.9478 235.735 22.0298 236.026 24.028C236.044 24.1531 236.16 24.2398 236.285 24.2215C236.286 24.2214 236.287 24.2212 236.288 24.2211C236.411 24.2016 236.497 24.0863 236.479 23.9621C236.169 21.8325 234.561 19.6217 232.381 18.33C230.819 17.4043 229.245 17.1259 228.064 17.5658C226.842 18.021 225.982 19.3245 225.644 21.236C225.395 22.6412 225.455 24.2978 225.81 25.7809C226.188 27.36 226.864 28.63 227.714 29.3569C228.781 30.2695 230.168 30.6293 231.571 30.4083V30.4083Z" fill="white"/>
<path d="M235.487 30.9941C236.051 30.9051 236.599 30.6323 237.116 30.1831C238.444 29.0287 239.136 27.5216 239.013 26.0481C238.933 25.0845 238.504 24.2762 237.867 23.886C237.518 23.6726 237.089 23.6041 236.592 23.6824C235.248 23.8942 233.57 25.2013 232.852 26.5963C232.279 27.7088 232.347 28.9873 233.03 29.9329C233.619 30.747 234.537 31.1437 235.487 30.9941ZM236.663 24.1345C237.05 24.0736 237.374 24.1214 237.628 24.2764C238.134 24.586 238.49 25.2795 238.557 26.0861C238.668 27.4126 238.033 28.78 236.816 29.8376C236.365 30.2296 235.894 30.4665 235.415 30.5419C234.639 30.6641 233.886 30.3362 233.401 29.6649C232.82 28.8598 232.765 27.7643 233.259 26.8059C233.907 25.5464 235.466 24.3231 236.663 24.1345Z" fill="white"/>
<path d="M231.147 37.4226L231.401 37.3825C231.61 37.3497 231.752 37.1544 231.719 36.9463C231.686 36.7382 231.491 36.5962 231.283 36.6289L231.028 36.6691C230.82 36.7019 230.678 36.8971 230.71 37.1052C230.743 37.3133 230.938 37.4554 231.147 37.4226Z" fill="white"/>
<path d="M233.136 37.1089C233.344 37.0761 233.486 36.8809 233.454 36.6728L231.858 26.5469C231.825 26.3388 231.63 26.1967 231.422 26.2295C231.214 26.2623 231.072 26.4575 231.105 26.6656L232.7 36.7915C232.733 36.9996 232.928 37.1417 233.136 37.1089Z" fill="white"/>
<path d="M232.519 33.1912C232.577 33.1821 232.631 33.1509 232.668 33.0998L235.312 29.4675C235.386 29.3653 235.364 29.2222 235.262 29.1478C235.159 29.0734 235.016 29.096 234.942 29.1982L232.298 32.8305C232.224 32.9327 232.247 33.0758 232.349 33.1502C232.4 33.1874 232.461 33.2003 232.519 33.1912Z" fill="white"/>
<path fill-rule="evenodd" clip-rule="evenodd" d="M320 74.9238V309.872C293.629 318.136 261.376 322 224.5 322C118.737 322 33 260.215 33 184C33 107.785 118.737 46 224.5 46C261.376 46 293.629 57.1581 320 74.9238Z" fill="#8ABCE4"/>
<path fill-rule="evenodd" clip-rule="evenodd" d="M0 314.898C12.3647 319.499 25.6575 322 39.5 322C105.498 322 159 265.14 159 195C159 124.86 105.498 68 39.5 68C25.6575 68 12.3647 70.5013 0 75.1019V314.898Z" fill="#8ABCE4"/>
<rect y="166" width="320" height="269" fill="#8ABCE4"/>
<defs>
<filter id="filter0_d_171_79" x="-8" y="-8.99988" width="343" height="271" filterUnits="userSpaceOnUse" color-interpolation-filters="sRGB">
<feFlood flood-opacity="0" result="BackgroundImageFix"/>
<feColorMatrix in="SourceAlpha" type="matrix" values="0 0 0 0 0 0 0 0 0 0 0 0 0 0 0 0 0 0 127 0" result="hardAlpha"/>
<feOffset dx="-5" dy="4"/>
<feGaussianBlur stdDeviation="10"/>
<feComposite in2="hardAlpha" operator="out"/>
<feColorMatrix type="matrix" values="0 0 0 0 0 0 0 0 0 0 0 0 0 0 0 0 0 0 0.15 0"/>
<feBlend mode="normal" in2="BackgroundImageFix" result="effect1_dropShadow_171_79"/>
<feBlend mode="normal" in="SourceGraphic" in2="effect1_dropShadow_171_79" result="shape"/>
</filter>
</defs>
</svg>
