<svg width="768" height="470" viewBox="0 0 768 470" fill="none" xmlns="http://www.w3.org/2000/svg">
<path fill-rule="evenodd" clip-rule="evenodd" d="M0 224.926V59.1766C12.5245 50.2612 27.23 45.1267 42.9598 45.1267C88.689 45.1267 125.76 88.5214 125.76 142.051C125.76 195.582 88.689 238.976 42.9598 238.976C27.23 238.976 12.5245 233.842 0 224.926Z" fill="#C4E0F5"/>
<path d="M67.9577 46.2531L67.1278 46.1795L65.9992 45.5905L65.0756 44.3899L64.5684 42.7381L64.8204 41.1952L65.6098 40.0709L66.662 39.6572L67.3502 39.89L67.697 39.1192L68.841 37.5524L70.2489 36.3412L71.505 35.6709L73.0606 35.2498L74.668 35.2015L75.5679 35.506L76.334 36.2092L76.8431 37.24L77.1034 38.749L76.9824 40.7803L76.3852 42.5617L76.0376 43.5987L75.292 44.8562L74.3707 45.7583L74.1231 45.8818L74.5201 46.0161L75.5523 46.3653L75.8329 47.0227L75.6892 47.803L75.3683 48.7601L74.7831 49.5391L74.0749 50.0692L73.1208 50.1905L72.5734 50.1533L71.7715 49.5564L71.2168 49.0135L71.2819 47.9402L72.0847 46.4244L71.2952 46.4941L70.0248 46.0643L69.3108 45.6451L68.5853 46.051L67.9577 46.2531Z" fill="#C4E0F5"/>
<path d="M72.4555 50.3236C72.0922 50.2006 71.7636 49.9892 71.5117 49.7067C71.1274 49.2756 70.9621 48.7259 71.0462 48.1587C71.1592 47.3957 71.5335 46.7693 72.1287 46.3471C72.2233 46.28 72.3539 46.3027 72.4206 46.3977C72.4873 46.4926 72.4648 46.6239 72.3703 46.6909C71.8637 47.0502 71.5576 47.5649 71.4605 48.2207C71.3951 48.6618 71.5241 49.0898 71.8237 49.426C72.1765 49.8216 72.7175 50.0453 73.271 50.0242C73.9129 49.9995 74.5926 49.5314 75.0892 48.7719C75.5504 48.0665 75.7395 47.28 75.5598 46.8148C75.4213 46.4558 74.7837 46.1946 74.0437 46.1938C73.928 46.1936 73.8344 46.0994 73.8345 45.9831C73.8346 45.8669 73.9285 45.7728 74.0441 45.7729C74.9794 45.7739 75.7454 46.1315 75.9503 46.6626C76.1803 47.2578 75.9797 48.1765 75.4394 49.003C74.8686 49.8759 74.0639 50.4149 73.287 50.4447C73.0022 50.4555 72.7197 50.4129 72.4555 50.3236Z" fill="#C4E0F5"/>
<path d="M68.7752 50.4033C68.7245 50.3862 68.6802 50.3495 68.6544 50.2975C68.603 50.1933 68.6454 50.0671 68.749 50.0154L72.2631 48.2638C72.3668 48.2122 72.4924 48.2547 72.5439 48.3588C72.5953 48.4629 72.5529 48.5891 72.4493 48.6408L68.9352 50.3925C68.8833 50.4183 68.826 50.4205 68.7752 50.4033Z" fill="#C4E0F5"/>
<path d="M70.5745 46.4843C70.086 46.3191 69.6095 46.0708 69.1617 45.7405C69.0684 45.6717 69.0484 45.5401 69.1168 45.4464C69.1853 45.3527 69.3165 45.3326 69.4096 45.4013C70.8702 46.4785 72.5866 46.6145 74.0008 45.7649C75.6245 44.7897 76.9304 41.7941 76.912 39.0872C76.9009 37.4574 76.3997 36.2716 75.5006 35.7482C74.6122 35.2311 73.2811 35.2515 71.8483 35.8038C69.7967 36.5947 68.1034 38.2472 67.5346 40.0137C67.499 40.1242 67.3809 40.1849 67.2708 40.1491C67.27 40.1488 67.2692 40.1485 67.2684 40.1483C67.1599 40.1115 67.1006 39.9939 67.136 39.8841C67.7423 38.0014 69.5331 36.2456 71.6982 35.4109C73.2497 34.8128 74.7122 34.8031 75.7105 35.3841C76.7433 35.9852 77.3187 37.2993 77.3309 39.0843C77.3398 40.3964 77.0307 41.8887 76.4829 43.1783C75.8996 44.5515 75.0944 45.5983 74.2158 46.1261C73.1128 46.7887 71.8063 46.9009 70.5745 46.4843Z" fill="#C4E0F5"/>
<path d="M66.9514 46.4113C66.4557 46.2436 66.0029 45.9118 65.6055 45.4249C64.5842 44.1736 64.1917 42.7008 64.5287 41.384C64.7491 40.5229 65.26 39.8564 65.8952 39.6011C66.2427 39.4614 66.64 39.4655 67.0764 39.6131C68.2566 40.0124 69.5699 41.4561 70.004 42.8314C70.3503 43.9283 70.0923 45.0766 69.3306 45.8284C68.6748 46.4755 67.7854 46.6935 66.9514 46.4113ZM66.9426 40.0119C66.6032 39.8971 66.3032 39.8904 66.0507 39.9918C65.5466 40.1944 65.1189 40.7681 64.9343 41.4888C64.6309 42.6742 64.9936 44.0116 65.9294 45.158C66.2762 45.5829 66.665 45.8703 67.085 46.0124C67.7664 46.243 68.4961 46.0619 69.0369 45.5281C69.6854 44.8881 69.903 43.9035 69.6047 42.9586C69.2128 41.7169 67.9937 40.3675 66.9426 40.0119Z" fill="#C4E0F5"/>
<path d="M69.8807 52.9075L69.6568 52.8318C69.4741 52.77 69.3759 52.5711 69.4374 52.3875C69.499 52.204 69.6969 52.1053 69.8797 52.1671L70.1035 52.2428C70.2862 52.3046 70.3845 52.5035 70.3229 52.6871C70.2614 52.8707 70.0634 52.9694 69.8807 52.9075Z" fill="#C4E0F5"/>
<path d="M68.1337 52.3167C67.951 52.2549 67.8528 52.056 67.9143 51.8724L70.9086 42.9398C70.9701 42.7562 71.1681 42.6575 71.3509 42.7193C71.5336 42.7812 71.6318 42.9801 71.5703 43.1636L68.576 52.0962C68.5144 52.2798 68.3164 52.3785 68.1337 52.3167Z" fill="#C4E0F5"/>
<path d="M69.2917 48.8611C69.241 48.8439 69.1967 48.8073 69.1709 48.7552L67.3434 45.0549C67.292 44.9508 67.3344 44.8246 67.438 44.7729C67.5416 44.7213 67.6673 44.7638 67.7187 44.8679L69.5462 48.5682C69.5976 48.6723 69.5553 48.7985 69.4517 48.8502C69.3998 48.876 69.3425 48.8783 69.2917 48.8611Z" fill="#C4E0F5"/>
<ellipse cx="49.9292" cy="67.4974" rx="49.9292" ry="67.4974" transform="matrix(0.979636 0.200782 -0.199017 0.979996 103.186 23.6282)" fill="#C4E0F5"/>
<ellipse cx="49.9292" cy="67.4974" rx="49.9292" ry="67.4974" transform="matrix(0.979636 0.200782 -0.199017 0.979996 562.066 7.71533)" fill="#C4E0F5"/>
<path d="M602.632 13.5555L601.844 13.8279L600.575 13.7517L599.245 13.0332L598.112 11.7321L597.716 10.2198L597.981 8.87L598.775 8.06161L599.498 7.99266L599.502 7.14681L599.911 5.24774L600.706 3.56556L601.582 2.43933L602.832 1.41828L604.28 0.716481L605.225 0.626318L606.21 0.955106L607.093 1.68817L607.943 2.95987L608.656 4.86458L608.832 6.7359L608.935 7.82517L608.764 9.27877L608.289 10.4796L608.112 10.6937L608.529 10.6539L609.614 10.5505L610.137 11.0361L610.322 11.8075L610.417 12.813L610.198 13.7638L609.766 14.5377L608.944 15.0389L608.429 15.2289L607.455 15.0119L606.728 14.743L606.352 13.7361L606.471 12.0233L605.778 12.41L604.443 12.5373L603.621 12.4466L603.123 13.1141L602.632 13.5555Z" fill="#C4E0F5"/>
<path d="M608.39 15.4319C608.009 15.4683 607.623 15.4096 607.278 15.2547C606.753 15.0182 606.379 14.5838 606.226 14.0314C606.019 13.2883 606.107 12.563 606.48 11.9339C606.539 11.834 606.667 11.8012 606.767 11.8606C606.866 11.92 606.899 12.0491 606.84 12.149C606.523 12.6845 606.452 13.2798 606.629 13.9185C606.748 14.3481 607.04 14.6862 607.449 14.8706C607.932 15.0876 608.517 15.0705 609.014 14.8248C609.59 14.5396 610.021 13.834 610.167 12.9371C610.302 12.1042 610.156 11.3085 609.803 10.9572C609.531 10.6859 608.843 10.7083 608.167 11.0103C608.061 11.0575 607.937 11.0098 607.89 10.9035C607.843 10.7974 607.891 10.673 607.996 10.6258C608.851 10.244 609.695 10.2571 610.098 10.6584C610.549 11.1078 610.739 12.0289 610.58 13.0049C610.413 14.0357 609.896 14.8571 609.199 15.2023C608.943 15.3286 608.668 15.4054 608.39 15.4319Z" fill="#C4E0F5"/>
<path d="M605.062 17.0109C605.008 17.016 604.953 17.0007 604.908 16.9637C604.819 16.8896 604.807 16.757 604.88 16.6674L607.38 13.6298C607.453 13.5402 607.585 13.5276 607.675 13.6016C607.764 13.6757 607.776 13.8083 607.703 13.8979L605.203 16.9355C605.166 16.9803 605.115 17.0059 605.062 17.0109Z" fill="#C4E0F5"/>
<path d="M605.117 12.6951C604.604 12.7441 604.068 12.7123 603.525 12.5939C603.412 12.5692 603.34 12.4572 603.365 12.3437C603.389 12.2301 603.501 12.158 603.614 12.1827C605.384 12.5688 607.007 11.9907 607.954 10.6361C609.042 9.08113 609.02 5.8109 607.906 3.34616C607.235 1.86223 606.296 0.984389 605.263 0.874236C604.242 0.765502 603.035 1.32871 601.95 2.41943C600.397 3.98123 599.52 6.18326 599.717 8.02935C599.729 8.1449 599.646 8.24861 599.531 8.26093C599.53 8.26101 599.529 8.2611 599.528 8.26118C599.414 8.27205 599.313 8.18882 599.3 8.0741C599.091 6.10654 600.014 3.7702 601.654 2.12198C602.828 0.940895 604.16 0.333646 605.307 0.455757C606.494 0.582198 607.552 1.54692 608.287 3.17214C608.827 4.36688 609.15 5.85623 609.172 7.25821C609.196 8.75097 608.886 10.0365 608.297 10.878C607.558 11.9345 606.411 12.5716 605.117 12.6951Z" fill="#C4E0F5"/>
<path d="M601.778 14.1108C601.257 14.1605 600.709 14.0427 600.149 13.7606C598.709 13.0357 597.753 11.8512 597.527 10.5107C597.379 9.63407 597.576 8.81627 598.052 8.32317C598.313 8.05346 598.678 7.89458 599.136 7.85085C600.376 7.7326 602.161 8.51378 603.115 9.59221C603.876 10.4523 604.106 11.6067 603.715 12.6049C603.378 13.4643 602.654 14.0273 601.778 14.1108ZM599.176 8.26981C598.819 8.30382 598.542 8.42046 598.353 8.61635C597.975 9.00769 597.817 9.70663 597.94 10.4404C598.144 11.6471 599.017 12.7202 600.337 13.3843C600.826 13.6304 601.297 13.7339 601.738 13.6918C602.454 13.6235 603.047 13.1596 603.325 12.4508C603.658 11.601 603.457 10.6127 602.802 9.87177C601.94 8.89813 600.28 8.16449 599.176 8.26981Z" fill="#C4E0F5"/>
<path d="M607.087 18.8458L606.852 18.8682C606.66 18.8865 606.489 18.7451 606.471 18.5523C606.453 18.3594 606.594 18.1883 606.786 18.17L607.021 18.1475C607.213 18.1292 607.383 18.2707 607.401 18.4635C607.419 18.6564 607.279 18.8275 607.087 18.8458Z" fill="#C4E0F5"/>
<path d="M605.252 19.0208C605.06 19.0391 604.89 18.8977 604.871 18.7049L603.985 9.32154C603.966 9.12871 604.107 8.95757 604.299 8.93926C604.491 8.92096 604.661 9.06241 604.68 9.25524L605.567 18.6386C605.585 18.8314 605.444 19.0025 605.252 19.0208Z" fill="#C4E0F5"/>
<path d="M604.909 15.3901C604.855 15.3952 604.8 15.3799 604.755 15.3429L601.586 12.7112C601.497 12.6371 601.484 12.5045 601.558 12.4149C601.632 12.3253 601.764 12.3127 601.853 12.3868L605.022 15.0185C605.111 15.0925 605.124 15.2251 605.05 15.3147C605.013 15.3595 604.962 15.3851 604.909 15.3901Z" fill="#C4E0F5"/>
<path fill-rule="evenodd" clip-rule="evenodd" d="M768 59.2198V173.796C748.571 189.588 721.005 196.767 692.738 190.974C645.497 181.291 614.186 139.042 622.804 96.6064C631.421 54.1711 676.704 27.6197 723.945 37.302C741.12 40.8221 756.189 48.6467 768 59.2198Z" fill="#C4E0F5"/>
<path d="M716.16 27.0039C716.96 28.2898 718.8 31.7296 719.76 35.2015C720.72 38.6735 720.16 38.2555 719.76 37.6126" stroke="#C4E0F5" stroke-width="0.96" stroke-linecap="round" stroke-linejoin="round"/>
<path d="M713.28 30.8274C714.409 31.8341 717.141 34.612 719.038 37.6704C720.934 40.7288 720.28 40.4867 719.715 39.9834" stroke="#C4E0F5" stroke-width="0.96" stroke-linecap="round" stroke-linejoin="round"/>
<ellipse cx="117.02" cy="67.5079" rx="117.02" ry="67.5079" transform="matrix(0.996925 -0.0783581 0.0776449 0.996981 132.96 62.22)" fill="#C4E0F5"/>
<path d="M240.48 44.363C241.28 45.6489 243.12 49.0887 244.08 52.5607C245.04 56.0326 244.48 55.6147 244.08 54.9717" stroke="#C4E0F5" stroke-width="0.96" stroke-linecap="round" stroke-linejoin="round"/>
<path d="M237.6 48.1868C238.729 49.1934 241.461 51.9714 243.358 55.0298C245.254 58.0881 244.6 57.8461 244.035 57.3427" stroke="#C4E0F5" stroke-width="0.96" stroke-linecap="round" stroke-linejoin="round"/>
<path d="M41.6582 35.4355C41.3844 36.9268 40.9312 40.8051 41.3081 44.3886C41.685 47.972 42.053 47.3766 42.1899 46.631" stroke="#C4E0F5" stroke-width="0.96" stroke-linecap="round" stroke-linejoin="round"/>
<path d="M45.7354 37.9282C45.0536 39.2812 43.5288 42.8731 42.8833 46.4177C42.2378 49.9623 42.7581 49.4955 43.099 48.819" stroke="#C4E0F5" stroke-width="0.96" stroke-linecap="round" stroke-linejoin="round"/>
<ellipse cx="117.02" cy="67.5079" rx="117.02" ry="67.5079" transform="matrix(0.996925 -0.0783581 0.0776449 0.996981 405.12 73.7932)" fill="#C4E0F5"/>
<ellipse cx="42.6485" cy="34.0215" rx="42.6485" ry="34.0215" transform="matrix(0.883582 0.468276 -0.464918 0.885354 301.395 23.6282)" fill="#C4E0F5"/>
<ellipse cx="42.6485" cy="34.0215" rx="42.6485" ry="34.0215" transform="matrix(-0.883582 0.468276 0.464918 0.885354 480.487 23.6282)" fill="#C4E0F5"/>
<ellipse cx="79.871" cy="63.841" rx="79.871" ry="63.841" transform="matrix(0.99883 0.0483535 -0.0479117 0.998852 316.142 16.2173)" fill="#C4E0F5"/>
<g filter="url(#filter0_d_25_532)">
<ellipse cx="158.64" cy="127.3" rx="122.16" ry="62.6918" fill="#2CBC67"/>
<path d="M132.48 55.4541C133.28 56.74 135.12 60.1798 136.08 63.6517C137.04 67.1237 136.48 66.7057 136.08 66.0628" stroke="#2CBC67" stroke-width="0.96" stroke-linecap="round" stroke-linejoin="round"/>
<path d="M129.6 59.2778C130.728 60.2845 133.46 63.0624 135.357 66.1208C137.254 69.1792 136.599 68.9371 136.035 68.4338" stroke="#2CBC67" stroke-width="0.96" stroke-linecap="round" stroke-linejoin="round"/>
<ellipse cx="659.761" cy="123.16" rx="90" ry="34.8945" fill="#2CBC67"/>
<ellipse cx="444.001" cy="114.288" rx="103.68" ry="62.6918" fill="#2CBC67"/>
<path d="M431.52 41.47C432.32 42.7559 434.16 46.1957 435.12 49.6676C436.08 53.1395 435.52 52.7216 435.12 52.0787" stroke="#2CBC67" stroke-width="0.96" stroke-linecap="round" stroke-linejoin="round"/>
<path d="M428.64 45.2932C429.768 46.2999 432.5 49.0778 434.397 52.1362C436.294 55.1946 435.639 54.9525 435.075 54.4492" stroke="#2CBC67" stroke-width="0.96" stroke-linecap="round" stroke-linejoin="round"/>
<path d="M614.794 82.4568C614.658 83.9671 614.563 87.8709 615.268 91.4041C615.972 94.9373 616.284 94.3103 616.352 93.5552" stroke="#2CBC67" stroke-width="0.96" stroke-linecap="round" stroke-linejoin="round"/>
<path d="M619.083 84.561C618.528 85.9714 617.34 89.6894 617.023 93.2787C616.706 96.868 617.181 96.355 617.458 95.6498" stroke="#2CBC67" stroke-width="0.96" stroke-linecap="round" stroke-linejoin="round"/>
<ellipse cx="351.6" cy="137.059" rx="87.6" ry="52.9332" fill="#2CBC67"/>
<path d="M330.951 81.5472L330.164 81.8196L328.894 81.7434L327.564 81.0249L326.431 79.7238L326.036 78.2115L326.301 76.8617L327.094 76.0533L327.817 75.9844L327.821 75.1385L328.231 73.2394L329.025 71.5573L329.901 70.431L331.151 69.41L332.599 68.7082L333.545 68.618L334.53 68.9468L335.412 69.6799L336.262 70.9516L336.975 72.8563L337.152 74.7276L337.255 75.8169L337.084 77.2705L336.608 78.4713L336.432 78.6854L336.849 78.6456L337.933 78.5422L338.456 79.0278L338.641 79.7992L338.736 80.8047L338.517 81.7555L338.085 82.5294L337.263 83.0306L336.748 83.2206L335.774 83.0036L335.047 82.7347L334.671 81.7278L334.79 80.015L334.097 80.4017L332.763 80.529L331.941 80.4383L331.443 81.1058L330.951 81.5472Z" fill="#2CBC67"/>
<path d="M336.711 83.4238C336.329 83.4602 335.944 83.4016 335.599 83.2466C335.073 83.0101 334.699 82.5757 334.546 82.0233C334.34 81.2803 334.428 80.5549 334.801 79.9258C334.86 79.8259 334.988 79.7932 335.088 79.8526C335.187 79.912 335.22 80.0411 335.161 80.141C334.844 80.6764 334.773 81.2718 334.95 81.9104C335.069 82.3401 335.36 82.6782 335.77 82.8626C336.253 83.0796 336.838 83.0625 337.335 82.8167C337.911 82.5316 338.342 81.8259 338.487 80.929C338.623 80.0961 338.476 79.3004 338.124 78.9491C337.852 78.6779 337.163 78.7002 336.487 79.0022C336.382 79.0495 336.258 79.0017 336.211 78.8955C336.164 78.7893 336.211 78.665 336.317 78.6177C337.172 78.236 338.016 78.2491 338.419 78.6503C338.87 79.0998 339.059 80.0209 338.901 80.9968C338.734 82.0276 338.217 82.8491 337.52 83.1942C337.264 83.3206 336.989 83.3973 336.711 83.4238Z" fill="#2CBC67"/>
<path d="M333.381 85.0024C333.328 85.0075 333.273 84.9921 333.228 84.9551C333.139 84.8811 333.126 84.7484 333.2 84.6588L335.699 81.6212C335.773 81.5317 335.905 81.5191 335.994 81.5931C336.084 81.6671 336.096 81.7998 336.022 81.8894L333.523 84.927C333.486 84.9718 333.435 84.9973 333.381 85.0024Z" fill="#2CBC67"/>
<path d="M333.436 80.6865C332.923 80.7355 332.388 80.7037 331.845 80.5854C331.732 80.5607 331.66 80.4487 331.684 80.3351C331.709 80.2215 331.821 80.1495 331.934 80.1741C333.704 80.5603 335.327 79.9822 336.274 78.6276C337.362 77.0726 337.34 73.8024 336.226 71.3376C335.555 69.8537 334.616 68.9758 333.583 68.8657C332.562 68.757 331.354 69.3202 330.27 70.4109C328.717 71.9727 327.84 74.1747 328.037 76.0208C328.049 76.1364 327.966 76.2401 327.851 76.2524C327.85 76.2525 327.849 76.2526 327.848 76.2526C327.734 76.2635 327.632 76.1803 327.62 76.0656C327.411 74.098 328.334 71.7617 329.973 70.1134C331.148 68.9323 332.48 68.3251 333.627 68.4472C334.814 68.5737 335.872 69.5384 336.607 71.1636C337.147 72.3583 337.47 73.8477 337.492 75.2497C337.516 76.7424 337.205 78.028 336.617 78.8695C335.878 79.926 334.73 80.5631 333.436 80.6865Z" fill="#2CBC67"/>
<path d="M330.098 82.1023C329.578 82.1519 329.03 82.0341 328.469 81.752C327.029 81.0271 326.074 79.8426 325.848 78.5021C325.7 77.6255 325.896 76.8077 326.373 76.3146C326.633 76.0449 326.998 75.886 327.456 75.8423C328.696 75.7241 330.481 76.5052 331.435 77.5837C332.196 78.4437 332.426 79.5981 332.035 80.5963C331.698 81.4557 330.974 82.0187 330.098 82.1023ZM327.496 76.2613C327.139 76.2953 326.863 76.4119 326.673 76.6078C326.295 76.9991 326.137 77.6981 326.261 78.4319C326.464 79.6386 327.337 80.7116 328.657 81.3758C329.146 81.6219 329.618 81.7254 330.059 81.6833C330.775 81.615 331.368 81.151 331.645 80.4423C331.978 79.5924 331.777 78.6042 331.122 77.8632C330.26 76.8896 328.6 76.1559 327.496 76.2613Z" fill="#2CBC67"/>
<path d="M335.407 86.8373L335.172 86.8597C334.98 86.878 334.81 86.7365 334.791 86.5437C334.773 86.3509 334.914 86.1797 335.106 86.1614L335.341 86.139C335.533 86.1207 335.703 86.2622 335.721 86.455C335.74 86.6478 335.599 86.8189 335.407 86.8373Z" fill="#2CBC67"/>
<path d="M333.572 87.0123C333.38 87.0306 333.21 86.8891 333.191 86.6963L332.304 77.313C332.286 77.1202 332.427 76.949 332.619 76.9307C332.811 76.9124 332.981 77.0539 333 77.2467L333.886 86.63C333.905 86.8228 333.764 86.994 333.572 87.0123Z" fill="#2CBC67"/>
<path d="M333.228 83.3818C333.175 83.3869 333.119 83.3716 333.075 83.3346L329.905 80.7029C329.816 80.6288 329.804 80.4962 329.877 80.4066C329.951 80.317 330.083 80.3044 330.172 80.3785L333.342 83.0102C333.431 83.0842 333.443 83.2168 333.37 83.3064C333.333 83.3512 333.281 83.3768 333.228 83.3818Z" fill="#2CBC67"/>
</g>
<path fill-rule="evenodd" clip-rule="evenodd" d="M0 223.604V75.7927C31.5667 69.4174 69.5816 72.2557 108.38 87.6387C200.844 80.371 280.143 130.239 285.5 199.022C288.943 243.225 257.996 238.621 210.897 231.615C184.707 227.719 153.522 223.079 120.48 225.677C79.0275 228.935 35.6872 229.818 0 223.604Z" fill="#8ABCE4"/>
<ellipse cx="272.4" cy="159.131" rx="87.6" ry="86.3161" fill="#8ABCE4"/>
<path fill-rule="evenodd" clip-rule="evenodd" d="M768 75.7798V242.482C699.427 232.579 648.96 199.014 648.96 159.131C648.96 119.248 699.427 85.6823 768 75.7798Z" fill="#8ABCE4"/>
<ellipse cx="655.44" cy="184.688" rx="57.84" ry="86.3161" fill="#8ABCE4"/>
<path d="M664.8 199.154C664.8 258.809 584.319 243.035 485.04 243.035C385.762 243.035 305.28 258.809 305.28 199.154C305.28 139.499 385.762 91.1384 485.04 91.1384C584.319 91.1384 664.8 139.499 664.8 199.154Z" fill="#8ABCE4"/>
<path d="M455.054 85.8881L453.882 86.2935L451.993 86.1801L450.013 85.111L448.328 83.1752L447.74 80.9251L448.134 78.9167L449.314 77.7139L450.39 77.6113L450.396 76.3528L451.006 73.5272L452.188 71.0243L453.491 69.3486L455.351 67.8294L457.506 66.7852L458.912 66.651L460.378 67.1402L461.691 68.2309L462.955 70.1231L464.016 72.9571L464.279 75.7414L464.432 77.3621L464.178 79.5249L463.47 81.3116L463.208 81.6301L463.828 81.5709L465.442 81.417L466.22 82.1395L466.495 83.2873L466.636 84.7834L466.311 86.1981L465.668 87.3496L464.445 88.0953L463.679 88.378L462.229 88.0551L461.148 87.655L460.589 86.1569L460.765 83.6084L459.734 84.1837L457.749 84.3731L456.526 84.2382L455.785 85.2314L455.054 85.8881Z" fill="#8ABCE4"/>
<path d="M463.622 88.6807C463.054 88.7349 462.48 88.6477 461.967 88.4171C461.185 88.0653 460.629 87.4189 460.401 86.597C460.094 85.4914 460.225 84.4122 460.779 83.4762C460.867 83.3275 461.058 83.2788 461.206 83.3672C461.354 83.4555 461.403 83.6476 461.315 83.7963C460.843 84.5929 460.738 85.4787 461.001 86.429C461.179 87.0682 461.612 87.5713 462.222 87.8457C462.94 88.1686 463.81 88.1431 464.55 87.7775C465.407 87.3532 466.048 86.3033 466.265 84.9688C466.466 83.7295 466.249 82.5457 465.724 82.0229C465.319 81.6193 464.295 81.6526 463.289 82.102C463.132 82.1722 462.948 82.1012 462.878 81.9431C462.808 81.7852 462.878 81.6001 463.036 81.5299C464.307 80.9618 465.564 80.9814 466.163 81.5784C466.834 82.2471 467.116 83.6176 466.88 85.0697C466.631 86.6033 465.863 87.8256 464.825 88.3392C464.445 88.5272 464.035 88.6414 463.622 88.6807Z" fill="#8ABCE4"/>
<path d="M458.669 91.0298C458.59 91.0374 458.507 91.0146 458.441 90.9595C458.308 90.8493 458.29 90.652 458.399 90.5187L462.118 85.999C462.228 85.8658 462.424 85.8471 462.557 85.9572C462.689 86.0674 462.708 86.2647 462.598 86.398L458.88 90.9177C458.825 90.9843 458.748 91.0223 458.669 91.0298Z" fill="#8ABCE4"/>
<path d="M458.751 84.6084C457.988 84.6813 457.19 84.634 456.383 84.4578C456.215 84.4211 456.108 84.2544 456.144 84.0855C456.181 83.9165 456.347 83.8093 456.515 83.846C459.15 84.4205 461.564 83.5603 462.973 81.5449C464.591 79.2312 464.559 74.3655 462.901 70.6983C461.903 68.4904 460.506 67.1842 458.969 67.0203C457.45 66.8586 455.653 67.6965 454.039 69.3194C451.729 71.6432 450.425 74.9195 450.717 77.6663C450.735 77.8382 450.612 77.9926 450.44 78.0109C450.439 78.011 450.438 78.0111 450.437 78.0113C450.267 78.0274 450.116 77.9036 450.097 77.7329C449.785 74.8054 451.16 71.3292 453.598 68.8768C455.346 67.1195 457.328 66.216 459.035 66.3977C460.801 66.5858 462.375 68.0212 463.468 70.4394C464.272 72.217 464.752 74.433 464.786 76.519C464.821 78.74 464.359 80.6528 463.483 81.9048C462.384 83.4767 460.676 84.4247 458.751 84.6084Z" fill="#8ABCE4"/>
<path d="M453.784 86.7152C453.009 86.7891 452.194 86.6138 451.36 86.1941C449.217 85.1155 447.796 83.3531 447.459 81.3586C447.239 80.0543 447.532 78.8375 448.241 78.1039C448.629 77.7026 449.171 77.4662 449.853 77.4011C451.698 77.2252 454.353 78.3875 455.773 79.992C456.905 81.2717 457.247 82.9893 456.665 84.4745C456.165 85.7532 455.088 86.5909 453.784 86.7152ZM449.912 78.0245C449.381 78.0751 448.97 78.2486 448.688 78.5401C448.125 79.1223 447.89 80.1623 448.074 81.2541C448.377 83.0495 449.676 84.6461 451.639 85.6343C452.367 86.0004 453.069 86.1544 453.725 86.0918C454.79 85.9902 455.672 85.2999 456.085 84.2453C456.58 82.9808 456.282 81.5104 455.307 80.408C454.025 78.9593 451.555 77.8678 449.912 78.0245Z" fill="#8ABCE4"/>
<path d="M461.683 93.7599L461.334 93.7933C461.048 93.8205 460.794 93.6101 460.767 93.3232C460.74 93.0363 460.95 92.7816 461.235 92.7544L461.585 92.721C461.871 92.6938 462.124 92.9042 462.151 93.1912C462.178 93.4781 461.969 93.7327 461.683 93.7599Z" fill="#8ABCE4"/>
<path d="M458.952 94.0205C458.667 94.0477 458.413 93.8372 458.386 93.5503L457.067 79.589C457.04 79.3021 457.249 79.0475 457.535 79.0203C457.82 78.993 458.074 79.2035 458.101 79.4904L459.42 93.4517C459.447 93.7386 459.238 93.9932 458.952 94.0205Z" fill="#8ABCE4"/>
<path d="M458.442 88.6191C458.362 88.6266 458.28 88.6038 458.214 88.5487L453.498 84.633C453.365 84.5228 453.347 84.3255 453.456 84.1922C453.566 84.059 453.763 84.0402 453.895 84.1504L458.611 88.066C458.743 88.1763 458.762 88.3736 458.652 88.5069C458.597 88.5735 458.521 88.6115 458.442 88.6191Z" fill="#8ABCE4"/>
<path d="M105.161 83.0501L104.373 83.3225L103.104 83.2464L101.773 82.5278L100.64 81.2268L100.245 79.7145L100.51 78.3646L101.303 77.5562L102.026 77.4873L102.031 76.6414L102.44 74.7424L103.235 73.0602L104.11 71.934L105.36 70.9129L106.809 70.2111L107.754 70.1209L108.739 70.4497L109.622 71.1828L110.471 72.4545L111.184 74.3592L111.361 76.2305L111.464 77.3198L111.293 78.7734L110.817 79.9742L110.641 80.1883L111.058 80.1485L112.143 80.0451L112.665 80.5307L112.85 81.3021L112.945 82.3076L112.727 83.2585L112.295 84.0324L111.473 84.5335L110.958 84.7236L109.983 84.5065L109.257 84.2376L108.881 83.2307L109 81.5179L108.307 81.9046L106.972 82.0319L106.15 81.9412L105.652 82.6087L105.161 83.0501Z" fill="#8ABCE4"/>
<path d="M110.92 84.927C110.538 84.9634 110.153 84.9048 109.808 84.7498C109.282 84.5133 108.908 84.0789 108.755 83.5265C108.549 82.7834 108.637 82.0581 109.01 81.429C109.069 81.3291 109.197 81.2964 109.297 81.3558C109.396 81.4151 109.429 81.5443 109.37 81.6441C109.053 82.1796 108.982 82.7749 109.159 83.4136C109.278 83.8432 109.569 84.1814 109.979 84.3657C110.462 84.5828 111.047 84.5656 111.544 84.3199C112.12 84.0347 112.551 83.3291 112.696 82.4322C112.832 81.5993 112.685 80.8036 112.333 80.4523C112.061 80.181 111.372 80.2034 110.696 80.5054C110.591 80.5526 110.467 80.5049 110.42 80.3987C110.373 80.2925 110.42 80.1681 110.526 80.1209C111.381 79.7391 112.225 79.7523 112.628 80.1535C113.079 80.603 113.268 81.524 113.11 82.5C112.943 83.5308 112.426 84.3523 111.729 84.6974C111.473 84.8238 111.198 84.9005 110.92 84.927Z" fill="#8ABCE4"/>
<path d="M107.591 86.5061C107.538 86.5111 107.483 86.4958 107.438 86.4588C107.349 86.3847 107.336 86.2521 107.41 86.1625L109.909 83.1249C109.983 83.0353 110.115 83.0227 110.204 83.0967C110.293 83.1708 110.306 83.3034 110.232 83.393L107.733 86.4307C107.696 86.4754 107.645 86.501 107.591 86.5061Z" fill="#8ABCE4"/>
<path d="M107.646 82.1897C107.133 82.2387 106.597 82.2069 106.055 82.0885C105.942 82.0639 105.87 81.9518 105.894 81.8383C105.919 81.7247 106.031 81.6526 106.143 81.6773C107.914 82.0634 109.537 81.4853 110.484 80.1307C111.572 78.5758 111.55 75.3055 110.436 72.8408C109.765 71.3569 108.826 70.479 107.793 70.3689C106.772 70.2601 105.564 70.8233 104.48 71.9141C102.927 73.4759 102.05 75.6779 102.247 77.524C102.259 77.6395 102.176 77.7432 102.061 77.7556C102.06 77.7556 102.059 77.7557 102.058 77.7558C101.944 77.7667 101.842 77.6834 101.83 77.5687C101.621 75.6012 102.544 73.2648 104.183 71.6166C105.358 70.4355 106.69 69.8283 107.837 69.9504C109.024 70.0768 110.082 71.0415 110.817 72.6668C111.357 73.8615 111.68 75.3509 111.702 76.7528C111.726 78.2456 111.415 79.5311 110.827 80.3727C110.088 81.4291 108.94 82.0662 107.646 82.1897Z" fill="#8ABCE4"/>
<path d="M104.308 83.6062C103.787 83.6558 103.239 83.538 102.679 83.2559C101.239 82.531 100.283 81.3465 100.057 80.006C99.9093 79.1294 100.106 78.3116 100.582 77.8185C100.843 77.5488 101.207 77.3899 101.666 77.3462C102.906 77.228 104.69 78.0091 105.644 79.0876C106.405 79.9476 106.635 81.102 106.244 82.1002C105.908 82.9596 105.184 83.5226 104.308 83.6062ZM101.705 77.7652C101.349 77.7992 101.072 77.9158 100.883 78.1117C100.504 78.503 100.346 79.202 100.47 79.9358C100.673 81.1425 101.547 82.2155 102.866 82.8797C103.355 83.1258 103.827 83.2293 104.268 83.1872C104.984 83.1189 105.577 82.6549 105.855 81.9462C106.187 81.0963 105.987 80.1081 105.331 79.3671C104.47 78.3935 102.81 77.6599 101.705 77.7652Z" fill="#8ABCE4"/>
<path d="M109.617 88.3409L109.382 88.3633C109.19 88.3817 109.02 88.2402 109.002 88.0474C108.984 87.8545 109.124 87.6834 109.316 87.6651L109.551 87.6427C109.743 87.6244 109.914 87.7658 109.932 87.9586C109.95 88.1515 109.809 88.3226 109.617 88.3409Z" fill="#8ABCE4"/>
<path d="M107.781 88.5157C107.589 88.534 107.419 88.3926 107.4 88.1997L106.513 78.8164C106.495 78.6236 106.636 78.4524 106.828 78.4341C107.02 78.4158 107.19 78.5573 107.209 78.7501L108.095 88.1334C108.114 88.3263 107.973 88.4974 107.781 88.5157Z" fill="#8ABCE4"/>
<path d="M107.438 84.8853C107.385 84.8904 107.329 84.875 107.285 84.838L104.115 82.2063C104.026 82.1322 104.014 81.9996 104.087 81.91C104.161 81.8205 104.293 81.8079 104.382 81.8819L107.552 84.5136C107.641 84.5877 107.653 84.7203 107.58 84.8099C107.543 84.8546 107.491 84.8802 107.438 84.8853Z" fill="#8ABCE4"/>
<path d="M750.525 75.4374L749.918 75.6473L748.939 75.5886L747.914 75.0349L747.042 74.0325L746.737 72.8672L746.941 71.8271L747.552 71.2042L748.109 71.1511L748.113 70.4993L748.428 69.0361L749.041 67.7399L749.715 66.8721L750.678 66.0854L751.794 65.5446L752.523 65.4751L753.282 65.7285L753.962 66.2933L754.617 67.2732L755.166 68.7408L755.302 70.1827L755.382 71.022L755.25 72.1421L754.883 73.0673L754.747 73.2323L755.069 73.2016L755.904 73.122L756.307 73.4961L756.45 74.0905L756.523 74.8653L756.354 75.5979L756.022 76.1943L755.388 76.5804L754.991 76.7268L754.24 76.5596L753.681 76.3524L753.391 75.5766L753.482 74.2568L752.949 74.5548L751.92 74.6528L751.287 74.583L750.903 75.0973L750.525 75.4374Z" fill="#8ABCE4"/>
<path d="M754.962 76.8831C754.668 76.9112 754.371 76.866 754.105 76.7466C753.7 76.5644 753.412 76.2297 753.294 75.804C753.135 75.2315 753.203 74.6726 753.49 74.1879C753.536 74.1108 753.635 74.0856 753.711 74.1314C753.788 74.1772 753.813 74.2767 753.768 74.3536C753.523 74.7662 753.469 75.2249 753.605 75.717C753.697 76.0481 753.921 76.3086 754.237 76.4507C754.609 76.6179 755.06 76.6047 755.443 76.4153C755.887 76.1956 756.219 75.6519 756.331 74.9608C756.435 74.319 756.323 73.706 756.051 73.4353C755.841 73.2263 755.311 73.2435 754.79 73.4762C754.708 73.5126 754.613 73.4758 754.577 73.3939C754.541 73.3121 754.577 73.2163 754.659 73.1799C755.317 72.8858 755.968 72.8959 756.278 73.205C756.626 73.5514 756.772 74.2611 756.65 75.0131C756.521 75.8073 756.123 76.4403 755.585 76.7062C755.388 76.8036 755.176 76.8627 754.962 76.8831Z" fill="#8ABCE4"/>
<path d="M752.397 78.0999C752.356 78.1038 752.313 78.092 752.279 78.0635C752.21 78.0064 752.201 77.9042 752.257 77.8352L754.183 75.4946C754.24 75.4256 754.342 75.4159 754.41 75.4729C754.479 75.53 754.489 75.6322 754.432 75.7012L752.506 78.0418C752.478 78.0763 752.438 78.096 752.397 78.0999Z" fill="#8ABCE4"/>
<path d="M752.44 74.7743C752.044 74.8121 751.632 74.7876 751.213 74.6964C751.126 74.6774 751.071 74.591 751.09 74.5035C751.109 74.416 751.195 74.3605 751.282 74.3795C752.646 74.677 753.896 74.2316 754.626 73.1878C755.464 71.9897 755.447 69.4699 754.589 67.5707C754.072 66.4273 753.349 65.7509 752.553 65.666C751.766 65.5823 750.835 66.0162 750 66.8567C748.803 68.0601 748.128 69.7568 748.279 71.1793C748.289 71.2683 748.224 71.3482 748.136 71.3577C748.135 71.3578 748.135 71.3578 748.134 71.3579C748.046 71.3663 747.968 71.3021 747.958 71.2137C747.797 69.6977 748.508 67.8975 749.771 66.6275C750.676 65.7174 751.702 65.2495 752.587 65.3436C753.501 65.441 754.317 66.1844 754.883 67.4366C755.299 68.3572 755.547 69.5048 755.565 70.5851C755.583 71.7353 755.344 72.7258 754.89 73.3742C754.321 74.1883 753.437 74.6792 752.44 74.7743Z" fill="#8ABCE4"/>
<path d="M749.867 75.8655C749.466 75.9038 749.044 75.813 748.612 75.5956C747.502 75.0371 746.766 74.1244 746.592 73.0915C746.478 72.4161 746.629 71.7859 746.997 71.406C747.197 71.1982 747.478 71.0757 747.832 71.042C748.787 70.9509 750.162 71.5528 750.897 72.3838C751.483 73.0465 751.661 73.936 751.359 74.7052C751.1 75.3673 750.542 75.8011 749.867 75.8655ZM747.862 71.3649C747.587 71.3911 747.374 71.4809 747.228 71.6319C746.937 71.9334 746.815 72.472 746.91 73.0374C747.067 73.9672 747.74 74.794 748.757 75.3057C749.133 75.4954 749.497 75.5751 749.837 75.5427C750.388 75.4901 750.845 75.1326 751.059 74.5865C751.315 73.9316 751.161 73.1701 750.656 72.5992C749.992 71.849 748.713 71.2837 747.862 71.3649Z" fill="#8ABCE4"/>
<path d="M753.958 79.5138L753.777 79.5311C753.629 79.5452 753.497 79.4362 753.483 79.2876C753.469 79.139 753.578 79.0071 753.726 78.993L753.907 78.9757C754.055 78.9616 754.186 79.0706 754.2 79.2192C754.214 79.3678 754.106 79.4997 753.958 79.5138Z" fill="#8ABCE4"/>
<path d="M752.543 79.6486C752.396 79.6627 752.264 79.5537 752.25 79.4051L751.567 72.175C751.553 72.0264 751.661 71.8946 751.809 71.8805C751.957 71.8664 752.088 71.9754 752.102 72.1239L752.786 79.354C752.8 79.5026 752.691 79.6345 752.543 79.6486Z" fill="#8ABCE4"/>
<path d="M752.279 76.8514C752.238 76.8553 752.195 76.8435 752.161 76.815L749.719 74.7872C749.65 74.7301 749.641 74.6279 749.698 74.5589C749.754 74.4899 749.856 74.4802 749.925 74.5372L752.367 76.565C752.435 76.6221 752.445 76.7243 752.388 76.7933C752.36 76.8278 752.32 76.8475 752.279 76.8514Z" fill="#8ABCE4"/>
<path d="M515.866 83.9055C515.066 85.1914 513.226 88.6312 512.266 92.1031C511.306 95.5751 511.866 95.1571 512.266 94.5142" stroke="#8ABCE4" stroke-width="0.96" stroke-linecap="round" stroke-linejoin="round"/>
<path d="M518.746 87.7288C517.617 88.7354 514.885 91.5134 512.989 94.5718C511.092 97.6301 511.747 97.3881 512.311 96.8847" stroke="#8ABCE4" stroke-width="0.96" stroke-linecap="round" stroke-linejoin="round"/>
<path d="M705.467 86.3164C704.667 87.6023 702.827 91.0421 701.867 94.514C700.907 97.986 701.467 97.568 701.867 96.9251" stroke="#8ABCE4" stroke-width="0.96" stroke-linecap="round" stroke-linejoin="round"/>
<path d="M708.346 90.1396C707.217 91.1463 704.485 93.9243 702.589 96.9826C700.692 100.041 701.347 99.799 701.911 99.2956" stroke="#8ABCE4" stroke-width="0.96" stroke-linecap="round" stroke-linejoin="round"/>
<path d="M33.4663 82.9407C32.6663 84.2266 30.8263 87.6664 29.8663 91.1383C28.9063 94.6102 29.4663 94.1923 29.8663 93.5494" stroke="#8ABCE4" stroke-width="0.96" stroke-linecap="round" stroke-linejoin="round"/>
<path d="M36.3462 86.7644C35.2173 87.7711 32.4855 90.549 30.5888 93.6074C28.6921 96.6658 29.3468 96.4237 29.9112 95.9204" stroke="#8ABCE4" stroke-width="0.96" stroke-linecap="round" stroke-linejoin="round"/>
<rect y="151" width="768" height="319" fill="#8ABCE4"/>
<defs>
<filter id="filter0_d_25_532" x="26.88" y="38.11" width="722.881" height="158.602" filterUnits="userSpaceOnUse" color-interpolation-filters="sRGB">
<feFlood flood-opacity="0" result="BackgroundImageFix"/>
<feColorMatrix in="SourceAlpha" type="matrix" values="0 0 0 0 0 0 0 0 0 0 0 0 0 0 0 0 0 0 127 0" result="hardAlpha"/>
<feOffset dx="-4.8" dy="1.92"/>
<feGaussianBlur stdDeviation="2.4"/>
<feComposite in2="hardAlpha" operator="out"/>
<feColorMatrix type="matrix" values="0 0 0 0 0.0883333 0 0 0 0 0.441667 0 0 0 0 0.233102 0 0 0 0.2 0"/>
<feBlend mode="normal" in2="BackgroundImageFix" result="effect1_dropShadow_25_532"/>
<feBlend mode="normal" in="SourceGraphic" in2="effect1_dropShadow_25_532" result="shape"/>
</filter>
</defs>
</svg>
