<svg width="570" height="610" viewBox="0 0 570 610" fill="none" xmlns="http://www.w3.org/2000/svg">
<path d="M508.226 184.582C491.53 193.553 484.602 210.831 487.067 231.146C487.81 237.244 484.711 246.792 480.067 250.069C450.984 270.576 421.302 290.293 391.09 309.095C379.676 316.2 374.068 312.245 372.319 298.726C371.721 294.108 372.016 289.356 372.133 284.669C372.783 259.353 374.663 233.998 373.83 208.734C373.539 199.967 375.119 192.519 378.257 185.948C395.478 175.949 413.624 168.393 432.864 163.224C447.2 175.883 466.27 178.366 482.745 168.792C500.817 158.289 508.195 136.319 500.34 116.403C493.195 98.2912 473.435 87.7621 453.571 91.4906C432.252 95.4871 419.536 112.067 419.691 134.796C419.717 138.61 418.711 142.435 417.786 146.254C400.344 151.679 383.664 159.057 367.841 168.314C362.15 169.39 357.381 169.112 352.927 167.32C346.014 159.998 339.095 152.676 332.182 145.355C347.268 119.544 346.755 100.721 330.523 84.9964C316.614 71.5251 295.156 69.3678 278.616 79.784C261.806 90.3651 254.901 111.636 262.15 130.494C270.062 151.079 283.204 156.977 317.62 153.757C327.924 164.664 338.227 175.575 348.531 186.481C355.02 198.473 359.716 211.241 360.418 225.573C360.808 233.467 360.883 241.389 360.77 249.313C332.021 229.427 303.133 209.718 274.653 189.45C242.61 166.644 211.43 137.1 206.761 96.2466C213.293 94.6925 219.517 91.7895 225.007 87.193C229.703 83.2614 233.27 78.9117 235.826 74.3206C239.394 71.04 241.846 66.3435 242.098 60.1887C243.179 33.697 227.05 13.2071 203.467 3.28971C183.884 -4.94372 162.392 3.2812 147.492 16.8525C146.702 17.361 146.096 17.9897 145.591 18.6801C143.027 21.1969 140.652 23.8488 138.587 26.6135C135.488 30.7547 134.967 35.949 136.152 40.8497C131.455 69.4635 160.856 94.9574 190.49 97.4093C194.713 133.493 215.702 161.881 242.849 185.418C278.286 216.141 319.965 240.862 358.452 267.546C359.025 267.944 359.594 268.24 360.159 268.47C359.663 278.517 358.955 288.56 358.184 298.569C356.434 321.164 351.943 342.935 344.022 363.532C338.038 359.131 333.467 353.068 330.729 346.042C344.105 336.216 346.535 318.291 339.839 303.873C333.141 289.45 313.411 284.142 299.384 289.277C287.266 293.713 280.075 304.841 279.689 316.638C278.243 325.569 281.181 335.013 287.54 342.556C293.256 349.339 302.232 352.42 311.163 352.286C315.733 364.912 324.409 375.384 335.615 382.41C331.414 390.631 326.596 398.629 321.085 406.376C307.418 425.572 294.554 427.925 278.569 411.01C258.982 390.288 241.171 367.809 223.537 345.349C216.167 335.962 215.238 324.807 217.331 313.575C218.238 311.678 219.14 309.782 220.048 307.889C254.047 304.973 268.305 296.062 272.705 275.399C276.937 255.535 268.209 236.273 251.148 227.819C244.421 224.486 236.86 223.071 229.478 223.466C209.179 222.043 190.847 237.775 184.675 256.06C179.162 272.392 187.921 290.039 201.892 298.606C199.692 303.215 197.491 307.824 195.29 312.434C191.363 312.448 186.87 310.637 182.582 306.892C167.796 293.974 154.931 278.811 139.889 266.237C128.049 256.338 120.991 245.153 118.136 232.558C122.676 211.26 127.22 189.964 131.76 168.667C133.522 167.772 135.513 166.996 137.879 166.366C164.202 159.378 175.256 128.273 161.103 104.893C152.227 90.2322 135.926 82.6934 119.073 85.4623C100.29 88.5483 87.8809 100.436 83.962 119.094C80.4559 135.803 88.2021 152.69 103.115 162.773C105.488 164.375 108.519 166.553 110.853 168.775C106.126 190.941 101.4 213.105 96.6738 235.27C92.6635 234.016 88.6276 232.892 84.5343 232.046C80.5803 203.631 70.5896 190.971 50.8166 188.024C30.4394 184.987 11.9769 194.59 4.50302 212.12C-3.25278 230.305 1.97236 250.903 17.3499 262.764C34.6933 276.141 50.3826 273.892 79.4953 251.87C85.1896 252.968 90.7838 254.574 96.2919 256.623C112.39 270.997 128.609 285.528 145.01 299.942C190.354 339.793 225.922 386.736 252.137 440.47C207.933 433.796 168.924 406.974 146.946 367.074C150.683 363.832 153.938 359.953 156.477 355.526C166.685 337.701 157.587 314.776 141.026 304.85C136.507 302.142 131.82 300.702 127.102 300.228C123.553 298.609 119.72 297.628 115.735 297.511C101.248 297.082 89.2648 305.063 83.0461 317.477C80.9846 318.601 79.3049 320.532 78.6411 323.611C78.606 323.774 78.589 323.943 78.5539 324.109C76.8136 326.795 76.6742 329.708 77.5423 332.304C76.787 350.076 85.698 366.242 102.846 374.116C111.382 378.036 120.444 378.582 128.864 376.512C155.443 425.951 206.629 458.475 262.201 462.243C266.741 472.125 272.166 482.02 274.123 492.284C269.224 523.789 261.113 554.574 250.153 584.633C247.618 591.581 249.888 597.089 254.155 600.535C255.023 602.305 256.225 603.833 257.228 604.055C282.909 609.714 308.797 613.39 334.477 604.324C336.647 603.556 339.381 599.511 339.504 597.136C341.586 593.834 342.429 589.628 341.088 584.719C331.925 551.21 327.52 516.927 328.276 482.497C329.672 476.402 331.066 470.313 332.485 464.225C332.828 464.095 333.167 464.008 333.514 463.834C354.077 453.621 374.64 443.41 395.204 433.201C395.357 433.341 395.491 433.492 395.646 433.631C407.934 444.408 426.275 442.527 438.072 432.246C451.009 420.962 448.761 400.872 439.144 388.637C428.224 374.74 406.245 376.897 394.202 387.391C393.195 388.272 392.495 389.214 391.958 390.182C391.316 390.773 390.704 391.432 390.166 392.247C385.643 399.083 384.211 407.425 385.574 415.279C385.348 415.375 385.123 415.423 384.897 415.536C369.563 423.148 354.234 430.76 338.901 438.378C340.758 431.398 342.707 424.45 344.906 417.58C345.993 414.19 347.155 410.831 348.357 407.485C378.114 371.458 421.987 350.496 468.938 349.414C469.072 349.41 469.184 349.376 469.314 349.366C470.113 356.041 472.661 362.617 477.223 368.176C490.838 384.77 517.872 389.335 534.794 374.97C551.074 361.15 555.006 333.795 540.454 317.198C524.955 299.524 497.829 299.104 480.646 314.373C478.107 316.629 477.201 319.256 477.391 321.768C475.377 324.103 473.701 326.69 472.404 329.48C471.363 329.151 470.234 328.929 468.937 328.96C433.842 329.768 400.914 340.327 372.795 358.872C377.256 352.587 382.216 346.573 387.82 340.903C419.276 309.082 456.051 285.128 495.724 265.358C502.086 262.186 510.802 261.469 517.963 262.59C537.767 265.688 556.085 258.414 565.018 242.109C573.571 226.493 570.873 205.01 558.754 192.333C545.82 178.814 524.936 175.602 508.226 184.582Z" fill="#C4E0F5"/>
</svg>
