<svg width="1598" height="235" viewBox="0 0 1598 235" fill="none" xmlns="http://www.w3.org/2000/svg">
<mask id="mask0_155_6" style="mask-type:alpha" maskUnits="userSpaceOnUse" x="0" y="0" width="1598" height="235">
<rect width="1598" height="235" fill="#D9D9D9"/>
</mask>
<g mask="url(#mask0_155_6)">
<g filter="url(#filter0_d_155_6)">
<path fill-rule="evenodd" clip-rule="evenodd" d="M947.788 22.29C947.72 22.291 947.651 22.2913 947.583 22.2907L947.678 28.5466L950.085 26.0656C949.861 25.71 949.702 25.3104 949.618 24.8786C949.419 23.858 949.513 22.8784 949.887 21.9969C949.214 22.18 948.51 22.2789 947.788 22.29ZM945.221 21.9666C945.583 22.0629 945.944 22.1375 946.304 22.1907L946.355 25.6006L944.096 23.4087C944.55 23.0264 944.934 22.5402 945.221 21.9666ZM943.453 23.8535C942.865 24.1829 942.198 24.3656 941.492 24.3763C940.534 24.3909 939.551 24.0972 938.57 23.5035C936.047 21.9777 934.475 19.6874 934.256 17.22C934.113 15.6064 934.59 14.1496 935.531 13.3232C936.045 12.8712 936.734 12.6356 937.576 12.6228C937.664 12.6215 937.752 12.6227 937.842 12.6263C937.906 9.12818 939.896 5.23093 942.998 2.58342C945.312 0.608943 947.83 -0.300471 949.905 0.0880028C952.053 0.490109 953.844 2.39605 954.95 5.45461C955.763 7.70302 956.136 10.4549 955.974 13.0045C955.831 15.2738 955.281 17.246 954.406 18.675C955.602 18.479 956.647 18.704 957.172 19.315C957.93 20.1969 958.142 21.8973 957.712 23.6469C957.258 25.4947 956.196 26.9117 954.874 27.4372C954.389 27.6296 953.876 27.729 953.366 27.7367C952.664 27.7474 951.968 27.5849 951.362 27.2533C951.065 27.091 950.8 26.8939 950.57 26.6672L947.799 29.5238C948.863 29.5078 949.93 29.4998 951 29.4998C1032.73 29.4998 1099.68 76.4284 1105.58 135.947C1141.82 92.7867 1233.55 62.014 1341.29 61.5064C1338.5 58.1472 1335.77 55.4537 1334.34 54.1768C1333.92 53.8102 1333.89 53.1781 1334.25 52.7651C1334.62 52.352 1335.25 52.3144 1335.66 52.6811C1337.34 54.1661 1340.65 57.4557 1343.86 61.5L1344 61.5C1345.06 61.5 1346.11 61.5029 1347.17 61.5087C1345.13 54.8686 1341.69 48.4898 1340.15 46.0297C1339.86 45.5614 1340 44.9445 1340.47 44.6517C1340.94 44.359 1341.56 44.5014 1341.85 44.9697C1343.49 47.6001 1347.18 54.4494 1349.26 61.5241C1401.76 62.0054 1450.37 69.674 1490.48 82.4465L1491.96 73.2761L1487.93 67.6937C1486.85 68.0696 1485.69 68.1777 1484.5 67.9872C1482.9 67.7292 1481.35 66.9497 1479.89 65.6701C1476.13 62.3817 1474.19 58.0988 1474.55 53.9196C1474.79 51.1866 1476.01 48.8977 1477.82 47.7971C1478.81 47.1951 1480.03 47.0051 1481.44 47.2323C1481.59 47.2558 1481.73 47.2839 1481.88 47.3164C1483.02 41.5018 1487.49 35.5892 1493.44 32.0889C1497.88 29.4785 1502.35 28.7044 1505.7 29.9642C1509.16 31.268 1511.59 34.9747 1512.53 40.4012C1513.22 44.3903 1513.03 49.0896 1512.01 53.2937C1511.1 57.0354 1509.6 60.1622 1507.72 62.2872C1509.77 62.3131 1511.45 62.9964 1512.15 64.1701C1513.15 65.8644 1513 68.7626 1511.77 71.5533C1510.47 74.5009 1508.28 76.551 1505.92 77.0374C1505.05 77.2152 1504.17 77.2296 1503.31 77.0921C1502.14 76.903 1501.03 76.4269 1500.12 75.6952C1499.67 75.337 1499.28 74.9301 1498.97 74.4843L1493.3 78.579L1492.57 83.1171C1493.61 83.4553 1494.64 83.7969 1495.67 84.142C1495.88 84.0252 1496.12 83.9752 1496.37 84.0158L1497.1 84.1323C1497.53 84.2025 1497.87 84.5232 1497.97 84.9236C1559.36 106.015 1599 139.41 1599 177C1599 240.789 1484.83 292.5 1344 292.5C1215.28 292.5 1108.84 249.301 1091.48 193.165C1066.77 232.352 1013.16 259.5 951 259.5C921.704 259.5 894.307 253.47 870.939 242.991C837.6 272.919 782.203 292.5 719.5 292.5C617.603 292.5 535 240.789 535 177C535 120.41 600.011 73.3257 685.828 63.4188C682.546 59.1838 679.039 55.6881 677.336 54.1768C676.923 53.8102 676.885 53.1781 677.252 52.7651C677.619 52.352 678.251 52.3144 678.664 52.6811C680.561 54.3648 684.565 58.368 688.145 63.1609C688.954 63.0742 689.764 62.9909 690.576 62.9109L690.536 62.7674C688.57 55.6888 684.787 48.645 683.152 46.0297C682.859 45.5614 683.002 44.9445 683.47 44.6517C683.938 44.359 684.555 44.5014 684.848 44.9697C686.547 47.6878 690.43 54.9107 692.464 62.2321C692.51 62.3984 692.554 62.5606 692.597 62.7188C701.379 61.9157 710.362 61.4998 719.5 61.4998C757.364 61.4998 792.565 68.6403 821.852 80.8875C848.834 50.794 894.413 30.6698 946.415 29.5491L946.372 26.685L943.453 23.8535ZM1495.62 66.3643C1495.57 66.3569 1495.53 66.3492 1495.48 66.3413C1495.41 66.3298 1495.35 66.3178 1495.28 66.3053L1493.59 76.7658L1498.34 73.338C1498.07 72.6788 1497.92 71.9657 1497.91 71.2207C1497.88 69.4602 1498.32 67.8542 1499.21 66.4947C1498.03 66.6016 1496.83 66.5589 1495.62 66.3643ZM1491.43 65.0683C1492.01 65.3356 1492.59 65.5665 1493.17 65.7611L1492.25 71.4629L1489.13 67.1413C1490 66.6379 1490.79 65.9401 1491.43 65.0683ZM316 295.325C417.62 295.325 500 244.062 500 180.825C500 136.009 458.624 97.2068 398.345 78.4037C403.403 75.193 408.684 72.8673 411.04 71.9953C411.558 71.8036 411.822 71.2283 411.631 70.7104C411.439 70.1924 410.864 69.928 410.346 70.1197C407.677 71.1075 401.474 73.8533 395.857 77.642C395.311 77.478 394.763 77.3157 394.214 77.155C394.595 76.604 395.059 75.9593 395.622 75.208C400.023 69.3261 406.106 64.1363 408.578 62.2928C409.021 61.9627 409.112 61.3361 408.782 60.8934C408.452 60.4506 407.826 60.3593 407.383 60.6894C404.813 62.6054 398.573 67.926 394.02 74.0097C393.257 75.0293 392.656 75.8749 392.192 76.5725C368.976 69.9916 343.176 66.3255 316 66.3255C275.192 66.3255 237.487 74.5923 206.973 88.5816L206.718 88.0895L208.834 81.4248C209.354 81.5943 209.905 81.6923 210.478 81.7139C211.647 81.758 212.824 81.4786 213.879 80.9319C214.647 80.5345 215.349 79.9958 215.939 79.3378C217.546 77.5416 218.082 74.5921 217.374 71.4484C216.703 68.4719 215.097 66.0555 213.28 65.2924C212.023 64.7634 210.27 65.212 208.605 66.4132C208.851 63.5865 208.193 60.1821 206.696 56.6346C205.013 52.6487 202.367 48.7607 199.436 45.9679C195.448 42.1687 191.293 40.6348 187.735 41.6488C184.295 42.6292 181.167 45.9107 179.154 50.6521C176.453 57.0095 176.385 64.4194 178.932 69.7691C178.793 69.8314 178.658 69.8966 178.527 69.9646C177.259 70.6211 176.395 71.4983 175.957 72.5723C175.155 74.5359 175.534 77.1038 176.971 79.441C179.167 83.015 183.281 85.2971 188.258 85.7021C190.194 85.8599 191.906 85.5618 193.345 84.8161C194.408 84.2655 195.28 83.4847 195.923 82.5409L202.486 84.6251L205.008 89.4947C196.782 93.3721 189.096 97.6699 182.032 102.337C177.715 97.1198 172.544 92.7379 170.263 91.0376C169.821 90.7074 169.194 90.7987 168.864 91.2415C168.534 91.6842 168.625 92.3108 169.068 92.6409C171.241 94.2613 176.203 98.4669 180.362 103.455C179.424 104.092 178.497 104.735 177.582 105.384C173.324 102.952 169.31 101.212 167.3 100.468C166.782 100.276 166.207 100.541 166.015 101.059C165.824 101.576 166.088 102.152 166.606 102.343C168.417 103.014 171.956 104.543 175.794 106.673C148.481 126.651 132 152.541 132 180.825C132 244.062 214.38 295.325 316 295.325ZM201.641 82.9943L198.985 77.8661C198.4 78.0571 197.796 78.2173 197.175 78.3449C197.174 79.4312 196.96 80.458 196.56 81.3809L201.641 82.9943ZM207.645 80.8796L205.873 86.4587L201 77.0504C201.104 76.9995 201.207 76.9475 201.309 76.8945C202.395 76.332 203.388 75.6497 204.269 74.8636C204.368 76.4821 204.967 78.0372 206.04 79.4335C206.494 80.0245 207.036 80.5102 207.645 80.8796Z" fill="#2CBC67"/>
</g>
<path d="M264.981 112.666C262.46 114.545 256.298 119.8 251.821 125.783C247.344 131.766 248.745 131.382 250.006 130.442" stroke="white" stroke-width="2" stroke-linecap="round" stroke-linejoin="round"/>
<path d="M267.693 122.232C264.744 123.323 257.349 126.625 251.365 131.101C245.381 135.576 246.834 135.603 248.308 135.057" stroke="white" stroke-width="2" stroke-linecap="round" stroke-linejoin="round"/>
<path d="M898.432 87.2441C896.627 89.8193 892.423 96.7406 890.047 103.825C887.67 110.91 888.881 110.106 889.783 108.818" stroke="white" stroke-width="2" stroke-linecap="round" stroke-linejoin="round"/>
<path d="M904.006 95.4785C901.547 97.4393 895.56 102.892 891.28 109.017C887 115.143 888.388 114.713 889.617 113.733" stroke="white" stroke-width="2" stroke-linecap="round" stroke-linejoin="round"/>
<path d="M1245.14 144.114C1246.39 146.997 1249.14 154.616 1250.06 162.032C1250.98 169.447 1249.95 168.419 1249.32 166.977" stroke="white" stroke-width="2" stroke-linecap="round" stroke-linejoin="round"/>
<path d="M1238.04 151.076C1240.06 153.487 1244.84 160.021 1247.82 166.875C1250.79 173.729 1249.52 173.032 1248.51 171.827" stroke="white" stroke-width="2" stroke-linecap="round" stroke-linejoin="round"/>
<path d="M1439.49 163.805L1437.8 164.487L1435.01 164.463L1432.02 163.047L1429.39 160.339L1428.36 157.089L1428.79 154.118L1430.43 152.267L1432.01 152.036L1431.92 150.192L1432.61 146.009L1434.16 142.254L1435.95 139.702L1438.57 137.337L1441.66 135.645L1443.72 135.342L1445.92 135.948L1447.93 137.446L1449.93 140.122L1451.71 144.192L1452.3 148.25L1452.65 150.611L1452.44 153.798L1451.53 156.468L1451.17 156.954L1452.08 156.82L1454.44 156.473L1455.64 157.473L1456.13 159.133L1456.45 161.313L1456.08 163.409L1455.22 165.144L1453.47 166.328L1452.37 166.8L1450.21 166.437L1448.59 165.932L1447.66 163.781L1447.72 160.035L1446.25 160.956L1443.34 161.383L1441.53 161.278L1440.52 162.788L1439.49 163.805Z" fill="white"/>
<path d="M1452.31 167.247C1451.48 167.37 1450.63 167.285 1449.85 166.986C1448.68 166.53 1447.81 165.625 1447.41 164.439C1446.88 162.843 1446.99 161.253 1447.73 159.84C1447.85 159.616 1448.13 159.53 1448.35 159.648C1448.58 159.767 1448.67 160.044 1448.55 160.269C1447.91 161.471 1447.82 162.776 1448.28 164.148C1448.59 165.07 1449.27 165.774 1450.19 166.13C1451.27 166.549 1452.54 166.446 1453.6 165.855C1454.83 165.169 1455.7 163.583 1455.92 161.612C1456.12 159.782 1455.71 158.065 1454.9 157.339C1454.27 156.779 1452.77 156.905 1451.32 157.639C1451.1 157.753 1450.82 157.663 1450.71 157.437C1450.59 157.211 1450.68 156.935 1450.91 156.82C1452.74 155.892 1454.59 155.826 1455.51 156.655C1456.55 157.584 1457.07 159.569 1456.83 161.714C1456.58 163.978 1455.54 165.826 1454.05 166.657C1453.51 166.961 1452.91 167.159 1452.31 167.247V167.247Z" fill="white"/>
<path d="M1445.2 171.062C1445.08 171.079 1444.96 171.051 1444.86 170.976C1444.65 170.824 1444.61 170.537 1444.76 170.333L1449.89 163.434C1450.05 163.231 1450.33 163.188 1450.54 163.34C1450.74 163.491 1450.78 163.779 1450.63 163.982L1445.5 170.881C1445.42 170.983 1445.31 171.044 1445.2 171.062Z" fill="white"/>
<path d="M1444.84 161.652C1443.72 161.816 1442.54 161.807 1441.34 161.61C1441.09 161.569 1440.92 161.333 1440.96 161.083C1441 160.832 1441.24 160.663 1441.49 160.704C1445.41 161.346 1448.9 159.905 1450.82 156.847C1453.02 153.337 1452.61 146.214 1449.9 140.968C1448.26 137.81 1446.11 136.003 1443.84 135.879C1441.59 135.757 1439.01 137.119 1436.76 139.618C1433.53 143.195 1431.86 148.091 1432.49 152.092C1432.53 152.342 1432.36 152.577 1432.11 152.617C1432.11 152.617 1432.11 152.618 1432.11 152.618C1431.86 152.654 1431.63 152.485 1431.59 152.236C1430.91 147.972 1432.67 142.778 1436.07 139.003C1438.51 136.298 1441.36 134.825 1443.88 134.962C1446.5 135.104 1448.92 137.088 1450.71 140.546C1452.03 143.089 1452.9 146.298 1453.11 149.35C1453.33 152.6 1452.79 155.436 1451.59 157.335C1450.1 159.72 1447.65 161.237 1444.84 161.652V161.652Z" fill="white"/>
<path d="M1437.69 165.111C1436.55 165.278 1435.34 165.082 1434.08 164.531C1430.85 163.113 1428.62 160.639 1427.98 157.744C1427.56 155.85 1427.9 154.046 1428.88 152.919C1429.42 152.302 1430.21 151.914 1431.2 151.768C1433.9 151.371 1437.9 152.873 1440.11 155.115C1441.87 156.904 1442.5 159.393 1441.76 161.612C1441.12 163.523 1439.59 164.83 1437.69 165.111ZM1431.34 152.676C1430.56 152.79 1429.97 153.076 1429.57 153.524C1428.79 154.419 1428.52 155.959 1428.88 157.544C1429.46 160.151 1431.49 162.391 1434.45 163.69C1435.55 164.171 1436.59 164.344 1437.55 164.202C1439.11 163.973 1440.36 162.896 1440.89 161.32C1441.52 159.431 1440.97 157.3 1439.45 155.76C1437.46 153.735 1433.74 152.323 1431.34 152.676Z" fill="white"/>
<path d="M1449.84 174.832L1449.32 174.907C1448.91 174.969 1448.52 174.68 1448.46 174.261C1448.39 173.843 1448.68 173.455 1449.1 173.393L1449.61 173.318C1450.03 173.256 1450.42 173.546 1450.48 173.964C1450.54 174.382 1450.25 174.77 1449.84 174.832Z" fill="white"/>
<path d="M1445.84 175.419C1445.42 175.481 1445.03 175.192 1444.97 174.774L1441.98 154.428C1441.92 154.01 1442.21 153.621 1442.63 153.56C1443.04 153.498 1443.43 153.787 1443.49 154.205L1446.48 174.551C1446.55 174.969 1446.26 175.358 1445.84 175.419Z" fill="white"/>
<path d="M1444.68 167.548C1444.57 167.565 1444.44 167.538 1444.34 167.462L1437.11 162.084C1436.91 161.932 1436.86 161.645 1437.01 161.441C1437.17 161.238 1437.45 161.195 1437.66 161.347L1444.89 166.725C1445.09 166.876 1445.13 167.164 1444.98 167.368C1444.91 167.469 1444.8 167.531 1444.68 167.548Z" fill="white"/>
<path d="M76.4921 125.805L74.7982 126.487L72.0107 126.464L69.0185 125.047L66.3934 122.34L65.3589 119.089L65.7885 116.118L67.4345 114.268L69.009 114.036L68.9237 112.193L69.6082 108.009L71.1599 104.255L72.9503 101.702L75.5724 99.3373L78.6646 97.6455L80.7237 97.3429L82.9162 97.9488L84.9305 99.4469L86.9323 102.122L88.7058 106.193L89.3021 110.25L89.6492 112.612L89.4368 115.798L88.53 118.468L88.1683 118.954L89.0767 118.821L91.4386 118.474L92.6372 119.473L93.1286 121.133L93.449 123.313L93.0765 125.41L92.2178 127.145L90.4739 128.329L89.3678 128.801L87.2108 128.437L85.59 127.933L84.6552 125.781L84.7235 122.036L83.2501 122.956L80.3433 123.383L78.5336 123.278L77.5182 124.788L76.4921 125.805Z" fill="white"/>
<path d="M89.3077 129.248C88.4763 129.37 87.6253 129.286 86.8537 128.987C85.6763 128.531 84.8094 127.626 84.4126 126.439C83.8783 124.844 83.9897 123.253 84.7346 121.841C84.8529 121.616 85.1305 121.531 85.3548 121.649C85.5791 121.767 85.665 122.045 85.5467 122.269C84.9126 123.471 84.824 124.777 85.2832 126.148C85.5919 127.071 86.2674 127.775 87.1853 128.131C88.2659 128.549 89.5441 128.446 90.6045 127.855C91.834 127.169 92.6986 125.583 92.9171 123.613C93.1199 121.783 92.7111 120.065 91.8997 119.34C91.2738 118.779 89.7699 118.905 88.3236 119.639C88.0976 119.754 87.8213 119.664 87.7065 119.437C87.5917 119.211 87.682 118.935 87.9081 118.82C89.736 117.893 91.5862 117.826 92.512 118.655C93.5502 119.584 94.0674 121.57 93.8296 123.714C93.5785 125.979 92.54 127.827 91.0517 128.657C90.5061 128.961 89.9121 129.159 89.3077 129.248V129.248Z" fill="white"/>
<path d="M82.1975 133.062C82.0813 133.079 81.9585 133.052 81.8567 132.976C81.6533 132.825 81.6111 132.537 81.7623 132.334L86.8937 125.435C87.0451 125.231 87.3326 125.189 87.5361 125.34C87.7395 125.492 87.7817 125.779 87.6305 125.983L82.4991 132.882C82.4234 132.984 82.3136 133.045 82.1975 133.062Z" fill="white"/>
<path d="M81.8357 123.652C80.718 123.816 79.5415 123.807 78.3401 123.61C78.0898 123.569 77.9203 123.333 77.9613 123.083C78.0023 122.833 78.2388 122.663 78.4885 122.704C82.4078 123.347 85.895 121.905 87.817 118.847C90.0238 115.337 89.6106 108.214 86.8961 102.969C85.2618 99.8108 83.1092 98.0034 80.8351 97.8794C78.588 97.7571 76.0079 99.1198 73.7557 101.618C70.5306 105.195 68.858 110.092 69.4947 114.092C69.5346 114.343 69.3639 114.578 69.1135 114.618C69.1117 114.618 69.1098 114.618 69.1079 114.618C68.8596 114.655 68.6275 114.485 68.5879 114.236C67.9093 109.973 69.6701 104.779 73.0736 101.003C75.5126 98.298 78.3599 96.8254 80.8848 96.9626C83.4971 97.1049 85.9215 99.0881 87.7114 102.547C89.0273 105.089 89.9 108.298 90.106 111.35C90.3253 114.6 89.7884 117.436 88.5942 119.336C87.0953 121.721 84.6542 123.238 81.8357 123.652V123.652Z" fill="white"/>
<path d="M74.6861 127.111C73.552 127.278 72.339 127.083 71.0811 126.531C67.8478 125.113 65.6237 122.64 64.9792 119.744C64.5576 117.851 64.896 116.047 65.8842 114.919C66.4248 114.302 67.2049 113.915 68.2035 113.768C70.9039 113.371 74.8981 114.873 77.1069 117.116C78.8687 118.904 79.5009 121.394 78.7569 123.613C78.1163 125.523 76.5945 126.831 74.6861 127.111ZM68.3368 114.677C67.5602 114.791 66.9673 115.076 66.5746 115.524C65.7904 116.419 65.5225 117.96 65.8752 119.545C66.4554 122.151 68.4872 124.391 71.4496 125.69C72.5475 126.172 73.5914 126.344 74.5525 126.203C76.1117 125.974 77.3579 124.896 77.8862 123.321C78.5197 121.432 77.9703 119.301 76.4526 117.76C74.4584 115.735 70.7419 114.323 68.3368 114.677Z" fill="white"/>
<path d="M86.8359 136.832L86.3237 136.908C85.9056 136.969 85.5169 136.68 85.4555 136.262C85.394 135.844 85.6831 135.455 86.1012 135.394L86.6135 135.318C87.0316 135.257 87.4203 135.546 87.4817 135.964C87.5431 136.382 87.254 136.771 86.8359 136.832Z" fill="white"/>
<path d="M82.8379 137.42C82.4198 137.481 82.0311 137.192 81.9696 136.774L78.9799 116.428C78.9185 116.01 79.2075 115.622 79.6257 115.56C80.0438 115.499 80.4325 115.788 80.4939 116.206L83.4836 136.552C83.5451 136.97 83.2559 137.358 82.8379 137.42Z" fill="white"/>
<path d="M81.6812 129.548C81.565 129.565 81.4422 129.538 81.3404 129.462L74.109 124.084C73.9056 123.933 73.8633 123.645 74.0146 123.442C74.166 123.238 74.4535 123.196 74.657 123.347L81.8884 128.726C82.0918 128.877 82.1341 129.165 81.9828 129.368C81.9071 129.47 81.7973 129.531 81.6812 129.548Z" fill="white"/>
<path d="M555.537 69.6222L554.311 69.5233L552.638 68.67L551.261 66.9155L550.493 64.4932L550.848 62.2224L552.002 60.5609L553.551 59.9411L554.57 60.2756L555.073 59.1387L556.745 56.8229L558.811 55.027L560.658 54.0276L562.951 53.3914L565.324 53.3026L566.656 53.7401L567.796 54.7653L568.559 56.2747L568.96 58.49L568.804 61.4773L567.941 64.1025L567.44 65.6306L566.352 67.4874L565.002 68.8236L564.638 69.0079L565.225 69.2009L566.754 69.7027L567.175 70.6659L566.972 71.8145L566.508 73.225L565.653 74.3765L564.613 75.1637L563.205 75.3525L562.396 75.3039L561.206 74.4354L560.381 73.6436L560.465 72.0652L561.634 69.8282L560.468 69.9393L558.588 69.3217L557.529 68.7135L556.462 69.3181L555.537 69.6222Z" fill="white"/>
<path d="M562.226 75.5554C561.688 75.3788 561.2 75.0717 560.825 74.6592C560.253 74.0298 560.003 73.2235 560.121 72.3889C560.279 71.2661 560.825 70.3411 561.699 69.7139C561.838 69.6143 562.031 69.6462 562.131 69.785C562.23 69.9238 562.198 70.117 562.06 70.2166C561.315 70.7504 560.869 71.5104 560.733 72.4754C560.641 73.1246 560.836 73.7523 561.283 74.243C561.808 74.8207 562.609 75.1435 563.427 75.1063C564.374 75.0629 565.373 74.3673 566.098 73.2453C566.771 72.2033 567.041 71.0451 566.771 70.3633C566.562 69.8371 565.618 69.4602 564.525 69.4672C564.354 69.4684 564.215 69.3308 564.214 69.1599C564.213 68.9892 564.35 68.8498 564.521 68.8487C565.902 68.8397 567.037 69.3568 567.346 70.1353C567.692 71.0075 567.406 72.3602 566.617 73.5811C565.784 74.8706 564.602 75.6718 563.455 75.7242C563.034 75.7432 562.617 75.6839 562.226 75.5554V75.5554Z" fill="white"/>
<path d="M556.792 75.7139C556.717 75.6892 556.651 75.6358 556.612 75.5596C556.535 75.4071 556.596 75.221 556.749 75.1439L561.919 72.5301C562.071 72.453 562.257 72.5141 562.334 72.6666C562.411 72.819 562.35 73.0051 562.198 73.0822L557.028 75.6961C556.951 75.7346 556.867 75.7385 556.792 75.7139Z" fill="white"/>
<path d="M559.406 69.9326C558.683 69.6952 557.977 69.3356 557.312 68.8551C557.173 68.755 557.142 68.5617 557.242 68.4233C557.343 68.2848 557.536 68.2538 557.674 68.3537C559.843 69.9209 562.379 70.1016 564.458 68.8371C566.845 67.3856 568.74 62.9677 568.683 58.9889C568.649 56.5934 567.896 54.8559 566.562 54.0965C565.244 53.3464 563.279 53.391 561.169 54.2189C558.148 55.4043 555.666 57.8521 554.846 60.4551C554.794 60.618 554.621 60.7085 554.458 60.657C554.457 60.6567 554.455 60.6562 554.454 60.6559C554.294 60.6031 554.205 60.4308 554.256 60.269C555.13 57.4948 557.755 54.894 560.943 53.643C563.228 52.7466 565.387 52.7161 566.868 53.5589C568.4 54.4311 569.264 56.3564 569.302 58.98C569.33 60.9087 568.89 63.1056 568.095 65.0074C567.249 67.0323 566.071 68.5801 564.78 69.3656C563.158 70.3519 561.23 70.5314 559.406 69.9326V69.9326Z" fill="white"/>
<path d="M554.055 69.8661C553.322 69.6251 552.649 69.1423 552.057 68.431C550.535 66.6031 549.939 64.4425 550.422 62.5032C550.738 61.235 551.485 60.2495 552.42 59.8672C552.932 59.658 553.519 59.6596 554.165 59.8717C555.912 60.4455 557.867 62.5531 558.524 64.5699C559.047 66.1783 558.679 67.8692 557.562 68.9827C556.601 69.9413 555.29 70.2715 554.055 69.8661ZM553.972 60.4594C553.469 60.2944 553.026 60.2879 552.654 60.4397C551.912 60.7432 551.287 61.5912 551.022 62.6527C550.587 64.3985 551.138 66.3603 552.532 68.0351C553.049 68.6558 553.627 69.074 554.248 69.2782C555.257 69.6095 556.333 69.3352 557.125 68.5446C558.076 67.5966 558.386 66.1469 557.935 64.7612C557.343 62.9404 555.528 60.9704 553.972 60.4594Z" fill="white"/>
<path d="M558.453 79.383L558.121 79.2742C557.851 79.1854 557.703 78.8941 557.792 78.6236C557.881 78.3531 558.172 78.2058 558.443 78.2946L558.774 78.4035C559.045 78.4923 559.192 78.7836 559.103 79.0541C559.014 79.3246 558.723 79.4719 558.453 79.383Z" fill="white"/>
<path d="M555.866 78.5336C555.595 78.4447 555.448 78.1534 555.537 77.8829L559.86 64.7193C559.949 64.4488 560.24 64.3015 560.51 64.3903C560.781 64.4792 560.928 64.7704 560.839 65.041L556.516 78.2046C556.428 78.4751 556.136 78.6224 555.866 78.5336Z" fill="white"/>
<path d="M557.538 73.4405C557.463 73.4159 557.397 73.3625 557.359 73.2862L554.619 67.8674C554.542 67.7149 554.603 67.5288 554.755 67.4517C554.908 67.3747 555.094 67.4358 555.171 67.5882L557.911 73.0071C557.988 73.1596 557.927 73.3456 557.774 73.4227C557.698 73.4612 557.613 73.4652 557.538 73.4405Z" fill="white"/>
<path d="M790.954 111.403L791.877 111.499L793.236 111.098L794.5 109.987L795.404 108.296L795.455 106.562L794.829 105.17L793.765 104.497L792.963 104.604L792.747 103.691L791.827 101.742L790.543 100.124L789.31 99.1276L787.698 98.3388L785.95 97.9449L784.901 98.0853L783.914 98.6883L783.14 99.7025L782.536 101.29L782.239 103.528L782.515 105.594L782.676 106.797L783.226 108.325L784.043 109.503L784.288 109.69L783.825 109.752L782.623 109.913L782.177 110.569L782.169 111.449L782.317 112.559L782.793 113.532L783.456 114.259L784.474 114.594L785.08 114.67L786.084 114.19L786.805 113.717L786.961 112.534L786.403 110.713L787.252 110.957L788.732 110.759L789.602 110.454L790.31 111.05L790.954 111.403Z" fill="white"/>
<path d="M785.172 114.88C785.596 114.823 786 114.663 786.335 114.409C786.846 114.021 787.144 113.458 787.171 112.822C787.209 111.968 786.932 111.206 786.37 110.62C786.281 110.527 786.133 110.524 786.04 110.613C785.947 110.702 785.944 110.85 786.033 110.943C786.511 111.442 786.737 112.067 786.705 112.802C786.683 113.296 786.452 113.735 786.053 114.037C785.583 114.393 784.944 114.521 784.343 114.381C783.646 114.218 783.002 113.564 782.619 112.631C782.264 111.765 782.223 110.869 782.518 110.4C782.746 110.039 783.498 109.89 784.308 110.046C784.434 110.071 784.557 109.988 784.581 109.861C784.606 109.735 784.523 109.612 784.396 109.588C783.373 109.39 782.46 109.617 782.123 110.152C781.746 110.751 781.771 111.794 782.187 112.809C782.627 113.88 783.393 114.638 784.237 114.835C784.546 114.908 784.864 114.921 785.172 114.88V114.88Z" fill="white"/>
<path d="M789.181 115.749C789.24 115.741 789.296 115.71 789.336 115.659C789.414 115.557 789.394 115.41 789.292 115.332L785.818 112.678C785.716 112.6 785.569 112.62 785.491 112.722C785.413 112.825 785.432 112.971 785.535 113.049L789.008 115.703C789.06 115.742 789.122 115.757 789.181 115.749Z" fill="white"/>
<path d="M788.041 111.099C788.61 111.023 789.184 110.853 789.743 110.589C789.86 110.534 789.91 110.395 789.854 110.278C789.799 110.162 789.66 110.112 789.544 110.167C787.718 111.03 785.812 110.813 784.445 109.588C782.875 108.181 782.08 104.642 782.672 101.699C783.029 99.9263 783.828 98.7417 784.922 98.3627C786.003 97.9884 787.455 98.2932 788.905 99.1989C790.982 100.496 792.485 102.655 792.734 104.699C792.749 104.827 792.866 104.918 792.994 104.902C792.995 104.902 792.995 104.902 792.996 104.902C793.123 104.885 793.213 104.769 793.197 104.642C792.932 102.464 791.344 100.172 789.152 98.8029C787.582 97.8222 785.984 97.501 784.769 97.9216C783.512 98.3568 782.605 99.6655 782.214 101.606C781.927 103.033 781.95 104.724 782.277 106.244C782.624 107.863 783.284 109.174 784.133 109.935C785.2 110.891 786.605 111.291 788.041 111.099V111.099Z" fill="white"/>
<path d="M792.019 111.789C792.597 111.712 793.162 111.446 793.7 111.001C795.082 109.855 795.822 108.335 795.732 106.829C795.673 105.845 795.255 105.011 794.614 104.598C794.264 104.372 793.828 104.292 793.32 104.36C791.944 104.544 790.202 105.837 789.437 107.243C788.826 108.363 788.866 109.669 789.54 110.649C790.12 111.493 791.047 111.919 792.019 111.789ZM793.382 104.823C793.777 104.77 794.107 104.826 794.361 104.99C794.87 105.318 795.217 106.033 795.266 106.857C795.347 108.212 794.668 109.592 793.402 110.641C792.933 111.03 792.447 111.261 791.957 111.326C791.163 111.432 790.403 111.08 789.925 110.384C789.351 109.55 789.321 108.431 789.847 107.466C790.538 106.197 792.157 104.987 793.382 104.823Z" fill="white"/>
<path d="M787.442 118.24L787.703 118.206C787.916 118.177 788.065 117.981 788.037 117.768C788.008 117.555 787.813 117.406 787.6 117.434L787.339 117.469C787.126 117.498 786.976 117.694 787.005 117.906C787.033 118.119 787.229 118.269 787.442 118.24Z" fill="white"/>
<path d="M789.478 117.968C789.691 117.939 789.841 117.744 789.812 117.531L788.425 107.169C788.397 106.956 788.201 106.806 787.988 106.835C787.775 106.863 787.625 107.059 787.654 107.272L789.041 117.634C789.069 117.847 789.265 117.996 789.478 117.968Z" fill="white"/>
<path d="M788.942 113.959C789.001 113.951 789.057 113.92 789.096 113.869L791.877 110.228C791.956 110.126 791.936 109.979 791.834 109.901C791.731 109.823 791.585 109.842 791.506 109.945L788.725 113.586C788.647 113.688 788.666 113.835 788.769 113.913C788.82 113.952 788.882 113.967 788.942 113.959Z" fill="white"/>
<path d="M806.08 104.758L804.669 105.326L802.347 105.307L799.855 104.127L797.668 101.872L796.806 99.1637L797.164 96.689L798.535 95.1476L799.847 94.9549L799.776 93.4193L800.346 89.9342L801.639 86.8068L803.13 84.6809L805.314 82.7108L807.89 81.3016L809.605 81.0496L811.431 81.5542L813.109 82.8022L814.777 85.0308L816.254 88.4211L816.751 91.801L817.04 93.7684L816.863 96.4226L816.108 98.6465L815.806 99.0515L816.563 98.9404L818.53 98.6513L819.529 99.4837L819.938 100.867L820.205 102.683L819.895 104.429L819.179 105.874L817.727 106.86L816.805 107.253L815.009 106.95L813.659 106.53L812.88 104.738L812.937 101.618L811.71 102.385L809.288 102.741L807.781 102.653L806.935 103.911L806.08 104.758Z" fill="white"/>
<path d="M816.755 107.626C816.063 107.727 815.354 107.657 814.711 107.408C813.73 107.028 813.008 106.274 812.678 105.286C812.233 103.957 812.326 102.632 812.946 101.455C813.045 101.269 813.276 101.197 813.463 101.296C813.649 101.394 813.721 101.625 813.622 101.812C813.094 102.814 813.021 103.901 813.403 105.043C813.66 105.812 814.223 106.399 814.987 106.695C815.888 107.044 816.952 106.958 817.836 106.465C818.86 105.894 819.58 104.573 819.762 102.931C819.931 101.407 819.59 99.9767 818.914 99.372C818.393 98.9051 817.14 99.0101 815.936 99.6214C815.747 99.717 815.517 99.6419 815.422 99.4535C815.326 99.2652 815.401 99.0351 815.589 98.9395C817.112 98.1667 818.653 98.1115 819.424 98.8021C820.289 99.5757 820.72 101.23 820.522 103.016C820.313 104.902 819.448 106.442 818.208 107.133C817.754 107.386 817.259 107.552 816.755 107.626V107.626Z" fill="white"/>
<path d="M810.833 110.803C810.736 110.817 810.634 110.794 810.549 110.731C810.379 110.605 810.344 110.365 810.47 110.196L814.745 104.449C814.871 104.28 815.11 104.244 815.28 104.37C815.449 104.496 815.484 104.736 815.358 104.906L811.084 110.652C811.021 110.737 810.929 110.788 810.833 110.803Z" fill="white"/>
<path d="M810.531 102.965C809.6 103.101 808.62 103.094 807.62 102.93C807.411 102.896 807.27 102.699 807.304 102.491C807.338 102.282 807.535 102.141 807.743 102.175C811.008 102.71 813.913 101.509 815.514 98.9622C817.352 96.0382 817.008 90.1049 814.747 85.7357C813.385 83.1051 811.592 81.5996 809.698 81.4963C807.826 81.3944 805.677 82.5296 803.801 84.6106C801.114 87.5905 799.721 91.6691 800.252 95.0013C800.285 95.2098 800.143 95.4059 799.934 95.439C799.933 95.4392 799.931 95.4394 799.929 95.4397C799.723 95.4701 799.529 95.3285 799.496 95.1214C798.931 91.57 800.398 87.2432 803.233 84.0985C805.264 81.845 807.636 80.6183 809.739 80.7327C811.915 80.8512 813.935 82.5031 815.426 85.3842C816.522 87.5021 817.249 90.175 817.42 92.7175C817.603 95.4245 817.156 97.7868 816.161 99.3692C814.913 101.356 812.879 102.619 810.531 102.965V102.965Z" fill="white"/>
<path d="M804.576 105.846C803.631 105.985 802.621 105.822 801.573 105.363C798.88 104.182 797.027 102.121 796.49 99.7095C796.139 98.1323 796.421 96.6297 797.244 95.6901C797.694 95.1762 798.344 94.8538 799.176 94.7315C801.425 94.401 804.752 95.6519 806.592 97.52C808.06 99.0099 808.587 101.084 807.967 102.932C807.433 104.523 806.166 105.613 804.576 105.846ZM799.287 95.4882C798.64 95.5833 798.146 95.8209 797.819 96.1941C797.166 96.9398 796.943 98.2231 797.237 99.5434C797.72 101.714 799.412 103.58 801.88 104.662C802.794 105.063 803.664 105.207 804.465 105.089C805.763 104.899 806.801 104.001 807.242 102.689C807.769 101.115 807.312 99.3402 806.047 98.0567C804.386 96.3701 801.29 95.1938 799.287 95.4882Z" fill="white"/>
<path d="M814.696 113.944L814.27 114.006C813.921 114.058 813.598 113.817 813.547 113.468C813.495 113.12 813.736 112.796 814.084 112.745L814.511 112.683C814.859 112.631 815.183 112.872 815.234 113.22C815.285 113.569 815.045 113.892 814.696 113.944Z" fill="white"/>
<path d="M811.366 114.432C811.018 114.484 810.694 114.243 810.643 113.895L808.152 96.947C808.101 96.5987 808.342 96.2749 808.69 96.2237C809.039 96.1726 809.362 96.4134 809.414 96.7617L811.904 113.709C811.955 114.057 811.714 114.381 811.366 114.432Z" fill="white"/>
<path d="M810.402 107.876C810.306 107.89 810.203 107.867 810.119 107.804L804.095 103.324C803.926 103.198 803.89 102.958 804.016 102.789C804.142 102.619 804.382 102.584 804.551 102.71L810.575 107.19C810.745 107.316 810.78 107.556 810.654 107.725C810.591 107.81 810.499 107.861 810.402 107.876Z" fill="white"/>
<path fill-rule="evenodd" clip-rule="evenodd" d="M1599 167.16V385H-1V167.486C46.8875 146.436 111.291 133 182 133C257.8 133 326.223 146.723 374.824 168.763C398.685 114.587 450.911 77 511.5 77C575.622 77 630.378 119.099 652.057 178.405C709.071 138.51 796.272 113 894 113C1009.05 113 1109.51 148.356 1163.31 200.915C1192 175.84 1225.49 164.436 1257.09 172.611C1283.81 179.525 1304.92 199.342 1318.62 226.975C1381.24 189.335 1474.53 165.862 1578.53 166.684C1585.4 166.738 1592.23 166.898 1599 167.16Z" fill="white"/>
</g>
<defs>
<filter id="filter0_d_155_6" x="107" y="-16" width="1507" height="335.326" filterUnits="userSpaceOnUse" color-interpolation-filters="sRGB">
<feFlood flood-opacity="0" result="BackgroundImageFix"/>
<feColorMatrix in="SourceAlpha" type="matrix" values="0 0 0 0 0 0 0 0 0 0 0 0 0 0 0 0 0 0 127 0" result="hardAlpha"/>
<feOffset dx="-5" dy="4"/>
<feGaussianBlur stdDeviation="10"/>
<feComposite in2="hardAlpha" operator="out"/>
<feColorMatrix type="matrix" values="0 0 0 0 0 0 0 0 0 0 0 0 0 0 0 0 0 0 0.15 0"/>
<feBlend mode="normal" in2="BackgroundImageFix" result="effect1_dropShadow_155_6"/>
<feBlend mode="normal" in="SourceGraphic" in2="effect1_dropShadow_155_6" result="shape"/>
</filter>
</defs>
</svg>
