<svg width="340" height="97" viewBox="0 0 340 97" fill="none" xmlns="http://www.w3.org/2000/svg">
<mask id="mask0_168_15" style="mask-type:alpha" maskUnits="userSpaceOnUse" x="0" y="0" width="340" height="97">
<rect width="340" height="97" fill="#D9D9D9"/>
</mask>
<g mask="url(#mask0_168_15)">
<path d="M88.7927 19C89.8463 20.6857 92.2695 25.1949 93.5337 29.7462C94.798 34.2976 94.0605 33.7497 93.5337 32.9069" stroke="#2CBC67" stroke-linecap="round" stroke-linejoin="round"/>
<path d="M85 24.0122C86.4866 25.3319 90.0843 28.9735 92.5822 32.9827C95.08 36.9919 94.2178 36.6746 93.4745 36.0148" stroke="#2CBC67" stroke-linecap="round" stroke-linejoin="round"/>
<path d="M18.7081 27.5091L18.1524 27.8529L17.168 28.0147L16.0265 27.6977L14.9357 26.9031L14.3726 25.8199L14.3428 24.7461L14.8104 23.9932L15.3515 23.8156L15.209 23.1707L15.1951 21.6537L15.5133 20.2351L15.9889 19.2259L16.7692 18.232L17.7564 17.4468L18.4641 17.2145L19.2741 17.2944L20.0758 17.6998L20.9449 18.5212L21.8186 19.8482L22.2763 21.2426L22.5428 22.0543L22.6623 23.1908L22.5053 24.1876L22.4075 24.3811L22.7197 24.2786L23.5313 24.0122L24.0149 24.2914L24.2895 24.8469L24.5354 25.5961L24.532 26.358L24.335 27.0221L23.7923 27.5461L23.431 27.78L22.6483 27.7833L22.046 27.7044L21.5851 27.0027L21.3807 25.6778L20.9173 26.0922L19.9183 26.4201L19.2738 26.4934L19.0079 27.0879L18.7081 27.5091Z" fill="#2CBC67"/>
<path d="M23.437 27.9414C23.1512 28.0352 22.846 28.0573 22.5557 27.9989C22.1127 27.9099 21.7518 27.6438 21.5395 27.2496C21.2538 26.7195 21.196 26.1519 21.3726 25.6084C21.4006 25.5221 21.4933 25.4749 21.5795 25.5029C21.6658 25.5309 21.7131 25.6236 21.685 25.7099C21.5348 26.1725 21.5832 26.6381 21.8287 27.0938C21.9939 27.4004 22.275 27.6074 22.6204 27.6769C23.027 27.7586 23.4714 27.6443 23.8093 27.3711C24.201 27.0543 24.4091 26.4423 24.366 25.7341C24.3259 25.0764 24.0769 24.4958 23.7466 24.2893C23.4917 24.1299 22.969 24.266 22.5038 24.6131C22.4311 24.6673 22.3282 24.6524 22.2739 24.5796C22.2196 24.5069 22.2346 24.404 22.3073 24.3497C22.8953 23.9111 23.5437 23.7749 23.9207 24.0107C24.3435 24.2749 24.647 24.9435 24.6939 25.7141C24.7435 26.5281 24.49 27.243 24.0159 27.6266C23.842 27.7671 23.6447 27.8732 23.437 27.9414V27.9414Z" fill="#2CBC67"/>
<path d="M21.1625 29.7198C21.1226 29.7329 21.0777 29.7307 21.0371 29.7103C20.9562 29.6693 20.9238 29.5705 20.9647 29.4895L22.3533 26.7437C22.3942 26.6627 22.4931 26.6303 22.574 26.6712C22.655 26.7122 22.6874 26.811 22.6465 26.892L21.2579 29.6378C21.2374 29.6783 21.2025 29.7066 21.1625 29.7198Z" fill="#2CBC67"/>
<path d="M20.4608 26.4236C20.0767 26.5497 19.6613 26.6182 19.2257 26.6221C19.1349 26.6229 19.0607 26.5499 19.0599 26.4592C19.0591 26.3685 19.1322 26.2943 19.2227 26.2935C20.6439 26.2811 21.7857 25.5599 22.2769 24.3644C22.8409 22.992 22.2607 20.5055 20.9836 18.8215C20.2147 17.8076 19.3454 17.3016 18.5359 17.3966C17.7361 17.4905 16.9094 18.1284 16.2676 19.1468C15.3486 20.6049 15.0575 22.4335 15.526 23.8053C15.5553 23.8912 15.5095 23.9846 15.4236 24.0138C15.423 24.0141 15.4223 24.0143 15.4217 24.0145C15.3364 24.0425 15.2442 23.9967 15.215 23.9115C14.7157 22.4495 15.0197 20.5104 15.9896 18.9716C16.6846 17.8688 17.5988 17.1759 18.4975 17.0703C19.4273 16.9611 20.4032 17.5125 21.2453 18.6229C21.8644 19.4392 22.3679 20.5175 22.6267 21.5813C22.9023 22.7138 22.886 23.7466 22.5808 24.4893C22.1977 25.4217 21.4294 26.1055 20.4608 26.4236V26.4236Z" fill="#2CBC67"/>
<path d="M18.151 28.0799C17.7612 28.2079 17.3216 28.213 16.8443 28.0952C15.6177 27.7925 14.6826 27.0559 14.2787 26.0742C14.0145 25.4323 14.0238 24.7755 14.3035 24.3175C14.4565 24.067 14.708 23.8829 15.0511 23.7703C15.9791 23.4656 17.4792 23.7515 18.3949 24.4076C19.1252 24.9308 19.5 25.7701 19.373 26.5979C19.2636 27.3106 18.8068 27.8646 18.151 28.0799ZM15.1535 24.0824C14.8866 24.1701 14.695 24.3068 14.5838 24.4888C14.3619 24.8522 14.3614 25.4119 14.5825 25.9492C14.9461 26.8329 15.7991 27.4989 16.923 27.7762C17.3395 27.879 17.7181 27.8761 18.0484 27.7677C18.5842 27.5918 18.9579 27.1358 19.0482 26.5481C19.1563 25.8433 18.8326 25.1254 18.2034 24.6747C17.3767 24.0823 15.9801 23.8111 15.1535 24.0824Z" fill="#2CBC67"/>
<path d="M23.0281 30.7663L22.8521 30.8241C22.7084 30.8712 22.5537 30.793 22.5065 30.6493C22.4594 30.5056 22.5376 30.3509 22.6813 30.3038L22.8573 30.246C23.001 30.1988 23.1557 30.277 23.2029 30.4207C23.25 30.5644 23.1718 30.7191 23.0281 30.7663Z" fill="#2CBC67"/>
<path d="M21.6542 31.2174C21.5106 31.2645 21.3559 31.1863 21.3087 31.0426L19.0134 24.0507C18.9662 23.907 19.0444 23.7523 19.1881 23.7051C19.3318 23.658 19.4865 23.7362 19.5337 23.8799L21.829 30.8718C21.8762 31.0155 21.7979 31.1702 21.6542 31.2174Z" fill="#2CBC67"/>
<path d="M20.766 28.5123C20.7261 28.5254 20.6811 28.5233 20.6406 28.5028L17.7626 27.0474C17.6816 27.0064 17.6492 26.9076 17.6901 26.8266C17.7311 26.7456 17.8299 26.7132 17.9109 26.7541L20.7889 28.2096C20.8699 28.2505 20.9023 28.3494 20.8614 28.4303C20.8409 28.4708 20.8059 28.4992 20.766 28.5123Z" fill="#2CBC67"/>
<path d="M296.395 13.8699L295.504 13.6836L294.355 12.902L293.507 11.4864L293.169 9.63721L293.64 8.00332L294.641 6.89081L295.835 6.57955L296.552 6.91962L297.027 6.13186L298.469 4.58713L300.152 3.46055L301.601 2.89837L303.343 2.64407L305.093 2.79904L306.03 3.24375L306.771 4.10196L307.191 5.28071L307.28 6.94398L306.888 9.12216L306.012 10.9691L305.502 12.0442L304.532 13.3063L303.416 14.1618L303.132 14.2632L303.545 14.4594L304.62 14.9695L304.841 15.7156L304.585 16.5398L304.114 17.5322L303.379 18.2981L302.543 18.7794L301.492 18.7874L300.903 18.6767L300.109 17.9288L299.577 17.271L299.785 16.1202L300.851 14.5867L299.985 14.5602L298.662 13.9323L297.941 13.3876L297.102 13.7325L296.395 13.8699Z" fill="#2CBC67"/>
<path d="M300.754 18.8452C300.375 18.6656 300.046 18.395 299.809 18.0574C299.447 17.5423 299.338 16.9273 299.502 16.3256C299.723 15.5162 300.209 14.8878 300.909 14.5086C301.02 14.4483 301.159 14.4897 301.219 14.6008C301.28 14.7119 301.238 14.8508 301.127 14.911C300.532 15.2337 300.133 15.7502 299.944 16.4459C299.816 16.9139 299.901 17.3928 300.183 17.7944C300.515 18.2671 301.074 18.5784 301.677 18.6269C302.377 18.683 303.174 18.265 303.81 17.5087C304.401 16.8063 304.707 15.9813 304.572 15.4558C304.468 15.0501 303.809 14.6859 303.007 14.5897C302.881 14.5747 302.792 14.4608 302.807 14.3353C302.822 14.2098 302.936 14.1203 303.061 14.1353C304.076 14.2569 304.861 14.7417 305.015 15.3417C305.188 16.0141 304.853 16.9804 304.161 17.8034C303.429 18.6726 302.487 19.151 301.64 19.0831C301.33 19.058 301.029 18.9757 300.754 18.8452V18.8452Z" fill="#2CBC67"/>
<path d="M296.75 18.4577C296.698 18.4327 296.654 18.3874 296.633 18.3278C296.591 18.2088 296.653 18.0779 296.772 18.0354L300.809 16.5965C300.928 16.5541 301.059 16.6162 301.101 16.7352C301.144 16.8543 301.082 16.9852 300.963 17.0276L296.925 18.4666C296.866 18.4878 296.803 18.4828 296.75 18.4577Z" fill="#2CBC67"/>
<path d="M299.206 14.4571C298.697 14.2157 298.212 13.8862 297.769 13.4719C297.676 13.3855 297.671 13.2408 297.758 13.1484C297.844 13.056 297.989 13.0513 298.081 13.1374C299.528 14.489 301.372 14.8569 303.016 14.1216C304.902 13.2776 306.703 10.2107 307.031 7.28488C307.228 5.52334 306.836 4.17815 305.928 3.49705C305.03 2.82417 303.583 2.67462 301.958 3.08656C299.63 3.67639 297.581 5.24286 296.738 7.07733C296.685 7.19217 296.549 7.24244 296.434 7.18959C296.433 7.18919 296.432 7.18877 296.432 7.18838C296.319 7.13476 296.269 7.00005 296.322 6.88604C297.221 4.93086 299.389 3.26533 301.845 2.64285C303.605 2.19682 305.193 2.37479 306.202 3.13083C307.245 3.91311 307.701 5.40645 307.485 7.33572C307.327 8.75397 306.8 10.3257 306.04 11.6479C305.231 13.0558 304.224 14.0826 303.203 14.5394C301.921 15.1129 300.489 15.0658 299.206 14.4571V14.4571Z" fill="#2CBC67"/>
<path d="M295.285 13.9114C294.768 13.6665 294.32 13.2497 293.951 12.6727C293.003 11.1897 292.766 9.54853 293.301 8.16993C293.65 7.26837 294.29 6.61432 295.012 6.42042C295.407 6.31436 295.838 6.36992 296.292 6.58558C297.521 7.16883 298.761 8.89725 299.056 10.4385C299.291 11.6677 298.863 12.8746 297.941 13.5883C297.146 14.2028 296.153 14.3236 295.285 13.9114ZM296.096 6.99906C295.742 6.83132 295.418 6.78539 295.131 6.86239C294.558 7.01629 294.02 7.58071 293.727 8.33534C293.246 9.57641 293.468 11.0675 294.336 12.4262C294.658 12.9297 295.043 13.2903 295.481 13.4978C296.19 13.8346 297.005 13.733 297.661 13.2263C298.446 12.6186 298.809 11.5833 298.606 10.5244C298.34 9.1329 297.191 7.51851 296.096 6.99906Z" fill="#2CBC67"/>
<path d="M297.629 21.3046L297.396 21.194C297.206 21.1037 297.125 20.8762 297.215 20.6859C297.305 20.4956 297.533 20.4145 297.723 20.5048L297.956 20.6154C298.146 20.7057 298.228 20.9332 298.137 21.1235C298.047 21.3138 297.819 21.3949 297.629 21.3046Z" fill="#2CBC67"/>
<path d="M295.809 20.4411C295.619 20.3508 295.538 20.1233 295.628 19.933L300.023 10.6717C300.113 10.4814 300.34 10.4003 300.531 10.4906C300.721 10.5809 300.802 10.8084 300.712 10.9987L296.317 20.26C296.227 20.4503 296 20.5313 295.809 20.4411Z" fill="#2CBC67"/>
<path d="M297.51 16.858C297.457 16.833 297.413 16.7877 297.392 16.7281L295.884 12.4964C295.841 12.3774 295.903 12.2465 296.023 12.204C296.142 12.1616 296.272 12.2237 296.315 12.3428L297.823 16.5745C297.866 16.6935 297.803 16.8244 297.684 16.8669C297.625 16.8881 297.562 16.8831 297.51 16.858Z" fill="#2CBC67"/>
<path fill-rule="evenodd" clip-rule="evenodd" d="M340 32.953V164H26.9418C20.4978 152.241 17 139.626 17 126.5C17 62.7111 99.6035 11 201.5 11C269.852 12.5189 312.898 20.341 340 32.953Z" fill="#2CBC67"/>
<path fill-rule="evenodd" clip-rule="evenodd" d="M340 63.7571V163.999H147.17C147.381 152.933 148.898 141.582 151.843 130.203C168.877 64.3686 227.23 22.5248 282.178 36.7422C298.261 40.9035 319.993 50.704 340 63.7571Z" fill="white"/>
<path d="M204.478 42.3823C205.023 43.6322 206.213 46.9359 206.612 50.1514C207.011 53.3669 206.566 52.9209 206.294 52.296" stroke="white" stroke-linecap="round" stroke-linejoin="round"/>
<path d="M201.4 45.4009C202.275 46.4461 204.349 49.2794 205.64 52.2514C206.931 55.2234 206.378 54.9212 205.94 54.3986" stroke="white" stroke-linecap="round" stroke-linejoin="round"/>
<path d="M128.74 56.3823C128.195 57.6322 127.006 60.9359 126.607 64.1514C126.207 67.3669 126.653 66.9209 126.925 66.296" stroke="white" stroke-linecap="round" stroke-linejoin="round"/>
<path d="M131.819 59.4009C130.943 60.4461 128.869 63.2794 127.578 66.2514C126.288 69.2234 126.841 68.9212 127.278 68.3986" stroke="white" stroke-linecap="round" stroke-linejoin="round"/>
<path d="M58.2491 50.9683L57.3643 51.1819L55.9912 50.9683L54.6182 50.053L53.5197 48.5273L53.2451 46.8492L53.6723 45.4151L54.6182 44.6218H55.4115L55.503 43.7064L56.1438 41.6926L57.1812 39.9534L58.2491 38.8244L59.7137 37.848L61.3614 37.2378H62.3988L63.4362 37.6955L64.3211 38.5803L65.1144 40.0449L65.6941 42.1808V44.2251V45.4151L65.3585 46.9712L64.7177 48.2222L64.5042 48.4358H64.9618H66.1518L66.6705 49.0155L66.7926 49.8699V50.9683L66.4569 51.9752L65.9077 52.7686L64.9618 53.2262L64.3821 53.3788L63.3447 53.0432L62.5819 52.677L62.2768 51.5481L62.5819 49.7059L61.7886 50.053H60.324L59.4391 49.8699L58.8289 50.5412L58.2491 50.9683Z" fill="white"/>
<path d="M64.3201 53.5946C63.9011 53.5946 63.4876 53.4913 63.1287 53.2879C62.5811 52.9776 62.2191 52.4687 62.1094 51.8548C61.9615 51.029 62.1317 50.2528 62.6015 49.6101C62.6761 49.508 62.8192 49.4859 62.9213 49.5604C63.0233 49.635 63.0456 49.7782 62.971 49.8802C62.5711 50.4272 62.4328 51.0644 62.5599 51.7742C62.6453 52.2517 62.9274 52.6478 63.3543 52.8898C63.8569 53.1746 64.4947 53.2165 65.0606 53.0017C65.7166 52.7525 66.258 52.033 66.5085 51.077C66.7412 50.1892 66.664 49.3126 66.3165 48.8958C66.0484 48.574 65.2976 48.5272 64.5311 48.7843C64.4113 48.8245 64.2816 48.76 64.2414 48.6402C64.2011 48.5204 64.2657 48.3906 64.3855 48.3504C65.3543 48.0254 66.2715 48.1268 66.6681 48.6028C67.1128 49.136 67.2239 50.1528 66.9513 51.1931C66.6633 52.2918 66.0172 53.1279 65.223 53.4296C64.9319 53.54 64.6246 53.5946 64.3201 53.5946V53.5946Z" fill="white"/>
<path d="M60.5369 54.9606C60.4784 54.9606 60.4198 54.9382 60.3751 54.8936C60.2858 54.8042 60.2858 54.6593 60.3751 54.5699L63.4058 51.5392C63.4952 51.4498 63.6401 51.4498 63.7295 51.5392C63.8189 51.6286 63.8189 51.7734 63.7295 51.8628L60.6988 54.8936C60.6541 54.9382 60.5955 54.9606 60.5369 54.9606Z" fill="white"/>
<path d="M61.0406 50.2935C60.4774 50.2936 59.8979 50.2038 59.3196 50.0196C59.1992 49.9812 59.1327 49.8525 59.171 49.7321C59.2094 49.6116 59.3383 49.5452 59.4585 49.5835C61.3448 50.1845 63.1692 49.7261 64.3387 48.3573C65.6814 46.7861 65.9939 43.2432 65.0353 40.4595C64.4581 38.7836 63.5275 37.7363 62.4149 37.5103C61.3156 37.2871 59.9443 37.7722 58.6525 38.8411C56.8027 40.3717 55.6229 42.6653 55.647 44.6843C55.6486 44.8107 55.5473 44.9144 55.4209 44.9159C55.42 44.9159 55.4191 44.9159 55.4181 44.9159C55.293 44.9159 55.1909 44.8152 55.1894 44.6898C55.1637 42.5379 56.4085 40.1037 58.3607 38.4884C59.7596 37.331 61.2706 36.8111 62.5059 37.0617C63.7839 37.3212 64.8359 38.475 65.468 40.3105C65.9327 41.6598 66.1305 43.3057 66.0109 44.8259C65.8836 46.4446 65.4132 47.8043 64.6866 48.6547C63.7745 49.7222 62.4607 50.2935 61.0406 50.2935V50.2935Z" fill="white"/>
<path d="M57.2637 51.4816C56.6922 51.4816 56.1082 51.2975 55.5278 50.9342C54.0359 50.0006 53.1183 48.6195 53.0103 47.1448C52.9396 46.1804 53.2372 45.3153 53.8063 44.8306C54.1176 44.5655 54.5304 44.4312 55.0335 44.4312C56.3941 44.4312 58.2551 45.4612 59.182 46.7274C59.9212 47.7372 60.0526 49.0107 59.5249 50.0512C59.0705 50.9469 58.2252 51.4816 57.2637 51.4816ZM55.0335 44.8888C54.6422 44.8888 54.3291 44.9865 54.103 45.1791C53.6513 45.5637 53.4075 46.3041 53.4666 47.1114C53.5639 48.4389 54.4036 49.6909 55.7705 50.5462C56.277 50.8631 56.7794 51.0239 57.2636 51.0239C58.0492 51.0239 58.7419 50.5828 59.1166 49.8441C59.5659 48.9583 59.4495 47.8676 58.8126 46.9977C57.9758 45.8546 56.2452 44.8888 55.0335 44.8888Z" fill="white"/>
<path d="M62.5513 57.1564H62.2933C62.0826 57.1564 61.9119 56.9856 61.9119 56.775C61.9119 56.5643 62.0826 56.3936 62.2933 56.3936H62.5513C62.762 56.3936 62.9327 56.5643 62.9327 56.775C62.9327 56.9856 62.762 57.1564 62.5513 57.1564Z" fill="white"/>
<path d="M60.5369 57.1562C60.3263 57.1562 60.1555 56.9855 60.1555 56.7748V46.524C60.1555 46.3133 60.3263 46.1426 60.5369 46.1426C60.7476 46.1426 60.9183 46.3133 60.9183 46.524V56.7748C60.9183 56.9855 60.7475 57.1562 60.5369 57.1562Z" fill="white"/>
<path d="M60.5368 53.19C60.4783 53.19 60.4197 53.1677 60.375 53.123L57.1984 49.9463C57.109 49.8569 57.109 49.7121 57.1984 49.6227C57.2878 49.5333 57.4326 49.5333 57.522 49.6227L60.6987 52.7993C60.788 52.8887 60.788 53.0336 60.6987 53.123C60.6539 53.1677 60.5953 53.19 60.5368 53.19Z" fill="white"/>
<path d="M234.433 34.6404L235.341 34.7136L236.664 34.289L237.877 33.171L238.725 31.4931L238.735 29.7926L238.09 28.4425L237.032 27.806L236.249 27.9295L236.016 27.0395L235.069 25.15L233.774 23.5934L232.543 22.6445L230.944 21.9079L229.222 21.5615L228.197 21.723L227.244 22.3366L226.507 23.3484L225.952 24.9186L225.711 27.1186L226.029 29.138L226.215 30.3135L226.788 31.7985L227.616 32.9345L227.86 33.1122L227.408 33.1835L226.233 33.3687L225.811 34.0221L225.823 34.885L225.994 35.9701L226.482 36.9125L227.148 37.6106L228.154 37.9155L228.75 37.976L229.723 37.483L230.419 37.0026L230.545 35.8399L229.957 34.0677L230.794 34.287L232.241 34.0591L233.087 33.7405L233.794 34.3086L234.433 34.6404Z" fill="white"/>
<path d="M228.845 38.1799C229.259 38.1147 229.651 37.9483 229.974 37.6915C230.467 37.2997 230.745 36.7406 230.758 36.1171C230.776 35.2784 230.487 34.5381 229.923 33.9764C229.833 33.8872 229.688 33.8876 229.599 33.9771C229.51 34.0667 229.51 34.2115 229.6 34.3007C230.08 34.7788 230.316 35.3868 230.3 36.1077C230.29 36.5926 230.073 37.0279 229.689 37.3333C229.237 37.6929 228.614 37.8335 228.021 37.7094C227.334 37.5654 226.688 36.9389 226.291 36.0335C225.923 35.1927 225.863 34.3148 226.142 33.849C226.356 33.4894 227.091 33.3263 227.888 33.461C228.013 33.4821 228.131 33.3982 228.152 33.2735C228.173 33.1489 228.089 33.0308 227.964 33.0098C226.957 32.8394 226.066 33.0824 225.749 33.6143C225.392 34.2102 225.441 35.2319 225.872 36.2171C226.328 37.2576 227.096 37.983 227.927 38.1573C228.232 38.2211 228.544 38.2273 228.845 38.1799V38.1799Z" fill="white"/>
<path d="M232.795 38.94C232.852 38.9309 232.907 38.8997 232.944 38.8486C233.018 38.7464 232.996 38.6033 232.894 38.5289L229.428 36.0068C229.326 35.9325 229.183 35.955 229.108 36.0572C229.034 36.1594 229.057 36.3025 229.159 36.3769L232.624 38.899C232.676 38.9362 232.737 38.9491 232.795 38.94Z" fill="white"/>
<path d="M231.571 34.4085C232.127 34.3209 232.686 34.142 233.228 33.87C233.341 33.8134 233.387 33.6759 233.33 33.5629C233.274 33.4499 233.136 33.4043 233.023 33.4609C231.253 34.3481 229.38 34.1793 228.012 33.0092C226.441 31.6661 225.581 28.215 226.094 25.3161C226.404 23.5707 227.16 22.3913 228.224 21.9949C229.275 21.6034 230.705 21.8691 232.147 22.7239C234.213 23.9479 235.735 26.03 236.026 28.0282C236.044 28.1533 236.16 28.2399 236.285 28.2217C236.286 28.2216 236.287 28.2214 236.288 28.2213C236.411 28.2018 236.497 28.0865 236.479 27.9623C236.169 25.8326 234.561 23.6219 232.381 22.3302C230.819 21.4045 229.245 21.1261 228.064 21.566C226.842 22.0212 225.982 23.3247 225.644 25.2362C225.395 26.6414 225.455 28.298 225.81 29.7811C226.188 31.3602 226.864 32.6302 227.714 33.357C228.781 34.2696 230.168 34.6294 231.571 34.4085V34.4085Z" fill="white"/>
<path d="M235.486 34.9939C236.051 34.9049 236.599 34.6321 237.116 34.1829C238.444 33.0286 239.136 31.5214 239.013 30.0479C238.933 29.0843 238.504 28.276 237.867 27.8858C237.518 27.6724 237.089 27.6039 236.592 27.6822C235.248 27.894 233.57 29.2012 232.852 30.5961C232.278 31.7086 232.347 32.9872 233.03 33.9328C233.618 34.7468 234.537 35.1435 235.486 34.9939ZM236.663 28.1343C237.05 28.0734 237.374 28.1212 237.628 28.2762C238.134 28.5858 238.49 29.2793 238.557 30.0859C238.668 31.4124 238.033 32.7798 236.816 33.8374C236.365 34.2294 235.894 34.4663 235.415 34.5417C234.639 34.664 233.886 34.3361 233.401 33.6647C232.819 32.8596 232.765 31.7641 233.259 30.8057C233.907 29.5463 235.466 28.3229 236.663 28.1343Z" fill="white"/>
<path d="M231.146 41.4224L231.401 41.3822C231.609 41.3494 231.752 41.1542 231.719 40.9461C231.686 40.738 231.491 40.5959 231.283 40.6287L231.028 40.6689C230.82 40.7016 230.678 40.8969 230.71 41.105C230.743 41.3131 230.938 41.4552 231.146 41.4224Z" fill="white"/>
<path d="M233.136 41.1087C233.344 41.0759 233.486 40.8807 233.454 40.6726L231.858 30.5467C231.825 30.3386 231.63 30.1965 231.422 30.2293C231.214 30.2621 231.072 30.4573 231.105 30.6654L232.7 40.7913C232.733 40.9994 232.928 41.1415 233.136 41.1087Z" fill="white"/>
<path d="M232.519 37.1913C232.577 37.1822 232.631 37.1511 232.668 37.1L235.312 33.4676C235.386 33.3654 235.364 33.2223 235.262 33.1479C235.159 33.0736 235.016 33.0961 234.942 33.1983L232.298 36.8306C232.224 36.9328 232.247 37.0759 232.349 37.1503C232.4 37.1875 232.461 37.2005 232.519 37.1913Z" fill="white"/>
<path fill-rule="evenodd" clip-rule="evenodd" d="M143.02 164H0V32.8504C10.2894 29.6956 21.2001 28 32.5 28C94.632 28 145 79.2634 145 142.5C145 149.849 144.32 157.036 143.02 164Z" fill="#2CBC67"/>
<path fill-rule="evenodd" clip-rule="evenodd" d="M234.283 164H0V63.5274C19.0272 58.0101 39.5714 55 61 55C145.238 55 215.809 101.517 234.283 164Z" fill="white"/>
</g>
</svg>
